<?xml version="1.0" encoding="UTF-8" standalone="no"?>
<svg
   viewBox="0 0 612 792"
   id="svg2"
   height="792"
   width="612"
   version="1.1"
   sodipodi:docname="crepes11.svg"
   inkscape:version="1.2.2 (732a01da63, 2022-12-09)"
   xmlns:inkscape="http://www.inkscape.org/namespaces/inkscape"
   xmlns:sodipodi="http://sodipodi.sourceforge.net/DTD/sodipodi-0.dtd"
   xmlns="http://www.w3.org/2000/svg"
   xmlns:svg="http://www.w3.org/2000/svg"
   xmlns:rdf="http://www.w3.org/1999/02/22-rdf-syntax-ns#"
   xmlns:cc="http://creativecommons.org/ns#"
   xmlns:dc="http://purl.org/dc/elements/1.1/">
  <sodipodi:namedview
     id="namedview1817"
     pagecolor="#000000"
     bordercolor="#000000"
     borderopacity="0.25"
     inkscape:showpageshadow="2"
     inkscape:pageopacity="0.0"
     inkscape:pagecheckerboard="0"
     inkscape:deskcolor="#d1d1d1"
     showgrid="false"
     inkscape:zoom="0.63383838"
     inkscape:cx="326.58167"
     inkscape:cy="403.88845"
     inkscape:window-width="1366"
     inkscape:window-height="705"
     inkscape:window-x="-8"
     inkscape:window-y="-8"
     inkscape:window-maximized="1"
     inkscape:current-layer="svg2" />
  <metadata
     id="metadata42">
    <rdf:RDF>
      <cc:Work
         rdf:about="">
        <dc:format>image/svg+xml</dc:format>
        <dc:type
           rdf:resource="http://purl.org/dc/dcmitype/StillImage" />
      </cc:Work>
    </rdf:RDF>
  </metadata>
  <defs
     id="defs40" />
  <g
     id="g4"
     transform="matrix(1.2691,0,0,1.2691,-82.305009,-150.78554)">
    <path
       id="path6"
       style="fill:#1b1918;fill-rule:evenodd"
       d="m 310.2557,132.3863 c 125.6491,2.35 225.6412,106.1537 223.2912,231.8032 -2.35,125.6494 -106.1536,225.6415 -231.8027,223.2916 -125.6498,-2.35 -225.642,-106.1537 -223.292,-231.8032 2.35,-125.6494 106.1537,-225.6415 231.8035,-223.2916 z m -0.2172,11.6133 C 429.2749,146.2297 524.1637,244.7355 521.9337,363.9723 519.7036,483.209 421.1978,578.0978 301.9614,575.8678 182.7243,573.6377 87.8354,475.1319 90.0655,355.8951 92.2955,236.6584 190.8014,141.7696 310.0385,143.9996 Z m -0.1493,7.9841 c 114.8275,2.1476 206.2079,97.0114 204.0604,211.8392 C 511.802,478.6508 416.9382,570.0313 302.1107,567.8837 187.2825,565.7361 95.902,470.8723 98.0496,356.0445 100.1972,241.2166 195.0609,149.8361 309.8892,151.9837 Z M 143.29,340.8342 c 8.5461,0.1599 15.3469,7.22 15.1871,15.766 -0.1598,8.546 -7.2199,15.3469 -15.766,15.1871 -8.546,-0.1599 -15.3469,-7.22 -15.187,-15.766 0.1598,-8.546 7.2199,-15.3469 15.7659,-15.1871 z m 325.751,6.0925 c 8.5461,0.1598 15.3469,7.2199 15.1871,15.7659 -0.1598,8.5461 -7.2199,15.3469 -15.766,15.1871 -8.546,-0.1598 -15.3469,-7.2199 -15.187,-15.766 0.1598,-8.546 7.2199,-15.3469 15.7659,-15.187 z m -63.0161,75.11 c -2.8469,0.6056 -5.8542,0.9478 -8.9464,0.89 -19.5102,-0.3649 -35.0367,-16.4832 -34.6718,-35.9934 0.3258,-17.4192 13.2095,-31.6608 29.8526,-34.2539 -8.4411,-3.2366 -14.2516,-10.3748 -14.0987,-18.55 0.163,-8.7136 7.0504,-15.9969 16.5029,-18.534 -6.0539,-3.5106 -9.998,-10.0992 -9.8601,-17.4722 0.1236,-6.6113 3.5299,-12.4098 8.6717,-15.9433 -19.9653,-21.1258 -47.9865,-34.5156 -79.2286,-35.0999 -61.9886,-1.1594 -113.2056,48.5171 -114.3729,110.9322 -1.1673,62.4151 48.1563,113.9719 110.1449,115.1313 39.9973,0.7481 75.5041,-19.6725 96.0064,-51.1068 z m 3.3141,-0.6789 c -21.4967,34.7268 -49.1654,59.2954 -104.0806,58.2683 -54.9151,-1.027 -118.5994,-55.7951 -117.3642,-121.838 1.2351,-66.0428 55.7951,-118.5994 121.8379,-117.3642 35.6492,0.6667 65.2631,16.338 89.0223,42.1696 -4.3211,3.5438 -7.1088,8.8251 -7.22,14.7688 -0.1476,7.8948 4.4663,14.7989 11.2601,18.0927 0.1691,0.8299 -2.7384,1.6981 -5.0044,1.415 -5.8134,3.407 -11.1862,10.8536 -11.3176,17.8818 -0.1371,7.3324 3.3397,14.2069 10.434,17.7518 l -0.1365,0.0611 c 0.0741,0.0434 0.1911,0.076 0.4046,0.08 l -2.3196,1.5756 c -12.0385,5.3577 -20.5358,17.3174 -20.7984,31.36 -0.3617,19.3368 15.1464,33.4977 34.3635,35.6734 z m -40.1246,23.5755 c -79.0534,30.0641 -135.9888,-22.6094 -136.5187,-76.3314 -0.1574,-15.988 -17.1896,-14.1891 -14.2272,2.327 6.2338,34.7521 28.8028,63.1056 54.9187,75.06 24.5332,11.23 61.3535,17.9064 95.8272,-1.0556 z m -52.9026,-96.0578 13.8812,0.2253 c 0.137,10.8427 -1.1107,17.9126 -6.197,23.9548 l 12.5911,15.6704 -17.565,-0.2116 -3.233,-5.3975 c -6.6503,4.9173 -12.0316,7.1911 -21.1284,6.2102 -9.1575,-0.9875 -16.3597,-6.4853 -18.3386,-15.5173 -1.7465,-7.9685 0.4776,-19.3242 10.341,-23.7405 -3.0211,-4.4811 -6.0024,-9.7895 -5.899,-15.3172 0.2087,-11.1599 9.7787,-15.7985 19.9606,-15.6081 10.1996,0.1908 18.1181,4.4091 17.9114,15.4618 -0.1815,9.7047 -6.0558,13.2694 -12.667,16.3146 4.3533,2.862 8.2934,9.2323 9.0867,12.2579 0.8478,-1.9004 1.056,-9.3144 1.256,-14.3028 z m -17.199,-4.9561 c 2.1112,-1.9495 4.2677,-5.7426 4.3378,-9.4872 0.1285,-6.87 -8.7078,-6.8981 -8.8447,0.421 -0.0358,1.9162 1.6656,5.37 4.5069,9.0662 z m -5.3791,13.8835 c -4.3923,6.2474 -3.178,12.8675 0.1409,16.5777 3.3189,3.7102 10.6473,4.5488 15.2872,0.5994 -4.4309,-2.1555 -11.702,-9.6598 -15.4281,-17.1771 z m 96.0679,-109.4922 11.4222,-11.9807 11.477,11.1048 -3.5582,3.6113 c -3.7442,3.8 1.4496,7.0226 3.0939,5.3073 l 4.1589,-4.3392 c 0.6741,-0.7029 0.7333,-2.8609 -0.6789,-5.8488 -2.664,-5.6345 -8.2482,-11.8111 -3.971,-20.5342 3.2118,-6.5525 9.6507,-12.0713 17.3226,-11.6025 4.811,0.2967 9.4822,2.6289 13.9945,6.997 5.3221,5.1528 7.5121,9.7867 8.6656,16.9905 l -10.0173,9.9724 -10.4264,-11.168 c 0.8843,-0.9137 1.6981,-2.1013 2.7025,-2.9526 2.5212,-2.1373 -1.2694,-6.8076 -4.9629,-3.2803 -3.0073,2.872 -2.7949,3.9438 1.5979,11.8333 5.4066,9.7107 3.2229,15.5574 -3.0911,22.079 -9.0906,9.3914 -17.5577,12.0581 -27.8578,2.0858 -4.898,-4.7416 -8.6727,-11.2677 -9.8715,-18.2751 z m -58.5734,-35.5334 c -0.3027,2.5378 -0.292,4.1744 0.0162,4.9374 0.3082,0.7626 0.9985,1.3409 2.0548,1.7613 l -1.2034,9.4006 -18.7796,-2.5392 1.2038,-9.401 c 1.1464,-0.1226 1.9691,-0.5072 2.4705,-1.1913 0.497,-0.6777 0.8421,-2.2563 1.1813,-4.7333 l 3.9098,-28.5467 c 0.291,-2.1254 -0.3618,-4.9605 -1.9055,-5.0404 l 1.4673,-10.9308 21.2807,2.8684 c 6.5725,0.8855 11.108,3.0237 13.5821,6.4253 2.4676,3.3936 3.2844,8.6091 2.4475,15.6349 -1.0291,8.6358 -3.0612,14.3493 -6.1099,17.1528 -3.0477,2.7901 -8.0229,3.7254 -14.9242,2.7924 l -6.4201,-0.8682 z m 3.2097,-15.1114 3.5237,0.3859 c 2.7947,0.3057 2.7044,0.0448 3.7587,-0.9214 1.0544,-0.9663 1.7669,-2.9495 2.1208,-5.9236 0.3752,-3.1507 0.1515,-5.3718 -0.6728,-6.6617 -0.8243,-1.2899 -0.5638,-2.1378 -3.2303,-2.4312 l -3.6002,-0.3964 z m -63.7406,33.2027 -1.6895,-11.2699 c 2.9026,-1.0866 1.9785,-2.8677 1.7141,-5.722 l -2.6251,-28.2798 c -0.2648,-2.8539 -0.4081,-5.6219 -3.4484,-6.019 l -0.9179,-9.8884 39.1916,-3.3003 1.427,19.7124 -14.7163,0.9825 c -0.6735,-8.3242 -3.0225,-7.5602 -6.5383,-7.0885 l 1.0912,10.9783 10.7297,-0.8266 1.0517,11.9494 -10.2167,0.708 0.5836,11.8928 c 6.9081,-0.8003 6.0351,-0.5524 5.984,-9.4737 l 15.2824,-0.4772 1.1173,22.2001 z m -37.9232,-22.4074 c 3.8618,-1.5341 4.689,-4.5583 3.0645,-8.3306 -1.5777,-3.6646 -4.1154,-4.8997 -7.965,-3.3595 z m 9.4846,21.3699 c 0.339,0.7216 1.5094,0.5958 2.6135,0.379 l 4.4537,9.239 -18.0821,10.0575 -4.5431,-10.2081 c 0.9123,-0.7257 1.4201,-1.4984 1.5073,-2.3499 0.0864,-0.845 -0.2343,-2.4479 -1.3368,-4.6551 l -12.5728,-25.1652 c -1.1022,-2.2072 -1.7855,-3.641 -2.4488,-4.1352 -0.6689,-0.4983 -1.5604,-0.617 -2.6874,-0.3894 l -3.8665,-8.9772 20.3128,-9.4942 c 5.9442,-2.778 10.83,-3.5213 14.6296,-2.2308 3.7992,1.2909 6.903,4.7162 9.3,10.2812 1.4802,3.437 2.0148,6.5529 1.6259,9.3671 -0.3885,2.8138 -1.702,5.193 -3.9361,7.1495 2.731,-0.5436 5.6251,-1.5836 7.1262,-0.7708 2.8827,1.5611 4.0526,5.3693 5.2823,8.2254 1.1417,2.6509 1.9422,6.372 5.3876,5.6589 l 3.6874,9.9768 -16.1497,6.6746 -9.951,-19.9463 c -1.294,-2.5941 -2.9494,-0.5688 -5.3977,0.5755 z m -66.1824,15.5142 c -2.7472,-3.0585 -4.6027,-5.3728 -5.5407,-6.933 -8.7655,-14.3182 3.3358,-26.9771 22.6976,-30.0981 l 10.7488,11.9679 -11.4992,10.0228 -3.6128,-3.7287 c -3.4168,-3.5268 -8.4519,-0.1078 -3.6513,4.9296 l 17.9592,18.8444 c 3.699,3.881 8.1301,1.0139 3.8694,-3.9728 l -4.4647,-5.2251 11.4487,-9.6817 13.0437,14.5231 c -2.8089,12.5258 -18.8654,28.832 -31.5389,19.9866 -1.6557,-1.156 -3.9933,-3.4145 -7.0136,-6.7771 z m 172.8327,-12.7522 4.511,-10.4652 c 3.0388,0.6085 3.1935,-1.3921 4.475,-3.9561 l 12.6904,-25.4086 c 1.2808,-2.564 2.6195,-4.9909 0.2466,-6.9323 l 4.4372,-8.8844 35.0342,17.8741 -9.1883,17.4985 -13.0195,-6.9299 c 3.8196,-7.4265 1.4211,-8.0168 -1.8143,-9.4712 l -4.8653,9.9015 9.5508,4.959 -5.4113,10.7057 -9.0523,-4.789 -5.779,10.4107 c 6.2904,2.9652 5.4181,2.7151 10.0818,-4.8904 l 13.234,7.6579 -10.7638,19.4481 z m 94.7851,256.3241 -12.8816,-10.3956 10.1211,-12.3532 3.8922,3.2483 c 4.0956,3.4182 6.8791,-2.0235 5.034,-3.5207 l -4.6672,-3.7872 c -0.7558,-0.6139 -2.9113,-0.495 -5.7727,1.1589 -5.3958,3.119 -11.0911,9.1936 -20.1371,5.6499 -6.7948,-2.6608 -12.8256,-8.6228 -12.991,-16.3073 -0.101,-4.8188 1.8385,-9.6664 5.8196,-14.5235 4.6968,-5.7288 9.1342,-8.2932 16.2184,-10.0367 l 10.7641,9.1612 -10.2703,11.3115 c -0.9836,-0.806 -2.2342,-1.5192 -3.1655,-2.4499 -2.338,-2.3363 -6.6796,1.8264 -2.86,5.2163 3.1101,2.7605 4.1606,2.4605 11.6614,-2.5679 9.2319,-6.1887 15.2388,-4.4943 22.2588,1.2607 10.1086,8.2853 13.4641,16.504 4.375,27.5908 -4.3219,5.2722 -10.5146,9.5722 -17.3992,11.3444 z m -38.2877,39.2706 -7.0232,-8.9743 c 1.9907,-2.3759 0.3089,-3.4704 -1.3277,-5.8237 l -16.2178,-23.3157 c -1.6369,-2.3529 -3.125,-4.6911 -5.9666,-3.5386 l -5.6706,-8.1531 32.4783,-22.1816 10.9539,16.4505 -12.3217,8.1058 c -4.6876,-6.9117 -6.3552,-5.0896 -9.182,-2.9469 l 6.3586,9.0158 8.9295,-6.0058 6.8028,9.8798 -8.5418,5.65 6.3676,10.0616 c 5.6171,-4.1001 4.9792,-3.4544 0.5394,-11.192 l 13.0635,-7.945 11.9103,18.7676 z m -260.1705,-59.0807 31.2602,-35.8552 c 1.1392,-1.3071 1.9169,-2.4215 2.2816,-3.3778 0.3688,-0.9671 0.3946,-1.9236 0.0748,-2.8613 l 8.9174,-7.5005 12.8022,17.3653 -8.5915,7.2837 c -1.07,-1.4063 -3.0117,-0.3553 -4.5751,1.3546 l -10.9228,11.9455 26.0333,-15.6777 6.4125,7.8151 -18.5096,23.7047 11.8035,-8.7394 c 1.6279,-1.2053 2.9702,-2.7659 2.5336,-4.1528 l 7.7825,-7.3205 13.8071,12.1554 -7.7246,7.3418 c -2.5608,-1.3408 -3.5545,-0.0563 -5.761,1.3814 l -40.5423,26.4148 -11.1839,-11.8526 18.2932,-21.5185 -24.6853,14.7803 z m 44.7812,46.0006 4.6603,-8.3906 c 2.7264,0.5957 4.749,-2.5969 6.2794,-4.4617 l 28.3972,-34.5974 19.8834,11.1795 -16.5342,43.3546 c -0.6699,1.7578 -0.8605,3.1391 -0.8058,4.012 0.0554,0.8846 0.4003,1.6848 1.0402,2.3802 l -5.2177,8.9285 -18.2122,-10.3292 5.5438,-8.812 c 1.5401,0.6764 2.6953,-0.3582 4.1971,-4.9078 l -6.5476,-3.666 c -3.061,3.0324 -3.3104,5.0851 -1.3467,6.3366 l -5.6568,9.0292 z m 29.5359,-15.2904 4.8509,2.7304 5.4763,-15.5521 z m 80.055,53.1548 0.3634,-11.3025 c 1.2658,-0.566 1.2298,-1.4089 1.1726,-4.1522 L 300.5344,508.47 c -0.057,-2.74 -0.1515,-5.7362 -3.3501,-6.3958 l -0.3881,-10.1547 38.408,-1.6735 0.6971,21.4025 -13.7822,1.1654 c 0.101,-5.7134 -0.0368,-8.1161 -5.2436,-7.8251 l 0.0151,11.2727 11.0638,-0.4012 0.499,12.1982 -9.4292,0.3061 -0.4777,9.3433 c -0.1208,2.3711 0.0337,4.1946 3.137,4.396 l -0.3728,11.8051 z m 94.0908,-19.2073 -35.1947,13.0635 -4.1797,-10.6903 c 0.9609,-0.6158 1.1838,-0.595 1.3337,-1.4276 0.1486,-0.8264 -0.1015,-2.4331 -0.9813,-4.7571 l -10.1358,-26.752 c -1.2348,-3.2604 -2.1197,-4.3096 -3.7211,-4.3808 l -3.1635,-9.8899 18.1742,-6.1775 3.7338,9.9009 c -1.3823,0.7705 -2.2771,1.372 -0.9086,4.8419 l 11.9331,30.2597 c 4.5448,-1.707 4.9695,-2.722 3.6854,-6.2497 l -2.4058,-6.6087 12.6361,-4.6559 z m -149.9706,9.5679 3.2438,-10.8331 c 1.3684,-0.2231 1.5492,-1.0471 2.1959,-3.7139 l 6.8435,-28.2362 c 0.6463,-2.6632 1.3217,-5.5838 -1.6017,-7.04 l 2.2232,-9.9158 37.5575,8.2105 -4.8029,20.8684 -13.6214,-2.4004 c 1.5597,-5.4975 2.0414,-7.855 -3.0668,-8.9064 l -2.87,10.9012 10.7981,2.4436 -2.6386,11.9194 -9.1939,-2.1167 -2.8524,8.9097 c -0.7235,2.2618 -1.0409,4.0638 1.9075,5.0528 l -3.3813,11.3166 z" />
    <g
       id="g8">
      <path
         id="path10"
         style="fill:#1b1918;fill-rule:evenodd"
         d="m 400.6733,658.9518 0.007,-7.7413 c 0.8878,-0.3523 1.1125,-0.9334 1.1537,-2.8233 l -0.0339,-21.367 c 0.0415,-1.8874 -0.0977,-3.9522 -1.875,-4.2974 l -0.0166,-7.0485 26.4838,0.0247 -0.0191,13.7412 -9.602,-0.006 c -0.0847,-3.8757 0.0793,-4.1473 -3.3117,-4.1003 l -0.0115,6.4494 7.2122,0.017 -0.007,8.4457 -7.2007,0.003 0.0301,8.1681 c 0.006,1.6343 0.0291,2.4591 1.52,2.7629 l -0.006,7.7835 -14.3241,-0.0124 z" />
      <path
         id="path12"
         style="fill:#1b1918;fill-rule:evenodd"
         d="m 484.531,658.957 -26.716,-0.003 -0.0296,-7.8133 c 1.4978,-0.2792 1.536,-1.0003 1.5218,-2.7494 l 0.002,-21.8474 c -0.0204,-2.4781 -0.4404,-2.848 -1.4907,-3.2899 l -0.008,-7.5501 14.0792,0.002 0.0348,7.6112 c -1.1114,0.1733 -1.8028,0.2478 -1.7981,2.8988 l 0.0395,23.085 c 3.4198,-0.0291 4.4484,-0.5601 4.4613,-3.2286 l 0.0234,-4.9705 9.874,-0.006 0.007,17.8613 z" />
      <path
         id="path14"
         style="fill:#1b1918;fill-rule:evenodd"
         d="m 368.0943,658.9299 -0.0221,-7.7358 c 1.8733,-0.5537 2.0898,-3.1139 2.4,-4.7738 l 4.8345,-30.7207 15.9818,-0.0146 5.3799,32.2623 c 0.1999,1.4348 0.5844,2.7125 2.1174,3.2279 l -0.009,7.8506 -14.6547,-0.1963 -0.0118,-7.6541 c 1.1728,-0.1044 1.9744,-0.7491 1.3618,-4.0463 l -5.2759,0.0289 c -0.8554,2.8922 -0.3711,3.9157 1.2555,4.0214 l 0.0154,7.7476 -13.3727,0.003 z m 12.9818,-20.2567 3.8781,0.003 -1.8838,-11.3685 -1.9943,11.3654 z" />
      <path
         id="path16"
         style="fill:#1b1918;fill-rule:evenodd"
         d="m 336.4153,658.9731 -5.2517,-31.7548 c -0.1889,-1.1417 -0.4356,-2.016 -0.7806,-2.611 -0.3491,-0.6017 -0.8436,-1.0236 -1.4808,-1.2603 l -0.0344,-7.6573 14.8897,-0.0228 0.01,7.6604 c -1.2162,-0.0525 -1.5167,2.0101 -1.3017,3.541 l 1.5014,10.6953 3.1902,-20.028 6.9638,0.0533 4.376,19.6026 0.5835,-9.7773 c 0.0804,-1.3484 -0.1531,-3.6648 -1.0795,-4.0334 l -0.003,-7.6363 12.4787,2e-4 -0.004,7.4413 c -1.0971,0.3014 -1.511,1.0533 -1.7235,2.7967 l -4.018,32.9824 -11.0252,0.0167 -3.1404,-18.8471 -3.3527,18.7741 -10.7977,0.0643 z" />
      <path
         id="path18"
         style="fill:#1b1918;fill-rule:evenodd"
         d="m 68.6341,631.2703 c 0.0171,-2.8319 0.2885,-4.8516 0.3884,-6.1015 0.7872,-9.864 16.8095,-12.5405 25.5168,-5.9134 l -0.0665,12.1702 -10.5061,-0.2195 -0.1137,-3.5748 c -0.1075,-3.381 -4.2583,-3.9714 -4.1456,0.8208 l 0.4224,17.9279 c 0.0871,3.6924 3.6744,4.2842 3.8133,-0.2321 l 0.1454,-4.7323 10.3223,0.37 -0.0809,13.4473 c -7.2361,5.0833 -22.9769,5.9549 -25.3382,-4.4267 -0.3084,-1.3565 -0.4534,-3.5909 -0.4348,-6.7045 z" />
      <path
         id="path20"
         style="fill:#1b1918;fill-rule:evenodd"
         d="m 111.9504,649.851 c -0.001,0.5638 0.7853,0.8368 1.5568,1.0315 l -0.0132,8.1643 -14.529,0.0603 0.1773,-7.8999 c 1.6432,-0.4351 1.7844,-2.3401 1.7413,-4.2989 l -0.005,-20.0189 c -0.0415,-1.8861 0.3706,-3.8911 -1.8709,-4.4444 l 0.2382,-6.9084 15.8569,0.0624 c 4.6402,0.0185 7.9891,1.0186 10.0292,2.9912 2.0397,1.9727 2.9902,5.1004 2.8426,9.3831 -0.0913,2.6448 -0.6903,4.7989 -1.7888,6.4811 -1.0981,1.6821 -2.6566,2.8069 -4.676,3.3835 1.9106,0.4771 4.0754,0.6859 4.7898,1.6589 1.3721,1.8689 0.9703,4.6575 0.8942,6.8553 -0.0704,2.04 -0.6821,4.6613 1.7365,5.2457 l -0.0352,7.4937 -13.088,-0.1408 -0.215,-16.2281 c -0.0268,-2.05 -1.7143,-1.2544 -3.6256,-1.2619 l -0.0157,8.3903 z m 0.0945,-16.5301 c 2.9328,0.185 4.4582,-0.7439 4.4753,-4.402 0.0154,-3.284 -1.571,-4.2922 -4.4979,-4.4697 z" />
      <path
         id="path22"
         style="fill:#1b1918;fill-rule:evenodd"
         d="m 132.4797,659.0137 -0.0537,-7.8067 c 2.0951,-0.5968 2.3186,-2.1633 2.2951,-4.178 l -0.0848,-19.9109 c -0.008,-2.0145 -0.0215,-3.9619 -2.129,-4.4124 l -0.0285,-7.0159 27.6447,-0.0552 -0.1719,13.728 -10.3114,0.0178 c -2e-4,-5.8701 -1.5805,-5.4679 -4.0704,-5.3366 l 0.0338,7.7531 7.5641,0.029 0.0596,8.4313 -7.7425,-0.0283 0.0614,8.3106 c 3.9053,-0.1694 4.9129,0.1188 4.8382,-6.1345 l 10.8426,0.0954 -0.0419,16.5286 z" />
      <path
         id="path24"
         style="fill:#1b1918;fill-rule:evenodd"
         d="m 176.453,648.3452 c 0.0131,1.9196 -0.1307,2.2643 2.08,2.8298 l -0.0208,7.7731 -13.1493,0.0301 -0.007,-7.8853 c 2.1232,-0.5079 1.9145,-1.1792 1.9288,-3.0553 l 0.01,-21.0855 c 6e-4,-1.5326 -0.8047,-3.4816 -1.9057,-3.397 l 0.04,-7.8791 15.3405,0.0863 c 4.7378,0.0265 8.1469,1.1267 10.2109,3.3106 2.0588,2.1788 3.1144,5.7995 3.164,10.854 0.0605,6.2129 -0.8568,10.447 -2.7606,12.7122 -1.9043,2.2556 -5.3438,3.3732 -10.319,3.3433 l -4.6282,-0.0281 0.0161,2.3909 z m 0.8923,-11.7527 2.5319,-0.0488 c 3.2114,-0.0625 3.5681,-2.5512 3.5399,-5.3876 -0.0231,-2.3433 -0.5222,-6.1436 -3.597,-6.0857 l -2.5871,0.0484 z" />
      <path
         id="path26"
         style="fill:#1b1918;fill-rule:evenodd"
         d="m 196.5639,659.0137 -0.0537,-7.8067 c 2.0951,-0.5968 2.3186,-2.1633 2.2951,-4.178 l -0.0848,-19.9109 c -0.008,-2.0145 -0.0215,-3.9619 -2.129,-4.4124 l -0.0285,-7.0159 27.6447,-0.0552 -0.1718,13.728 -10.3115,0.0178 c -2e-4,-5.8701 -1.5805,-5.4679 -4.0704,-5.3366 l 0.0338,7.7531 7.5641,0.029 0.0596,8.4313 -7.7425,-0.0283 0.0615,8.3106 c 3.9053,-0.1694 4.9129,0.1188 4.8382,-6.1345 l 10.8425,0.0954 -0.0418,16.5286 z" />
      <path
         id="path28"
         style="fill:#1b1918;fill-rule:evenodd"
         d="m 516.7615,655.1457 -0.2656,-11.5757 11.1694,-0.1738 0.023,3.5461 c 0.0242,3.7315 4.1881,2.7603 4.1544,1.0986 l -0.0853,-4.2034 c -0.0137,-0.6811 -1.0507,-1.7787 -3.2264,-2.56 -4.1032,-1.473 -9.92,-1.7714 -12.1132,-8.2035 -1.6479,-4.8311 -1.1874,-10.7451 2.8424,-14.3042 2.5284,-2.2305 5.9934,-3.3843 10.3858,-3.4516 5.1812,-0.079 8.5552,1.1328 12.6862,4.1292 l -0.0312,9.8872 -10.6807,-0.3766 c -0.0137,-0.8893 -0.1976,-1.8794 -0.1211,-2.7972 0.192,-2.304 -3.9925,-2.7429 -4.0779,0.8286 -0.0696,2.9079 0.5651,3.3335 6.6386,5.0686 7.4753,2.1357 9.2834,6.1093 9.3803,12.4581 0.1405,9.1416 -2.7335,14.6459 -12.7607,14.7989 -4.768,0.073 -9.8617,-1.2925 -13.918,-4.1693 z" />
      <path
         id="path30"
         style="fill:#1b1918;fill-rule:evenodd"
         d="m 486.9226,659.0137 -0.0538,-7.8067 c 2.0952,-0.5968 2.3186,-2.1633 2.2951,-4.178 l -0.0847,-19.9109 c -0.009,-2.0145 -0.0215,-3.9619 -2.129,-4.4124 l -0.0286,-7.0159 27.6447,-0.0552 -0.1718,13.728 -10.3114,0.0178 c -2e-4,-5.8701 -1.5805,-5.4679 -4.0704,-5.3366 l 0.0337,7.7531 7.5641,0.029 0.0597,8.4313 -7.7426,-0.0283 0.0615,8.3106 c 3.9053,-0.1694 4.9129,0.1188 4.8382,-6.1345 l 10.8426,0.0954 -0.0419,16.5286 z" />
      <path
         id="path32"
         style="fill:#1b1918;fill-rule:evenodd"
         d="m 429.1437,658.9518 0.007,-7.7413 c 0.8878,-0.3523 1.1125,-0.9334 1.1537,-2.8233 l -0.0339,-21.367 c 0.0414,-1.8874 -0.0977,-3.9522 -1.875,-4.2974 l -0.0167,-7.0485 26.4839,0.0247 -0.0191,13.7412 -9.6021,-0.006 c -0.0847,-3.8757 0.0794,-4.1473 -3.3117,-4.1003 l -0.0114,6.4494 7.2121,0.017 -0.007,8.4457 -7.2006,0.003 0.03,8.1681 c 0.006,1.6343 0.0291,2.4591 1.52,2.7629 l -0.006,7.7835 -14.3241,-0.0124 z" />
      <path
         id="path34"
         style="fill:#1b1918;fill-rule:evenodd"
         d="m 228.3057,655.1457 -0.2656,-11.5757 11.1694,-0.1738 0.023,3.5461 c 0.0242,3.7315 4.188,2.7603 4.1544,1.0986 l -0.0853,-4.2034 c -0.0137,-0.6811 -1.0508,-1.7787 -3.2264,-2.56 -4.1032,-1.473 -9.92,-1.7714 -12.1132,-8.2035 -1.6479,-4.8311 -1.1874,-10.7451 2.8424,-14.3042 2.5283,-2.2305 5.9934,-3.3843 10.3858,-3.4516 5.1811,-0.079 8.5552,1.1328 12.6861,4.1292 l -0.0312,9.8872 -10.6806,-0.3766 c -0.0137,-0.8893 -0.1977,-1.8794 -0.1211,-2.7972 0.192,-2.304 -3.9925,-2.7429 -4.078,0.8286 -0.0695,2.9079 0.5652,3.3335 6.6386,5.0686 7.4753,2.1357 9.2835,6.1093 9.3804,12.4581 0.1405,9.1416 -2.7336,14.6459 -12.7607,14.7989 -4.768,0.073 -9.8617,-1.2925 -13.918,-4.1693 z" />
      <path
         id="path36"
         style="fill:#1b1918;fill-rule:evenodd"
         d="m 300.597,634.0222 8.7333,0.1417 c 0.0863,6.8217 -0.6988,11.2698 -3.8988,15.0712 l 7.9217,9.859 -11.051,-0.1331 -2.0341,-3.3958 c -4.184,3.0937 -7.5697,4.5242 -13.2929,3.9071 -5.7615,-0.6213 -10.2927,-4.0802 -11.5377,-9.7627 -1.0989,-5.0134 0.3004,-12.1578 6.506,-14.9363 -1.9007,-2.8193 -3.7764,-6.1591 -3.7114,-9.6368 0.1314,-7.0213 6.1523,-9.9397 12.5582,-9.8199 6.4171,0.12 11.399,2.774 11.269,9.7278 -0.1142,6.1057 -3.81,8.3484 -7.9694,10.2644 2.7388,1.8006 5.2178,5.8084 5.7169,7.712 0.5334,-1.1956 0.6643,-5.8602 0.7902,-8.9986 z m -10.8208,-3.1181 c 1.3283,-1.2265 2.6851,-3.613 2.7291,-5.9689 0.0809,-4.3223 -5.4785,-4.34 -5.5646,0.2648 -0.0225,1.2056 1.0479,3.3786 2.8355,5.7041 z m -3.3843,8.7348 c -2.7634,3.9305 -1.9994,8.0955 0.0887,10.4298 2.0881,2.3343 6.6988,2.8619 9.618,0.3771 -2.7878,-1.3561 -7.3623,-6.0774 -9.7067,-10.8069 z" />
    </g>
  </g>
</svg>
