<svg xmlns="http://www.w3.org/2000/svg" viewBox="0 0 500 500"><ellipse cx="250" cy="367.87" rx="204.58" ry="118.11" style="fill:#fafafa"/><path d="M454 336.82s-4.37-21.7 3.22-44.18c4.24-12.56 12.28-18.51 17.27-19.17 5.6-.74 11.4 4.45 6.6 12.78-4.55 7.91-13.63 11.28-18.53 31.77a88.24 88.24 0 0 0-2.56 19.24 1.78 1.78 0 0 1-2.68 1.52z" style="fill:#745cff"/><path d="M454 336.82s-4.37-21.7 3.22-44.18c4.24-12.56 12.28-18.51 17.27-19.17 5.6-.74 11.4 4.45 6.6 12.78-4.55 7.91-13.63 11.28-18.53 31.77a88.24 88.24 0 0 0-2.56 19.24 1.78 1.78 0 0 1-2.68 1.52z" style="fill:#fff;opacity:.5"/><path d="M457.32 332a.34.34 0 0 0 .3-.39c-3-24.86 8.56-46 17.71-53a.36.36 0 0 0 .06-.5.35.35 0 0 0-.49-.06c-9.28 7.14-21 28.51-18 53.65a.34.34 0 0 0 .42.3z" style="fill:#fff"/><path d="M457.82 339.07a1.76 1.76 0 0 0 2.63-1.11c1.19-5 4.24-10.16 10-15.65 6.67-6.38 15.89-12.27 14.41-17.79s-8.84-4.25-14-1.11-16.57 14.89-13.86 35.16z" style="fill:#745cff"/><path d="M457.82 339.07a1.76 1.76 0 0 0 2.63-1.11c1.19-5 4.24-10.16 10-15.65 6.67-6.38 15.89-12.27 14.41-17.79s-8.84-4.25-14-1.11-16.57 14.89-13.86 35.16z" style="fill:#fff;opacity:.65"/><path d="M458.3 339.47a.33.33 0 0 0 .3-.32c-.62-15.22 11.95-32.25 21-35.45a.34.34 0 0 0 .2-.45.36.36 0 0 0-.45-.2c-9 2.39-22.78 20.78-21.46 36.05a.37.37 0 0 0 .33.37z" style="fill:#fff"/><path d="M46.94 382.63s4.22-21-3.11-42.65C39.74 327.85 32 322.1 27.16 321.47c-5.41-.71-11 4.3-6.37 12.34 4.4 7.63 13.16 10.89 17.89 30.67a85 85 0 0 1 2.47 18.58 1.72 1.72 0 0 0 2.59 1.46z" style="fill:#745cff"/><path d="M46.94 382.63s4.22-21-3.11-42.65C39.74 327.85 32 322.1 27.16 321.47c-5.41-.71-11 4.3-6.37 12.34 4.4 7.63 13.16 10.89 17.89 30.67a85 85 0 0 1 2.47 18.58 1.72 1.72 0 0 0 2.59 1.46z" style="fill:#fff;opacity:.5"/><path d="M43.69 377.94a.34.34 0 0 1-.29-.38c2.87-24-8.27-44.37-17.1-51.17a.34.34 0 0 1 .42-.54c9 6.9 20.26 27.53 17.35 51.79a.34.34 0 0 1-.38.3z" style="fill:#fff"/><path d="M43.21 384.8a1.7 1.7 0 0 1-2.54-1.07c-1.15-4.82-4.1-9.81-9.63-15.11-6.43-6.16-15.34-11.85-13.91-17.18s8.54-4.1 13.49-1.07 16 14.38 13.39 33.95z" style="fill:#745cff"/><path d="M43.21 384.8a1.7 1.7 0 0 1-2.54-1.07c-1.15-4.82-4.1-9.81-9.63-15.11-6.43-6.16-15.34-11.85-13.91-17.18s8.54-4.1 13.49-1.07 16 14.38 13.39 33.95z" style="fill:#fff;opacity:.65"/><path d="M42.75 385.19a.33.33 0 0 1-.3-.32c.6-14.69-11.53-31.13-20.28-34.21a.34.34 0 0 1-.19-.44.34.34 0 0 1 .43-.2c8.69 2.31 22 20.07 20.72 34.81a.36.36 0 0 1-.32.36z" style="fill:#fff"/><g><ellipse cx="424.05" cy="361.29" rx="55.95" ry="32.3" style="fill:#e0e0e0"/><ellipse cx="80.23" cy="406.75" rx="58.32" ry="33.67" style="fill:#e0e0e0"/></g><g><path d="M171.17 43.53a3.48 3.48 0 0 0-1.52-3.26L165.73 38a3.45 3.45 0 0 0-3.57.32L56.38 99.41a11 11 0 0 0-5 8.65v61a3.49 3.49 0 0 0 1.49 3.24l4 2.29a3.5 3.5 0 0 0 3.53-.35l105.77-61.06a11 11 0 0 0 5-8.65z" style="fill:#745cff;opacity:.4"/><path d="M171.17 43.53v61a11 11 0 0 1-5 8.64L60.41 174.22c-2.45 1.42-4.49.55-4.91-1.89a4.9 4.9 0 0 0 .89-.4l105.77-61.07a11 11 0 0 0 5-8.64v-61a5.3 5.3 0 0 0-.08-1c2.31-.86 4.09.48 4.09 3.31z" style="fill:#745cff;opacity:.4"/><path d="M166.18 40.65 72.35 95.86l-6.81 3.92s-3.61 1.94-5.05 2.93a8 8 0 0 0-1.34 1.14 10.26 10.26 0 0 0-2.85 6.45v7.85l-.86 53.19-.86-53.19v-7.87a12 12 0 0 1 3.32-7.64 9.62 9.62 0 0 1 1.64-1.4c1.48-1 5.14-3 5.14-3l6.79-3.93z" style="fill:#fff"/><g style="opacity:.30000000000000004"><path style="fill:#fff" d="m162.54 105.89-98.71 56.99V109.9l98.71-56.99v-1.14l-98.93 57.12-.63.37v55.24l99.56-57.48v-1.13z"/><path style="fill:#fff" d="m162.54 87.85-98.93 57.11-.42 1.38 99.35-57.36v-1.13zM162.54 69.81l-98.93 57.11-.42 1.39 99.35-57.36v-1.14z"/><path style="fill:#fff" d="m162.54 106.17-.85 1.06V53.12l.85-1.06v54.11zM150.2 113.3l-.85 1.06V60.24l.85-1.06v54.12zM137.86 120.42l-.85 1.06V67.37l.85-1.06v54.11zM125.52 127.54l-.85 1.06V74.49l.85-1.06v54.11zM113.18 134.67l-.85 1.06V81.61l.85-1.06v54.12zM100.84 141.79l-.85 1.06V88.74l.85-1.06v54.11zM88.5 148.91l-.85 1.06V95.86l.85-1.06v54.11zM76.17 156.04l-.86 1.06v-54.12l.86-1.06v54.12z"/></g><path d="M63.38 155.92a.42.42 0 0 1-.4-.42.38.38 0 0 1 .41-.4c.3 0 .45-1 .53-1.67.12-.83.21-1.54.63-1.83a.46.46 0 0 1 .34-.07c.05-.14.1-.29.14-.44s.13-.47.21-.67a4.76 4.76 0 0 1 .37-.72 3 3 0 0 0 .42-1 14.76 14.76 0 0 0 .14-1.53 8.93 8.93 0 0 1 .44-2.88c.09-.17.31-.61.74-.53s.49.56.55 1a2.5 2.5 0 0 0 0 .28 2 2 0 0 1 .07.5v.21h.14a.42.42 0 0 1 .35.26 3.17 3.17 0 0 1 .13 1 2.53 2.53 0 0 0 .07.74.42.42 0 0 0 .07.13 9.48 9.48 0 0 0 0-1.08c0-1.08 0-2.41 1.12-2.75v-1a16.83 16.83 0 0 1 .25-3.54 1.23 1.23 0 0 1 .39-.7.38.38 0 0 0 .13-.24 1.43 1.43 0 0 0 0-.41 3 3 0 0 1 0-.6c0-.21 0-.39.06-.55a3.13 3.13 0 0 1 .58-1.72.41.41 0 0 1 .32-.18 1.47 1.47 0 0 0 0-.21.43.43 0 0 1 .2-.37.4.4 0 0 1 .42 0c.47.27.55 1 .64 1.91a5.58 5.58 0 0 0 .21 1.25 11.94 11.94 0 0 0 .32-1.85v-.14a.4.4 0 0 1 .38-.36.65.65 0 0 1 .48.15.85.85 0 0 1 .23.64v.08l.17.07a.44.44 0 0 1 .34.12 2.27 2.27 0 0 1 .23.31 3.39 3.39 0 0 0 .21.28 10.65 10.65 0 0 0 .05-1.78 12.48 12.48 0 0 1 .08-2 4.79 4.79 0 0 1 .6-1.7 7 7 0 0 0 .37-.82 11.39 11.39 0 0 0 .51-2.94 9.92 9.92 0 0 1 .95-4.08.42.42 0 0 1 .4-.22.38.38 0 0 1 .25.13c.25-.39.54-.65.89-.6.62.09.76.94 1 2.12a10.82 10.82 0 0 0 .28 1.36.44.44 0 0 1 .4-.16.43.43 0 0 1 .32.28A13.25 13.25 0 0 1 82 129v.24a.77.77 0 0 1 .55.19c0-.11.06-.25.11-.43a8 8 0 0 0 0-1.49c-.07-1.55-.08-2.59.42-3a.77.77 0 0 1 .31-.16 5.67 5.67 0 0 0 .2-.67c.16-.62.33-1.32 1-1.42.35 0 .59.14.7.56a.5.5 0 0 1 .21 0v-.09a8.11 8.11 0 0 0 .18-1.37 6.8 6.8 0 0 1 .46-2.26c.27-.58.62-.89 1-.85a1.17 1.17 0 0 1 .94.79 1 1 0 0 1 .53-.69h.08a1.16 1.16 0 0 1 .24-.45.66.66 0 0 1 .55-.2c.4.06.62.48.79.79v.1s0 .1.09.17 0-.16 0-.22c.08-.39.15-.72.41-.87a.61.61 0 0 1 .33-.06v-.09a1.21 1.21 0 0 1 .44-1.06.54.54 0 0 1 .49 0 5.73 5.73 0 0 0 .19-1.43v-.35a2.4 2.4 0 0 1 .16-1.42c.23-.39.49-.42.66-.39.42.09.49.61.52.86l.09.62a18.49 18.49 0 0 1 .23 1.91v.15a2.46 2.46 0 0 0 .3 1.36 1.69 1.69 0 0 1 .46 1.23 2.43 2.43 0 0 0 .28 1.14 1.79 1.79 0 0 1 .36.89 3.09 3.09 0 0 0 .08.33.86.86 0 0 1 .41 0c0-.16.12-.37.19-.66v-.12c0-.14.08-.38.13-.66a4.22 4.22 0 0 1 .63-2 .56.56 0 0 1 .35-.16v-.87c.06-.61.11-1.14.51-1.32a.38.38 0 0 1 .19 0c.26-.76.59-1.66 1.32-1.56s.88 1.08 1 2a7 7 0 0 0 .15.81 1.62 1.62 0 0 0 .06-.17v-.23a2.11 2.11 0 0 1 .16-.55.62.62 0 0 1 .29-.27 3.8 3.8 0 0 0 .34-1.83 8.12 8.12 0 0 1 .08-1 16 16 0 0 1 .71-2.66l.12-.39a9.51 9.51 0 0 0 .22-.94 6.07 6.07 0 0 1 .53-1.74.4.4 0 0 1 .34-.2.54.54 0 0 1 .36.19 5.74 5.74 0 0 1 .49 2.53c0 .3 0 .59.06.87a2.06 2.06 0 0 0 .22.85.61.61 0 0 0 .14.14 1.14 1.14 0 0 1 .45.61 4.22 4.22 0 0 1 .08 1.26 6.54 6.54 0 0 0 0 .78 6.25 6.25 0 0 0 .27 1.3h.19c.8-.09 1 .46 1.12 1a1.39 1.39 0 0 0 .31.55c.06.08.13.16.19.25a3.37 3.37 0 0 1 .39 1.66l.14 1.64.18 2.27v.62a8.29 8.29 0 0 0 .26 2.18 15.22 15.22 0 0 0 .14-3.33v-1a3.64 3.64 0 0 1 .42-1.36c.06-.11.11-.22.17-.35a5.1 5.1 0 0 0 .28-2v-.52a5.84 5.84 0 0 1 .27-2.56.69.69 0 0 1 .61-.44.55.55 0 0 1 .4.25h.09c.11-.06.19-.45.23-.68.14-.66.23-1.24.32-1.83s.19-1.18.31-1.77.2-1 .7-1.23a.61.61 0 0 1 .34 0 4.6 4.6 0 0 0 .31-.91 4.31 4.31 0 0 1 .35-1 1.25 1.25 0 0 1 .23-.3 1.15 1.15 0 0 0 .08-.1 2.14 2.14 0 0 0 .29-.69l.08-.3a5.6 5.6 0 0 1 1.11-2.13.62.62 0 0 1 .8-.09c.06-.19.13-.45.17-.61s.09-.34.13-.44a3.1 3.1 0 0 1 .62-1.12 1.21 1.21 0 0 1 1.35-.34c1 .42 1.16 2.09 1.32 3.57 0 .31.07.61.11.87a2.63 2.63 0 0 0 .25 1l.07.08a.93.93 0 0 1 .32.45 5.66 5.66 0 0 1 .13 1.71v1.13a10.22 10.22 0 0 0 .22 1.88c.05.18.12.36.19.54a5.46 5.46 0 0 1 .3 1c0 .22.06.44.09.66a7.08 7.08 0 0 0 .25 1.31 4.36 4.36 0 0 1 .12.44l.15.54a.62.62 0 0 1 .24 0h.09a8.06 8.06 0 0 0 .29-1.64v-.33c.06-.56.15-1.33.77-1.55a.57.57 0 0 1 .63.18v-1.52a8 8 0 0 1 .2-2 2.33 2.33 0 0 1 .35-.77 1.07 1.07 0 0 0 .2-.69v-5.84a7.92 7.92 0 0 1 0-1.08q0-.3.12-.6a5.09 5.09 0 0 0 .13-.92 3 3 0 0 1 .22-1.11c0-.15.1-.31.14-.48v-.16c.11-.62.25-1.18.68-1.34a.67.67 0 0 1 .65.14 1.82 1.82 0 0 1 .47 1.38 2 2 0 0 0 .1.68l.1.17a2.58 2.58 0 0 1 .38 1.47v.71a4.44 4.44 0 0 0 .07 1.41 1.8 1.8 0 0 0 .23.4 2.07 2.07 0 0 1 .43 1v.36a1.62 1.62 0 0 0 0 .34l.15.08a1.05 1.05 0 0 1 .45.33 1.35 1.35 0 0 1 .18.36 5.78 5.78 0 0 0 .12-.64 5.51 5.51 0 0 0 0-1.21 4.06 4.06 0 0 1 .29-2.42 3 3 0 0 1 .26-.36 1.19 1.19 0 0 0 .25-.39 5.15 5.15 0 0 0 .24-1.13v-.17c.05-.34.08-.67.11-1a11.57 11.57 0 0 1 .38-2.27c0-.16.11-.32.17-.48a3.8 3.8 0 0 0 .18-.54 6.51 6.51 0 0 0 .13-1v-.37a6.64 6.64 0 0 1 .61-2 10.92 10.92 0 0 0 .4-1 13.12 13.12 0 0 0 .39-2.19 9.36 9.36 0 0 1 .81-3.34c.09-.18.38-.73.89-.65s.88 1.18 1.13 2.68c.05.26.08.47.11.56s.11.16.24.25a1.26 1.26 0 0 1 .56.6 3.77 3.77 0 0 1 .19 1.36v.48a34.21 34.21 0 0 0 1 5.08l.16.68a6.83 6.83 0 0 1 .13.75 3.78 3.78 0 0 0 .26 1.1 11.82 11.82 0 0 1 1.09 5v.67a.94.94 0 0 0 0-.16 2.06 2.06 0 0 1 .35-.86.64.64 0 0 1 .23-.21 7.4 7.4 0 0 0 .13-1.41 2.92 2.92 0 0 1 0-.32v-.55a4.6 4.6 0 0 1 .13-1.46 1.07 1.07 0 0 1 .43-.63.38.38 0 0 0 .11-.11 3 3 0 0 0 .26-.9c.14-.66.26-1.23.69-1.4a.68.68 0 0 1 .65.09.64.64 0 0 1 .16.17.45.45 0 0 1 .27 0 .68.68 0 0 1 .46.36 3.88 3.88 0 0 1 .25.66l.08.23a10.88 10.88 0 0 0-.06-1.12v-.16a5.56 5.56 0 0 1 .07-1.52c.09-.48.2-1 .31-1.47a18.16 18.16 0 0 0 .42-2.23v-.23a3.94 3.94 0 0 1 .31-1.55c.07-.13.25-.45.58-.45a.51.51 0 0 1 .22.05c.06-.22.12-.51.17-.72.15-.76.29-1.41.73-1.61a.52.52 0 0 1 .47 0 .54.54 0 0 1 .27.31.77.77 0 0 1 .71-.23c.34.09.45.42.54.66a10.15 10.15 0 0 0 .49-2.51c.19-1.56.31-2.38.81-2.62a.62.62 0 0 1 .62.06.94.94 0 0 1 .37.61.53.53 0 0 1 .18 0c.17 0 .5 0 .75.55a8.65 8.65 0 0 1 .64 3v.31c0 .45.11.89.18 1.33.1.68.2 1.39.24 2.15v.61c0 .52 0 1 .09 1.52v.6a4.42 4.42 0 0 0 .08 1 4.89 4.89 0 0 0 .64-1.15l.12-.26c.14-.3.27-.61.41-.93a14.8 14.8 0 0 1 .69-1.51l.15-.23a.74.74 0 0 0 .13-.21 2.57 2.57 0 0 0 .06-.28 1.51 1.51 0 0 1 .29-.75.59.59 0 0 1 .54-.22.47.47 0 0 1 .31.19 3.68 3.68 0 0 0 .08-.41c.1-.56.23-1.26.86-1.44a1.16 1.16 0 0 1 1 .24c.11.06.25.15.3.13s.25-.81.28-1.24a4.49 4.49 0 0 1 .15-1 3.71 3.71 0 0 1 .63-1.17.93.93 0 0 1 .2-.2h.07s.06-.14.08-.21a2.2 2.2 0 0 1 .16-.34 1.77 1.77 0 0 1 .53-.53 1.34 1.34 0 0 0 .4-.42.41.41 0 0 1 .56-.17.4.4 0 0 1 .16.55 2 2 0 0 1-.63.7 1.21 1.21 0 0 0-.33.3 2.07 2.07 0 0 0-.08.2 1.57 1.57 0 0 1-.19.39 1.07 1.07 0 0 1-.24.24 2.9 2.9 0 0 0-.54 1 4 4 0 0 0-.11.87c-.06.76-.12 1.61-.75 1.92a1.08 1.08 0 0 1-1.08-.18.84.84 0 0 0-.31-.14c-.14 0-.22.51-.27.79a1.93 1.93 0 0 1-.54 1.28.53.53 0 0 1-.48.1.42.42 0 0 1-.21-.11 2 2 0 0 1-.11.37 1.78 1.78 0 0 1-.21.38l-.1.14c-.24.43-.45 1-.66 1.44-.14.32-.27.65-.42 1l-.11.26c-.37.82-.81 1.74-1.5 1.67s-.78-1-.79-1.83v-.53c-.05-.51-.08-1-.1-1.56v-.61c0-.72-.14-1.41-.24-2.07-.07-.45-.13-.9-.18-1.37v-.31a8.46 8.46 0 0 0-.56-2.69.5.5 0 0 1-.51.1.77.77 0 0 1-.43-.56c-.1.43-.18 1.13-.24 1.65-.22 1.84-.41 3-1.09 3.28a.62.62 0 0 1-.53 0 1 1 0 0 1-.48-.66l-.05.06a.7.7 0 0 1-.52.33.53.53 0 0 1-.44-.19c0 .2-.09.42-.12.58-.17.82-.3 1.46-.8 1.58a.5.5 0 0 1-.34 0 7.48 7.48 0 0 0-.14 1v.24a19.25 19.25 0 0 1-.44 2.34c-.11.48-.22 1-.3 1.43a4.81 4.81 0 0 0-.07 1.31v.14c.1 1.15.1 2-.27 2.43a.5.5 0 0 1-.5.18c-.41-.08-.59-.58-.85-1.39 0-.1-.08-.23-.11-.33h-.09a.53.53 0 0 1-.54-.24 5.21 5.21 0 0 0-.15.63 3.22 3.22 0 0 1-.42 1.24 1.25 1.25 0 0 1-.27.26.35.35 0 0 0-.14.22 3.93 3.93 0 0 0-.09 1.2v.62-.28a5.14 5.14 0 0 1-.22 1.77.63.63 0 0 1-.33.35 1.67 1.67 0 0 0-.18.52 1.93 1.93 0 0 1-.4.92.7.7 0 0 1-.75.26q-.4-.15-.48-.81c0-.33-.05-.66-.08-1a11.24 11.24 0 0 0-1-4.62 4.2 4.2 0 0 1-.37-1.42c0-.24-.07-.47-.11-.67l-.17-.67a36.55 36.55 0 0 1-1-5.21v-.54a3.5 3.5 0 0 0-.12-1c0-.11-.11-.15-.24-.24a1.26 1.26 0 0 1-.58-.65 4.94 4.94 0 0 1-.14-.71 11.55 11.55 0 0 0-.44-1.88.26.26 0 0 0-.05.09 9 9 0 0 0-.73 3.06 13.08 13.08 0 0 1-.42 2.33c-.12.39-.27.75-.42 1.11a5.62 5.62 0 0 0-.55 1.79v.36a5.72 5.72 0 0 1-.14 1.13c-.06.22-.13.43-.21.64a3.52 3.52 0 0 0-.15.42 10.12 10.12 0 0 0-.36 2.12c0 .33-.06.67-.11 1v.16a5.48 5.48 0 0 1-.29 1.33 2.14 2.14 0 0 1-.38.62 1.41 1.41 0 0 0-.18.23 3.38 3.38 0 0 0-.18 2 6.56 6.56 0 0 1 0 1.4c-.15 1-.35 1.49-.7 1.65a.6.6 0 0 1-.58-.06 1.09 1.09 0 0 1-.39-.67 1.06 1.06 0 0 0-.09-.27l-.14-.08a1 1 0 0 1-.5-.39 1.37 1.37 0 0 1-.15-.76 2.45 2.45 0 0 0 0-.27 1.14 1.14 0 0 0-.28-.64 2.48 2.48 0 0 1-.33-.59 4.6 4.6 0 0 1-.11-1.73v-.66a1.77 1.77 0 0 0-.28-1.08l-.1-.18a2.58 2.58 0 0 1-.2-1 3.68 3.68 0 0 0-.07-.58c0 .18-.09.4-.11.5s0 .15 0 .2-.11.38-.17.55a2.22 2.22 0 0 0-.17.85 5.51 5.51 0 0 1-.15 1.09 4.86 4.86 0 0 0-.1.55 5 5 0 0 0 0 1v5.85a1.83 1.83 0 0 1-.33 1.12 1.51 1.51 0 0 0-.25.54 7.62 7.62 0 0 0-.17 1.78v1.1a2.43 2.43 0 0 1-.31 1.32.53.53 0 0 1-.46.21.74.74 0 0 1-.54-.42 4.51 4.51 0 0 0-.13.71v.32c-.15 1.41-.34 2.27-.85 2.5a.64.64 0 0 1-.41 0l-.14-.09a.52.52 0 0 1-.51-.12 2.23 2.23 0 0 1-.46-1.11c0-.14-.07-.28-.1-.37a7.32 7.32 0 0 1-.29-1.48c0-.21-.05-.42-.09-.62a4.08 4.08 0 0 0-.26-.86c-.07-.2-.15-.4-.21-.61a10.1 10.1 0 0 1-.25-2.06v-1.17a5.62 5.62 0 0 0-.09-1.45l-.09-.11a1.11 1.11 0 0 1-.2-.22 3.08 3.08 0 0 1-.38-1.31c0-.28-.08-.58-.11-.9-.12-1.07-.29-2.68-.83-2.91-.09 0-.26 0-.43.16a2.25 2.25 0 0 0-.45.83c0 .09-.07.22-.11.38a2.58 2.58 0 0 1-.5 1.19.56.56 0 0 1-.79 0 5 5 0 0 0-.79 1.68l-.09.28a2.69 2.69 0 0 1-.39.93 2.49 2.49 0 0 1-.17.21.5.5 0 0 0-.11.13 4.76 4.76 0 0 0-.27.81 2.53 2.53 0 0 1-.69 1.44.5.5 0 0 1-.46.1 1.54 1.54 0 0 0-.19.61c-.12.58-.21 1.15-.3 1.73s-.18 1.19-.31 1.79-.29 1.4-1 1.41l-.08.07a.41.41 0 0 1-.37.08h-.11a8.43 8.43 0 0 0-.06 1.8v.55a5.8 5.8 0 0 1-.35 2.37c-.06.14-.12.26-.18.38a2.69 2.69 0 0 0-.34 1.08v.85c.08 2.78 0 4.13-.82 4.26a.7.7 0 0 1-.59-.16c-.51-.42-.58-1.51-.63-2.9v-.58c-.06-.75-.13-1.51-.19-2.26l-.13-1.65a3.13 3.13 0 0 0-.25-1.25c0-.08-.11-.14-.16-.21a2.1 2.1 0 0 1-.45-.8 2.13 2.13 0 0 0-.15-.44H105.14a.71.71 0 0 1-.91-.51 7.49 7.49 0 0 1-.31-1.51 6.5 6.5 0 0 1 0-.89 4.42 4.42 0 0 0 0-1c0-.08-.06-.11-.17-.2a1.26 1.26 0 0 1-.34-.35 2.82 2.82 0 0 1-.34-1.2c0-.29 0-.6-.06-.91s0-.59-.05-.86a1.18 1.18 0 0 0 0 .2c-.08.38-.16.74-.25 1l-.13.39a16.7 16.7 0 0 0-.67 2.54 6.38 6.38 0 0 0-.07.92 4.28 4.28 0 0 1-.51 2.3.63.63 0 0 1-.22.2c0 .08 0 .21-.08.32s-.07.26-.07.29c-.16.48-.36 1-.81 1s-.63-.41-.69-.55a4.89 4.89 0 0 1-.3-1.24 4.92 4.92 0 0 0-.32-1.31 4.46 4.46 0 0 0-.48 1.08l-.09.27a.42.42 0 0 1-.27.25.34.34 0 0 1-.2 0 5.24 5.24 0 0 0-.06.54v.48a1.77 1.77 0 0 1-.28 1 .46.46 0 0 1-.42.16 9.39 9.39 0 0 0-.33 1.45c-.06.31-.1.58-.15.75v.1c-.3 1.14-.46 1.48-.76 1.57a.58.58 0 0 1-.41 0 .51.51 0 0 1-.22-.32c-.23 0-.64 0-.8-.61 0-.14-.06-.26-.08-.37a1 1 0 0 0-.2-.54 3 3 0 0 1-.46-1.56c-.06-.55-.07-.58-.23-.75a2.93 2.93 0 0 1-.53-1.88v-.72a4 4 0 0 1-.29 1.22.75.75 0 0 1-.49.44.53.53 0 0 1-.29 0v.22a1.53 1.53 0 0 1-.17.78c-.06.11-.25.4-.55.37-.1.45-.19.9-.54 1.1a.53.53 0 0 1-.44 0c-.31-.1-.47-.44-.6-.72l-.07-.13-.06-.12-.11-.19c-.04-.07 0 0 0 .07a1.08 1.08 0 0 1-.47.77.47.47 0 0 1-.17 0 1 1 0 0 1-.25.46.6.6 0 0 1-.6.24c-.34-.08-.44-.42-.51-.65a.36.36 0 0 0 0-.11.87.87 0 0 0-.27-.42 1.46 1.46 0 0 0-.23.37 6 6 0 0 0-.39 2 9.33 9.33 0 0 1-.2 1.5c-.11.41-.17.83-.68.77h-.09a.61.61 0 0 1-.81 0 .84.84 0 0 1-.21-.46 5 5 0 0 0-.2.64 4.54 4.54 0 0 1-.35 1.06.4.4 0 0 1-.45.22 7.17 7.17 0 0 0-.1 2.34 8.49 8.49 0 0 1 0 1.72c-.19.79-.33 1.16-.68 1.25a.64.64 0 0 1-.63-.27.63.63 0 0 0-.12-.11l-.09.08a.4.4 0 0 1-.42.07.39.39 0 0 1-.26-.32c0-.26-.07-.52-.1-.79-.07-.56-.14-1.13-.25-1.63a.82.82 0 0 1-.27 0c-.58-.15-.71-1-.9-2.14a9.16 9.16 0 0 0-.27-1.31 4.37 4.37 0 0 0-.38.68.41.41 0 0 1-.42.23.44.44 0 0 1-.2-.08 11.18 11.18 0 0 0-.55 3.07 12.41 12.41 0 0 1-.55 3.15 5.15 5.15 0 0 1-.42.91 4.26 4.26 0 0 0-.51 1.45 11.62 11.62 0 0 0-.07 1.86 10.07 10.07 0 0 1-.14 2.4.4.4 0 0 1-.2.28c-.68.37-1.17-.35-1.41-.7v-.07a1.61 1.61 0 0 1-.45-.18 10.35 10.35 0 0 1-.27 1.2.51.51 0 0 1-.15.21.85.85 0 0 1-.9.16c-.54-.24-.62-1-.71-2v-.51a.58.58 0 0 1-.18 0 2.39 2.39 0 0 0-.29 1.11c0 .18 0 .38-.07.6a1.82 1.82 0 0 0 0 .4 2 2 0 0 1 0 .64 1.14 1.14 0 0 1-.35.66.49.49 0 0 0-.17.31 16.23 16.23 0 0 0-.24 3.36v1.31a.41.41 0 0 1-.37.39c-.66.07-.73.67-.74 2a6.12 6.12 0 0 1-.21 2 .4.4 0 0 1-.38.27.4.4 0 0 1-.38-.27.61.61 0 0 0 0-.11.93.93 0 0 1-.7-.62 3 3 0 0 1-.14-1v-.5a.68.68 0 0 1-.49-.36 1.49 1.49 0 0 1-.11-.6 1.72 1.72 0 0 0 0-.26c-.08.56-.14 1.34-.18 1.92a16.07 16.07 0 0 1-.16 1.64 3.69 3.69 0 0 1-.52 1.26 4.94 4.94 0 0 0-.31.61c-.07.18-.13.39-.19.6a2.59 2.59 0 0 1-.75 1.47.36.36 0 0 1-.22.07c0 .23-.08.49-.11.68-.12.98-.3 2.3-1.32 2.3zm4-11.43zm18.36-21zm5.73-5.23zm.66-1.68zm47.28-13.39zm6-15z" style="fill:#745cff"/><g><path d="M361.11 244.38a3.45 3.45 0 0 0-1.52-3.25l-3.91-2.24a3.46 3.46 0 0 0-3.58.31l-105.77 61.06a11 11 0 0 0-5 8.65V370a3.48 3.48 0 0 0 1.48 3.24l4 2.28a3.51 3.51 0 0 0 3.54-.34l105.77-61.07a11 11 0 0 0 5-8.64z" style="fill:#745cff;opacity:.4"/><path d="M361.11 244.39v61.12a11 11 0 0 1-5 8.65l-105.76 61.06c-2.44 1.42-4.48.55-4.9-1.9a4.48 4.48 0 0 0 .88-.4l105.77-61.06a11 11 0 0 0 5-8.65v-61.12a4.43 4.43 0 0 0-.09-1c2.33-.87 4.1.46 4.1 3.3z" style="fill:#745cff;opacity:.4"/><path d="m356.12 241.5-93.82 55.22-6.82 3.92s-3.6 1.94-5 2.92a8.57 8.57 0 0 0-1.35 1.15 10.31 10.31 0 0 0-2.85 6.45V319l-.86 53.32-.92-53.32v-7.87a12 12 0 0 1 3.31-7.65 11.11 11.11 0 0 1 1.64-1.4c1.49-1 5.14-3 5.14-3l6.8-3.94z" style="fill:#fff"/><g><path d="m325.22 268.49-.46.27L253.39 310l-.47.27v53.33l72.46-41.83 26.94-15.55v-53.37zm18.12-9.63 8.36-4.86v12.29l-8.36 4.83zm-9 5.19 8.36-4.83v12.3l-8.36 4.83zm-9 5.18 8.36-4.83v12.3l-8.36 4.83zm-9 43.74v-12.3l8.36-4.83v12.3zm0-13.13v-12.3l8.36-4.82V295zm-9 18.31v-12.29l8.36-4.83v12.3zm0-13.12v-12.3l8.36-4.83v12.3zm-9 18.31V311l8.36-4.83v12.3zm0-13.13v-12.3l8.36-4.82v12.29zm-9 18.31v-12.3l8.36-4.82v12.3zm0-13.13V303.1l8.36-4.83v12.3zm-9 18.32v-12.3l8.36-4.83v12.3zm0-13.13v-12.3l8.36-4.83v12.3zm-9 18.31v-12.3l8.36-4.82v12.29zm0-13.13v-12.29l8.36-4.83v12.3zm-9 18.32v-12.3l8.36-4.83v12.3zm0-13.13v-12.3l8.36-4.83v12.3zm-9 18.31V337l8.36-4.82v12.29zm0-13.13v-12.29l8.56-4.84v12.3zm62.86-61.72 8.36-4.82v12.3l-8.36 4.82zm-9 5.19 8.36-4.83v12.3l-8.36 4.83zm-9 5.18 8.6-4.78v12.3l-8.36 4.82zm-9 5.19 8.36-4.83v12.3l-8.36 4.83zm-9 5.18 8.36-4.82v12.3l-8.36 4.82zm-9 5.19 8.36-4.83v12.3l-8.36 4.83zm-9 5.18 8.36-4.83V313l-8.36 4.83zm-9 5.19 8.36-4.83v12.3l-8.02 4.82zm8.36 46.85-8.36 4.83v-12.3l8.36-4.83zm9-5.18-8.36 4.83V344.9l8.36-4.82zm9-5.19L271.5 352v-12.3l8.36-4.83zm9-5.18-8.36 4.83v-12.3l8.36-4.83zm9-5.18-8.36 4.82v-12.3l8.36-4.83zm9-5.19-8.36 4.83v-12.3l8.36-4.83zm9-5.18-8.36 4.82V319l8.36-4.82zm9-5.19-8.36 4.83v-12.3l8.36-4.83zm9-5.18-8.36 4.82v-12.3l8.36-4.82zm9-5.19-8.36 4.83v-12.3l8.36-4.83zm9-5.18-8.36 4.82v-12.3l8.36-4.82zm-18-28.19v12.3l-8.36 4.83v-12.3zm0 13.13V303l-8.36 4.82v-12.33zm9-18.31v12.3l-8.36 4.82v-12.29zm0 13.12v12.3l-8.36 4.83v-12.3zm9-18.3v12.29l-8.36 4.83V272zm0 13.12v12.3l-8.36 4.83v-12.3z" style="fill:#fff;opacity:.2"/><path style="fill:#745cff" d="M254.9 362v-44.64l5.65-3.26v44.64L254.9 362zM263.88 356.81v-39l5.65-3.26v39l-5.65 3.26zM272.86 351.62l-.01-30.81 5.65-3.26.01 30.81-5.65 3.26zM281.83 346.43v-30.81l5.66-3.26v30.81l-5.66 3.26zM290.81 341.24v-22.41l5.65-3.26.01 22.41-5.66 3.26zM299.79 336.05v-35.2l5.65-3.26v35.2l-5.65 3.26zM308.77 330.86v-31.25l5.66-3.27v31.26l-5.66 3.26zM317.75 325.67v-33.38l5.65-3.26v33.38l-5.65 3.26zM326.73 320.48V290l5.65-3.26v30.48l-5.65 3.26zM335.71 315.29v-26.1l5.66-3.26v26.1l-5.66 3.26zM344.69 310.1v-34.17l5.66-3.26v34.17l-5.66 3.26z"/></g></g><g><path d="m136.94 335.13 2.39 1.39a4.7 4.7 0 0 0 4.26 0l145.45-84a4.7 4.7 0 0 0 2.13-3.68V88.59A4.7 4.7 0 0 0 289 84.9l-2.4-1.38a4.68 4.68 0 0 0-4.25 0l-145.45 84a4.7 4.7 0 0 0-2.13 3.69v160.24a4.67 4.67 0 0 0 2.17 3.68z" style="fill:#f0f0f0"/><path d="m143.59 336.52 145.45-84a4.7 4.7 0 0 0 2.13-3.68V88.59c0-1.36-.95-1.91-2.13-1.23l-145.45 84a4.67 4.67 0 0 0-2.13 3.68v160.25c0 1.36.95 1.91 2.13 1.23z" style="fill:#fff"/><path d="M142.64 337.22a1.54 1.54 0 0 1-.76-.2 1.89 1.89 0 0 1-.83-1.73V175a5.11 5.11 0 0 1 2.33-4l145.45-84a1.9 1.9 0 0 1 1.92-.14 1.88 1.88 0 0 1 .83 1.73v160.27a5.11 5.11 0 0 1-2.33 4l-145.46 84a2.31 2.31 0 0 1-1.15.36zM290 87.48a1.54 1.54 0 0 0-.74.23l-145.46 84a4.33 4.33 0 0 0-1.92 3.33v160.25a.9.9 0 0 0 1.52.87l145.44-84a4.31 4.31 0 0 0 1.93-3.33V88.59a1.14 1.14 0 0 0-.42-1 .78.78 0 0 0-.35-.11z" style="fill:#e0e0e0"/><path d="M143.27 336.67a4.72 4.72 0 0 1-3.93-.15l-2.4-1.39a4.68 4.68 0 0 1-2.13-3.68V171.18a4.42 4.42 0 0 1 .62-2.1l6.65 3.84a4.45 4.45 0 0 0-.62 2.1v160.27c0 1.23.78 1.8 1.81 1.38z" style="fill:#e0e0e0"/><path style="fill:#745cff" d="M251.9 257.78V170.4l-7.8-4.5v87.38l7.8 4.5z"/><path style="opacity:.2" d="M251.9 257.78V170.4l-7.8-4.5v87.38l7.8 4.5z"/><path style="fill:#745cff" d="m251.9 257.78 22.63-13.07v-87.37L251.9 170.4v87.38zM274.53 157.34l-7.79-4.5-22.64 13.06 7.8 4.5 22.63-13.06z"/><path style="fill:#fff;opacity:.25" d="m274.53 157.34-7.79-4.5-22.64 13.06 7.8 4.5 22.63-13.06z"/><path d="m274.53 157.34-22.63 12.72-7.8-4.16 7.49 5c-.17 2.55 0 84.28.31 86.89.34-2.61.48-84.51.32-87z" style="fill:#fff;opacity:.30000000000000004"/><path style="fill:#745cff" d="m209.48 282.27-.01-70.18-7.79-4.5v70.18l7.8 4.5z"/><path style="fill:#fff;opacity:.1" d="m209.48 282.27-.01-70.18-7.79-4.5v70.18l7.8 4.5z"/><path style="fill:#745cff" d="m209.48 282.27 22.62-13.06.01-70.18-22.64 13.06.01 70.18z"/><path style="fill:#fff;opacity:.30000000000000004" d="m209.48 282.27 22.62-13.06.01-70.18-22.64 13.06.01 70.18z"/><path style="fill:#745cff" d="m232.11 199.03-7.8-4.5-22.63 13.06 7.79 4.5 22.64-13.06z"/><path style="fill:#fff;opacity:.55" d="m232.11 199.03-7.8-4.5-22.63 13.06 7.79 4.5 22.64-13.06z"/><path d="M209.77 212.26 232.11 199l-22.63 12.73c-2.47-1.4-7.81-4.17-7.81-4.17s5 3.18 7.51 4.66c-.08 2.64.12 67.33.3 70 .17-2.64.37-67.4.29-69.96z" style="fill:#fff;opacity:.30000000000000004"/><path style="fill:#745cff" d="M167.05 306.77v-58.91l-7.8-4.51v58.91l7.8 4.51z"/><path style="opacity:.45" d="M167.05 306.77v-58.91l-7.8-4.51v58.91l7.8 4.51z"/><path style="fill:#745cff" d="m167.05 306.77 22.63-13.07v-58.91l-22.63 13.07v58.91z"/><path style="opacity:.30000000000000004" d="m167.05 306.77 22.63-13.07v-58.91l-22.63 13.07v58.91z"/><path style="fill:#745cff" d="m189.68 234.79-7.8-4.5-22.63 13.06 7.8 4.51 22.63-13.07z"/><path style="opacity:.15" d="m189.68 234.79-7.8-4.5-22.63 13.06 7.8 4.51 22.63-13.07z"/><path d="m189.68 234.79-22.63 12.73-7.8-4.17 7.49 4.89s0 56.92.31 58.53c.34-1.61.33-58.52.33-58.52z" style="fill:#fff;opacity:.30000000000000004"/><g><path style="fill:#745cff" d="m272.62 119.09-2-1.16-17.37 6.24 3.83 3.6-49.14 52.47-10.24-9.66-2-1.17-38.36 40.96 4.6 4.31 2 1.17 33.4-35.66 9.54 8.76 3 1.75 53.42-57.04 2.22 2.01 2 1.17 5.1-17.75z"/><path style="fill:#fff;opacity:.25" d="m272.62 119.09-2-1.16-17.37 6.24 3.83 3.6-49.14 52.47-10.24-9.66-2-1.17-38.36 40.96 4.6 4.31 2 1.17 33.4-35.66 9.54 8.76 3 1.75 53.42-57.04 2.22 2.01 2 1.17 5.1-17.75z"/><path style="fill:#745cff" d="m272.62 119.09-5.1 17.75-3.83-3.59-53.81 57.45-11.89-11.21-34.05 36.36-4.6-4.31 38.36-40.96 11.89 11.21 49.49-52.86-3.83-3.59 17.37-6.25z"/><path style="fill:#745cff" d="m197.99 179.49-.65.7 9.54 8.76 3 1.75-11.89-11.21z"/><path style="opacity:.2" d="m197.99 179.49-.65.7 9.54 8.76 3 1.75-11.89-11.21z"/><path style="fill:#745cff" d="m257.08 127.77 2 1.16-3.83-3.59-2-1.17 3.83 3.6z"/><path style="opacity:.2" d="m257.08 127.77 2 1.16-3.83-3.59-2-1.17 3.83 3.6z"/><path style="fill:#745cff" d="m263.3 133.66.39-.41 3.83 3.59-2-1.17-2.22-2.01z"/><path style="opacity:.2" d="m263.3 133.66.39-.41 3.83 3.59-2-1.17-2.22-2.01z"/><path style="fill:#745cff" d="m157.34 210.37 2 1.17 4.6 4.31-2-1.17-4.6-4.31z"/><path style="opacity:.2" d="m157.34 210.37 2 1.17 4.6 4.31-2-1.17-4.6-4.31z"/><path style="fill:#fff;opacity:.5" d="m171.98 198.04 25.72-26.61 11.89 10.36-11.89-11.21-25.72 27.46zM232.27 157.57l27.4-28.64-3.69-3.41 16.64-6.43-17.37 6.25 3.83 3.59-26.81 28.64z"/></g></g><g><path d="M223.64 369.38a1.19 1.19 0 0 0 .27-.74v-34.55l7.15-7.23a2.85 2.85 0 0 0 .6-1.05c.09-.33.05-.51-.12-.49l-7.63 1.05V318a.5.5 0 0 0-.82-.47L180.78 342a1.37 1.37 0 0 0-.29.25 1.17 1.17 0 0 0-.27.73v50.61c0 .51.37.72.81.47l42.31-24.43a1.38 1.38 0 0 0 .3-.24z" style="fill:#fff"/><path d="M180.68 394.39a.77.77 0 0 1-.34-.08.81.81 0 0 1-.36-.73V343a1.39 1.39 0 0 1 .33-.89 1.64 1.64 0 0 1 .35-.29L223 317.36a.84.84 0 0 1 .82-.05.82.82 0 0 1 .36.73v8.06l7.35-1a.37.37 0 0 1 .34.11.7.7 0 0 1 0 .67 3.07 3.07 0 0 1-.65 1.14l-7.09 7.17v34.46a1.41 1.41 0 0 1-.33.89 1.48 1.48 0 0 1-.36.3l-42.31 24.42a.88.88 0 0 1-.45.13zm42.77-76.69a.49.49 0 0 0-.24.07L180.9 342.2a1.37 1.37 0 0 0-.23.19 1 1 0 0 0-.22.58v50.61a.37.37 0 0 0 .13.32.36.36 0 0 0 .33-.06l42.31-24.42a.91.91 0 0 0 .24-.2.91.91 0 0 0 .21-.58V334l.07-.07 7.15-7.23a2.65 2.65 0 0 0 .54-.94v-.18l-7.8 1.07V318a.36.36 0 0 0-.12-.32.16.16 0 0 0-.06.02z" style="fill:#e0e0e0"/><g><path d="M201.27 336.25v19.34l-11.76 18.73c-4.14-5.31-2.93-18.58 3.54-29.07 2.64-4.25 4.95-6.93 8.22-9z" style="fill:#745cff"/><path d="M201.27 336.25v19.34l-11.76 18.73c-4.14-5.31-2.93-18.58 3.54-29.07 2.64-4.25 4.95-6.93 8.22-9z" style="fill:#fff;opacity:.2"/><path d="M217.23 353.3c-2.33 11.75-10.44 22.66-18.42 24.61a7.81 7.81 0 0 1-7.93-1.94l11.81-19.12z" style="fill:#745cff"/><path d="M217.23 353.3c-2.33 11.75-10.44 22.66-18.42 24.61a7.81 7.81 0 0 1-7.93-1.94l11.81-19.12z" style="fill:#fff;opacity:.30000000000000004"/><path d="m217.53 351.27-13.91 3.41 7.81-20.55c4.97 1.87 7.32 8.45 6.1 17.14zM210 334l-7.05 18.55v-17.28A9.84 9.84 0 0 1 210 334z" style="fill:#745cff"/><path d="m210 334-7.05 18.55v-17.28A9.84 9.84 0 0 1 210 334z" style="fill:#fff;opacity:.5"/></g></g></g><g><path d="m407.23 59.62-.9-2.35c-.13-.35-.52-.36-.86 0L403 59.74a.9.9 0 0 1-1.13.18 3.9 3.9 0 0 0-.62-.37.89.89 0 0 1-.49-1l.9-3.69c.1-.41-.18-.69-.63-.62l-2.12.34a1.54 1.54 0 0 0-1.09.87l-1.46 3.81a2.71 2.71 0 0 1-1 1.16c-.4.24-.8.5-1.21.8s-.85.28-1 0l-1-1.72c-.18-.32-.59-.29-.9.07l-2.77 3.15A1.73 1.73 0 0 0 388 64l.57 2.42a2.14 2.14 0 0 1-.3 1.38c-.42.69-.82 1.4-1.18 2.11a2.18 2.18 0 0 1-1.17 1l-2 .62a1.7 1.7 0 0 0-1 1l-1.32 4.21a.55.55 0 0 0 .55.75h1.69a.67.67 0 0 1 .69.74 16.16 16.16 0 0 0-.08 1.81 2.52 2.52 0 0 1-.49 1.39l-2.41 3.1a1.52 1.52 0 0 0-.28 1.3l.9 2.35c.13.35.52.35.86 0l2.5-2.48a.88.88 0 0 1 1.12-.18 5.63 5.63 0 0 0 .62.37.89.89 0 0 1 .49 1l-.9 3.69c-.1.41.18.68.63.61l2.12-.33a1.52 1.52 0 0 0 1.09-.87l1.46-3.81a2.71 2.71 0 0 1 .97-1.18 14 14 0 0 0 1.21-.8c.4-.29.85-.29 1 0l1 1.72c.19.32.59.28.91-.07l2.75-3.09a1.73 1.73 0 0 0 .42-1.32l-.53-2.44a2.21 2.21 0 0 1 .3-1.38c.42-.69.82-1.4 1.18-2.11a2.24 2.24 0 0 1 1.17-1l2-.61a1.73 1.73 0 0 0 1-1l1.31-4.2a.54.54 0 0 0-.55-.75h-1.69a.67.67 0 0 1-.69-.74 16.23 16.23 0 0 0 .08-1.82 2.6 2.6 0 0 1 .49-1.38l2.41-3.1a1.52 1.52 0 0 0 .33-1.29zm-11.1 18.12c-3 3.41-6.29 3.93-7.35 1.16s.51-7.78 3.51-11.18 6.29-3.93 7.35-1.16-.51 7.77-3.51 11.18z" style="fill:#ebebeb"/><path d="M361.2 77.17a1 1 0 0 1-1.07-1.35l1.25-5.13a.84.84 0 0 0-.47-.93 6.58 6.58 0 0 1-.92-.55.84.84 0 0 0-1.06.21l-3.47 3.45a1.31 1.31 0 0 1-1.17.44.89.89 0 0 1-.66-.59l-1.25-3.27a2.51 2.51 0 0 1 .45-2.19l3.34-4.3a3.16 3.16 0 0 0 .6-1.68 23 23 0 0 1 .12-2.57.53.53 0 0 0-.13-.42.64.64 0 0 0-.45-.19h-2.35a1.17 1.17 0 0 1-1-.47 1.21 1.21 0 0 1-.15-1.07l1.84-5.85a2.78 2.78 0 0 1 1.71-1.64l2.77-.85a2.69 2.69 0 0 0 1.4-1.17c.51-1 1.07-2 1.66-3a2.69 2.69 0 0 0 .36-1.62l-.79-3.37a2.72 2.72 0 0 1 .67-2.17l3.84-4.37a1.39 1.39 0 0 1 1.14-.54 1 1 0 0 1 .75.5l1.38 2.38a.27.27 0 0 0 .2.14.91.91 0 0 0 .67-.21c.57-.41 1.15-.8 1.72-1.13a3.49 3.49 0 0 0 1.3-1.42l2-5.3a2.54 2.54 0 0 1 1.82-1.45l2.94-.46a1.19 1.19 0 0 1 1.1.32 1.1 1.1 0 0 1 .22 1l-1.26 5.12a.88.88 0 0 0 .47.94 5 5 0 0 1 .92.55.88.88 0 0 0 1.07-.21l3.47-3.46a1.31 1.31 0 0 1 1.16-.44.94.94 0 0 1 .67.6l1.25 3.26a2.5 2.5 0 0 1-.45 2.19l-3.34 4.3a3.19 3.19 0 0 0-.6 1.69 22.78 22.78 0 0 1-.12 2.56.52.52 0 0 0 .13.42.57.57 0 0 0 .45.19h2.35a1.24 1.24 0 0 1 1 .48 1.2 1.2 0 0 1 .14 1.07L387 51.49a2.83 2.83 0 0 1-1.71 1.64l-2.77.85a2.74 2.74 0 0 0-1.4 1.17c-.51 1-1.07 2-1.66 3a2.57 2.57 0 0 0-.36 1.62l.78 3.37a2.76 2.76 0 0 1-.66 2.18l-3.85 4.37a1.38 1.38 0 0 1-1.14.53 1 1 0 0 1-.74-.49l-1.38-2.39a.32.32 0 0 0-.2-.14.94.94 0 0 0-.67.21c-.57.42-1.15.8-1.72 1.14a3.47 3.47 0 0 0-1.3 1.41l-2 5.3a2.54 2.54 0 0 1-1.83 1.45l-2.94.47zm-1.57-8.84a1.39 1.39 0 0 1 .82.25 5.73 5.73 0 0 0 .79.48 1.62 1.62 0 0 1 .89 1.82L360.88 76a.33.33 0 0 0 0 .3.44.44 0 0 0 .4.08l2.94-.46a1.8 1.8 0 0 0 1.23-1l2-5.3a4.22 4.22 0 0 1 1.63-1.81 19.54 19.54 0 0 0 1.65-1.09 1.62 1.62 0 0 1 1.28-.34 1 1 0 0 1 .71.51l1.39 2.38a.18.18 0 0 0 .15.11.64.64 0 0 0 .48-.27l3.85-4.37a2 2 0 0 0 .49-1.49l-.79-3.37a3.33 3.33 0 0 1 .46-2.2c.58-.94 1.13-1.92 1.63-2.92a3.47 3.47 0 0 1 1.86-1.55l2.77-.86a2 2 0 0 0 1.2-1.13l1.83-5.84a.38.38 0 0 0-.4-.54h-2.35a1.36 1.36 0 0 1-1-.44 1.3 1.3 0 0 1-.32-1 19.17 19.17 0 0 0 .11-2.47 3.92 3.92 0 0 1 .77-2.17l3.34-4.3a1.77 1.77 0 0 0 .34-1.44l-1.26-3.27c0-.1-.08-.11-.1-.11s-.27 0-.46.23l-3.46 3.46a1.63 1.63 0 0 1-2.07.28 4.93 4.93 0 0 0-.8-.47 1.64 1.64 0 0 1-.89-1.82l1.26-5.13a.33.33 0 0 0 0-.3.46.46 0 0 0-.4-.08l-3 .46a1.79 1.79 0 0 0-1.22 1l-2 5.3a4.14 4.14 0 0 1-1.63 1.8 18.19 18.19 0 0 0-1.65 1.1 1.68 1.68 0 0 1-1.29.34 1.1 1.1 0 0 1-.71-.51l-1.38-2.39a.2.2 0 0 0-.15-.11.67.67 0 0 0-.49.28L363 37.41a2 2 0 0 0-.49 1.49l.78 3.37a3.33 3.33 0 0 1-.45 2.2c-.58.94-1.13 1.92-1.63 2.91a3.52 3.52 0 0 1-1.86 1.56l-2.77.85a2.06 2.06 0 0 0-1.2 1.13l-1.84 5.85a.47.47 0 0 0 0 .39.49.49 0 0 0 .37.15h2.35a1.39 1.39 0 0 1 1 .45 1.3 1.3 0 0 1 .32 1 21.3 21.3 0 0 0-.12 2.48 3.78 3.78 0 0 1-.76 2.16l-3.34 4.31a1.75 1.75 0 0 0-.34 1.43l1.25 3.27a.18.18 0 0 0 .11.12.67.67 0 0 0 .45-.24l3.47-3.45a1.79 1.79 0 0 1 1.33-.51zm7-5.8a3.74 3.74 0 0 1-.75-.07 3.87 3.87 0 0 1-3-2.65c-1.52-4 .7-11.11 4.94-15.94 2.65-3 5.6-4.56 7.9-4.15a3.9 3.9 0 0 1 3 2.66c1.52 4-.7 11.11-4.95 15.93-2.34 2.69-4.95 4.22-7.12 4.22zm8.37-22.1c-1.94 0-4.33 1.43-6.55 4-4.07 4.63-6.23 11.43-4.8 15.15A3.13 3.13 0 0 0 366 61.7c2 .37 4.71-1.09 7.17-3.9 4.08-4.63 6.24-11.43 4.81-15.15a3.18 3.18 0 0 0-2.39-2.17 4.34 4.34 0 0 0-.59-.05z" style="fill:#e0e0e0"/><path d="m96.42 40.64-.9-2.35c-.13-.35-.52-.35-.86 0l-2.5 2.49a.88.88 0 0 1-1.12.17 4.33 4.33 0 0 0-.62-.36.9.9 0 0 1-.49-1l.9-3.68c.1-.42-.18-.69-.63-.62l-2.12.33a1.52 1.52 0 0 0-1.09.87l-1.46 3.81a2.63 2.63 0 0 1-1 1.15 14.18 14.18 0 0 0-1.21.81c-.4.28-.85.28-1 0l-1-1.72c-.19-.31-.59-.28-.91.08l-2.76 3.14a1.73 1.73 0 0 0-.5 1.24l.57 2.43a2.18 2.18 0 0 1-.3 1.37c-.42.69-.82 1.4-1.18 2.12a2.26 2.26 0 0 1-1.17 1l-2 .61a1.76 1.76 0 0 0-1 1l-1.31 4.2a.55.55 0 0 0 .55.76H73a.68.68 0 0 1 .69.75 16.06 16.06 0 0 0-.08 1.81 2.6 2.6 0 0 1-.49 1.38l-2.41 3.1a1.54 1.54 0 0 0-.28 1.31l.9 2.35c.13.34.52.35.86 0l2.49-2.49a.88.88 0 0 1 1.13-.17 3.85 3.85 0 0 0 .62.36.89.89 0 0 1 .49 1L76 71.61c-.1.41.18.69.63.62l2.12-.34a1.55 1.55 0 0 0 1.06-.89l1.46-3.81a2.71 2.71 0 0 1 1-1.16 13.27 13.27 0 0 0 1.21-.8c.39-.29.85-.28 1 0l1 1.71c.18.32.59.29.9-.07l2.77-3.14a1.73 1.73 0 0 0 .42-1.32L89.08 60a2.06 2.06 0 0 1 .3-1.37c.42-.7.82-1.4 1.18-2.12a2.22 2.22 0 0 1 1.17-1l2-.62a1.68 1.68 0 0 0 1-1l1.32-4.21a.55.55 0 0 0-.55-.75h-1.65a.67.67 0 0 1-.69-.75 16.06 16.06 0 0 0 .08-1.81 2.55 2.55 0 0 1 .49-1.37l2.41-3a1.55 1.55 0 0 0 .28-1.36zm-11.1 18.13c-3 3.41-6.29 3.92-7.35 1.16s.51-7.78 3.51-11.19 6.29-3.93 7.35-1.16-.51 7.78-3.51 11.19z" style="fill:#ebebeb"/><path d="M38 95.16a1.12 1.12 0 0 1-.85-.34 1.11 1.11 0 0 1-.22-1l1.25-5.12a.85.85 0 0 0-.47-.94 6.58 6.58 0 0 1-.92-.55.86.86 0 0 0-1.06.21l-3.47 3.45a1.29 1.29 0 0 1-1.17.45.92.92 0 0 1-.66-.6l-1.25-3.26a2.46 2.46 0 0 1 .45-2.19L33 81a3.13 3.13 0 0 0 .6-1.68 22.56 22.56 0 0 1 .12-2.56.52.52 0 0 0-.13-.42.6.6 0 0 0-.45-.19h-2.35a1.16 1.16 0 0 1-1.14-1.55l1.84-5.85a2.82 2.82 0 0 1 1.71-1.63l2.77-.86A2.69 2.69 0 0 0 37.32 65c.51-1 1.07-2 1.66-3a2.64 2.64 0 0 0 .36-1.62L38.55 57a2.8 2.8 0 0 1 .67-2.17l3.84-4.37A1.35 1.35 0 0 1 44.2 50a1 1 0 0 1 .75.49l1.38 2.38a.27.27 0 0 0 .2.14.89.89 0 0 0 .67-.2c.57-.42 1.15-.8 1.72-1.14a3.47 3.47 0 0 0 1.3-1.41l2-5.3a2.51 2.51 0 0 1 1.82-1.46L57 43a1.21 1.21 0 0 1 1.1.32 1.11 1.11 0 0 1 .22 1l-1.25 5.13a.85.85 0 0 0 .46.93 6.58 6.58 0 0 1 .92.55.86.86 0 0 0 1.07-.21L63 47.31a1.31 1.31 0 0 1 1.16-.44.9.9 0 0 1 .67.59l1.25 3.27a2.48 2.48 0 0 1-.45 2.19l-3.34 4.3a3.13 3.13 0 0 0-.6 1.68 22.84 22.84 0 0 1-.12 2.57.5.5 0 0 0 .13.41.57.57 0 0 0 .45.19h2.35a1.14 1.14 0 0 1 1.13 1.54l-1.83 5.85a2.82 2.82 0 0 1-1.71 1.63l-2.78.91a2.69 2.69 0 0 0-1.4 1.17c-.51 1-1.07 2-1.66 3a2.57 2.57 0 0 0-.36 1.62l.78 3.38a2.71 2.71 0 0 1-.67 2.11l-3.85 4.37a1.36 1.36 0 0 1-1.13.53 1 1 0 0 1-.75-.49l-1.37-2.38a.29.29 0 0 0-.2-.14.91.91 0 0 0-.67.21c-.57.41-1.15.8-1.72 1.13A3.43 3.43 0 0 0 45 87.93l-2 5.29a2.55 2.55 0 0 1-1.83 1.46l-2.94.46zm-1.57-8.84a1.4 1.4 0 0 1 .82.26 4.54 4.54 0 0 0 .8.47 1.62 1.62 0 0 1 .88 1.82L37.66 94a.33.33 0 0 0 0 .3.48.48 0 0 0 .4.08l2.94-.47a1.75 1.75 0 0 0 1.23-1l2-5.3a4.22 4.22 0 0 1 1.63-1.81 19.54 19.54 0 0 0 1.65-1.09 1.67 1.67 0 0 1 1.28-.34 1 1 0 0 1 .71.51L51 87.3a.18.18 0 0 0 .15.11.67.67 0 0 0 .48-.27l3.85-4.37a2 2 0 0 0 .49-1.49l-.79-3.37a3.33 3.33 0 0 1 .46-2.2c.58-.94 1.13-1.92 1.63-2.91a3.49 3.49 0 0 1 1.86-1.56l2.77-.85a2.09 2.09 0 0 0 1.2-1.13l1.83-5.85a.43.43 0 0 0 0-.39.46.46 0 0 0-.37-.15h-2.35a1.4 1.4 0 0 1-1-.45 1.29 1.29 0 0 1-.32-1 19.17 19.17 0 0 0 .11-2.48 3.92 3.92 0 0 1 .77-2.17L65 52.44a1.77 1.77 0 0 0 .35-1.44l-1.26-3.26a.15.15 0 0 0-.1-.12.64.64 0 0 0-.46.23l-3.46 3.46a1.64 1.64 0 0 1-2.07.29 4.35 4.35 0 0 0-.8-.48 1.63 1.63 0 0 1-.89-1.82l1.26-5.12a.35.35 0 0 0 0-.31.54.54 0 0 0-.41-.08l-2.94.47a1.78 1.78 0 0 0-1.22 1l-2 5.3a4.22 4.22 0 0 1-1.63 1.81 18 18 0 0 0-1.65 1.09 1.64 1.64 0 0 1-1.29.34 1.06 1.06 0 0 1-.71-.51l-1.38-2.38a.18.18 0 0 0-.15-.11.62.62 0 0 0-.49.27l-3.9 4.33a2 2 0 0 0-.49 1.49l.78 3.37a3.26 3.26 0 0 1-.45 2.2c-.58.95-1.13 1.93-1.63 2.91a3.52 3.52 0 0 1-1.86 1.56l-2.77.86a2 2 0 0 0-1.2 1.13l-1.84 5.84a.47.47 0 0 0 0 .39.45.45 0 0 0 .37.15h2.35a1.43 1.43 0 0 1 1 .45 1.34 1.34 0 0 1 .32 1 21 21 0 0 0-.12 2.47 3.83 3.83 0 0 1-.76 2.17l-3.34 4.3a1.77 1.77 0 0 0-.34 1.44l1.25 3.26c0 .11.09.12.11.12a.6.6 0 0 0 .45-.23l3.47-3.46a1.83 1.83 0 0 1 1.31-.5zm7-5.8a4.65 4.65 0 0 1-.75-.06 3.9 3.9 0 0 1-3-2.66c-1.52-4 .7-11.11 4.94-15.94 2.65-3 5.6-4.56 7.9-4.15a3.9 3.9 0 0 1 3 2.66c1.52 4-.7 11.11-5 15.94-2.31 2.69-4.92 4.21-7.09 4.21zm8.35-22.1c-1.94 0-4.33 1.43-6.55 4C41.16 67 39 73.8 40.43 77.52a3.16 3.16 0 0 0 2.39 2.18c2 .36 4.71-1.1 7.17-3.9 4.08-4.64 6.24-11.43 4.81-15.15a3.14 3.14 0 0 0-2.39-2.17 3.36 3.36 0 0 0-.63-.06z" style="fill:#e0e0e0"/><g><path d="M229.81 466.78a4.76 4.76 0 0 1-4.61-3.78l-.78-4.1c-1.8-.36-3.55-.79-5.23-1.3l-8 3.7a5.67 5.67 0 0 1-5-.23l-8.19-4.76a4.06 4.06 0 0 1-.35-6.91l4.29-3.08c-.2-.3-.4-.6-.58-.9l-10-.63a4.56 4.56 0 0 1-4.26-4.54v-6.08a4.55 4.55 0 0 1 4.26-4.53l10-.64c.18-.3.38-.59.58-.89l-4.26-3.11a4.1 4.1 0 0 1-1.76-3.55 4.15 4.15 0 0 1 2.11-3.36l8.18-4.71a5.5 5.5 0 0 1 2.73-.71 5.41 5.41 0 0 1 2.26.48l8 3.7a52.58 52.58 0 0 1 5.23-1.3l.78-4.11a4.76 4.76 0 0 1 4.61-3.82h12a4.77 4.77 0 0 1 4.61 3.82l.78 4.11a52.58 52.58 0 0 1 5.23 1.3l8-3.7a5.41 5.41 0 0 1 2.26-.48 5.5 5.5 0 0 1 2.73.71l8.18 4.72a4 4 0 0 1 .39 6.9l-4.29 3.09c.2.3.4.59.58.89l10 .64a4.55 4.55 0 0 1 4.26 4.53v6.08a4.56 4.56 0 0 1-4.26 4.54l-10 .63c-.18.3-.38.6-.58.9l4.29 3.1a4.06 4.06 0 0 1-.35 6.91l-8.21 4.69a5.48 5.48 0 0 1-2.73.7 5.41 5.41 0 0 1-2.26-.47l-8-3.7c-1.67.51-3.43.94-5.23 1.3l-.78 4.11a4.77 4.77 0 0 1-4.61 3.81zm6-37.39a25 25 0 0 0-12.09 2.84c-2.54 1.47-4 3.28-4 5s1.46 3.52 4 5a27.18 27.18 0 0 0 24.17 0c2.54-1.46 4-3.28 4-5s-1.45-3.51-4-5a25 25 0 0 0-12.06-2.84z" style="fill:#ebebeb"/><path d="m271.89 414-8.18-4.72a2.2 2.2 0 0 0-1.81-.08l-8.29 3.84a3.05 3.05 0 0 1-1.89.11 50.83 50.83 0 0 0-6.44-1.53 1.58 1.58 0 0 1-1.2-1.16l-1-5.47a1.29 1.29 0 0 0-1.21-1h-12a1.29 1.29 0 0 0-1.21 1l-1 5.47a1.55 1.55 0 0 1-1.19 1.16 50.83 50.83 0 0 0-6.44 1.53 3 3 0 0 1-1.89-.11l-8.29-3.84a2.2 2.2 0 0 0-1.81.08l-8.28 4.72a.67.67 0 0 0-.38.56v7.09a.69.69 0 0 0 .32.56l3.76 2.7a1.82 1.82 0 0 1-.92.39l-10.9.69a1.1 1.1 0 0 0-1 1.08v13.16a1.12 1.12 0 0 0 1 1.09l10.9.69a1.78 1.78 0 0 1 .94.4l-3.74 2.69a.67.67 0 0 0-.32.54v7.1a.65.65 0 0 0 .38.55l8.18 4.72a2.2 2.2 0 0 0 1.81.09l8.28-3.84a3 3 0 0 1 1.9-.12 47.61 47.61 0 0 0 6.44 1.53 1.59 1.59 0 0 1 1.2 1.17l1 5.46a1.29 1.29 0 0 0 1.21 1h12a1.29 1.29 0 0 0 1.21-1l1-5.46a1.59 1.59 0 0 1 1.2-1.17 48 48 0 0 0 6.44-1.53 3 3 0 0 1 1.89.12l8.29 3.84a2.2 2.2 0 0 0 1.81-.09l8.18-4.72a.65.65 0 0 0 .38-.54v-7.11a.66.66 0 0 0-.32-.54l-3.76-2.71a1.8 1.8 0 0 1 .92-.38l10.9-.69a1.12 1.12 0 0 0 1-1.09v-13.15a1.1 1.1 0 0 0-1-1.08l-10.9-.69a1.78 1.78 0 0 1-.94-.4l3.74-2.69a.69.69 0 0 0 .32-.55v-7.09a.67.67 0 0 0-.29-.58zm-55.2 18.37c.58-2 2.33-3.88 5.32-5.6 7.63-4.41 20-4.41 27.63 0 2.8 1.61 4.62 3.39 5.45 5.21-.65 2.23-2.47 4.38-5.45 6.1-7.63 4.4-20 4.4-27.63 0a11.3 11.3 0 0 1-5.32-5.69z" style="fill:#745cff"/><path d="m271.89 414-8.18-4.72a2.2 2.2 0 0 0-1.81-.08l-8.29 3.84a3.05 3.05 0 0 1-1.89.11 50.83 50.83 0 0 0-6.44-1.53 1.58 1.58 0 0 1-1.2-1.16l-1-5.47a1.29 1.29 0 0 0-1.21-1h-12a1.29 1.29 0 0 0-1.21 1l-1 5.47a1.55 1.55 0 0 1-1.19 1.16 50.83 50.83 0 0 0-6.44 1.53 3 3 0 0 1-1.89-.11l-8.29-3.84a2.2 2.2 0 0 0-1.81.08l-8.28 4.72a.67.67 0 0 0-.38.56v7.09a.69.69 0 0 0 .32.56l3.76 2.7a1.82 1.82 0 0 1-.92.39l-10.9.69a1.1 1.1 0 0 0-1 1.08v13.16a1.12 1.12 0 0 0 1 1.09l10.9.69a1.78 1.78 0 0 1 .94.4l-3.74 2.69a.67.67 0 0 0-.32.54v7.1a.65.65 0 0 0 .38.55l8.18 4.72a2.2 2.2 0 0 0 1.81.09l8.28-3.84a3 3 0 0 1 1.9-.12 47.61 47.61 0 0 0 6.44 1.53 1.59 1.59 0 0 1 1.2 1.17l1 5.46a1.29 1.29 0 0 0 1.21 1h12a1.29 1.29 0 0 0 1.21-1l1-5.46a1.59 1.59 0 0 1 1.2-1.17 48 48 0 0 0 6.44-1.53 3 3 0 0 1 1.89.12l8.29 3.84a2.2 2.2 0 0 0 1.81-.09l8.18-4.72a.65.65 0 0 0 .38-.54v-7.11a.66.66 0 0 0-.32-.54l-3.76-2.71a1.8 1.8 0 0 1 .92-.38l10.9-.69a1.12 1.12 0 0 0 1-1.09v-13.15a1.1 1.1 0 0 0-1-1.08l-10.9-.69a1.78 1.78 0 0 1-.94-.4l3.74-2.69a.69.69 0 0 0 .32-.55v-7.09a.67.67 0 0 0-.29-.58zm-55.2 18.37c.58-2 2.33-3.88 5.32-5.6 7.63-4.41 20-4.41 27.63 0 2.8 1.61 4.62 3.39 5.45 5.21-.65 2.23-2.47 4.38-5.45 6.1-7.63 4.4-20 4.4-27.63 0a11.3 11.3 0 0 1-5.32-5.69z" style="fill:#fff;opacity:.2"/><path d="M204 435.91a2 2 0 0 0-1.48-1l-10.89-.68a1.1 1.1 0 0 1-1-1.09v-1.44 8.53a1.11 1.11 0 0 0 1 1.09l10.9.68a1.87 1.87 0 0 1 1 .4l2.72-2a.86.86 0 0 0 .12-1.33 16.5 16.5 0 0 1-2.37-3.16zm-4.64-14.24a.68.68 0 0 0 .32.55l3.77 2.71a1.87 1.87 0 0 0 .53-.6 16.87 16.87 0 0 1 2.32-3.21.86.86 0 0 0-.12-1.33l-6.48-4.66a.81.81 0 0 1-.33-.48zM249.64 422.15c-7.63-4.41-20-4.41-27.63 0-4.82 2.79-6.6 6.67-5.33 10.25.58-1.95 2.34-3.87 5.33-5.6 7.63-4.41 20-4.41 27.63 0 2.79 1.61 4.62 3.38 5.45 5.21 1.01-3.49-.81-7.18-5.45-9.86z" style="opacity:.1"/><path d="M281 433.3a1.13 1.13 0 0 1-1 .95l-10.89.69a1.4 1.4 0 0 0-.55.14v7.1a1.51 1.51 0 0 1 .53-.15l10.9-.7a1.09 1.09 0 0 0 1-1.08zm-8.76-18.73a.6.6 0 0 1 0 .22.51.51 0 0 1-.14.21.58.58 0 0 1-.14.13l-6.48 4.66a.73.73 0 0 0-.16.14.76.76 0 0 0-.2.4.62.62 0 0 0 0 .27.58.58 0 0 0 0 .14 1 1 0 0 0 .22.38l.12.14a16.09 16.09 0 0 1 2.19 3.07 2 2 0 0 0 .52.58l3.75-2.69a.72.72 0 0 0 .32-.54zm0 31.16a.7.7 0 0 1-.38.5l-8.15 4.77a2.2 2.2 0 0 1-1.27.22v7.08a2.18 2.18 0 0 0 1.26-.21l8.18-4.73a.63.63 0 0 0 .38-.53zM218.85 447a2.82 2.82 0 0 0-.82.19l-8.28 3.81a1.75 1.75 0 0 1-.74.15v7.08a2 2 0 0 0 .74-.15l8.29-3.84a2.75 2.75 0 0 1 .81-.19zm24 8.7a1.25 1.25 0 0 1-1 .54h-12a1.17 1.17 0 0 1-.74-.26v7.09a1.2 1.2 0 0 0 .72.26h12a1.3 1.3 0 0 0 1.06-.6z" style="fill:#745cff"/><path d="M281 433.3a1.13 1.13 0 0 1-1 .95l-10.89.69a1.4 1.4 0 0 0-.55.14v7.1a1.51 1.51 0 0 1 .53-.15l10.9-.7a1.09 1.09 0 0 0 1-1.08zm-8.76-18.73a.6.6 0 0 1 0 .22.51.51 0 0 1-.14.21.58.58 0 0 1-.14.13l-6.48 4.66a.73.73 0 0 0-.16.14.76.76 0 0 0-.2.4.62.62 0 0 0 0 .27.58.58 0 0 0 0 .14 1 1 0 0 0 .22.38l.12.14a16.09 16.09 0 0 1 2.19 3.07 2 2 0 0 0 .52.58l3.75-2.69a.72.72 0 0 0 .32-.54zm0 31.16a.7.7 0 0 1-.38.5l-8.15 4.77a2.2 2.2 0 0 1-1.27.22v7.08a2.18 2.18 0 0 0 1.26-.21l8.18-4.73a.63.63 0 0 0 .38-.53zM218.85 447a2.82 2.82 0 0 0-.82.19l-8.28 3.81a1.75 1.75 0 0 1-.74.15v7.08a2 2 0 0 0 .74-.15l8.29-3.84a2.75 2.75 0 0 1 .81-.19zm24 8.7a1.25 1.25 0 0 1-1 .54h-12a1.17 1.17 0 0 1-.74-.26v7.09a1.2 1.2 0 0 0 .72.26h12a1.3 1.3 0 0 0 1.06-.6z" style="fill:#fff;opacity:.7000000000000001"/><path d="m261.9 409.22-8.29 3.84a3.05 3.05 0 0 1-1.89.11 50.83 50.83 0 0 0-6.44-1.53 1.58 1.58 0 0 1-1.2-1.16l-1-5.47a1.29 1.29 0 0 0-1.21-1h-12a1.29 1.29 0 0 0-1.21 1l-1 5.47a1.55 1.55 0 0 1-1.19 1.16 50.83 50.83 0 0 0-6.44 1.53 3 3 0 0 1-1.89-.11l-8.29-3.84a2.2 2.2 0 0 0-1.81.08l-8.28 4.7a.61.61 0 0 0-.06 1.11l6.48 4.66a.86.86 0 0 1 .12 1.33 16.81 16.81 0 0 0-2.31 3.21 2 2 0 0 1-1.47 1l-10.9.69a1.1 1.1 0 0 0-1 1.08v6.08a1.11 1.11 0 0 0 1 1.09l10.9.69a2 2 0 0 1 1.47 1 16.5 16.5 0 0 0 2.31 3.21.86.86 0 0 1-.12 1.33l-6.48 4.67a.6.6 0 0 0 .06 1.1l8.18 4.73a2.21 2.21 0 0 0 1.8.08l8.29-3.84a3 3 0 0 1 1.9-.12 47.61 47.61 0 0 0 6.44 1.53 1.56 1.56 0 0 1 1.19 1.17l1 5.46a1.29 1.29 0 0 0 1.21 1h12a1.29 1.29 0 0 0 1.21-1l1-5.46a1.59 1.59 0 0 1 1.2-1.17 48 48 0 0 0 6.44-1.53 3.06 3.06 0 0 1 1.89.12l8.39 3.78a2.24 2.24 0 0 0 1.81-.08l8.18-4.73a.61.61 0 0 0 .06-1.1l-6.48-4.67a.86.86 0 0 1-.12-1.33 16.5 16.5 0 0 0 2.31-3.21 2 2 0 0 1 1.47-1l10.9-.69a1.11 1.11 0 0 0 1-1.09v-6.08a1.1 1.1 0 0 0-1-1.08l-10.9-.69a2 2 0 0 1-1.47-1 16.81 16.81 0 0 0-2.31-3.21.86.86 0 0 1 .12-1.33l6.48-4.66a.61.61 0 0 0-.06-1.11l-8.18-4.72a2.2 2.2 0 0 0-1.81 0zm-12.26 12.93c7.63 4.4 7.63 11.54 0 16s-20 4.4-27.63 0-7.63-11.55 0-16 19.99-4.41 27.63 0z" style="fill:#745cff"/><g style="opacity:.55"><path d="m261.9 409.22-8.29 3.84a3.05 3.05 0 0 1-1.89.11 50.83 50.83 0 0 0-6.44-1.53 1.58 1.58 0 0 1-1.2-1.16l-1-5.47a1.29 1.29 0 0 0-1.21-1h-12a1.29 1.29 0 0 0-1.21 1l-1 5.47a1.55 1.55 0 0 1-1.19 1.16 50.83 50.83 0 0 0-6.44 1.53 3 3 0 0 1-1.89-.11l-8.29-3.84a2.2 2.2 0 0 0-1.81.08l-8.28 4.7a.61.61 0 0 0-.06 1.11l6.48 4.66a.86.86 0 0 1 .12 1.33 16.81 16.81 0 0 0-2.31 3.21 2 2 0 0 1-1.47 1l-10.9.69a1.1 1.1 0 0 0-1 1.08v6.08a1.11 1.11 0 0 0 1 1.09l10.9.69a2 2 0 0 1 1.47 1 16.5 16.5 0 0 0 2.31 3.21.86.86 0 0 1-.12 1.33l-6.48 4.67a.6.6 0 0 0 .06 1.1l8.18 4.73a2.21 2.21 0 0 0 1.8.08l8.29-3.84a3 3 0 0 1 1.9-.12 47.61 47.61 0 0 0 6.44 1.53 1.56 1.56 0 0 1 1.19 1.17l1 5.46a1.29 1.29 0 0 0 1.21 1h12a1.29 1.29 0 0 0 1.21-1l1-5.46a1.59 1.59 0 0 1 1.2-1.17 48 48 0 0 0 6.44-1.53 3.06 3.06 0 0 1 1.89.12l8.39 3.78a2.24 2.24 0 0 0 1.81-.08l8.18-4.73a.61.61 0 0 0 .06-1.1l-6.48-4.67a.86.86 0 0 1-.12-1.33 16.5 16.5 0 0 0 2.31-3.21 2 2 0 0 1 1.47-1l10.9-.69a1.11 1.11 0 0 0 1-1.09v-6.08a1.1 1.1 0 0 0-1-1.08l-10.9-.69a2 2 0 0 1-1.47-1 16.81 16.81 0 0 0-2.31-3.21.86.86 0 0 1 .12-1.33l6.48-4.66a.61.61 0 0 0-.06-1.11l-8.18-4.72a2.2 2.2 0 0 0-1.81 0zm-12.26 12.93c7.63 4.4 7.63 11.54 0 16s-20 4.4-27.63 0-7.63-11.55 0-16 19.99-4.41 27.63 0z" style="fill:#fff"/><path d="M241.84 456.63h-12a1.67 1.67 0 0 1-1.6-1.32l-1-5.47a1.18 1.18 0 0 0-.87-.84 49.24 49.24 0 0 1-6.49-1.54 2.6 2.6 0 0 0-1.61.09l-8.29 3.84a2.6 2.6 0 0 1-2.18-.1l-8.17-4.72a1.07 1.07 0 0 1-.59-.86 1.1 1.1 0 0 1 .5-.92l6.48-4.66a.5.5 0 0 0 .21-.33.57.57 0 0 0-.15-.41 16.28 16.28 0 0 1-2.37-3.28 1.59 1.59 0 0 0-1.15-.77l-10.9-.69a1.51 1.51 0 0 1-1.39-1.49v-6.08a1.5 1.5 0 0 1 1.39-1.48l10.9-.69a1.65 1.65 0 0 0 1.15-.77 16.06 16.06 0 0 1 2.37-3.29.53.53 0 0 0 .15-.4.48.48 0 0 0-.21-.33l-6.48-4.67a1.1 1.1 0 0 1-.5-.91 1.09 1.09 0 0 1 .59-.87l8.17-4.72a2.64 2.64 0 0 1 2.18-.1l8.29 3.84a2.68 2.68 0 0 0 1.61.1 49.24 49.24 0 0 1 6.49-1.54 1.17 1.17 0 0 0 .87-.85l1-5.46a1.67 1.67 0 0 1 1.6-1.33h12a1.67 1.67 0 0 1 1.6 1.33l1 5.46a1.17 1.17 0 0 0 .87.85 49.24 49.24 0 0 1 6.49 1.54 2.61 2.61 0 0 0 1.61-.1l8.29-3.84a2.64 2.64 0 0 1 2.18.1l8.17 4.72a1.05 1.05 0 0 1 .58.87 1.07 1.07 0 0 1-.49.91l-6.48 4.67a.48.48 0 0 0-.21.33.53.53 0 0 0 .15.4 16.06 16.06 0 0 1 2.37 3.29 1.65 1.65 0 0 0 1.15.77l10.9.69a1.51 1.51 0 0 1 1.39 1.48v6.08a1.52 1.52 0 0 1-1.39 1.49l-10.9.69a1.57 1.57 0 0 0-1.15.77 16.62 16.62 0 0 1-2.37 3.29.53.53 0 0 0-.15.4.5.5 0 0 0 .21.33l6.48 4.66a1.07 1.07 0 0 1 .49.92 1 1 0 0 1-.58.86l-8.18 4.72a2.58 2.58 0 0 1-2.17.1l-8.29-3.84a2.67 2.67 0 0 0-1.61-.09 49.24 49.24 0 0 1-6.49 1.54 1.18 1.18 0 0 0-.87.84l-1 5.47a1.67 1.67 0 0 1-1.6 1.32zm-22.67-10.06a3.07 3.07 0 0 1 .88.12 49.56 49.56 0 0 0 6.38 1.52 2 2 0 0 1 1.53 1.48l1 5.47a.86.86 0 0 0 .81.67h12a.87.87 0 0 0 .81-.67l1-5.47a2 2 0 0 1 1.53-1.48 49.56 49.56 0 0 0 6.38-1.52 3.46 3.46 0 0 1 2.18.13l8.29 3.84a1.8 1.8 0 0 0 1.44-.06l8.18-4.72c.11-.07.18-.15.18-.21s-.05-.15-.16-.23l-6.48-4.66a1.27 1.27 0 0 1-.54-.9 1.35 1.35 0 0 1 .36-1 16 16 0 0 0 2.26-3.13 2.38 2.38 0 0 1 1.8-1.18l10.89-.69a.72.72 0 0 0 .65-.69v-6.08a.7.7 0 0 0-.65-.68l-10.89-.69a2.38 2.38 0 0 1-1.8-1.19 16.27 16.27 0 0 0-2.26-3.13 1.33 1.33 0 0 1-.36-1 1.31 1.31 0 0 1 .54-.91l6.48-4.66c.11-.07.17-.16.16-.22s-.07-.15-.18-.21l-8.18-4.72a1.8 1.8 0 0 0-1.44-.07l-8.29 3.84a3.32 3.32 0 0 1-2.18.13 47.59 47.59 0 0 0-6.38-1.51 2 2 0 0 1-1.53-1.49l-1-5.46a.87.87 0 0 0-.81-.68h-12a.87.87 0 0 0-.81.68l-1 5.46a2 2 0 0 1-1.53 1.49 48 48 0 0 0-6.38 1.51 3.46 3.46 0 0 1-2.18-.13l-8.29-3.84a1.8 1.8 0 0 0-1.44.07l-8.14 4.67c-.11.06-.18.14-.18.21s.05.15.16.22l6.48 4.66a1.31 1.31 0 0 1 .54.91 1.33 1.33 0 0 1-.36 1 16.27 16.27 0 0 0-2.26 3.13 2.41 2.41 0 0 1-1.8 1.19l-10.9.69a.7.7 0 0 0-.64.68v6.08a.7.7 0 0 0 .64.69l10.9.69a2.4 2.4 0 0 1 1.8 1.18 16 16 0 0 0 2.26 3.13 1.35 1.35 0 0 1 .36 1 1.27 1.27 0 0 1-.54.9l-6.48 4.66c-.11.08-.17.16-.16.23s.07.14.18.21l8.18 4.72a1.84 1.84 0 0 0 1.44.06l8.29-3.84a3.28 3.28 0 0 1 1.26-.2zm16.65-4.78a28.65 28.65 0 0 1-14-3.34c-3.82-2.21-5.92-5.16-5.92-8.33s2.1-6.12 5.92-8.32c7.73-4.46 20.3-4.46 28 0 3.82 2.2 5.92 5.16 5.92 8.32s-2.1 6.12-5.92 8.33a28.66 28.66 0 0 1-14 3.34zm0-22.55a27.89 27.89 0 0 0-13.61 3.25c-3.56 2.06-5.52 4.77-5.52 7.63s2 5.58 5.52 7.63c7.51 4.34 19.72 4.34 27.23 0C253 435.7 255 433 255 430.12s-2-5.57-5.52-7.63a27.91 27.91 0 0 0-13.66-3.25z" style="fill:#fff"/></g><path d="M307.13 423.57h-.51l-7.1-.75a4.71 4.71 0 0 1-4.18-5.23l.14-1.1c-.6-.22-1.19-.45-1.76-.7h-.08l-5.39 1.69a5.56 5.56 0 0 1-1.64.24 6 6 0 0 1-3.78-1.31l-3.63-3a4.21 4.21 0 0 1 .82-7.12l1.23-.62-3.33-.57a4.53 4.53 0 0 1-3.58-5.86l1-3.13a5.24 5.24 0 0 1 4.89-3.58l6 .24-.78-.83a4.26 4.26 0 0 1 1.54-7l5.68-2.27a5.67 5.67 0 0 1 2.12-.39 6 6 0 0 1 3.3 1l3.68 2.44c1.07-.18 2.15-.33 3.24-.43l1.09-2.13a5.47 5.47 0 0 1 4.76-2.88 4.24 4.24 0 0 1 .51 0l7.1.74a4.69 4.69 0 0 1 4.17 5.23l-.13 1.1c.6.22 1.19.45 1.76.7h.08l5.39-1.69a5.45 5.45 0 0 1 1.63-.24 6 6 0 0 1 3.79 1.31l3.62 3a4.21 4.21 0 0 1-.82 7.12l-1.22.62 3.32.57a4.55 4.55 0 0 1 3.14 2.1 4.63 4.63 0 0 1 .45 3.76l-1 3.13a5.21 5.21 0 0 1-4.88 3.58l-6-.24.78.83a4.26 4.26 0 0 1-1.54 7l-5.68 2.27a5.67 5.67 0 0 1-2.12.39 6 6 0 0 1-3.3-.95l-3.68-2.44c-1 .18-2.13.33-3.23.43l-1.1 2.13a5.45 5.45 0 0 1-4.77 2.84zm1.87-26a17.53 17.53 0 0 0-6.43 1.14c-2.49 1-3.52 2.27-3.64 3.06s.67 1.57 1.16 2c1.9 1.58 5.32 2.56 8.93 2.56a17.58 17.58 0 0 0 6.44-1.14c2.49-1 3.52-2.27 3.64-3.06s-.67-1.56-1.16-2c-1.94-1.61-5.33-2.59-8.94-2.59z" style="fill:#ebebeb"/><path d="M320 384.2a1.55 1.55 0 0 1-1.07-1.6l.33-2.7a1.24 1.24 0 0 0-1.1-1.38l-7.1-.74a2 2 0 0 0-1.83 1l-1.41 2.75a2.48 2.48 0 0 1-1.84 1.2c-1.23.09-2.46.24-3.67.45a3.64 3.64 0 0 1-2.29-.45l-3.82-2.54a2.7 2.7 0 0 0-2.2-.19l-5.68 2.28a.84.84 0 0 0-.59.72v5.8a1 1 0 0 0 .28.64l.33.35a3 3 0 0 1-1.56.48l-6.49-.26a1.75 1.75 0 0 0-1.64 1.15l-1 3.14a1.29 1.29 0 0 0 0 .39v5.86a1.07 1.07 0 0 0 .92 1l5 .86-2 1a.82.82 0 0 0-.51.71V410a.93.93 0 0 0 .35.65l3.63 3a2.55 2.55 0 0 0 2.17.43l5.52-1.73a3.86 3.86 0 0 1 2.35.16 28.72 28.72 0 0 0 3 1.09 1.5 1.5 0 0 1 .73.51v3.95a1.25 1.25 0 0 0 1.11 1.21l7.08.73a2 2 0 0 0 1.84-1l1.41-2.76a2.46 2.46 0 0 1 1.83-1.19c1.24-.1 2.47-.25 3.68-.46a3.58 3.58 0 0 1 2.29.46l3.82 2.53a2.66 2.66 0 0 0 2.22.23l5.68-2.27a.81.81 0 0 0 .58-.76V409a1 1 0 0 0-.28-.63l-.33-.35a2.94 2.94 0 0 1 1.56-.49l6.48.27a1.75 1.75 0 0 0 1.64-1.16l1-3.13a2.58 2.58 0 0 0 .05-.36v-5.83a1 1 0 0 0-.9-1.08l-5-.86 2-1a.79.79 0 0 0 .51-.72v-5.82a.82.82 0 0 0-.35-.67l-3.62-3a2.61 2.61 0 0 0-2.18-.43l-5.52 1.73a3.86 3.86 0 0 1-2.35-.15 29.42 29.42 0 0 0-3.06-1.12zm-23.55 14.69a10.53 10.53 0 0 1 4.84-3.5c6.16-2.47 14.6-1.59 18.87 2a8.15 8.15 0 0 1 1.45 1.52 10.58 10.58 0 0 1-4.86 3.53c-6.15 2.46-14.6 1.58-18.87-2a7.6 7.6 0 0 1-1.44-1.55z" style="fill:#745cff"/><path d="M320 384.2a1.55 1.55 0 0 1-1.07-1.6l.33-2.7a1.24 1.24 0 0 0-1.1-1.38l-7.1-.74a2 2 0 0 0-1.83 1l-1.41 2.75a2.48 2.48 0 0 1-1.84 1.2c-1.23.09-2.46.24-3.67.45a3.64 3.64 0 0 1-2.29-.45l-3.82-2.54a2.7 2.7 0 0 0-2.2-.19l-5.68 2.28a.84.84 0 0 0-.59.72v5.8a1 1 0 0 0 .28.64l.33.35a3 3 0 0 1-1.56.48l-6.49-.26a1.75 1.75 0 0 0-1.64 1.15l-1 3.14a1.29 1.29 0 0 0 0 .39v5.86a1.07 1.07 0 0 0 .92 1l5 .86-2 1a.82.82 0 0 0-.51.71V410a.93.93 0 0 0 .35.65l3.63 3a2.55 2.55 0 0 0 2.17.43l5.52-1.73a3.86 3.86 0 0 1 2.35.16 28.72 28.72 0 0 0 3 1.09 1.5 1.5 0 0 1 .73.51v3.95a1.25 1.25 0 0 0 1.11 1.21l7.08.73a2 2 0 0 0 1.84-1l1.41-2.76a2.46 2.46 0 0 1 1.83-1.19c1.24-.1 2.47-.25 3.68-.46a3.58 3.58 0 0 1 2.29.46l3.82 2.53a2.66 2.66 0 0 0 2.22.23l5.68-2.27a.81.81 0 0 0 .58-.76V409a1 1 0 0 0-.28-.63l-.33-.35a2.94 2.94 0 0 1 1.56-.49l6.48.27a1.75 1.75 0 0 0 1.64-1.16l1-3.13a2.58 2.58 0 0 0 .05-.36v-5.83a1 1 0 0 0-.9-1.08l-5-.86 2-1a.79.79 0 0 0 .51-.72v-5.82a.82.82 0 0 0-.35-.67l-3.62-3a2.61 2.61 0 0 0-2.18-.43l-5.52 1.73a3.86 3.86 0 0 1-2.35-.15 29.42 29.42 0 0 0-3.06-1.12zm-23.55 14.69a10.53 10.53 0 0 1 4.84-3.5c6.16-2.47 14.6-1.59 18.87 2a8.15 8.15 0 0 1 1.45 1.52 10.58 10.58 0 0 1-4.86 3.53c-6.15 2.46-14.6 1.58-18.87-2a7.6 7.6 0 0 1-1.44-1.55z" style="fill:#fff;opacity:.2"/><path d="M286.19 398.23a2.15 2.15 0 0 0-1.51-1.44l-6.17-1.05a1.08 1.08 0 0 1-.92-1v5.78a1.07 1.07 0 0 0 .91 1l5 .86 2.6-1.31a1.22 1.22 0 0 0 .52-1.67 7 7 0 0 1-.43-1.17zm1.5-9.42a1 1 0 0 0 .28.64l.33.35a2.55 2.55 0 0 0 .54-.41 13 13 0 0 1 1.56-1.39 1.11 1.11 0 0 0 .16-1.67l-2.56-2.71a1 1 0 0 1-.28-.63zM301.29 389.55c-5.31 2.12-7.18 6-4.84 9.35a10.45 10.45 0 0 1 4.83-3.51c6.16-2.46 14.6-1.59 18.88 2a8 8 0 0 1 1.43 1.52c1.64-2.35 1.26-5.12-1.43-7.37-4.27-3.54-12.72-4.46-18.87-1.99z" style="opacity:.1"/><path d="M310.81 409.75a2.21 2.21 0 0 0-.59.68l-1.41 2.76a2.07 2.07 0 0 1-1.05.87v5.84a1.88 1.88 0 0 0 1-.87l1.42-2.76a2 2 0 0 1 .61-.67zm19.52-.78a.81.81 0 0 1-.59.76l-5.67 2.27a2.58 2.58 0 0 1-1.49.06v5.84a2.58 2.58 0 0 0 1.49-.06l5.68-2.27a.83.83 0 0 0 .59-.76zm-37.67-2.45-5.44 1.72a2.5 2.5 0 0 1-1.38 0V414a2.47 2.47 0 0 0 1.37 0l5.46-1.71zm47.78-9.23a1 1 0 0 1-.06.34l-1 3.14a1.74 1.74 0 0 1-1.64 1.15l-6.49-.26a2.54 2.54 0 0 0-1 .21v5.84a2.73 2.73 0 0 1 1-.21l6.49.26a1.73 1.73 0 0 0 1.63-1.15l1-3.13a1 1 0 0 0 .06-.36zm-3.44-9.46a.65.65 0 0 1-.05.2.7.7 0 0 1-.19.3 1.64 1.64 0 0 1-.29.2l-4.55 2.29a.84.84 0 0 0-.28.2 1.14 1.14 0 0 0-.31.47 1.33 1.33 0 0 0-.07.45v.24a1.63 1.63 0 0 0 .11.31 8.66 8.66 0 0 1 .46 1.22 2.15 2.15 0 0 0 1.51 1.46l1.14.18 2-1a.83.83 0 0 0 .51-.73z" style="fill:#745cff"/><path d="M310.81 409.75a2.21 2.21 0 0 0-.59.68l-1.41 2.76a2.07 2.07 0 0 1-1.05.87v5.84a1.88 1.88 0 0 0 1-.87l1.42-2.76a2 2 0 0 1 .61-.67zm19.52-.78a.81.81 0 0 1-.59.76l-5.67 2.27a2.58 2.58 0 0 1-1.49.06v5.84a2.58 2.58 0 0 0 1.49-.06l5.68-2.27a.83.83 0 0 0 .59-.76zm-37.67-2.45-5.44 1.72a2.5 2.5 0 0 1-1.38 0V414a2.47 2.47 0 0 0 1.37 0l5.46-1.71zm47.78-9.23a1 1 0 0 1-.06.34l-1 3.14a1.74 1.74 0 0 1-1.64 1.15l-6.49-.26a2.54 2.54 0 0 0-1 .21v5.84a2.73 2.73 0 0 1 1-.21l6.49.26a1.73 1.73 0 0 0 1.63-1.15l1-3.13a1 1 0 0 0 .06-.36zm-3.44-9.46a.65.65 0 0 1-.05.2.7.7 0 0 1-.19.3 1.64 1.64 0 0 1-.29.2l-4.55 2.29a.84.84 0 0 0-.28.2 1.14 1.14 0 0 0-.31.47 1.33 1.33 0 0 0-.07.45v.24a1.63 1.63 0 0 0 .11.31 8.66 8.66 0 0 1 .46 1.22 2.15 2.15 0 0 0 1.51 1.46l1.14.18 2-1a.83.83 0 0 0 .51-.73z" style="fill:#fff;opacity:.7000000000000001"/><path d="m330.81 383.71-5.52 1.73a3.86 3.86 0 0 1-2.35-.15 29.42 29.42 0 0 0-2.94-1.09 1.55 1.55 0 0 1-1.07-1.6l.33-2.7a1.24 1.24 0 0 0-1.1-1.38l-7.1-.74a2 2 0 0 0-1.83 1l-1.41 2.75a2.48 2.48 0 0 1-1.84 1.2c-1.23.09-2.46.24-3.67.45a3.64 3.64 0 0 1-2.29-.45l-3.82-2.54a2.7 2.7 0 0 0-2.2-.19l-5.68 2.28a.79.79 0 0 0-.31 1.38l2.58 2.74a1.1 1.1 0 0 1-.16 1.66 15.1 15.1 0 0 0-1.55 1.39 3.17 3.17 0 0 1-2.1.89l-6.49-.26a1.75 1.75 0 0 0-1.64 1.15l-1 3.14a1.08 1.08 0 0 0 .87 1.42l6.17 1.05a2.11 2.11 0 0 1 1.5 1.45 8.28 8.28 0 0 0 .47 1.22 1.25 1.25 0 0 1-.52 1.68l-4.56 2.28a.77.77 0 0 0-.15 1.38l3.62 3a2.55 2.55 0 0 0 2.17.43l5.52-1.73a3.93 3.93 0 0 1 2.35.15 28.12 28.12 0 0 0 3 1.09 1.54 1.54 0 0 1 1.06 1.61l-.32 2.69a1.23 1.23 0 0 0 1.1 1.38l7.09.75a2 2 0 0 0 1.84-1l1.41-2.75a2.5 2.5 0 0 1 1.84-1.2c1.23-.09 2.46-.24 3.67-.45a3.58 3.58 0 0 1 2.29.46l3.82 2.53a2.67 2.67 0 0 0 2.22.23l5.68-2.27a.8.8 0 0 0 .31-1.39l-2.58-2.74a1.09 1.09 0 0 1 .16-1.66 15.1 15.1 0 0 0 1.55-1.39 3.15 3.15 0 0 1 2.1-.89l6.49.26a1.73 1.73 0 0 0 1.63-1.15l1-3.14a1.07 1.07 0 0 0-.87-1.41l-6.17-1.06a2.12 2.12 0 0 1-1.51-1.45 8.22 8.22 0 0 0-.46-1.22 1.23 1.23 0 0 1 .52-1.67l4.55-2.29a.76.76 0 0 0 .16-1.37l-3.62-3a2.61 2.61 0 0 0-2.24-.49zm-10.66 7.8c4.27 3.56 2.74 8.43-3.41 10.9s-14.6 1.58-18.87-2-2.74-8.43 3.42-10.9 14.6-1.51 18.86 2z" style="fill:#745cff"/><g style="opacity:.55"><path d="m330.81 383.71-5.52 1.73a3.86 3.86 0 0 1-2.35-.15 29.42 29.42 0 0 0-2.94-1.09 1.55 1.55 0 0 1-1.07-1.6l.33-2.7a1.24 1.24 0 0 0-1.1-1.38l-7.1-.74a2 2 0 0 0-1.83 1l-1.41 2.75a2.48 2.48 0 0 1-1.84 1.2c-1.23.09-2.46.24-3.67.45a3.64 3.64 0 0 1-2.29-.45l-3.82-2.54a2.7 2.7 0 0 0-2.2-.19l-5.68 2.28a.79.79 0 0 0-.31 1.38l2.58 2.74a1.1 1.1 0 0 1-.16 1.66 15.1 15.1 0 0 0-1.55 1.39 3.17 3.17 0 0 1-2.1.89l-6.49-.26a1.75 1.75 0 0 0-1.64 1.15l-1 3.14a1.08 1.08 0 0 0 .87 1.42l6.17 1.05a2.11 2.11 0 0 1 1.5 1.45 8.28 8.28 0 0 0 .47 1.22 1.25 1.25 0 0 1-.52 1.68l-4.56 2.28a.77.77 0 0 0-.15 1.38l3.62 3a2.55 2.55 0 0 0 2.17.43l5.52-1.73a3.93 3.93 0 0 1 2.35.15 28.12 28.12 0 0 0 3 1.09 1.54 1.54 0 0 1 1.06 1.61l-.32 2.69a1.23 1.23 0 0 0 1.1 1.38l7.09.75a2 2 0 0 0 1.84-1l1.41-2.75a2.5 2.5 0 0 1 1.84-1.2c1.23-.09 2.46-.24 3.67-.45a3.58 3.58 0 0 1 2.29.46l3.82 2.53a2.67 2.67 0 0 0 2.22.23l5.68-2.27a.8.8 0 0 0 .31-1.39l-2.58-2.74a1.09 1.09 0 0 1 .16-1.66 15.1 15.1 0 0 0 1.55-1.39 3.15 3.15 0 0 1 2.1-.89l6.49.26a1.73 1.73 0 0 0 1.63-1.15l1-3.14a1.07 1.07 0 0 0-.87-1.41l-6.17-1.06a2.12 2.12 0 0 1-1.51-1.45 8.22 8.22 0 0 0-.46-1.22 1.23 1.23 0 0 1 .52-1.67l4.55-2.29a.76.76 0 0 0 .16-1.37l-3.62-3a2.61 2.61 0 0 0-2.24-.49zm-10.66 7.8c4.27 3.56 2.74 8.43-3.41 10.9s-14.6 1.58-18.87-2-2.74-8.43 3.42-10.9 14.6-1.51 18.86 2z" style="fill:#fff"/><path d="M307.12 414.68h-.2l-7.09-.74a1.72 1.72 0 0 1-1.18-.65 1.7 1.7 0 0 1-.36-1.29l.32-2.69a1 1 0 0 0-.71-1.07 31.3 31.3 0 0 1-3-1.11 3.4 3.4 0 0 0-2-.14l-5.52 1.73a3.08 3.08 0 0 1-2.64-.52l-3.62-3a1.26 1.26 0 0 1 .25-2.2l4.55-2.29a.75.75 0 0 0 .3-1 8.12 8.12 0 0 1-.49-1.29 1.64 1.64 0 0 0-1.12-1.1l-6.17-1a1.6 1.6 0 0 1-1.1-.74 1.56 1.56 0 0 1-.15-1.32l1-3.14a2.23 2.23 0 0 1 2.13-1.5l6.49.27a2.66 2.66 0 0 0 1.72-.75 17.26 17.26 0 0 1 1.6-1.43.6.6 0 0 0 .11-.93l-2.62-2.78a1.3 1.3 0 0 1 .48-2.19l5.68-2.27a3.16 3.16 0 0 1 2.68.28l3.82 2.53a3.13 3.13 0 0 0 1.93.39 37.42 37.42 0 0 1 3.72-.47 2 2 0 0 0 1.44-.93l1.41-2.75a2.49 2.49 0 0 1 2.32-1.26l7.1.74a1.72 1.72 0 0 1 1.18.65 1.7 1.7 0 0 1 .36 1.29l-.32 2.7a1 1 0 0 0 .71 1.06 31.3 31.3 0 0 1 3 1.11 3.36 3.36 0 0 0 2 .14l5.53-1.73a3.09 3.09 0 0 1 2.64.52l3.62 3a1.25 1.25 0 0 1-.25 2.19l-4.56 2.29a.75.75 0 0 0-.29 1 9.21 9.21 0 0 1 .49 1.29 1.61 1.61 0 0 0 1.11 1.1l6.17 1.06a1.58 1.58 0 0 1 1.11.73 1.6 1.6 0 0 1 .15 1.32l-1 3.14a2.25 2.25 0 0 1-2.13 1.5l-6.49-.26a2.67 2.67 0 0 0-1.72.74 15.93 15.93 0 0 1-1.61 1.43.68.68 0 0 0-.27.47.59.59 0 0 0 .17.46l2.58 2.74a1.29 1.29 0 0 1-.49 2.19l-5.67 2.27a3.18 3.18 0 0 1-2.69-.28l-3.81-2.53a3.06 3.06 0 0 0-1.93-.38c-1.21.21-2.47.36-3.73.46a2 2 0 0 0-1.43.93l-1.41 2.75a2.52 2.52 0 0 1-2.1 1.26zm-13.5-8.78a4.23 4.23 0 0 1 1.66.31 27.75 27.75 0 0 0 2.91 1.07 2.06 2.06 0 0 1 1.41 2.14l-.33 2.69a.76.76 0 0 0 .16.56.73.73 0 0 0 .5.27l7.1.74a1.52 1.52 0 0 0 1.34-.72l1.41-2.76a3 3 0 0 1 2.24-1.46c1.23-.09 2.45-.25 3.63-.45a4.06 4.06 0 0 1 2.65.53l3.81 2.54a2.23 2.23 0 0 0 1.77.18l5.67-2.27c.16-.07.26-.16.28-.25a.4.4 0 0 0-.15-.34l-2.57-2.74a1.55 1.55 0 0 1-.44-1.21 1.65 1.65 0 0 1 .65-1.18 16.54 16.54 0 0 0 1.51-1.34 3.57 3.57 0 0 1 2.47-1l6.49.26a1.27 1.27 0 0 0 1.14-.81l1-3.14a.61.61 0 0 0 0-.5.65.65 0 0 0-.43-.28l-6.17-1.05a2.58 2.58 0 0 1-1.9-1.8 8 8 0 0 0-.44-1.15 1.73 1.73 0 0 1 .75-2.33l4.55-2.28a.4.4 0 0 0 .24-.25.37.37 0 0 0-.18-.3l-3.62-3a2.12 2.12 0 0 0-1.71-.33l-5.52 1.73a4.37 4.37 0 0 1-2.69-.18 30.2 30.2 0 0 0-2.91-1.07 2 2 0 0 1-1.41-2.13l.33-2.7a.72.72 0 0 0-.16-.55.71.71 0 0 0-.51-.28l-7.09-.74a1.49 1.49 0 0 0-1.34.72l-1.41 2.76a2.94 2.94 0 0 1-2.24 1.46c-1.23.1-2.45.25-3.63.45a4.06 4.06 0 0 1-2.65-.53l-3.82-2.54a2.25 2.25 0 0 0-1.76-.18l-5.68 2.28a.31.31 0 0 0-.13.58l2.58 2.74a1.6 1.6 0 0 1 .44 1.22 1.66 1.66 0 0 1-.66 1.17 16.39 16.39 0 0 0-1.5 1.34 3.62 3.62 0 0 1-2.47 1.05l-6.49-.27a1.23 1.23 0 0 0-1.14.81l-1 3.14a.61.61 0 0 0 .05.5.62.62 0 0 0 .43.28l6.17 1.05a2.61 2.61 0 0 1 1.9 1.8 7.74 7.74 0 0 0 .44 1.15 1.73 1.73 0 0 1-.75 2.33l-4.55 2.29c-.15.07-.24.16-.25.25a.4.4 0 0 0 .18.29l3.63 3a2.08 2.08 0 0 0 1.71.34l5.52-1.73a3.33 3.33 0 0 1 .98-.18zm15.43-1.61c-4.42 0-8.78-1.21-11.49-3.47-2-1.63-2.86-3.62-2.54-5.63.39-2.49 2.61-4.72 6.08-6.11 6.3-2.52 15-1.6 19.37 2.05 1.95 1.63 2.85 3.63 2.54 5.63-.4 2.49-2.61 4.72-6.08 6.11a21.48 21.48 0 0 1-7.88 1.42zm0-15.65a20.59 20.59 0 0 0-7.54 1.36c-3.14 1.26-5.13 3.21-5.47 5.35-.26 1.67.49 3.29 2.19 4.71 4.14 3.44 12.38 4.29 18.37 1.89 3.14-1.26 5.13-3.21 5.47-5.35.26-1.66-.5-3.29-2.19-4.7-2.59-2.12-6.69-3.26-10.88-3.26z" style="fill:#fff"/></g></g></g><g><path d="M42.88 383.56c.64-9.43 1-13.84 1.88-30.69.08-4.31.23-8.94.52-13.05C46.26 326 48 322.7 49.22 318s2.15-13.61 4-43.35A153 153 0 0 1 58.67 241h42.59c4.38 18.64 5.62 59 5.49 78.22-.06 9.79-.17 60.4.07 64.44a13.63 13.63 0 0 0 4.1 8.78c3.51 3.76 6 5.29 10.42 8.57-.63 1.68-9.85 1.62-12.47.34a99.46 99.46 0 0 1-11-6.46c-3.61-2.68-4.46-4.29-4.52-8.36a10.51 10.51 0 0 1 0-1.33c-.07-2.38-6.92-37.84-8.42-45.85-1.16-6.22.11-18.26.11-18.26l-4.51-29.63s-5.09 19.66-7.81 31.64c-2 8.8-6.94 22.71-10.18 36.78-3.78 14.31-4.08 15.57-6.31 25.82-1.13 5.16-3.88 22.54-5.13 26.11-4 11.53-13.2 5.8-13.71-.57-.31-4.24 5.35-25.65 5.49-27.68z" style="fill:#ffbda7"/><path d="m80.57 291.48 3.3-21.37s12.75-1.51 17.39-6c0 0-5.85 8.25-14.5 9.6l-3.64 17.71L85 320.85z" style="fill:#f0997a"/><path d="M131.1 405.8a3.71 3.71 0 0 1-.66 3.76c-1.48 1.31-5.85 3.47-11.67 2.79s-9-2.46-11.32-4.38-5.63-4.62-8.27-5.18c-2.44-.51-6.43-1.84-7.22-2.59s-.71-4.1-.71-4.1z" style="fill:#263238"/><path d="M93.31 384.32a1.79 1.79 0 0 0-.92 1.15c-.17.93-.17 2.11-.54 3.63a27.1 27.1 0 0 0-.48 8.16c.34 1.71 5.65 3.12 8.21 4.06a32.59 32.59 0 0 1 8.29 5.11 23.88 23.88 0 0 0 12.3 4.43c5.78 0 9.5-1.58 10.63-3.67 1.41-2.59.27-4.06-6.4-7.07-1.27-.57-5.71-3.13-7.22-4.06a34.48 34.48 0 0 1-4.56-3.32 27.31 27.31 0 0 1-2.05-2 9.37 9.37 0 0 1-1.7-2.13c-.08-.17-.13-.38-.2-.56a9.45 9.45 0 0 1-.45-1.55c-.11-.55-.19-1.36-.72-1.68a4.33 4.33 0 0 0-2.37-.26 20 20 0 0 0-2.56.39c-1 .23-3.43.08-4 1a4.88 4.88 0 0 0-.52 2.41v1.17c0 .16.07.46-.16.39s-.47-.64-.56-.83c-.19-.43-.31-.9-.52-1.32a3.75 3.75 0 0 0-.84-1.4c-1.11-.92-2.18-.72-2.5-1 0-.02-.12-.72-.16-1.05z" style="fill:#37474f"/><path d="M125.47 400.62c-8.36.66-10.93 5.86-11.25 9.06a19.57 19.57 0 0 0 6 1.18c5.78 0 9.74-1.58 10.87-3.67 1.27-2.44.34-4.38-5.62-6.57z" style="fill:#fafafa"/><path d="M112.94 400.84a.39.39 0 0 1-.26-.09.41.41 0 0 1-.07-.58 9.86 9.86 0 0 1 7.53-3.06.41.41 0 0 1 .37.45.4.4 0 0 1-.45.36 9.11 9.11 0 0 0-6.81 2.76.41.41 0 0 1-.31.16zM109.31 398.78a.43.43 0 0 1-.26-.09.41.41 0 0 1-.06-.58 9.82 9.82 0 0 1 7.53-3.06.41.41 0 1 1-.08.81 9.15 9.15 0 0 0-6.82 2.76.38.38 0 0 1-.31.16zM106 396.42a.42.42 0 0 1-.33-.67 9.84 9.84 0 0 1 7.53-3.06.4.4 0 0 1 .37.44.4.4 0 0 1-.44.37 9.13 9.13 0 0 0-6.82 2.76.43.43 0 0 1-.31.16zM102.65 394.05a.38.38 0 0 1-.25-.08.42.42 0 0 1-.08-.58c1.58-2 5.19-3.41 8.23-3.11a.41.41 0 0 1 .37.45.42.42 0 0 1-.45.37c-2.74-.27-6.1 1-7.5 2.8a.41.41 0 0 1-.32.15z" style="fill:#f0f0f0"/><path d="M52.39 413.15c-.66 3.89-1.55 6.42-3.2 8.57s-4.34 2.57-6.92 1.6-5.78-3.14-6.17-6.6-.57-5.83.43-9.39z" style="fill:#263238"/><path d="M42.88 383.56c-1.11 0-1.39 5.19-2.61 10.38-1.3 5.57-2.36 7.72-3.48 12.28-1.27 5.21-.66 7.66.84 11.07s7.71 7.26 11.44 3c3-3.44 3.62-7.57 4-12.87a77.29 77.29 0 0 1 2.2-13.16c.93-4.22 1.94-8 1-8.58a37.91 37.91 0 0 1-1.12 4.19c-.15.29-.65 1-.7-.15 0-.33.17-1.08.18-1.4a1.4 1.4 0 0 0-.85-1.38 10.6 10.6 0 0 0-4.55-1.54c-2.13-.25-4-.52-5.23 0-.76.28-.82 1-1 1.63s-.25 1.27-.43 1.09c-.32-.36.36-3.98.31-4.56z" style="fill:#37474f"/><path d="M36.15 409.25a13.2 13.2 0 0 0 1.16 8.25c1.49 3.41 8.23 7.34 12 3.12 1.86-2.1 2.59-4.75 3.11-7.47-1.57-3.74-12.88-6.57-16.27-3.9z" style="fill:#fafafa"/><path d="m50.64 407.14-.13-.05a18.68 18.68 0 0 0-9.92-2.09.41.41 0 0 1-.45-.36.4.4 0 0 1 .36-.45 19.31 19.31 0 0 1 10.5 2.2.42.42 0 0 1 .13.57.43.43 0 0 1-.49.18zM41.27 401.09a.4.4 0 0 1-.31-.31.41.41 0 0 1 .31-.49c5.09-1.12 10.25 2 10.45 2.11a.41.41 0 1 1-.46.68s-5.08-3-9.81-2a.54.54 0 0 1-.18.01zM41.86 397.39a.38.38 0 0 1-.31-.3.4.4 0 0 1 .3-.49c5.6-1.34 10.47 2 10.65 2.1a.4.4 0 0 1 .07.57.41.41 0 0 1-.57.08s-4.74-3.2-10-2a.28.28 0 0 1-.14.04z" style="fill:#f0f0f0"/><path d="M42.53 393.77a.41.41 0 0 1-.31-.3.42.42 0 0 1 .3-.5c5.26-1.33 10.51 2.08 10.7 2.22a.4.4 0 0 1 .09.57.4.4 0 0 1-.57.09s-5.14-3.32-10-2.09a.41.41 0 0 1-.21.01z" style="fill:#ebebeb"/><path d="M55.29 241c-1.6 11.62-2.1 14.48-3.84 40.38-1.68 25.11-1.82 28.79-2.07 31.82-.57 6.93-3.64 9.33-4.54 25.7-.82 15-1.32 33.51-1.32 33.51s2 2.77 7.74 3.29c5.27.47 7.91-1.51 7.91-1.51s9.77-35 12.5-43.78c3.7-11.95 8.9-32.93 8.9-32.93l3.45 24a86.26 86.26 0 0 0 1.12 22.36C87.9 357.33 90.73 372 90.73 372a17.94 17.94 0 0 0 7.94 1c6.17-.62 8.23-2.06 8.23-2.06s1.73-40.67 1.73-55.53-.18-51.22-1-74.34z" style="fill:#455a64"/><path d="m80.57 297.5 4.28-26s8.6-2.27 14.13-8.05c-.41 4.31-8.06 9.83-11.65 10.69l-4.78 23L84 321.51zM70.58 245.05a35.44 35.44 0 0 0-3.22 6.82 67.23 67.23 0 0 0-2.15 7.22 74.79 74.79 0 0 0-1.36 7.41 49.75 49.75 0 0 0-.5 7.52c.6-2.45 1.16-4.87 1.72-7.3s1.09-4.85 1.68-7.26 1.17-4.82 1.78-7.23 1.3-4.78 2.05-7.18zM67.3 246a26.77 26.77 0 0 0-3.4 3.82 35.6 35.6 0 0 0-2.76 4.29 32.65 32.65 0 0 0-2.1 4.67 20.12 20.12 0 0 0-1.15 5l2.29-4.5c.77-1.48 1.54-3 2.35-4.4s1.61-2.92 2.41-4.39 1.62-2.99 2.36-4.49zM72.76 276c-1.08 7.79-2.06 15.59-3 23.38s-2.88 16.39-4.31 24.08-10.53 37.85-11.72 45.62c1.8-7.66 11.76-37.59 13.27-45.33s3.23-16.4 4-24.23 1.29-15.66 1.76-23.52zM100.73 276l1.28 20.5c.19 3.41.41 6.82.57 10.23s.36 6.84.3 10.21-.28 36.1.18 42.95c.8-7.63 1.17-36 1.4-42.93 0-6.92-.61-13.73-1.22-20.56s-1.45-13.62-2.51-20.4zM90.09 368.67l1.16 7.12s2.85 1.82 8.84 1.2 6.85-2.55 6.85-2.55v-6.7s-1.44 1.39-6.91 2a23.66 23.66 0 0 1-9.94-1.07zM43.65 367.47l-.53 7.19s2.35 2.44 8.31 3.23 7.26-.89 7.26-.89l1.56-6.51s-1.72 1-7.18.34a23.53 23.53 0 0 1-9.42-3.36z" style="fill:#37474f"/><g><path d="M98.36 182.85c8.67 1.75 11.8 4.26 16.66 12.37 3.59 6 5.77 9.88 11.61 18.33l18.28 2-3.68 13.19s-11.26.36-17.63.86c-4.77.38-5.86 0-8.83-3.57-6.13-7.37-13.51-17.86-13.51-17.86z" style="fill:#e0e0e0"/><path d="M71.61 180.88c-3.34.54-12.5 3.09-18 4.8 0 0-2.86 7.64.68 34.16.45 3.41.37 11.58.24 17.5s-.77 12.41-1.39 18.56c0 0 10.2 5.79 33.57 3.4 18.36-1.88 21.3-6.41 21.3-6.41s.14-25.06.39-38.64c.29-16.39-5.92-26.9-10.07-31.4-4.82-1.43-12.81-1.85-12.81-1.85z" style="fill:#f0f0f0"/><path d="M54.47 185.41c-7 1.39-7.64 2.83-10.85 10-2.34 5.23-8.12 18.78-9.46 28.65-.51 3.71.53 8.63 2.54 10.86 4.62 5.12 15.77-14 15.77-14l9.2-14.92s-.25-18.7-7.2-20.59z" style="fill:#e0e0e0"/><path d="M97.32 153.67c1.87-4.63-.25-10.65-2.71-13.43-3.56-4-9-5.66-17-4.93-6.14.55-13.43 3.49-14.41 9.84-5.61 3-3.37 10.89-1.76 14.18 3.38 6.9 8.06 12.24 8.25 15.95z" style="fill:#263238"/><path d="M97.4 171.22a10.45 10.45 0 0 1-7.51 6.49 20.39 20.39 0 0 1-3.28.35l.25 4.1c2.64 1.82 3.08 8.55.74 10.68a34 34 0 0 1-18-9.3l-.41-15.08s-1.93 2.31-5.26.27c-2.28-1.41-4.39-5.35-2.46-8.68A4.22 4.22 0 0 1 68 159c1 1 1.57 2.86 2.39 2.57a3 3 0 0 0 2-2.11 18.36 18.36 0 0 0 .88-6.67 8.69 8.69 0 0 0 2.48-2 8.24 8.24 0 0 0 2.07-5.13c6.95-2.39 15-1.58 18 .59 1.76 2.91 2 9.78 2.39 13.73.41 4.24.36 7.81-.81 11.24z" style="fill:#ffbda7"/><path d="M83.74 159.06a1.42 1.42 0 0 1-1.46 1.37 1.41 1.41 0 1 1 1.46-1.37zM94.69 157.86a1.42 1.42 0 1 1-2.83-.09 1.42 1.42 0 0 1 2.83.09z" style="fill:#263238"/><path d="M86.61 178.06c-3.59-.1-10.85-1.58-12.83-3.53s-2.91-6-2.91-6 .43 5.17 2 7.41 5.33 3.13 7.63 3.64a56.53 56.53 0 0 0 6.26.77zM86.94 155.94l1.04 9.95 4.89-1.85-5.93-8.1z" style="fill:#f0997a"/><path d="M83.74 169.16a1.56 1.56 0 1 0 1.53-1.6 1.56 1.56 0 0 0-1.53 1.6z" style="fill:#b16668"/><path d="M86.36 170.27a1.59 1.59 0 0 1-1 .42 1.56 1.56 0 0 1-1.59-1.53 1.46 1.46 0 0 1 .2-.78 4.73 4.73 0 0 1 2.39 1.89z" style="fill:#f28f8f"/><path d="m92.31 153.61 3.26 1.4a1.87 1.87 0 0 0-1-2.39 1.73 1.73 0 0 0-2.26.99zM82.31 154.38 79 155.74a1.86 1.86 0 0 1 1-2.37 1.73 1.73 0 0 1 2.31 1.01z" style="fill:#263238"/><path d="m92.07 138-15.79 7.2c-11.84 5.47-8.63 14.63-6 16.39a13.26 13.26 0 0 0 7.31-14.45c1.47 3.22 6.48 5.61 9.36 5.74-1.42-1.52-1.09-4.15-1.09-4.15s1.41 1.53 6 2c5.43.56 8.5-1.85 8.5-1.85S98 140.89 92.07 138z" style="fill:#263238"/><g><path d="M89.79 194.42s2.21-5.64 2.12-7.42l-3.13-2.82-.32 7.93z" style="fill:#745cff"/><path d="M89.79 194.42s2.21-5.64 2.12-7.42l-3.13-2.82-.32 7.93z" style="opacity:.2"/><path style="fill:#745cff" d="m85.81 192.2-5.23-3.06-3.97 3.08 7.93 3.4 1.27-3.42z"/><path style="opacity:.2" d="m85.81 192.2-5.23-3.06-3.97 3.08 7.93 3.4 1.27-3.42z"/><path d="M84.15 230.52c.63-16.12 2.24-28.33 2-32.25l2.75-.27c1.83 4.73 7.72 18.8 7.42 29.94.08 3.89-2.49 12.65-5.11 12.7s-7.15-7.75-7.06-10.12z" style="fill:#745cff"/><path d="M84.15 230.52c.63-16.12 2.24-28.33 2-32.25l2.75-.27c1.83 4.73 7.72 18.8 7.42 29.94.08 3.89-2.49 12.65-5.11 12.7s-7.15-7.75-7.06-10.12z" style="fill:#fff;opacity:.1"/><path d="M89.13 198.64c-.1-.25-.16-.42-.23-.6l-2.74.23v1.18a4.82 4.82 0 0 0 2.97-.81z" style="opacity:.2"/><path d="M85.7 192.15a18 18 0 0 1 2.76-.17 6.3 6.3 0 0 1 1.47 2.13 9.37 9.37 0 0 1-1 3.93 3.34 3.34 0 0 1-2.75.23 5.75 5.75 0 0 1-1.93-2.67 4.88 4.88 0 0 1 1.45-3.45z" style="fill:#745cff"/><path d="M85.7 192.15a18 18 0 0 1 2.76-.17 6.3 6.3 0 0 1 1.47 2.13 9.37 9.37 0 0 1-1 3.93 3.34 3.34 0 0 1-2.75.23 5.75 5.75 0 0 1-1.93-2.67 4.88 4.88 0 0 1 1.45-3.45z" style="fill:#fff;opacity:.1"/><path d="m86.05 192.1-.35.05c-2-.91-2.5-1.34-3-1.16-.94.33-3 4.45-3.44 5.78s-.38 1.3-2.21.24c-3.54-2.07-7.82-5.16-9.65-7.48a15.9 15.9 0 0 1-3.05-6.94 24.94 24.94 0 0 0 2.78-2.91c1.31-2 1.39-3 2.3-3.24v1.76c.3 1.77 3.09 3.3 5.71 5.3s6.86 3.8 7.86 4.66a21.61 21.61 0 0 1 3.05 3.94zM94.91 192.77c-.23.75-2.89-4.8-4-4.61-.54.07-2 2.46-2.43 3.82h-.57a17.3 17.3 0 0 0 .54-4.82c.11-1.95-1.57-5-1.57-5l-.25-4.1c.32 0 .93 0 1.37-.08.31.27.91 1.48 1.49 2.2 1.34 1.66 4.39 4.08 4.89 6.23a18.8 18.8 0 0 1 .53 6.36z" style="fill:#e6e6e6"/></g><g><path style="fill:#745cff" d="m156.4 198.63-41.03 9.53-16.11 45.76.78 1.04 39.1-9.83 18.04-45.46-.78-1.04z"/><path style="opacity:.35000000000000003" d="m116.14 209.19-16.1 45.77-.78-1.04 16.11-45.76.77 1.03z"/><path style="opacity:.25" d="m157.18 199.67-41.04 9.52-16.1 45.77 39.1-9.83 18.04-45.46z"/><path d="M144.21 208s.23-.69.5-1.54-2.09-.65-5.29.45l-7.36 1.36c-3.2 1.1-6.19 1.84-6.47 2.69l-.5 1.54z" style="opacity:.1"/><path d="M147.35 201.1c.18-.53-.74-.52-2-.33l-2.36.52s1.18-2.18-4.37-1.32c-6.1.95-6.55 3.89-6.55 3.89a29.06 29.06 0 0 1-3 .72c-2 .42-2.3.78-2.52 1.31l-.4 1 20.92-4.89s.11-.37.28-.9z" style="fill:#37474f"/><path d="M144.9 203.89c-2 .63-2.78 1-3.21 2.27-.48 1.5-.62 2.13-.62 2.13l-10.94 3s.82-2.19 1-2.93-1.16-.89-3.07-.26l.64-1.83 17-4.24z" style="fill:#37474f"/><path d="M144.75 208.05s.22-.69.5-1.54-2.09-.65-5.29.44l-7.36 1.37c-3.2 1.09-6.19 1.84-6.47 2.69l-.5 1.54z" style="fill:#37474f"/><path d="M151.41 220.71c1.4-1.54 1.32-1.77.77-2.71a5.36 5.36 0 0 0-4.06-2.72 11.05 11.05 0 0 0-3.78 0c-.81.3-.35 2 1.53 2.64 3 1 2.84 1.86 2.84 1.86a39.47 39.47 0 0 0-3.84-1.15 29.46 29.46 0 0 0-4.54.15c-1.3.06-1.75 1.68.36 2.5l-2.39.1c-1.68.07-2.34.88-1.17 2a2.39 2.39 0 0 0 1.42.73s-1.75-.2-1.85.37c-.3 1.66.73 2.23 4.15 3.67 2.68 1.13 3.67 2.7 3.48 3.87l-.27.67s1.16-.73 2.47-1.42c1-.51 1.79-1.11 1.55-2.54 0 0 1.92.26 2.18-.91a6.19 6.19 0 0 0-.16-2.61 2.13 2.13 0 0 0 1.29-1.86 3.4 3.4 0 0 0-.46-2.17z" style="fill:#ffbda7"/><path d="M140.69 221.26a11.16 11.16 0 0 1 2.16 0 7 7 0 0 1 2 .9 25.33 25.33 0 0 1 3.49 2.43 25.87 25.87 0 0 1-3.8-1.89 12.1 12.1 0 0 0-1.79-1c-.65-.13-1.39-.22-2.06-.44zM138.55 224.14a4.71 4.71 0 0 1 2.32.21 11.15 11.15 0 0 1 2.11 1 21.18 21.18 0 0 1 3.77 2.62 43.21 43.21 0 0 1-4.07-2.08 12.16 12.16 0 0 0-4.13-1.75z" style="fill:#f0997a"/></g><g><path d="M57.45 194.74a21.38 21.38 0 0 0 4-7.44c.83-3.16 3.38-6.05 4.25-7.24s2.73-2.94 4.16-4.61 1.84-2.13 3.87-2.45c2.78-.43 5-.84 6-.49s1 1.06.09 2-3 1.15-3.57 1.33-2 .75-2 .75l-2.62 3.75a37 37 0 0 1 5.19 1.34c.85.47 1.55 2.69 1.16 3.91a2.35 2.35 0 0 1 .93 2.67s1 1.28.28 2.32a17.45 17.45 0 0 1-2.63 2.84A7.13 7.13 0 0 1 74 194a19.08 19.08 0 0 1-3.34 3.76c-1.51 1.09-2.49 1-4.16 3.3z" style="fill:#ffbda7"/><path d="M73.61 180.76c1-.43 1.28-1.12 2.25-.74s.58 1.49.58 1.49zM78 185.69a10 10 0 0 0-2.1-1.39c-.71-.36-2.19-.91-2.19-.91a10.69 10.69 0 0 1 3 .76 8.37 8.37 0 0 1 1.42.74 2.64 2.64 0 0 1-.11.71zM78.1 187.16a7.85 7.85 0 0 1 1 .52 2.68 2.68 0 0 1-.18.7 8.6 8.6 0 0 0-2.71-1.74 8.9 8.9 0 0 1 1.89.52zM73.55 194.53a21.2 21.2 0 0 1 2.17-3.4 1.57 1.57 0 0 1 2.13-.17c.27.42-1.14.35-1.56.52a13.57 13.57 0 0 0-2.74 3.05zM70.47 180.22s.81-1.12 2.26-2.89 1.36-1.51 2.75-1.76 4-.69 4.75-1.51a4 4 0 0 1-.4.46c-.93.92-3 1.15-3.57 1.33s-2 .75-2 .75l-2.7 3.85z" style="fill:#f0997a"/><path d="M57.45 194.74C52.72 200.3 40 213.63 37 219c-2.06 3.69-2.68 12.33-.68 15.5s7.89 1.9 12.68-2.2c4.14-3.54 7.67-12.14 10.73-18.25s6.71-13 6.71-13z" style="fill:#ffbda7"/><path d="M57.45 194.74a28.88 28.88 0 0 0 2.84-4.5 15.44 15.44 0 0 0 .94-2.48 14.53 14.53 0 0 1 .89-2.52 24.27 24.27 0 0 1 2.9-4.47 38.18 38.18 0 0 1 3.5-4c.61-.64 1.19-1.31 1.77-2a4.61 4.61 0 0 1 2.15-1.59 22.29 22.29 0 0 1 2.64-.5c.87-.14 1.75-.28 2.64-.36a8.7 8.7 0 0 1 1.35 0 2.3 2.3 0 0 1 1.32.44.77.77 0 0 1 .28.7 1.47 1.47 0 0 1-.29.66 3.24 3.24 0 0 1-1 1 8.48 8.48 0 0 1-2.56.85 13.56 13.56 0 0 0-2.49.85h.06l-2.63 3.74-.08-.19a45.34 45.34 0 0 1 4.7 1.15 2.42 2.42 0 0 1 .58.25 1.75 1.75 0 0 1 .45.45 4.23 4.23 0 0 1 .54 1.11 4.31 4.31 0 0 1 .15 2.44v-.12a3.15 3.15 0 0 1 1 1.23 2.12 2.12 0 0 1 .15.78 2.09 2.09 0 0 1-.16.78v-.09a2.36 2.36 0 0 1 .38 2.23 10.46 10.46 0 0 1-1.47 1.65c-.26.27-.53.54-.81.8a2.56 2.56 0 0 1-.94.67 9.65 9.65 0 0 1-2.25.3h.06c-.5.71-1 1.4-1.61 2.06a10 10 0 0 1-1.9 1.78c-.71.51-1.53.82-2.24 1.33a8.36 8.36 0 0 0-1.86 1.83 8.19 8.19 0 0 1 1.79-1.88c.7-.52 1.52-.85 2.22-1.36a9.9 9.9 0 0 0 1.86-1.8c.56-.66 1.08-1.35 1.57-2.06a9.6 9.6 0 0 0 2.21-.34 2.4 2.4 0 0 0 .88-.65c.28-.26.54-.52.8-.8a9.63 9.63 0 0 0 1.4-1.74 2.16 2.16 0 0 0-.37-2.05v-.05a2 2 0 0 0 .14-.71 1.76 1.76 0 0 0-.14-.71 2.86 2.86 0 0 0-.91-1.13h-.06v-.07a4.06 4.06 0 0 0-.16-2.31c-.26-.73-.63-1.51-1.44-1.67a46.65 46.65 0 0 0-4.67-1.12h-.19l.11-.15 2.61-3.76a14.27 14.27 0 0 1 2.53-.88 8.29 8.29 0 0 0 2.48-.8 3.08 3.08 0 0 0 .93-.87c.25-.33.38-.77 0-1a3.69 3.69 0 0 0-2.48-.35c-.87.08-1.75.21-2.63.35a20.21 20.21 0 0 0-2.6.48 4.37 4.37 0 0 0-2.07 1.52c-.58.66-1.16 1.34-1.78 2a36.84 36.84 0 0 0-3.51 4 24.36 24.36 0 0 0-2.91 4.43 13.74 13.74 0 0 0-.91 2.49 15.23 15.23 0 0 1-1 2.48 28.75 28.75 0 0 1-2.7 4.25z" style="fill:#f0997a"/></g></g></g><g><path d="M458.17 334.42c.74 2 1.87 4.34 3.21 8.53s.43 4.52 5.06 14.81c2.78 6.17 2.91 8.79-.13 14.9-3.24 6.53-7.85 6.1-11.82.12-3.4-5.12-3.68-7.71-4.66-13.43s-1.31-7.38-2.34-11.88c-.9-4-1-6.75-1.8-9.77z" style="fill:#37474f"/><path d="M465.92 360.75c-.55-3-2.51-6.81-3.8-10.87-1.73-5.41-2.88-11.13-3.8-14.83-.05-.19-.1-.4-.15-.6-1.36-5.8-3.3-23.67-6.11-40.74-2.43-14.8-5.68-18.5-7.1-21.67 0 0-1.13-14.83-2.75-44.67-1-19-7.74-26.17-9.08-31.15l-40.68.35c-.33 5.7-1.69 13.57-2.06 21.19-1 19.93.11 43.27.6 57.77.12 3.7.61 12.31 1.18 21.54.84 18.5 1.79 33.43 1.16 38s-.9 6.16-2.08 9.37-3.15 7.51-4.91 9.58c0 0-5.07 5.4-3.94 6s11.74 1.68 16.49.25 5.25-5.47 6.87-12.83 3-18.1 3-18.1-.13-.31-.49-1.25c-.44-1.17 1.21-8 2-13 1.39-7.24 2.84-15.19 3.32-19 1.47-11.67-1.29-18.39-1.29-18.39l4.81-28.62s2.16 15.86 5.45 27.49c1.46 5.17 7.58 22.31 7.58 22.31 1.54 4.8 11.18 26.08 15.59 39.16 0 0 3.92 18.11 6.45 25.94a1.56 1.56 0 0 0 2.36.83 14.19 14.19 0 0 1 9.53-2.24 1.56 1.56 0 0 0 1.85-1.82z" style="fill:#ffa8a7"/><path d="m417.15 249.08-4.86-23.51s-12.13-.8-16.74-4.94c0 0 6 7.82 14.2 8.67l4.36 17.27-1.75 30.88z" style="fill:#f28f8f"/><path d="M413.5 340.31c-.32 1.72-1.79 3.67-2.45 6.34a47.69 47.69 0 0 0-1.39 9.3l-.24 4.38-1.19-.06s.31-5.55.44-8 0-4.22-1.16-4.54c0 .02.23-7.73 5.99-7.42z" style="fill:#263238"/><path d="M408.58 328.34c.77 2 3.35 4.88 4.46 6.82a7.34 7.34 0 0 1 .91 3.33 3.54 3.54 0 0 1-1.05 2.61 39.45 39.45 0 0 0-3.69 4.08c-1.46 1.95-4.18 6.5-4.94 9.71s-1.19 6.05-3.95 7.64c-2.15 1.24-11 3-15.44 3.26-6.1.39-7.68-2.54-5.4-4.89s6.16-6.35 6.86-6.85a11 11 0 0 1 5.66.79c3.42 1.47 4.51 3.46 8.09 1.67 3.25-1.62 4.54-7.63 4.27-16.26-.31-9.81 4.22-11.91 4.22-11.91z" style="fill:#37474f"/><path d="M392.28 196.22c-.27 2.93-.78 8.06-1.19 11.19s-.95 8.46-1.19 13.22-.34 14.69-.34 20.77c0 13.48.25 32.66.51 37.33s.85 9.43.85 9.43 25.47 8 49.62 0c-1.37-11.14-2.07-22.38-2.07-22.38s3.51 13.56 6.13 20.82c2.39-1.38 6.4-4.32 6.4-4.32s-2.07-5.67-3.75-10.39c-2.13-6-2.05-13.89-2.84-24.65s0-27.15-5.92-40.78l-4.79-10.57z" style="fill:#263238"/><g><path d="M322.71 132.74c-1-.33-1.28.61-.74 1.4 1.3 1.87 4.07 2.08 5.3 2.93.28.25 3.56 4 3.55 5-1-.57-3.93-2.62-4.94-3.14-.29-.15-1.14-.41-3.76-1.19a3.74 3.74 0 0 0-1.38-.28c-.33.06-.74.7-.23 1.44.92 1.32 2.85 1.48 4.26 2.24.7.34 2.84 1.57 3.35 3.1-2.13-.88-3.56-.95-7-1-.4 0-.49.19-.5.45a1.42 1.42 0 0 0 .64 1.1c.89.6 2.25.54 3.72.91a9.62 9.62 0 0 1 4 2.35 4.11 4.11 0 0 1 1 1.39 20.63 20.63 0 0 1 .63 2.07 7.22 7.22 0 0 0 6.47 4.85 1 1 0 0 0 .55-.09 1.1 1.1 0 0 0 .38-.88c.23-3.25-1-6.4-1.84-9.55-.27-1-2.46-8.8-2.59-9.07-.06-.12-7.59-3-7.83-3.09-.75-.17-2.09-.63-3.04-.94z" style="fill:#f28f8f"/><path d="M384.88 155.25c-2.52 1-22.2 8.75-22.2 8.75s-14.29-9.26-17.18-11.45c-4-3-5-6.24-5.87-9.07-1.27-4-1.87-4.33-3.57-5.73-1.06-.87-3.39-3.27-3.48-3.35a3.67 3.67 0 0 0-1.28-.64c-.23-.1-1.23-.45-1.48-.54-1.39-.49-2.27-.72-3.66-1.22a6.7 6.7 0 0 0-1.31-.36.57.57 0 0 0-.29 0 .5.5 0 0 0-.17.5 3.26 3.26 0 0 0 1.39 2.21 11.38 11.38 0 0 0 2.39 1.2c.51.21.8.29 1.82.72a2.54 2.54 0 0 1 1 .87 30.67 30.67 0 0 1 3.57 5.34 10.74 10.74 0 0 1-4.59-3.26c-1.11-1.4-2.45.09-1.51 2.24 1.09 2.48 3.09 3 4.46 6.35s-1.5 6.06 2.23 9a35.68 35.68 0 0 1 6.13 4.89c3.16 3.4 13 14 15.23 15.79 4.86 3.95 5.46 3.62 17.26-.47 16.65-5.77 19.59-7.17 19.59-7.17l6.21-18.8c-4.49.45-6.2.95-14.69 4.2z" style="fill:#ffa8a7"/><path d="M399.58 150.18c-2.18.34-2.75.48-11.12 3.58s-25.68 9.87-25.68 9.87l-4.86-3.16a11.09 11.09 0 0 1-2.52 5.93 19.6 19.6 0 0 1-5.48 4.79s.31.33 4.3 4.4 5.91 4.69 7.33 5.08 3.27-.41 7-1.55 25.45-8.85 25.45-8.85z" style="fill:#37474f"/><path d="M334.57 142.5a13 13 0 0 1 2.73 2c.29.32.3-.71-1-1.94s-2.5-1.26-2.78-1.79z" style="fill:#f28f8f"/><path d="M385.2 190.34c0 16-.29 21.28-.29 21.28 19.12-8.07 38.47-.61 58.12 4.52 0 0-3.34-13.44-6.84-20.25s-2.7-9.38-2-12.49 3.24-15.14.27-24.86h-42.3a27.61 27.61 0 0 0-6.08 14.05 146.18 146.18 0 0 0-.88 17.75z" style="fill:#37474f"/><path d="M430.65 151.65a87.11 87.11 0 0 0-10.23-1.91s-5.11-.19-10.72 0-6.84.31-8.34.46c0 0-4.69 2-10.31 10.3-4.4 6.5-5.64 9-5.47 13.29.19 4.86 4.68 8 4.68 8 .38 4.28.7 10.42.81 12.38-.17 5.21-1.26 11.64-1.66 15.22 3.63 12.76 35 13.6 41.24-2.46 4.16 7.84 10.39 8.8 11.9 8.8-.54-1.75-1.36-8.34-3.68-14-2.15-5.21-5.15-10-5.11-13.52 0-1.8 1.43-6.66 2.07-11.36 2.23-16.13-1.08-23.34-5.18-25.2z" style="fill:#745cff"/><path d="M404.44 181.68c5.42 3.34 14.81 2.06 17.94-5.33-.66 3.56-2.32 7.34-7.12 8.58-6.04 1.56-10.26-2.11-10.82-3.25z" style="opacity:.15"/><path d="M405.38 149.88s-5.8 3.71-11.72 12.39c-5 7.29-7 13.82-8.46 28.07.05-10.58-.86-15.93.29-21.44s7.2-14 14.09-18.72l5.8-1.31z" style="fill:#455a64"/><path d="M390.64 167.34c1.42-5.13 6-11.86 9-15.69a22.87 22.87 0 0 1 5.74-5.09v3.32s-7.77 5.51-14.74 17.46z" style="fill:#37474f"/><path d="M387.76 129.77c-.45-1.63-2.27-1.83-2.6-4s.86-3.63 2.67-4.55 2.22-2.68 1.95-6.34 2.39-5.77 5.4-6.14c1.49-.18 3.21 0 4.27-1a7.58 7.58 0 0 0 1.05-1.74c1.49-2.61 4.18-3.69 7.74-3.58a12 12 0 0 1 4.63 1 12.25 12.25 0 0 1 4.43 3.11c2-.26 5.62.26 7.56 2.06A8 8 0 0 1 428 114c.29 2.17.33 3.22 1.23 4.42 1.83 2.44 3.24 2.73 3.84 4.93 1 3.69-2.06 4.78-.23 8.3a4.69 4.69 0 0 1-3.54 7c-2.2.26-3.69.93-4.66 2.9a4.82 4.82 0 0 1-4 3c-4.1.85-3.9-2.79-5.91-3.08-2.74-.39-3.81 1.63-6.47-.18-.92-.62-1.45-1.7-2.37-2.31-2.94-1.86-3.93-.92-7.57.28-.95.32-4.09 1.11-6.16-1.3a8.16 8.16 0 0 1-1.7-5.55c-.66 2-5.22 1.82-5.6-1.36a1.59 1.59 0 0 0 2.9-1.28z" style="fill:#263238"/><path d="M422.38 135.38a3.65 3.65 0 0 0 4.21-1.52c2-2.6 2.39-5.44 1.13-7.24-1.13-1.62-3-1.65-4.7-.77a4.2 4.2 0 0 0-2.2 2.94c-.51 2-3.6 2.22-2.75-1.88-2.35-.58-2.78-3.63-2.67-5 .25-3-.35-4.58-2.06-5.89-2.07-1.59-4.14 1.26-8.82 1.35-3.3.07-4.43-3-6.51-1.83-1.49.87-3.31 4.1-3.54 12.27-.25 9 1.39 13.88 4.18 16.05a10.77 10.77 0 0 0 6.73 1.68V151c-2.85 3.55-5.8 8.71-5 13.61 10.26-3.95 16.36-8.14 20.25-14.3v-16.79a2.46 2.46 0 0 0 1.75 1.86z" style="fill:#ffa8a7"/><path d="M397.33 126.54a1.41 1.41 0 1 0 1.59-1.18 1.4 1.4 0 0 0-1.59 1.18zM396.66 123.33l3.43-1.5a1.79 1.79 0 0 0-2.41-1 2 2 0 0 0-1.02 2.5zM408.16 127.2a1.4 1.4 0 1 0 1.27-1.53 1.4 1.4 0 0 0-1.27 1.53zM409.18 122.65l3.3 1.76a1.79 1.79 0 0 0-.7-2.51 2 2 0 0 0-2.6.75z" style="fill:#263238"/><path d="m408.18 135.23-4.87 1.65a2.57 2.57 0 0 0 3.49 1.52 2.41 2.41 0 0 0 1.38-3.17z" style="fill:#b16668"/><path d="M405.4 138.57a2.68 2.68 0 0 1 2.67-2.44h.25a2.27 2.27 0 0 1-1.52 2.25 3 3 0 0 1-1.4.19zM405.35 123.86l-.74 9.73-5.28-1.9 6.02-7.83zM405.38 145.58c3.13-.27 7-1.17 9.29-2.58a8.62 8.62 0 0 0 4-5.64 8.35 8.35 0 0 1-3.44 7.26c-3.42 2.64-9.81 3.17-9.81 3.17z" style="fill:#f28f8f"/><path d="M420.64 148.87a15.77 15.77 0 0 1-2.43 4.51c-1.88 2.56-6.17 13.65-5.77 21.35 1.62 31.33 5 51 5 51s14.94-2 25.59-9.59a70.5 70.5 0 0 0-5.8-18.86c-2.87-6-3.45-8.44-2.63-12s2.63-12.91 2.39-18.67-.47-12.7-7-15.65c-3.13-.64-9.35-2.09-9.35-2.09z" style="fill:#455a64"/><path d="M412.74 169.59c.67-3.54 6.33-13 8.65-15.73a48.54 48.54 0 0 1 3.69-4l-4.45-4v1.48s-1.92 3.4-3.91 7.38-3.98 14.87-3.98 14.87z" style="fill:#37474f"/></g><g><path d="M398.88 243.21c-.05 0-.12-.06-.17-.1L319.15 191c-1.51-.89-2.42-2.77-2.38-5.42.09-5.31 4-11.72 8.68-14.31 2.36-1.3 4.47-1.4 6-.51l84.4 44.09.17.1a2.64 2.64 0 0 0 .29.15 16.28 16.28 0 0 1 5.69 22.54 16.83 16.83 0 0 1-22.86 5.74z" style="fill:#745cff"/><path d="M325.45 171.28c4.71-2.6 8.45-.4 8.36 4.9s-4 11.72-8.68 14.32-8.45.4-8.36-4.91 3.98-11.72 8.68-14.31z" style="opacity:.25"/><path d="m406.77 221.61-74-40.36a15.2 15.2 0 0 0 1.09-5.06c0-2.64-.84-4.51-2.35-5.41l84.37 44.08.17.1a2.64 2.64 0 0 0 .29.15 16.28 16.28 0 0 1 5.66 22.53c1.53-5.05-5.53-10.64-15.23-16.03z" style="opacity:.1"/><path d="M292 167.17a11.13 11.13 0 0 1 5.25-8.65 3.61 3.61 0 0 1 3.61-.31L329 174.76a3.47 3.47 0 0 1 1.44 3.27 11.14 11.14 0 0 1-5.25 8.66 3.66 3.66 0 0 1-3.61.31l-28.17-16.56a3.49 3.49 0 0 1-1.41-3.27z" style="fill:#e0e0e0"/><path d="m316.32 167.31-10.47-6.16q-2.27 7-5 13.65l10.3 6q2.85-6.56 5.17-13.49z" style="opacity:.25"/><path d="m318.24 53.87-17.88-10.23c-13.54-7.81-32.26-6.68-52.94 5.24-41.35 23.88-74.87 81.94-74.87 129.7 0 23.88 8.38 40.64 21.94 48.47l17.83 10.19a38.47 38.47 0 0 0 19.5 5c10.06 0 21.42-3.28 33.44-10.23 41.35-23.86 74.87-81.93 74.87-129.67 0-23.87-8.37-40.65-21.89-48.47zm-95.62 67.06c13.11-22.72 30.37-41 48.59-51.54 9.55-5.51 18.83-8.49 26.89-8.62a31.26 31.26 0 0 1 4.12.18C307.92 68.1 311 79 311 92.8c0 21-7.23 45.14-20.34 67.85s-30.37 41-48.59 51.52c-9.78 5.65-19.29 8.63-27.49 8.63a31.15 31.15 0 0 1-3.52-.19 30.49 30.49 0 0 1-2.82-4.23c-3.9-6.93-6-16.28-6-27.61.04-21.04 7.26-45.13 20.38-67.84z" style="fill:#455a64"/><path d="m192.12 109 28.14 16.14q1.14-2.11 2.36-4.21a170.06 170.06 0 0 1 13.55-20.07L208 84.67A183.22 183.22 0 0 0 192.12 109zm34.08-44.32c-3.48 3.2-6.85 6.62-10.1 10.22l28.36 16.28a132.34 132.34 0 0 1 10.41-10.05z" style="fill:#fff;opacity:.1"/><path d="m212.23 237.18-17.74-10.13c-13.56-7.83-21.94-24.6-21.94-48.47 0-.92 0-1.83.06-2.76L190.43 186v2.76c-.04 23.82 8.31 40.57 21.8 48.42z" style="fill:#37474f"/><path d="M320.34 71.69A25.17 25.17 0 0 0 302.22 61c5.7 7.1 8.78 18 8.78 31.8 0 21-7.23 45.14-20.34 67.85s-30.37 41-48.59 51.52c-9.78 5.65-19.29 8.63-27.49 8.63a31.15 31.15 0 0 1-3.52-.19 25.18 25.18 0 0 0 19.18 9.68h1.54c8.21 0 17.71-3 27.5-8.63 18.21-10.51 35.46-28.82 48.58-51.53s20.34-46.82 20.34-67.85c.04-13.02-2.75-23.45-7.86-30.59z" style="fill:#263238"/><path d="M265.26 59.09C223.91 83 190.39 141 190.39 188.77s33.52 67.1 74.87 43.23 74.87-81.93 74.87-129.68-33.52-67.1-74.87-43.23zm-5.94 162.61c-9.79 5.65-19.29 8.63-27.5 8.63-10.44 0-18.5-5-23.54-14-3.9-6.93-6-16.28-6-27.61 0-21 7.22-45.13 20.34-67.84s30.37-41 48.59-51.54c9.55-5.52 18.83-8.49 26.9-8.62h.59c18.5 0 29.54 15.54 29.54 41.56 0 21-7.22 45.14-20.34 67.85s-30.37 41.05-48.58 51.57z" style="fill:#37474f"/><path d="M208.55 121.84a173.25 173.25 0 0 0-15.2 42.54 121 121 0 0 0-2.55 22.44 83.62 83.62 0 0 0 2.46 22.36c1.91 7.23 5 14.28 9.92 20A36 36 0 0 0 222 240.75a47 47 0 0 0 22.33-.34 80.44 80.44 0 0 0 20.93-8.41 80.7 80.7 0 0 1-20.84 8.84 47.34 47.34 0 0 1-22.57.49 36.61 36.61 0 0 1-19.23-11.7c-5.05-5.76-8.24-12.9-10.22-20.22a84.38 84.38 0 0 1-2.34-22.6 121.24 121.24 0 0 1 2.71-22.55 157 157 0 0 1 6.38-21.78 183.51 183.51 0 0 1 9.4-20.64z" style="fill:#455a64"/><path d="M298.7 60.76a28.5 28.5 0 0 1 11 2 25.49 25.49 0 0 1 9.14 6.51 33.83 33.83 0 0 1 5.89 9.62 50 50 0 0 1 3.11 10.85 86.66 86.66 0 0 1 .64 22.52 123.34 123.34 0 0 1-4.18 22.14 147.22 147.22 0 0 1-7.73 21.17A173.79 173.79 0 0 1 306 175.48a155.06 155.06 0 0 1-28.71 34.66 109.06 109.06 0 0 1-18.42 13.13 63.3 63.3 0 0 1-21.35 7.7 34.49 34.49 0 0 1-11.51-.13 26 26 0 0 1-10.6-4.66 25.27 25.27 0 0 1-4.24-4 29.63 29.63 0 0 1-3.35-4.71 41.88 41.88 0 0 1-4.26-10.61 75 75 0 0 1-1.89-22.51 115.75 115.75 0 0 1 3.49-22.24 144 144 0 0 1 7.29-21.25 164.54 164.54 0 0 1 10.2-20 162.24 162.24 0 0 0-16.36 41.49 116.59 116.59 0 0 0-3.12 22 73.24 73.24 0 0 0 2.16 22 40 40 0 0 0 4.2 10.07 26.77 26.77 0 0 0 7.11 8 23.83 23.83 0 0 0 9.77 4.24 32.35 32.35 0 0 0 10.8.06 61.2 61.2 0 0 0 20.55-7.55 107.27 107.27 0 0 0 18-12.92 152.82 152.82 0 0 0 28.45-34 167.77 167.77 0 0 0 18.39-40.44 121.89 121.89 0 0 0 4.4-21.69 86.21 86.21 0 0 0-.29-22.18 49 49 0 0 0-2.8-10.71 33 33 0 0 0-5.53-9.54 25.09 25.09 0 0 0-8.81-6.59 28.32 28.32 0 0 0-10.87-2.34z" style="fill:#455a64"/><path d="M307.32 62a28.46 28.46 0 0 0-8.62-1.27h-.6c-8.06.13-17.34 3.11-26.89 8.62-18.21 10.57-35.48 28.86-48.59 51.58s-20.34 46.8-20.34 67.84c0 11.33 2.1 20.68 6 27.61a28.57 28.57 0 0 0 6.51 8 28.35 28.35 0 0 0 8.61 1.28c8.21 0 17.71-3 27.5-8.64 18.21-10.51 35.47-28.81 48.58-51.53s20.34-46.81 20.34-67.85c0-16.53-4.47-28.85-12.5-35.64z" style="fill:#fff;opacity:.30000000000000004"/></g><g><path d="M430.65 151.65c7.46 1.51 10.34 8 7.93 16.32-2.11 7.3-12.35 26.19-14 29.26s-3.15 4.29-8.07 7.36-18.24 9.6-22.11 11.6-6.07 4.8-9.65 7.23-9 3.21-11.71 3.21a6.34 6.34 0 0 1-3.83-1.87c-2-.17-2.35-.9-2.33-1.57-1.71 0-2.49-.28-2.07-1.53.89-2.62 5.45-3 9.39-4.6 3.76-1.52 6.55-3.73 5.46-4.08-2.17-.71-5.24 1.13-8.56-.08-1.94-.71-1.9-2.32-1.05-2.44 1.58-.22 4.48-1.76 8.29-2.57 3.46-.73 8.08-.09 10.45-1.56 5.56-3.43 21.91-15.68 21.91-15.68l10.86-25.18s2.56-10.05 9.09-13.82z" style="fill:#ffa8a7"/><path d="m405 194.88 5.43-4.48 10.32-24.93s3.5-11.84 9.3-14.42c5.84 1.24 7.51 3.35 8.71 5.84.76 1.56 2.11 6.81-1.21 15.63s-11.07 21.8-12.68 24.92-1.81 3.41-5.42 5.58-6.3 3.52-6.3 3.52c-4.38-2.7-7.37-6.4-8.15-11.66z" style="fill:#37474f"/></g></g><g><path style="fill:#745cff" d="m446.75 114.55 4.25-4.69-2.65-7.66v-4.69l8.11 4.69v4.69l-2.79 3.66-6.92 4z"/><path d="M430.38 54.7a5.39 5.39 0 0 1 2.43-4.21l2-1.15a5.42 5.42 0 0 1 4.87 0l30.4 17.59a5.35 5.35 0 0 1 2.44 4.21v40.17a5.4 5.4 0 0 1-2.44 4.22l-2 1.15a5.42 5.42 0 0 1-4.87 0l-11.84-6.84a13.65 13.65 0 0 1-8 6.24 1.19 1.19 0 0 1-1.36-1.79 11.88 11.88 0 0 0 1.25-9.13l-10.45-6.07a5.34 5.34 0 0 1-2.43-4.21z" style="fill:#745cff"/><path d="M430.38 54.7a5.39 5.39 0 0 1 2.43-4.21l2-1.15a5.42 5.42 0 0 1 4.87 0l30.4 17.59a5.35 5.35 0 0 1 2.44 4.21v40.17a5.4 5.4 0 0 1-2.44 4.22l-2 1.15a5.42 5.42 0 0 1-4.87 0l-11.84-6.84a13.65 13.65 0 0 1-8 6.24 1.19 1.19 0 0 1-1.36-1.79 11.88 11.88 0 0 0 1.25-9.13l-10.45-6.07a5.34 5.34 0 0 1-2.43-4.21z" style="fill:#fff;opacity:.30000000000000004"/><path d="M472.5 111.32a5.35 5.35 0 0 1-2.44 4.21l-2 1.15a5.43 5.43 0 0 1-4.45.19c1.14.44 2-.21 2-1.6V75.1a5 5 0 0 0-.71-2.4l6.85-4a5 5 0 0 1 .72 2.4z" style="fill:#745cff"/><path d="M430.45 54c.29-1 1.23-1.36 2.36-.71l30.4 17.58a5 5 0 0 1 1.72 1.82l6.85-4a5 5 0 0 0-1.72-1.82l-30.39-17.53a5.44 5.44 0 0 0-4.88 0l-2 1.15a5.39 5.39 0 0 0-2.34 3.51z" style="fill:#fff;opacity:.30000000000000004"/><path d="M437.32 69.18v4.55L458.53 86v-4.58c0-2.25-1.18-4.76-2.65-5.6L454 74.7v1.83c0 1.55-.82 2.34-1.83 1.76a4.86 4.86 0 0 1-1.83-3.88v-1.82l-4.73-2.73v1.82c0 1.55-.81 2.35-1.83 1.76a4.85 4.85 0 0 1-1.83-3.87v-1.82L440 66.63c-1.49-.84-2.68.3-2.68 2.55zM442.67 78.55v4.83l-5.35-3.08v-4.83l5.35 3.08zM442.67 85.11v4.87l-5.35-3.08v-4.87l5.35 3.08zM437.32 88.64l5.35 3.08v4.94l-2.49-1.44a6.84 6.84 0 0 1-2.86-5.45zM451.12 83.43v4.83l-6.7-3.87v-4.83l6.7 3.87zM451.12 89.99v4.88l-6.7-3.87v-4.88l6.7 3.87zM444.42 92.73l6.7 3.87v4.94l-6.7-3.87v-4.94zM458.53 87.71v4.83l-5.66-3.27v-4.83l5.66 3.27zM458.53 94.27v4.88l-5.66-3.27V91l5.66 3.27zM452.87 97.61l5.66 3.27V102c0 2.1-1.28 3.06-2.84 2.15l-2.82-1.62z" style="fill:#fafafa"/><path d="M452.12 77c.62.36 1.13 0 1.13-.85v-3.74a2.72 2.72 0 0 0-1.13-2.16c-.63-.36-1.13 0-1.13.85v3.77a2.69 2.69 0 0 0 1.13 2.13zM443.73 72.19A2.72 2.72 0 0 1 442.6 70v-3.74c0-.83.51-1.21 1.13-.85a2.7 2.7 0 0 1 1.14 2.16v3.76c0 .84-.51 1.22-1.14.86z" style="fill:#fafafa"/></g></svg>