<svg xml:space="preserve" width="1000" height="597" style="shape-rendering:geometricPrecision;text-rendering:geometricPrecision;image-rendering:optimizeQuality;fill-rule:evenodd;clip-rule:evenodd" viewBox="0 0 103.32 61.63" version="1.1" id="svg18" xmlns="http://www.w3.org/2000/svg"><defs id="defs4"><style type="text/css" id="style2">.fil1{fill:#fefefe}.fil0{fill:#201e1e}</style></defs><g id="Capa_x0020_1"><path class="fil0" d="M9.1 27.58h1.29v9.91c-.23 2-1.66 2.96-3.88 3.02-2.57.08-3.97-1.27-4.12-3.01h1.18c.11 1.19 1.23 1.95 2.9 1.93 1.5-.02 2.63-.71 2.63-1.94v-2.22c-.75.95-1.81 1.54-2.99 1.54-2.25 0-4.07-2.16-4.07-4.82 0-2.67 1.82-4.83 4.07-4.83 1.18 0 2.24.59 2.99 1.54v-1.12zm.02 5.83v-.01c.01-.03.02-.05.03-.07v-.02c.01-.02.01-.05.02-.07l.01-.02c0-.02.01-.04.01-.07l.01-.01c0-.03.01-.05.02-.08v-.01c.01-.03.01-.05.02-.08v-.01c.01-.03.01-.05.02-.08v-.01c0-.03.01-.06.01-.09.01-.03.01-.06.02-.09v-.01c0-.03.01-.06.01-.09s.01-.06.01-.09.01-.06.01-.09v-.01c0-.03.01-.06.01-.09v-.1c0-.03 0-.06.01-.1v-.19c-.01-.04-.01-.07-.01-.1V31.72c0-.03-.01-.06-.01-.09v-.01c0-.03-.01-.05-.01-.08v-.01c0-.03-.01-.06-.01-.09s-.01-.06-.01-.09v-.01c-.01-.03-.01-.06-.02-.09 0-.03-.01-.06-.01-.09v-.01c-.01-.02-.01-.05-.02-.08v-.01c-.01-.02-.01-.05-.02-.08v-.01c-.01-.03-.02-.05-.02-.07l-.01-.02c0-.02-.01-.05-.01-.07l-.01-.02c-.01-.02-.01-.04-.02-.07v-.02a.488.488 0 0 1-.03-.07v-.01c-.46-1.4-1.57-2.39-2.88-2.39-1.71 0-3.1 1.69-3.1 3.79 0 2.09 1.39 3.79 3.1 3.79 1.31 0 2.42-.99 2.88-2.4zm1.89-5.83h1.31v1.35c.88-1.16 2.03-1.51 3.43-1.51v1.15c-2.24.13-3.43 1.2-3.43 2.78v5.72h-1.31v-9.49zm4.92-.16h1.31v6.5c0 1.21.79 2.16 2.29 2.15 1.38-.01 2.88-1.25 2.88-2.82v-5.83h1.32v9.65h-1.32v-1.56c-.91 1.31-1.23 1.56-3.06 1.56-1.84 0-3.42-.68-3.42-3.13v-6.52zm8.39 0h1.32v.95c.68-.8 1.65-1.28 2.89-1.28 3.09 0 4.15 2.23 4.15 4.99 0 2.75-.92 4.99-4.15 4.99-1.31 0-2.25-.42-2.89-1.12v4.4h-1.32V27.42zm4.17.81c2.07 0 3.05 1.76 3.05 3.93s-.99 3.93-3.05 3.93c-2.06 0-3.05-1.76-3.05-3.93s.98-3.93 3.05-3.93zm9.32-1.19c2.78 0 4.48 2.27 4.48 5.06 0 2.8-1.66 5.06-4.48 5.06-2.78 0-4.48-2.26-4.48-5.06 0-2.79 1.69-5.06 4.48-5.06zm-.01 1.03c1.83 0 3.31 1.83 3.31 4.08s-1.48 4.08-3.31 4.08-3.31-1.83-3.31-4.08 1.48-4.08 3.31-4.08z" id="path7" style="fill:#000"/><ellipse class="fil0" cx="72.21" cy="30.82" rx="28.89" ry="28.98" id="ellipse9" style="fill:#000"/><path class="fil1" d="M52.46 23.98h2.34l3-2.32h-3.48l-1.86 2.32zm1.2 12.98c3.41 0 5.44-2.16 5.59-4.27h-3.02c-.62 1.17-1.52 1.48-2.53 1.42-1.4-.06-2.16-.82-2.24-2.3h7.99c.05-.33.08-.66.08-1 0-3.4-2.31-6.15-5.87-6.15-3.24 0-5.87 2.75-5.87 6.15 0 3.39 2.37 6.15 5.87 6.15zm-.01-9.47c-1.15 0-1.95.8-2.13 1.91h4.33c-.24-1.26-1.05-1.91-2.2-1.91zm9.07-2.57h-4.24l3.8 5.61-4.2 6.13h4.24l2.1-3.14 2.17 3.14h4.14l-4.24-6.13 3.86-5.61H66.2l-1.69 2.57-1.79-2.57zm12.32 11.74.65-11.74h-4.72l.7 11.74h3.37zm6.89-3.37c0-.1-.01-.41-.01-.51v-5.29h2.16v-2.57h-2.14v-3.26h-3.73v3.26h-1.78v2.57h1.8v6.24c.01.85.23 1.57.7 2.15.7.58 1.57.87 2.74.87.83 0 1.66-.1 2.48-.26v-2.93c-.88.17-2.22.55-2.22-.27zm8.64-8.72c3.85 0 6.02 2.78 6.02 6.2 0 3.41-2.08 6.19-6.02 6.19-3.97 0-6.03-2.78-6.03-6.19 0-3.42 2.23-6.2 6.03-6.2zm-.02 2.92c1.6 0 2.43 1.31 2.43 3.31 0 2.01-.97 3.31-2.43 3.31-1.46 0-2.43-1.45-2.43-3.31s.83-3.31 2.43-3.31zm7.52-2.58a1.14 1.14 0 1 1 .001 2.279 1.14 1.14 0 0 1-.001-2.279zm0-.32a1.464 1.464 0 1 1 0 2.93 1.464 1.464 0 1 1 0-2.93zm-.63 2.25v-1.51h.64c.16 0 .28.01.35.04.07.03.13.08.17.15.05.07.07.14.07.23 0 .12-.03.21-.1.28-.07.08-.16.12-.3.14.07.04.12.08.17.13.04.04.1.13.17.24l.18.3h-.36l-.22-.33a1.82 1.82 0 0 0-.16-.22.236.236 0 0 0-.09-.06c-.03-.02-.09-.02-.16-.02h-.06v.63h-.3zm.3-.87h.23c.14 0 .23-.01.27-.02.04-.01.07-.03.09-.06.02-.03.03-.07.03-.12 0-.05-.02-.09-.04-.12a.228.228 0 0 0-.12-.06H97.74v.38z" id="path11"/><circle class="fil1" cx="73.38" cy="39.39" r="2.19" id="circle13"/><path id="rect15" style="fill:none" d="M0 0h103.32v61.63H0z"/></g></svg>