<svg xmlns="http://www.w3.org/2000/svg" xmlns:xlink="http://www.w3.org/1999/xlink" xmlns:xodm="http://www.corel.com/coreldraw/odm/2003" xml:space="preserve" width="1000px" height="597px" style="shape-rendering:geometricPrecision; text-rendering:geometricPrecision; image-rendering:optimizeQuality; fill-rule:evenodd; clip-rule:evenodd" viewBox="0 0 103.32 61.63">
 <defs>
  <style type="text/css">
   <![CDATA[
    .fil2 {fill:none}
    .fil1 {fill:#FEFEFE}
    .fil0 {fill:#201E1E}
   ]]>
  </style>
 </defs>
 <g id="Capa_x0020_1">
  <metadata id="CorelCorpID_0Corel-Layer"></metadata>
  <path class="fil0" d="M9.1 27.58l1.29 0c0,3.3 0,6.6 0,9.91 -0.23,2 -1.66,2.96 -3.88,3.02 -2.57,0.08 -3.97,-1.27 -4.12,-3.01 0.4,0 0.79,0 1.18,0 0.11,1.19 1.23,1.95 2.9,1.93 1.5,-0.02 2.63,-0.71 2.63,-1.94l0 -2.22c-0.75,0.95 -1.81,1.54 -2.99,1.54 -2.25,0 -4.07,-2.16 -4.07,-4.82 0,-2.67 1.82,-4.83 4.07,-4.83 1.18,0 2.24,0.59 2.99,1.54l0 -1.12zm0.02 5.83l0 -0.01c0.01,-0.03 0.02,-0.05 0.03,-0.07l0 -0.02c0.01,-0.02 0.01,-0.05 0.02,-0.07l0.01 -0.02c0,-0.02 0.01,-0.04 0.01,-0.07l0.01 -0.01c0,-0.03 0.01,-0.05 0.02,-0.08l0 -0.01c0.01,-0.03 0.01,-0.05 0.02,-0.08l0 -0.01c0.01,-0.03 0.01,-0.05 0.02,-0.08l0 -0.01c0,-0.03 0.01,-0.06 0.01,-0.09l0 0c0.01,-0.03 0.01,-0.06 0.02,-0.09l0 -0.01c0,-0.03 0.01,-0.06 0.01,-0.09l0 0 0 0c0,-0.03 0.01,-0.06 0.01,-0.09l0 0c0,-0.03 0.01,-0.06 0.01,-0.09l0 -0.01c0,-0.03 0.01,-0.06 0.01,-0.09l0 0 0 0c0,-0.04 0,-0.07 0,-0.1l0 0 0 0c0,-0.03 0,-0.06 0.01,-0.1l0 0 0 0 0 0c0,-0.03 0,-0.06 0,-0.09 0,-0.04 0,-0.07 0,-0.1l0 0 0 0 0 0c-0.01,-0.04 -0.01,-0.07 -0.01,-0.1l0 0 0 0c0,-0.03 0,-0.06 0,-0.09l0 -0.01 0 0c0,-0.03 -0.01,-0.06 -0.01,-0.09l0 -0.01c0,-0.03 -0.01,-0.05 -0.01,-0.08l0 -0.01c0,-0.03 -0.01,-0.06 -0.01,-0.09l0 0 0 0c0,-0.03 -0.01,-0.06 -0.01,-0.09l0 -0.01c-0.01,-0.03 -0.01,-0.06 -0.02,-0.09l0 0c0,-0.03 -0.01,-0.06 -0.01,-0.09l0 -0.01c-0.01,-0.02 -0.01,-0.05 -0.02,-0.08l0 -0.01c-0.01,-0.02 -0.01,-0.05 -0.02,-0.08l0 -0.01c-0.01,-0.03 -0.02,-0.05 -0.02,-0.07l-0.01 -0.02c0,-0.02 -0.01,-0.05 -0.01,-0.07l-0.01 -0.02c-0.01,-0.02 -0.01,-0.04 -0.02,-0.07l0 -0.02c-0.01,-0.02 -0.02,-0.04 -0.03,-0.07l0 -0.01c-0.46,-1.4 -1.57,-2.39 -2.88,-2.39 -1.71,0 -3.1,1.69 -3.1,3.79 0,2.09 1.39,3.79 3.1,3.79 1.31,0 2.42,-0.99 2.88,-2.4zm1.89 -5.83c0.44,0 0.88,0 1.31,0 0,0.45 0,0.9 0,1.35 0.88,-1.16 2.03,-1.51 3.43,-1.51 0,0.39 0,0.77 0,1.15 -2.24,0.13 -3.43,1.2 -3.43,2.78l0 5.72 -1.31 0 0 -9.49zm4.92 -0.16l1.31 0c0,2.18 0,5.29 0,6.5 0,1.21 0.79,2.16 2.29,2.15 1.38,-0.01 2.88,-1.25 2.88,-2.82l0 -5.83 1.32 0 0 9.65c-0.44,0 -0.88,0 -1.32,0 0,-0.52 0,-1.04 0,-1.56 -0.91,1.31 -1.23,1.56 -3.06,1.56 -1.84,0 -3.42,-0.68 -3.42,-3.13l0 -6.52zm8.39 0l1.32 0 0 0.95c0.68,-0.8 1.65,-1.28 2.89,-1.28 3.09,0 4.15,2.23 4.15,4.99 0,2.75 -0.92,4.99 -4.15,4.99 -1.31,0 -2.25,-0.42 -2.89,-1.12l0 4.4 -1.32 0 0 -12.93zm4.17 0.81c2.07,0 3.05,1.76 3.05,3.93 0,2.17 -0.99,3.93 -3.05,3.93 -2.06,0 -3.05,-1.76 -3.05,-3.93 0,-2.17 0.98,-3.93 3.05,-3.93zm9.32 -1.19c2.78,0 4.48,2.27 4.48,5.06 0,2.8 -1.66,5.06 -4.48,5.06 -2.78,0 -4.48,-2.26 -4.48,-5.06 0,-2.79 1.69,-5.06 4.48,-5.06zm-0.01 1.03c1.83,0 3.31,1.83 3.31,4.08 0,2.25 -1.48,4.08 -3.31,4.08 -1.83,0 -3.31,-1.83 -3.31,-4.08 0,-2.25 1.48,-4.08 3.31,-4.08z"></path>
  <ellipse class="fil0" cx="72.21" cy="30.82" rx="28.89" ry="28.98"></ellipse>
  <path class="fil1" d="M52.46 23.98l2.34 0 3 -2.32 -3.48 0 -1.86 2.32zm1.2 12.98c3.41,0 5.44,-2.16 5.59,-4.27 -1.01,0 -2.02,0 -3.02,0 -0.62,1.17 -1.52,1.48 -2.53,1.42 -1.4,-0.06 -2.16,-0.82 -2.24,-2.3l7.99 0c0.05,-0.33 0.08,-0.66 0.08,-1 0,-3.4 -2.31,-6.15 -5.87,-6.15 -3.24,0 -5.87,2.75 -5.87,6.15 0,3.39 2.37,6.15 5.87,6.15zm-0.01 -9.47c-1.15,0 -1.95,0.8 -2.13,1.91 1.44,0 2.88,0 4.33,0 -0.24,-1.26 -1.05,-1.91 -2.2,-1.91zm9.07 -2.57l-4.24 0 3.8 5.61 -4.2 6.13 4.24 0 2.1 -3.14 2.17 3.14 4.14 0 -4.24 -6.13 3.86 -5.61 -4.15 0 -1.69 2.57 -1.79 -2.57zm12.32 11.74l0.65 -11.74 -4.72 0 0.7 11.74 3.37 0zm6.89 -3.37c0,-0.1 -0.01,-0.41 -0.01,-0.51 0,-1.76 0,-3.53 0,-5.29 0.72,0 1.44,0 2.16,0 0,-0.85 0,-1.71 0,-2.57 -0.71,0 -1.42,0 -2.14,0 0,-1.09 0,-2.18 0,-3.26 -1.24,0 -2.48,0 -3.73,0 0,1.08 0,2.17 0,3.26 -0.59,0 -1.19,0 -1.78,0 0,0.86 0,1.72 0,2.57 0.6,0 1.2,0 1.8,0 0,2.08 0,4.16 0,6.24 0.01,0.85 0.23,1.57 0.7,2.15 0.7,0.58 1.57,0.87 2.74,0.87 0.83,0 1.66,-0.1 2.48,-0.26 0,-1.04 0,-1.9 0,-2.93 -0.88,0.17 -2.22,0.55 -2.22,-0.27zm8.64 -8.72c3.85,0 6.02,2.78 6.02,6.2 0,3.41 -2.08,6.19 -6.02,6.19 -3.97,0 -6.03,-2.78 -6.03,-6.19 0,-3.42 2.23,-6.2 6.03,-6.2zm-0.02 2.92c1.6,0 2.43,1.31 2.43,3.31 0,2.01 -0.97,3.31 -2.43,3.31 -1.46,0 -2.43,-1.45 -2.43,-3.31 0,-1.86 0.83,-3.31 2.43,-3.31zm7.52 -2.58c0.63,0 1.14,0.51 1.14,1.14 0,0.63 -0.51,1.14 -1.14,1.14 -0.63,0 -1.14,-0.51 -1.14,-1.14 0,-0.63 0.51,-1.14 1.14,-1.14zm0 -0.32c0.81,0 1.47,0.65 1.47,1.46 0,0.81 -0.66,1.47 -1.47,1.47 -0.81,0 -1.47,-0.66 -1.47,-1.47 0,-0.81 0.66,-1.46 1.47,-1.46zm-0.63 2.25l0 -1.51 0.64 0c0.16,0 0.28,0.01 0.35,0.04 0.07,0.03 0.13,0.08 0.17,0.15 0.05,0.07 0.07,0.14 0.07,0.23 0,0.12 -0.03,0.21 -0.1,0.28 -0.07,0.08 -0.16,0.12 -0.3,0.14 0.07,0.04 0.12,0.08 0.17,0.13 0.04,0.04 0.1,0.13 0.17,0.24l0.18 0.3 -0.36 0 -0.22 -0.33c-0.08,-0.12 -0.13,-0.19 -0.16,-0.22 -0.03,-0.03 -0.06,-0.05 -0.09,-0.06 -0.03,-0.02 -0.09,-0.02 -0.16,-0.02l-0.06 0 0 0.63 -0.3 0zm0.3 -0.87l0.23 0c0.14,0 0.23,-0.01 0.27,-0.02 0.04,-0.01 0.07,-0.03 0.09,-0.06 0.02,-0.03 0.03,-0.07 0.03,-0.12 0,-0.05 -0.02,-0.09 -0.04,-0.12 -0.03,-0.03 -0.07,-0.05 -0.12,-0.06 -0.02,0 -0.1,0 -0.22,0l-0.24 0 0 0.38z"></path>
  <circle class="fil1" cx="73.38" cy="39.39" r="2.19"></circle>
  <rect class="fil2" width="103.32" height="61.63"></rect>
 </g>
</svg>