<?xml version="1.0" encoding="UTF-8" standalone="no"?>
<svg
   height="800"
   width="929"
   viewBox="-10.960395 -6.298 73.53819 37.788"
   version="1.1"
   id="svg8"
   sodipodi:docname="Funko.svg"
   inkscape:version="1.2.2 (732a01da63, 2022-12-09)"
   xmlns:inkscape="http://www.inkscape.org/namespaces/inkscape"
   xmlns:sodipodi="http://sodipodi.sourceforge.net/DTD/sodipodi-0.dtd"
   xmlns="http://www.w3.org/2000/svg"
   xmlns:svg="http://www.w3.org/2000/svg">
  <defs
     id="defs12" />
  <sodipodi:namedview
     id="namedview10"
     pagecolor="#ffffff"
     bordercolor="#000000"
     borderopacity="0.25"
     inkscape:showpageshadow="2"
     inkscape:pageopacity="0.0"
     inkscape:pagecheckerboard="0"
     inkscape:deskcolor="#d1d1d1"
     showgrid="false"
     inkscape:zoom="0.23201941"
     inkscape:cx="12.929953"
     inkscape:cy="392.20857"
     inkscape:window-width="1366"
     inkscape:window-height="705"
     inkscape:window-x="-8"
     inkscape:window-y="-8"
     inkscape:window-maximized="1"
     inkscape:current-layer="svg8" />
  <g
     fill-rule="evenodd"
     id="g6"
     transform="translate(-10.614766)">
    <path
       d="m 21.536,11.226 c -0.473,-0.45 -1.96,-0.274 -4.827,-0.113 0.566,-2.392 0.97,-4.48 2.027,-6.107 C 23.646,5.281 29.68,5.97 36.591,5.95 50.196,5.911 50.319,0.845 50.319,0.845 44.53,2.513 36.579,2.02 30.566,1.466 23.016,0.772 15.465,-0.966 9.227,0.702 1.86,2.672 1.151,8.142 1.414,10.489 4.37,6.61 8.368,5.23 13.49,4.94 c 0.485,-0.027 0.996,-0.037 1.518,-0.041 -0.93,0.975 -1.652,2.511 -2.4,4.906 -0.162,0.525 -0.321,1.027 -0.478,1.519 -6.3,0.547 -7.523,3.425 -7.161,4.18 0.385,0.804 2.62,-0.25 5.41,-0.56 0.178,-0.02 0.35,-0.036 0.52,-0.054 -1.09,2.817 -2.294,4.829 -4.232,6.005 C 3.712,22.687 0.62,21.858 0,21.36 c 0.24,3.288 5.184,5.08 9.386,2.78 3.35,-1.832 5.288,-6.206 6.35,-9.484 a 49.11,49.11 0 0 0 2.77,-0.087 c 2.535,-0.17 3.648,-2.754 3.03,-3.342 m 50.84,-3.684 a 0.996,0.996 0 0 0 -1.255,0.653 c -0.079,0.25 -0.056,0.51 0.044,0.73 -0.953,0.872 -1.834,1.518 -2.298,1.368 -0.6,-0.194 -0.146,-1.825 0.44,-3.312 A 1.086,1.086 0 0 0 70.508,6.23 1.103,1.103 0 0 0 69.804,4.847 1.085,1.085 0 0 0 68.437,5.558 c -0.13,0.41 -0.009,0.84 0.275,1.122 -0.78,1.43 -1.593,2.667 -2.305,2.459 L 66.381,9.132 C 65.665,8.9 65.712,7.409 65.899,5.777 66.299,5.72 66.653,5.438 66.784,5.023 A 1.102,1.102 0 0 0 66.081,3.64 1.085,1.085 0 0 0 64.713,4.351 c -0.164,0.517 0.07,1.067 0.53,1.31 -0.377,1.555 -0.946,3.148 -1.546,2.954 -0.461,-0.15 -0.806,-1.186 -1.08,-2.45 a 1.012,1.012 0 0 0 -0.178,-1.844 0.996,0.996 0 0 0 -1.255,0.654 1.012,1.012 0 0 0 0.762,1.299 l 0.177,4.238 6.936,2.253 2.582,-3.35 a 0.995,0.995 0 0 0 1.38,-0.602 c 0.169,-0.531 -0.12,-1.1 -0.645,-1.27"
       id="path2" />
    <path
       d="m 64.405,19.355 c -1.287,2.286 -3.126,3.45 -4.106,2.602 -0.98,-0.848 -0.73,-3.389 0.557,-5.675 1.287,-2.285 3.125,-3.45 4.105,-2.601 0.98,0.848 0.731,3.389 -0.556,5.674 M 62.658,11.5 c 0,0 -1.649,0.62 -2.796,1.706 -0.39,0.37 -0.766,0.753 -1.107,1.178 h -0.001 l -0.006,0.01 c -0.317,0.396 -0.565,0.82 -0.83,1.274 -0.37,0.628 -0.693,1.29 -0.948,1.983 v -0.003 c 0,0 -0.664,1.402 -1.15,2.102 -0.472,0.68 -1.368,1.33 -1.726,1.576 a 9.195,9.195 0 0 1 -1.295,0.489 c -2.945,0.859 -3.486,-1.26 -2.827,-2.26 0.237,-0.359 1.867,-1.612 2.981,-2.539 2.155,-1.79 3.632,-2.926 4.646,-3.956 1.074,-1.09 0.38,-1.692 -0.454,-1.836 -2.08,-0.359 -3.032,0.197 -3.638,0.717 -0.73,0.627 -5.085,5.878 -5.085,5.878 0,0 7.088,-13.715 8.251,-16.073 0.96,-1.943 -3.646,-2.212 -4.918,0.583 -0.74,1.626 -5.82,13.396 -6.44,14.852 -1.134,2.662 -1.202,3.078 -1.769,3.544 a 0.261,0.261 0 0 0 -0.016,0.022 l -0.044,0.028 c -0.002,0 -0.003,0.002 -0.005,0.004 -0.546,0.451 -1.31,0.858 -1.82,0.85 -0.307,-0.003 -0.488,-0.187 -0.54,-0.564 -0.053,-0.376 -0.008,-0.856 0.135,-1.44 0.085,-0.348 0.198,-0.729 0.342,-1.143 0.143,-0.414 0.299,-0.832 0.468,-1.256 0.168,-0.424 0.341,-0.838 0.52,-1.242 l 0.49,-1.116 c 0.147,-0.338 0.272,-0.63 0.374,-0.874 0.102,-0.246 0.165,-0.42 0.19,-0.523 0.17,-0.696 0.137,-1.323 -0.041,-1.719 -0.179,-0.395 -0.501,-0.593 -0.968,-0.593 -0.466,0 -0.907,0.131 -1.313,0.364 -0.447,0.256 -0.854,0.536 -1.277,1.045 a 47.664,47.664 0 0 0 -1.054,1.334 c -0.233,0.306 -0.481,0.625 -0.745,0.96 -0.263,0.334 -0.511,0.65 -0.743,0.952 a 883.803,883.803 0 0 1 -1.003,1.299 h -0.28 c 0.016,-0.066 0.062,-0.195 0.136,-0.388 0.076,-0.193 0.166,-0.42 0.272,-0.678 a 134.748,134.748 0 0 0 0.69,-1.736 c 0.112,-0.287 0.21,-0.55 0.298,-0.791 0.086,-0.24 0.147,-0.43 0.18,-0.572 0.127,-0.517 0.13,-0.931 0.01,-1.241 -0.12,-0.311 -0.431,-0.466 -0.935,-0.466 -0.504,0 -0.938,0.146 -1.303,0.437 a 3.08,3.08 0 0 0 -0.86,1.087 47.714,47.714 0 0 0 -0.896,2.005 72.243,72.243 0 0 0 -1.86,4.92 34.96,34.96 0 0 0 -0.337,1.058 c -0.663,0.337 -1.35,0.624 -2.062,0.84 -0.273,0.083 -0.612,0.14 -0.808,-0.07 -0.144,-0.153 -0.147,-0.39 -0.127,-0.601 0.102,-1.114 0.579,-2.152 1.031,-3.173 a 96.909,96.909 0 0 0 2.134,-5.222 c 0.082,-0.22 0.165,-0.463 0.093,-0.686 -0.112,-0.351 -0.53,-0.479 -0.89,-0.527 -0.78,-0.103 -1.68,-0.025 -2.184,0.586 -0.166,0.202 -0.273,0.446 -0.378,0.686 l -2.588,5.904 c -0.544,1.24 -1.217,2.604 -2.484,3.045 -0.22,0.077 -0.467,0.12 -0.68,0.025 -0.272,-0.121 -0.413,-0.443 -0.412,-0.744 0.001,-0.301 0.116,-0.588 0.229,-0.867 1.066,-2.626 1.854,-4.452 2.92,-7.079 0.05,-0.12 0.314,-0.734 0.322,-1.022 a 0.502,0.502 0 0 0 -0.276,-0.436 c -0.68,-0.315 -1.508,-0.125 -2.122,0.307 -0.967,0.68 -1.496,1.78 -1.973,2.827 -0.529,1.161 -1.066,2.32 -1.548,3.504 -0.551,1.355 -1.141,2.667 -1.442,4.102 -0.153,0.733 -0.111,1.678 0.416,2.204 0.344,0.343 0.858,0.442 1.34,0.457 1.952,0.062 3.8,-0.971 5.225,-2.322 0.05,0.715 0.155,1.534 0.747,1.93 0.378,0.251 0.864,0.259 1.314,0.21 0.905,-0.096 1.781,-0.38 2.627,-0.72 0.353,-0.143 0.701,-0.295 1.045,-0.457 0.004,0.153 0.02,0.298 0.047,0.433 0.06,0.277 0.184,0.498 0.378,0.663 0.192,0.164 0.48,0.247 0.863,0.247 0.307,0 0.595,-0.071 0.863,-0.212 0.267,-0.14 0.542,-0.404 0.822,-0.79 l 5.46,-7.341 h 0.224 a 71.873,71.873 0 0 0 -0.796,2.111 18.37,18.37 0 0 0 -0.558,1.827 c -0.352,1.44 -0.444,2.535 -0.277,3.283 0.167,0.748 0.507,1.122 1.02,1.122 0.513,0 1.02,-0.073 1.523,-0.219 a 9.837,9.837 0 0 0 1.48,-0.565 c 0.336,-0.159 0.666,-0.339 0.995,-0.527 -0.001,0.124 -0.037,0.361 -0.042,0.473 -0.017,0.405 0.043,0.49 0.23,0.664 0.186,0.175 0.38,0.191 0.78,0.191 0.3,0 0.408,-0.027 0.671,-0.219 0.248,-0.18 1.147,-1.524 1.839,-2.481 0.114,-0.157 0.239,-0.32 0.377,-0.489 -0.254,1.187 0.292,2.92 1.928,3.19 1.59,0.262 4.176,-0.103 7.513,-2.705 0.059,0.363 0.15,0.706 0.276,1.026 0.242,0.613 0.623,1.11 1.142,1.49 0.519,0.38 1.21,0.571 2.072,0.571 0.598,0 1.187,-0.104 1.766,-0.312 a 7.634,7.634 0 0 0 1.67,-0.844 9.093,9.093 0 0 0 1.498,-1.26 11.898,11.898 0 0 0 2.185,-3.184 c 0.48,-1.092 0.71,-1.91 0.95,-3.168 0.11,-0.67 0.17,-1.262 0.162,-1.804 0,0 -0.06,-1.338 -0.242,-1.46 -0.181,-0.122 -5.24,-1.66 -5.24,-1.66"
       id="path4" />
  </g>
</svg>
