<svg viewBox="0 0 500 500" xmlns="http://www.w3.org/2000/svg"><g transform="matrix(1.25616 0 0 1.25616 -64.04 -53.086)"><path style="fill:#ebebeb" d="M0 382.4h500v.25H0zM416.78 398.49h33.12v.25h-33.12zM322.53 401.21h8.69v.25h-8.69zM396.59 389.21h19.19v.25h-19.19zM52.46 390.89h43.19v.25H52.46zM104.56 390.89h6.33v.25h-6.33zM131.47 395.11h93.68v.25h-93.68zM237 337.8H43.91a5.71 5.71 0 0 1-5.7-5.71V60.66a5.71 5.71 0 0 1 5.7-5.66H237a5.71 5.71 0 0 1 5.71 5.71v271.38a5.71 5.71 0 0 1-5.71 5.71zM43.91 55.2a5.46 5.46 0 0 0-5.45 5.46v271.43a5.46 5.46 0 0 0 5.45 5.46H237a5.47 5.47 0 0 0 5.46-5.46V60.66A5.47 5.47 0 0 0 237 55.2zM453.31 337.8h-193.1a5.72 5.72 0 0 1-5.71-5.71V60.66a5.72 5.72 0 0 1 5.71-5.66h193.1a5.71 5.71 0 0 1 5.69 5.66v271.43a5.71 5.71 0 0 1-5.69 5.71zM260.21 55.2a5.47 5.47 0 0 0-5.46 5.46v271.43a5.47 5.47 0 0 0 5.46 5.46h193.1a5.47 5.47 0 0 0 5.46-5.46V60.66a5.47 5.47 0 0 0-5.46-5.46z"/><path d="M388.29 82.11v37.21h22.84V82.11A2.15 2.15 0 0 0 409 80h-18.57a2.14 2.14 0 0 0-2.14 2.11zm11.42 4.82a5.27 5.27 0 1 1-5.27 5.27 5.27 5.27 0 0 1 5.27-5.27zm0 28.44a7 7 0 1 1 7-7 7 7 0 0 1-7 7z" style="fill:#e0e0e0"/><path d="M402 92.2a2.26 2.26 0 1 1-2.25-2.26A2.25 2.25 0 0 1 402 92.2zM403.77 108.38a4.06 4.06 0 1 1-4.06-4.06 4.06 4.06 0 0 1 4.06 4.06zM355.88 82.11v37.21h22.83V82.11a2.14 2.14 0 0 0-2.14-2.11H358a2.14 2.14 0 0 0-2.12 2.11zm11.42 4.82a5.27 5.27 0 1 1-5.3 5.27 5.27 5.27 0 0 1 5.3-5.27zm0 28.44a7 7 0 1 1 7-7 7 7 0 0 1-7 7z" style="fill:#e0e0e0"/><path d="M369.55 92.2a2.26 2.26 0 1 1-2.25-2.26 2.25 2.25 0 0 1 2.25 2.26zM371.36 108.38a4.07 4.07 0 1 1-4.06-4.06 4.06 4.06 0 0 1 4.06 4.06zM57.45 136.5v-7a12.83 12.83 0 0 1 12.83-12.84h1.58A12.15 12.15 0 0 1 84 128.78v7.72a3.89 3.89 0 0 0-2.77 0v-7.16a10.06 10.06 0 0 0-10.07-10.06 10.82 10.82 0 0 0-10.82 10.82v6.4a3.9 3.9 0 0 0-2.89 0z" style="fill:#e0e0e0"/><rect x="79.55" y="136.69" width="6.25" height="11.38" rx="2.82" style="fill:#e0e0e0"/><path d="M86.36 139.58h.15a1.43 1.43 0 0 1 1.44 1.42v2.09a1.43 1.43 0 0 1-1.43 1.43h-.15v-5z" style="fill:#e0e0e0"/><rect x="55.81" y="136.69" width="6.25" height="11.38" rx="2.82" transform="rotate(180 58.94 142.38)" style="fill:#e0e0e0"/><path d="M53.67 139.58h.15a1.43 1.43 0 0 1 1.43 1.42v2.09a1.43 1.43 0 0 1-1.43 1.43h-.15v-5z" transform="rotate(180 54.46 142.06)" style="fill:#e0e0e0"/><path d="M427 225.15a12 12 0 0 0-12 12c0 6.65 12 23.59 12 23.59s12.05-16.94 12.05-23.59a12 12 0 0 0-12.05-12zm.11 17.83a5.7 5.7 0 1 1 5.71-5.7 5.7 5.7 0 0 1-5.71 5.72z" style="fill:#e0e0e0"/><path d="M427 225.15a12 12 0 0 0-12 12c0 6.65 12 23.59 12 23.59s12.05-16.94 12.05-23.59a12 12 0 0 0-12.05-12zm.11 17.83a5.7 5.7 0 1 1 5.71-5.7 5.7 5.7 0 0 1-5.71 5.72z" style="fill:#e0e0e0"/><rect x="173.43" y="60.99" width="35.95" height="35.95" rx="11.01" style="fill:#e0e0e0"/><path d="M185 84.8a2.08 2.08 0 0 1-1.37-1.32c-.61-1.61-.87-8.34.25-9.7a2.19 2.19 0 0 1 1.43-.79c3-.32 12.47-.28 13.55.12a2.11 2.11 0 0 1 1.33 1.28c.66 1.66.75 7.74 0 9.35a2 2 0 0 1-.94 1c-1.02.56-12.73.55-14.25.06zm3.25-1.53 8.14-4.27-8.22-4.26c0 2.83.06 5.65.1 8.5z" style="fill:#fff;fill-rule:evenodd"/><path d="M86.92 272.29H59.2a4.62 4.62 0 0 0-4.63 4.61V288a4.62 4.62 0 0 0 4.63 4.61h27.72a4.6 4.6 0 0 0 4.61-4.61v-11.1a4.6 4.6 0 0 0-4.61-4.61zM73 291.18a8.73 8.73 0 1 1 8.71-8.74 8.75 8.75 0 0 1-8.71 8.74zm13.83-14.28h-4.54v-2.42h4.54zM76.79 266.09h-6a1 1 0 0 0-1 1v4.82h8v-4.82a1 1 0 0 0-1-1zm-.27 4.91h-5.41v-3a1 1 0 0 1 1-1h3.4a1 1 0 0 1 1 1z" style="fill:#e0e0e0;fill-rule:evenodd"/><path d="M73 275.6a6.85 6.85 0 1 0 6.84 6.84A6.87 6.87 0 0 0 73 275.6zm0 11.65a4.8 4.8 0 1 1 4.8-4.8 4.81 4.81 0 0 1-4.8 4.8z" style="fill:#e0e0e0;fill-rule:evenodd"/></g><ellipse cx="250" cy="416.24" rx="193.89" ry="11.32" style="fill:#f5f5f5" transform="matrix(1.25616 0 0 1.25616 -64.04 -53.086)"/><g transform="matrix(1.25616 0 0 1.25616 -64.04 -53.086)"><path style="fill:#745cff" d="M215.64 415.93v-4.64l-15.6-1.85h-.98V298.91h-3.24v110.53h-.83l-16.02 1.85v4.64z"/><path style="opacity:.6;fill:#fff" d="M215.64 415.93v-4.64l-15.6-1.85h-.98V298.91h-3.24v110.53h-.83l-16.02 1.85v4.64z"/><path style="opacity:.2" d="M195.82 339.81h3.24v6.87h-3.24z"/><path style="fill:#745cff" d="M315.93 415.93v-4.64l-15.59-1.85h-.99V298.91h-3.23v110.53h-.84l-16.02 1.85v4.64z"/><path style="opacity:.6;fill:#fff" d="M315.93 415.93v-4.64l-15.59-1.85h-.99V298.91h-3.23v110.53h-.84l-16.02 1.85v4.64z"/><path style="opacity:.2" d="M296.12 339.81h3.24v6.87h-3.24z"/><path style="fill:#745cff" d="M157.4 112.62h181.98v230.7H157.4z"/><path style="opacity:.3;fill:#fff" d="M157.4 112.62h181.98v230.7H157.4z"/><path style="opacity:.7;fill:#fff" d="M160.64 116.73h175.51v222.49H160.64z"/><path style="fill:#745cff" d="m286.54 304.85-25.78-27.01-25.44 24.21-3.47-27.01-40.01 12.58 5.83-26.41-29.69-10.52 23.75-16.33-28.29-25.91 31.35-7.73-4.89-20.21 27.68 10.24-3.14-40.05 26.85 28.88 13.4-44.71 19.44 44.24 37.39-25.15-11.64 41.92 32.14 18.16-30.54 17.4 23.67 35.69-38.61 3.26z"/><path style="opacity:.5;fill:#fff" d="m286.54 304.85-25.78-27.01-25.44 24.21-3.47-27.01-40.01 12.58 5.83-26.41-29.69-10.52 23.75-16.33-28.29-25.91 31.35-7.73-4.89-20.21 27.68 10.24-3.14-40.05 26.85 28.88 13.4-44.71 19.44 44.24 37.39-25.15-11.64 41.92 32.14 18.16-30.54 17.4 23.67 35.69-38.61 3.26z"/><path d="M293.37 200.2h-82.05a7.77 7.77 0 0 0-7.74 7L199 253.75a7.78 7.78 0 0 0 7.74 8.53h82a7.77 7.77 0 0 0 7.73-7l4.54-46.54a7.76 7.76 0 0 0-7.64-8.54z" style="fill:#263238"/><path d="M288.48 200.05h-82.05a7.77 7.77 0 0 0-7.73 7l-4.54 46.54a7.76 7.76 0 0 0 7.73 8.52h82.05a7.77 7.77 0 0 0 7.74-7l4.54-46.54a7.78 7.78 0 0 0-7.74-8.52z" style="fill:#745cff"/><path d="M288.48 200.05h-82.05a7.77 7.77 0 0 0-7.73 7l-4.54 46.54a7.76 7.76 0 0 0 7.73 8.52h82.05a7.77 7.77 0 0 0 7.74-7l4.54-46.54a7.78 7.78 0 0 0-7.74-8.52z" style="opacity:.05;fill:#fff"/><path style="opacity:.6;fill:#fff" d="M214.1 262.13h54.31l6.06-62.07h-54.31z"/><path d="M204.79 253.42c0 1.76-1 3.18-2.33 3.18s-2.32-1.42-2.32-3.18c0-1.76 1-3.18 2.32-3.18 1.32 0 2.33 1.43 2.33 3.18z" style="fill:#263238"/><path d="M204.25 253.42c0 1.76-1 3.18-2.33 3.18s-2.33-1.42-2.33-3.18c0-1.76 1-3.18 2.33-3.18s2.33 1.43 2.33 3.18z" style="fill:#745cff"/><path d="M204.25 253.42c0 1.76-1 3.18-2.33 3.18s-2.33-1.42-2.33-3.18c0-1.76 1-3.18 2.33-3.18s2.33 1.43 2.33 3.18z" style="opacity:.5"/><ellipse cx="208.6" cy="253.42" rx="2.33" ry="3.18" style="fill:#263238"/><path d="M210.39 253.42c0 1.76-1 3.18-2.33 3.18s-2.33-1.42-2.33-3.18c0-1.76 1.05-3.18 2.33-3.18s2.33 1.43 2.33 3.18z" style="fill:#745cff"/><path d="M210.39 253.42c0 1.76-1 3.18-2.33 3.18s-2.33-1.42-2.33-3.18c0-1.76 1.05-3.18 2.33-3.18s2.33 1.43 2.33 3.18z" style="opacity:.4"/><path d="M278.26 253.37c0 1.73-1 3.13-2.29 3.13s-2.29-1.4-2.29-3.13 1-3.13 2.29-3.13 2.29 1.4 2.29 3.13z" style="fill:#263238"/><path d="M277.73 253.37c0 1.73-1 3.13-2.29 3.13s-2.29-1.4-2.29-3.13 1-3.13 2.29-3.13 2.29 1.4 2.29 3.13z" style="fill:#745cff"/><path d="M277.73 253.37c0 1.73-1 3.13-2.29 3.13s-2.29-1.4-2.29-3.13 1-3.13 2.29-3.13 2.29 1.4 2.29 3.13z" style="opacity:.3"/><path d="M284.31 253.37c0 1.73-1 3.13-2.29 3.13s-2.29-1.4-2.29-3.13 1-3.13 2.29-3.13 2.29 1.4 2.29 3.13z" style="fill:#263238"/><path d="M283.78 253.37c0 1.73-1 3.13-2.3 3.13-1.3 0-2.29-1.4-2.29-3.13s1-3.13 2.29-3.13 2.3 1.4 2.3 3.13z" style="fill:#745cff"/><path d="M283.78 253.37c0 1.73-1 3.13-2.3 3.13-1.3 0-2.29-1.4-2.29-3.13s1-3.13 2.29-3.13 2.3 1.4 2.3 3.13z" style="opacity:.2"/><path d="M282.27 216.54c0 2-1.19 3.65-2.67 3.65s-2.67-1.64-2.67-3.65 1.2-3.65 2.67-3.65 2.67 1.64 2.67 3.65z" style="fill:#263238"/><ellipse cx="278.98" cy="216.54" rx="2.67" ry="3.65" style="fill:#745cff"/><ellipse cx="278.98" cy="216.54" rx="2.67" ry="3.65" style="opacity:.2;fill:#fff"/><path d="M282.27 226.36c0 2-1.19 3.65-2.67 3.65s-2.67-1.64-2.67-3.65 1.2-3.65 2.67-3.65 2.67 1.64 2.67 3.65z" style="fill:#263238"/><ellipse cx="278.98" cy="226.36" rx="2.67" ry="3.65" style="fill:#745cff"/><ellipse cx="278.98" cy="226.36" rx="2.67" ry="3.65" style="opacity:.5;fill:#fff"/><ellipse cx="288.09" cy="226.36" rx="2.67" ry="3.65" style="fill:#263238"/><ellipse cx="287.46" cy="226.36" rx="2.67" ry="3.65" style="fill:#745cff"/><ellipse cx="287.46" cy="226.36" rx="2.67" ry="3.65" style="opacity:.3;fill:#fff"/><ellipse cx="288.09" cy="216.54" rx="2.67" ry="3.65" style="fill:#263238"/><ellipse cx="287.46" cy="216.54" rx="2.67" ry="3.65" style="fill:#745cff"/><ellipse cx="287.46" cy="216.54" rx="2.67" ry="3.65" style="opacity:.4;fill:#fff"/><path style="fill:#263238" d="M200.43 225.33h3.69l-.5 4.43h5.6l.51-4.43h3.78l.51-5h-3.72l.53-4.66h-5.6l-.54 4.66h-3.75z"/><path style="fill:#745cff" d="M199.62 225.33h3.69l-.51 4.43h5.61l.5-4.43h3.78l.51-5h-3.71l.53-4.66h-5.61l-.53 4.66h-3.75z"/><path d="M207.49 222.83c0 .85-.5 1.53-1.12 1.53-.62 0-1.13-.68-1.13-1.53s.51-1.53 1.13-1.53c.62 0 1.12.7 1.12 1.53z" style="opacity:.4"/><path style="opacity:.5" d="m202.65 222.83.39 1.28-2.36-1.28 2.83-1.28zM210.07 222.83l-.38-1.28 2.34 1.28-2.8 1.28zM206.66 219.31l1.5.64-1.25-3-1.54 2.94zM205.93 226.29l-1.5-.64 1.25 3 1.54-2.94z"/><path style="opacity:.05" d="M199.62 225.33h3.69l-.51 4.43h5.61l.5-4.43h3.78l.51-5h-3.71l.53-4.66h-5.61l-.53 4.66h-3.75z"/><path d="M206.26 239.21a.43.43 0 1 1-.86 0 .43.43 0 1 1 .86 0zM204.08 239.21a.43.43 0 1 1-.86 0 .43.43 0 0 1 .86 0zM201.9 239.21a.43.43 0 0 1-.43.43.44.44 0 0 1-.43-.43.43.43 0 0 1 .43-.43.43.43 0 0 1 .43.43zM208.44 239.21a.44.44 0 0 1-.87 0 .44.44 0 0 1 .87 0zM210.61 239.21a.43.43 0 1 1-.86 0 .43.43 0 1 1 .86 0z"/><circle cx="205.83" cy="237.03" r=".43"/><circle cx="205.83" cy="234.85" r=".43"/><circle cx="205.83" cy="241.38" r=".43"/><path d="M205.83 244a.43.43 0 1 1 .43-.43.43.43 0 0 1-.43.43z"/><circle cx="204.29" cy="237.67" r=".43"/><circle cx="202.75" cy="236.13" r=".43"/><circle cx="207.37" cy="240.75" r=".43"/><circle cx="208.91" cy="242.29" r=".43"/><circle cx="204.29" cy="240.75" r=".43"/><circle cx="202.75" cy="242.29" r=".43"/><circle cx="207.37" cy="237.67" r=".43"/><circle cx="208.91" cy="236.13" r=".43"/><circle cx="282.27" cy="239.64" r=".43"/><circle cx="280.1" cy="239.64" r=".43"/><circle cx="277.92" cy="239.64" r=".43"/><circle cx="284.45" cy="239.64" r=".43"/><path d="M287.06 239.64a.43.43 0 1 1-.43-.43.43.43 0 0 1 .43.43z"/><circle cx="282.27" cy="237.46" r=".43"/><circle cx="282.27" cy="235.28" r=".43"/><circle cx="282.27" cy="241.81" r=".43"/><path d="M282.27 244.42a.43.43 0 1 1 .44-.43.43.43 0 0 1-.44.43z"/><circle cx="280.73" cy="238.1" r=".43"/><circle cx="279.2" cy="236.56" r=".43"/><circle cx="283.81" cy="241.18" r=".43"/><circle cx="285.35" cy="242.72" r=".43"/><circle cx="280.73" cy="241.18" r=".43"/><circle cx="279.2" cy="242.72" r=".43"/><circle cx="283.81" cy="238.1" r=".43"/><circle cx="285.35" cy="236.56" r=".43"/><path style="fill:#263238" d="m218.31 205.74.35-3.47h-5.6l-.34 3.47z"/><path style="opacity:.5;fill:#fff" d="m218.31 205.74.35-3.47h-5.6l-.34 3.47z"/><path style="fill:#263238" d="m211.32 205.74.36-3.47h-5.61l-.34 3.47z"/><path style="opacity:.4;fill:#fff" d="m211.32 205.74.36-3.47h-5.61l-.34 3.47z"/><path style="fill:#263238" d="m287.9 205.74.35-3.47h-5.6l-.34 3.47z"/><path style="opacity:.2;fill:#fff" d="m287.9 205.74.35-3.47h-5.6l-.34 3.47z"/><path style="fill:#263238" d="m280.92 205.74.35-3.47h-5.6l-.34 3.47z"/><path style="opacity:.3;fill:#fff" d="m280.92 205.74.35-3.47h-5.6l-.34 3.47z"/><path style="fill:#745cff" d="M215.11 260.84h51.64l6.06-59.2h-51.64z"/><path d="m226.61 216.24-.37 5.49a1.06 1.06 0 0 0 1.06 1.13h4a1.06 1.06 0 0 0 1.06-1l.37-5.49a1.07 1.07 0 0 0-1.07-1.14h-4a1.06 1.06 0 0 0-1.05 1.01z" style="fill:#745cff"/><path d="m226.61 216.24-.37 5.49a1.06 1.06 0 0 0 1.06 1.13h4a1.06 1.06 0 0 0 1.06-1l.37-5.49a1.07 1.07 0 0 0-1.07-1.14h-4a1.06 1.06 0 0 0-1.05 1.01z" style="opacity:.3;fill:#fff"/><path style="fill:#745cff" d="m231.18 221.3.2-2.88h-2.32l-.19 2.88z"/><path style="fill:#745cff" d="m229.93 219.86.19-2.88h-2.31l-.19 2.88zM237.27 216.24l-.36 5.49a1.06 1.06 0 0 0 1.06 1.13h4a1.06 1.06 0 0 0 1.07-1l.37-5.49a1.07 1.07 0 0 0-1.07-1.14h-4a1.08 1.08 0 0 0-1.07 1.01z"/><path d="m237.27 216.24-.36 5.49a1.06 1.06 0 0 0 1.06 1.13h4a1.06 1.06 0 0 0 1.07-1l.37-5.49a1.07 1.07 0 0 0-1.07-1.14h-4a1.08 1.08 0 0 0-1.07 1.01z" style="opacity:.3;fill:#fff"/><path style="fill:#745cff" d="m241.85 221.3.19-2.88h-2.31l-.19 2.88z"/><path style="fill:#745cff" d="m240.6 219.86.19-2.88h-2.31l-.19 2.88zM248.1 216.24l-.37 5.49a1.06 1.06 0 0 0 1.06 1.13h4a1.06 1.06 0 0 0 1.07-1l.37-5.49a1.07 1.07 0 0 0-1.07-1.14h-4a1.06 1.06 0 0 0-1.06 1.01z"/><path d="m248.1 216.24-.37 5.49a1.06 1.06 0 0 0 1.06 1.13h4a1.06 1.06 0 0 0 1.07-1l.37-5.49a1.07 1.07 0 0 0-1.07-1.14h-4a1.06 1.06 0 0 0-1.06 1.01z" style="opacity:.3;fill:#fff"/><path style="fill:#745cff" d="m252.67 221.3.2-2.88h-2.32l-.19 2.88z"/><path style="fill:#745cff" d="m251.42 219.86.19-2.88h-2.31l-.19 2.88zM258.87 216.24l-.37 5.49a1.06 1.06 0 0 0 1.06 1.13h4a1.06 1.06 0 0 0 1.07-1l.37-5.49a1.07 1.07 0 0 0-1.07-1.14h-4a1.06 1.06 0 0 0-1.06 1.01z"/><path d="m258.87 216.24-.37 5.49a1.06 1.06 0 0 0 1.06 1.13h4a1.06 1.06 0 0 0 1.07-1l.37-5.49a1.07 1.07 0 0 0-1.07-1.14h-4a1.06 1.06 0 0 0-1.06 1.01z" style="opacity:.3;fill:#fff"/><path style="fill:#745cff" d="m263.44 221.3.19-2.88h-2.31l-.19 2.88z"/><path style="fill:#745cff" d="m262.19 219.86.19-2.88h-2.31l-.19 2.88zM224.39 230.17l-.37 5.49a1.07 1.07 0 0 0 1.06 1.14h4a1.07 1.07 0 0 0 1.06-1l.37-5.48a1.07 1.07 0 0 0-1.07-1.14h-4a1.05 1.05 0 0 0-1.05.99z"/><path d="m224.39 230.17-.37 5.49a1.07 1.07 0 0 0 1.06 1.14h4a1.07 1.07 0 0 0 1.06-1l.37-5.48a1.07 1.07 0 0 0-1.07-1.14h-4a1.05 1.05 0 0 0-1.05.99z" style="opacity:.3;fill:#fff"/><path style="fill:#745cff" d="m228.96 235.23.2-2.88h-2.32l-.19 2.88z"/><path style="fill:#745cff" d="m227.71 233.79.19-2.87h-2.31l-.19 2.87zM235.05 230.17l-.36 5.49a1.06 1.06 0 0 0 1.06 1.14h4a1.07 1.07 0 0 0 1.07-1l.37-5.48a1.07 1.07 0 0 0-1.07-1.14h-4a1.07 1.07 0 0 0-1.07.99z"/><path d="m235.05 230.17-.36 5.49a1.06 1.06 0 0 0 1.06 1.14h4a1.07 1.07 0 0 0 1.07-1l.37-5.48a1.07 1.07 0 0 0-1.07-1.14h-4a1.07 1.07 0 0 0-1.07.99z" style="opacity:.3;fill:#fff"/><path style="fill:#745cff" d="m239.63 235.23.19-2.88h-2.31l-.19 2.88z"/><path style="fill:#745cff" d="m238.38 233.79.19-2.87h-2.31l-.19 2.87zM245.88 230.17l-.37 5.49a1.07 1.07 0 0 0 1.06 1.14h4a1.07 1.07 0 0 0 1.06-1l.37-5.48a1.07 1.07 0 0 0-1.07-1.14h-4a1.05 1.05 0 0 0-1.05.99z"/><path d="m245.88 230.17-.37 5.49a1.07 1.07 0 0 0 1.06 1.14h4a1.07 1.07 0 0 0 1.06-1l.37-5.48a1.07 1.07 0 0 0-1.07-1.14h-4a1.05 1.05 0 0 0-1.05.99z" style="opacity:.3;fill:#fff"/><path style="fill:#745cff" d="m250.45 235.23.2-2.88h-2.32l-.19 2.88z"/><path style="fill:#745cff" d="m249.2 233.79.19-2.87h-2.31l-.19 2.87zM256.65 230.17l-.37 5.49a1.07 1.07 0 0 0 1.06 1.14h4a1.07 1.07 0 0 0 1.07-1l.37-5.48a1.07 1.07 0 0 0-1.07-1.14h-4a1.05 1.05 0 0 0-1.06.99z"/><path d="m256.65 230.17-.37 5.49a1.07 1.07 0 0 0 1.06 1.14h4a1.07 1.07 0 0 0 1.07-1l.37-5.48a1.07 1.07 0 0 0-1.07-1.14h-4a1.05 1.05 0 0 0-1.06.99z" style="opacity:.3;fill:#fff"/><path style="fill:#745cff" d="m261.22 235.23.2-2.88h-2.32l-.19 2.88z"/><path style="fill:#745cff" d="m259.97 233.79.19-2.87h-2.31l-.19 2.87zM222.17 245l-.37 5.49a1.07 1.07 0 0 0 1.06 1.14h4a1.07 1.07 0 0 0 1.06-1l.37-5.49a1.07 1.07 0 0 0-1.07-1.13h-4a1.05 1.05 0 0 0-1.05.99z"/><path d="m222.17 245-.37 5.49a1.07 1.07 0 0 0 1.06 1.14h4a1.07 1.07 0 0 0 1.06-1l.37-5.49a1.07 1.07 0 0 0-1.07-1.13h-4a1.05 1.05 0 0 0-1.05.99z" style="opacity:.3;fill:#fff"/><path style="fill:#745cff" d="m226.74 250.04.2-2.88h-2.32l-.19 2.88z"/><path style="fill:#745cff" d="m225.49 248.6.19-2.88h-2.31l-.19 2.88zM232.84 245l-.37 5.49a1.07 1.07 0 0 0 1.06 1.14h4a1.07 1.07 0 0 0 1.07-1l.37-5.49a1.07 1.07 0 0 0-1.07-1.13h-4a1.05 1.05 0 0 0-1.06.99z"/><path d="m232.84 245-.37 5.49a1.07 1.07 0 0 0 1.06 1.14h4a1.07 1.07 0 0 0 1.07-1l.37-5.49a1.07 1.07 0 0 0-1.07-1.13h-4a1.05 1.05 0 0 0-1.06.99z" style="opacity:.3;fill:#fff"/><path style="fill:#745cff" d="m237.41 250.04.19-2.88h-2.31l-.19 2.88z"/><path style="fill:#745cff" d="m236.16 248.6.19-2.88h-2.31l-.19 2.88zM243.66 245l-.37 5.49a1.07 1.07 0 0 0 1.06 1.14h4a1.07 1.07 0 0 0 1.06-1l.37-5.49a1.07 1.07 0 0 0-1.08-1.14h-4a1.05 1.05 0 0 0-1.04 1z"/><path d="m243.66 245-.37 5.49a1.07 1.07 0 0 0 1.06 1.14h4a1.07 1.07 0 0 0 1.06-1l.37-5.49a1.07 1.07 0 0 0-1.08-1.14h-4a1.05 1.05 0 0 0-1.04 1z" style="opacity:.3;fill:#fff"/><path style="fill:#745cff" d="m248.23 250.04.2-2.88h-2.32l-.19 2.88z"/><path style="fill:#745cff" d="m246.98 248.6.19-2.88h-2.31l-.19 2.88zM254.43 245l-.37 5.49a1.07 1.07 0 0 0 1.06 1.14h4a1.07 1.07 0 0 0 1.07-1l.37-5.49a1.07 1.07 0 0 0-1.07-1.13h-4a1.05 1.05 0 0 0-1.06.99z"/><path d="m254.43 245-.37 5.49a1.07 1.07 0 0 0 1.06 1.14h4a1.07 1.07 0 0 0 1.07-1l.37-5.49a1.07 1.07 0 0 0-1.07-1.13h-4a1.05 1.05 0 0 0-1.06.99z" style="opacity:.3;fill:#fff"/><path style="fill:#745cff" d="m259 250.04.19-2.88h-2.31l-.19 2.88z"/><path style="fill:#745cff" d="m257.75 248.6.19-2.88h-2.31l-.19 2.88zM254.49 205.88h-1.47l-.13 1.47h1.47zM255.96 205.88l-.13 1.47h1.47l.13-1.47.13-1.47h-1.47zM258.9 205.88l-.13 1.47h1.47l.13-1.47.12-1.47.13-1.47h-1.47l-.13 1.47z"/><g style="opacity:.4"><path style="fill:#fff" d="M254.49 205.88h-1.47l-.13 1.47h1.47zM255.96 205.88l-.13 1.47h1.47l.13-1.47.13-1.47h-1.47zM258.9 205.88l-.13 1.47h1.47l.13-1.47.12-1.47.13-1.47h-1.47l-.13 1.47z"/></g><path d="m264.64 202.94-.1 1.08h-.72l-.18 2.15h.72l-.1 1.08h6.46l.38-4.31zm2.59 3.23h-2.16l.19-2.15h2.15z" style="fill:#745cff"/><path d="m264.64 202.94-.1 1.08h-.72l-.18 2.15h.72l-.1 1.08h6.46l.38-4.31zm2.59 3.23h-2.16l.19-2.15h2.15z" style="opacity:.7;fill:#fff"/><circle cx="249.16" cy="206.56" r=".64" style="fill:#745cff"/><path d="M249.16 203.54a3 3 0 0 1 2.63 1.58l.63-.46a3.76 3.76 0 0 0-6.62.18l.65.41a3 3 0 0 1 2.71-1.71z" style="fill:#745cff"/><path d="M249.16 204.6a2 2 0 0 1 1.77 1.16l.63-.47a2.7 2.7 0 0 0-2.4-1.47 2.73 2.73 0 0 0-2.47 1.58l.67.42a2 2 0 0 1 1.8-1.22z" style="fill:#745cff"/><path d="M249.16 205.62a.93.93 0 0 1 .91.78l.67-.5a1.71 1.71 0 0 0-3.18 0l.69.44a.94.94 0 0 1 .91-.72z" style="fill:#745cff"/><g style="opacity:.7"><circle cx="249.16" cy="206.56" r=".64" style="fill:#fff"/></g><path d="M249.16 203.54a3 3 0 0 1 2.63 1.58l.63-.46a3.76 3.76 0 0 0-6.62.18l.65.41a3 3 0 0 1 2.71-1.71z" style="opacity:.7;fill:#fff"/><path d="M249.16 204.6a2 2 0 0 1 1.77 1.16l.63-.47a2.7 2.7 0 0 0-2.4-1.47 2.73 2.73 0 0 0-2.47 1.58l.67.42a2 2 0 0 1 1.8-1.22z" style="opacity:.7;fill:#fff"/><path d="M249.16 205.62a.93.93 0 0 1 .91.78l.67-.5a1.71 1.71 0 0 0-3.18 0l.69.44a.94.94 0 0 1 .91-.72z" style="opacity:.7;fill:#fff"/><path style="opacity:.1;fill:#fff" d="M215.11 260.84h51.64l6.06-59.2h-51.64z"/><path d="M187.86 312.36a7.2 7.2 0 0 1 3.08 10.34 7 7 0 0 1-3.08 2.56 11.56 11.56 0 0 1-4.7.89h-2.81v4.78h-6.56v-19.46h9.37a11.39 11.39 0 0 1 4.7.89zm-3.12 8.13a2.45 2.45 0 0 0 0-3.37 3 3 0 0 0-2-.59h-2.39v4.56h2.39a2.9 2.9 0 0 0 2-.6zM202.51 326h-1.78v4.9h-6.56v-19.43h9.37a11.34 11.34 0 0 1 4.69.89 6.87 6.87 0 0 1 3.09 2.55 7 7 0 0 1 1.08 3.9 6.88 6.88 0 0 1-.94 3.64 6.66 6.66 0 0 1-2.72 2.47l4.08 6h-7zm2.61-8.91a3 3 0 0 0-2-.59h-2.39v4.56h2.39a2.9 2.9 0 0 0 2-.6 2.45 2.45 0 0 0 0-3.37z" style="fill:#745cff"/><path d="M219.44 330.06a10 10 0 0 1 0-17.73 12.8 12.8 0 0 1 11.28 0 10 10 0 0 1 0 17.73 12.8 12.8 0 0 1-11.28 0zm7.85-4.6a4.21 4.21 0 0 0 1.57-1.69 5.89 5.89 0 0 0 0-5.14 4.24 4.24 0 0 0-1.57-1.7 4.37 4.37 0 0 0-4.42 0 4.24 4.24 0 0 0-1.57 1.7 6 6 0 0 0 0 5.14 4.18 4.18 0 0 0 3.78 2.29 4.16 4.16 0 0 0 2.21-.6zM238.45 311.47H248a13.2 13.2 0 0 1 5.74 1.18 9 9 0 0 1 3.87 3.38 10.44 10.44 0 0 1 0 10.34 9.06 9.06 0 0 1-3.87 3.38 13.34 13.34 0 0 1-5.74 1.18h-9.59zm9.31 14.34a4.67 4.67 0 0 0 3.38-1.21 5.2 5.2 0 0 0 0-6.81 4.71 4.71 0 0 0-3.38-1.21H245v9.23zM263.75 329a9 9 0 0 1-2.5-6.78v-10.7h6.56V322a5.06 5.06 0 0 0 .76 3.11 3 3 0 0 0 4.42 0 5.06 5.06 0 0 0 .77-3.11v-10.53h6.45v10.7a9 9 0 0 1-2.51 6.83 11.26 11.26 0 0 1-13.95 0zM287.71 330.08a9.63 9.63 0 0 1-3.87-3.61 10.55 10.55 0 0 1 0-10.54 9.65 9.65 0 0 1 3.87-3.62 11.87 11.87 0 0 1 5.56-1.29 12.32 12.32 0 0 1 5.06 1 9.34 9.34 0 0 1 3.67 2.89l-4.14 3.7a5.32 5.32 0 0 0-4.25-2.28 4.35 4.35 0 0 0-3.31 1.32 5.65 5.65 0 0 0 0 7.09 4.35 4.35 0 0 0 3.31 1.32 5.32 5.32 0 0 0 4.25-2.28l4.14 3.7a9.34 9.34 0 0 1-3.67 2.89 12.16 12.16 0 0 1-5.06 1 11.87 11.87 0 0 1-5.56-1.29zM308 316.55h-5.7v-5.08h18v5.08h-5.7v14.38H308zM217 174.22l9.27 17.67-16.87-17.67h-29.66a9.29 9.29 0 0 1-9.28-9.28v-19.8a9.28 9.28 0 0 1 9.28-9.28H217a9.27 9.27 0 0 1 9.27 9.28v19.8a9.28 9.28 0 0 1-9.27 9.28z" style="fill:#745cff"/><path d="m217 174.22 9.27 17.67-16.87-17.67h-29.66a9.29 9.29 0 0 1-9.28-9.28v-19.8a9.28 9.28 0 0 1 9.28-9.28H217a9.27 9.27 0 0 1 9.27 9.28v19.8a9.28 9.28 0 0 1-9.27 9.28z" style="opacity:.3;fill:#fff"/><path d="M215.35 150.26h-36a1.9 1.9 0 0 1-1.91-1.91 1.9 1.9 0 0 1 1.91-1.91h36a1.9 1.9 0 0 1 1.91 1.91 1.9 1.9 0 0 1-1.91 1.91zM215.35 156.56h-36a1.9 1.9 0 0 1-1.91-1.91 1.9 1.9 0 0 1 1.91-1.91h36a1.9 1.9 0 0 1 1.91 1.91 1.9 1.9 0 0 1-1.91 1.91zM215.35 162.86h-36a1.9 1.9 0 0 1-1.91-1.91 1.9 1.9 0 0 1 1.91-1.91h36a1.9 1.9 0 0 1 1.91 1.91 1.9 1.9 0 0 1-1.91 1.91z" style="fill:#fff"/><path d="M290.15 166.14 282 191l14.87-24.82H323a8.17 8.17 0 0 0 8.17-8.17v-17.48a8.17 8.17 0 0 0-8.17-8.18h-32.85a8.17 8.17 0 0 0-8.17 8.18V158a8.17 8.17 0 0 0 8.17 8.14z" style="fill:#745cff"/><path d="M290.15 166.14 282 191l14.87-24.82H323a8.17 8.17 0 0 0 8.17-8.17v-17.48a8.17 8.17 0 0 0-8.17-8.18h-32.85a8.17 8.17 0 0 0-8.17 8.18V158a8.17 8.17 0 0 0 8.17 8.14z" style="opacity:.3;fill:#fff"/><path style="fill:#e0e0e0" d="M293.33 158.43h27.81v.89h-27.81zM305.74 143.77l1.36 1.68 4.86-5.41 1.62 1.63 7.87-3.26v1.44l-8.34 3.46-1.08-1.09-5 5.57-1.36-1.68-6.66 7.42-7.2-5.55v-1.81l6.96 5.37z"/><path d="m206.31 273.69 7.12-21.6-13 21.6h-22.68a7.12 7.12 0 0 0-7.12 7.12V296a7.12 7.12 0 0 0 7.12 7.12h28.56a7.12 7.12 0 0 0 7.12-7.12v-15.19a7.12 7.12 0 0 0-7.12-7.12z" style="fill:#745cff"/><path d="m206.31 273.69 7.12-21.6-13 21.6h-22.68a7.12 7.12 0 0 0-7.12 7.12V296a7.12 7.12 0 0 0 7.12 7.12h28.56a7.12 7.12 0 0 0 7.12-7.12v-15.19a7.12 7.12 0 0 0-7.12-7.12z" style="opacity:.3;fill:#fff"/><path style="fill:#e0e0e0" d="M174.84 295.84h34.38V297h-34.38zM174.84 286.39h1.82v7.41h-1.82zM177.83 283.85h1.82v9.95h-1.82zM180.75 281.65h1.82v12.16h-1.82zM183.66 282.89h1.82v10.91h-1.82zM186.66 285.22h1.82v8.58h-1.82zM189.58 285h1.82v8.8h-1.82zM192.66 284.72h1.82v9.08h-1.82zM195.66 282.89h1.82v10.91h-1.82zM198.57 280.98h1.82v12.83h-1.82zM201.49 285.22h1.82v8.58h-1.82zM204.48 281.85h1.82v11.95h-1.82zM207.4 279.35h1.82v14.45h-1.82z"/><path d="m284.52 277.12-7-21.34 12.78 21.34h22.45a7 7 0 0 1 7 7v15a7 7 0 0 1-7 7h-28.2a7 7 0 0 1-7-7v-15a7 7 0 0 1 6.97-7z" style="fill:#745cff"/><path d="m284.52 277.12-7-21.34 12.78 21.34h22.45a7 7 0 0 1 7 7v15a7 7 0 0 1-7 7h-28.2a7 7 0 0 1-7-7v-15a7 7 0 0 1 6.97-7z" style="opacity:.3;fill:#fff"/><path d="M290.84 298.42a5.47 5.47 0 1 1-5.46-5.46 5.46 5.46 0 0 1 5.46 5.46z" style="fill:#f5f5f5"/><path d="M289.32 299.67h-3.16v-.53a2.45 2.45 0 0 0 1.53-2.34 2.24 2.24 0 1 0-4.45 0 2.46 2.46 0 0 0 1.45 2.31v.55h-3.32c-.66.11-.65.9-.65.9a5.63 5.63 0 0 0 4.72 3 5.1 5.1 0 0 0 4.48-3s0-.94-.6-.89z" style="fill:#e0e0e0"/><circle cx="285.38" cy="285.65" r="5.46" style="fill:#f5f5f5"/><path d="M289.32 286.9h-3.16v-.53a2.45 2.45 0 0 0 1.53-2.34 2.24 2.24 0 1 0-4.45 0 2.46 2.46 0 0 0 1.45 2.31v.55h-3.32c-.66.11-.65.9-.65.9a5.63 5.63 0 0 0 4.72 3 5.1 5.1 0 0 0 4.48-3s0-.94-.6-.89z" style="fill:#e0e0e0"/><path d="M304.13 298.42a5.47 5.47 0 1 1-5.46-5.46 5.46 5.46 0 0 1 5.46 5.46z" style="fill:#f5f5f5"/><path d="M302.61 299.67h-3.16v-.53a2.45 2.45 0 0 0 1.53-2.34 2.24 2.24 0 1 0-4.45 0 2.46 2.46 0 0 0 1.45 2.31v.55h-3.32c-.66.11-.65.9-.65.9a5.65 5.65 0 0 0 4.72 3 5.1 5.1 0 0 0 4.48-3s0-.94-.6-.89z" style="fill:#e0e0e0"/><circle cx="298.67" cy="285.65" r="5.46" style="fill:#f5f5f5"/><path d="M302.61 286.9h-3.16v-.53A2.45 2.45 0 0 0 301 284a2.24 2.24 0 1 0-4.45 0 2.46 2.46 0 0 0 1.45 2.31v.55h-3.32c-.66.11-.65.9-.65.9a5.65 5.65 0 0 0 4.72 3 5.1 5.1 0 0 0 4.48-3s-.02-.91-.62-.86z" style="fill:#e0e0e0"/><path d="M316.84 298.42a5.47 5.47 0 1 1-5.46-5.46 5.46 5.46 0 0 1 5.46 5.46z" style="fill:#f5f5f5"/><path d="M315.32 299.67h-3.16v-.53a2.45 2.45 0 0 0 1.53-2.34 2.24 2.24 0 1 0-4.45 0 2.46 2.46 0 0 0 1.45 2.31v.55h-3.32c-.66.11-.65.9-.65.9a5.63 5.63 0 0 0 4.72 3 5.1 5.1 0 0 0 4.48-3s0-.94-.6-.89z" style="fill:#e0e0e0"/><path d="M316.84 285.65a5.47 5.47 0 1 1-5.46-5.46 5.47 5.47 0 0 1 5.46 5.46z" style="fill:#f5f5f5"/><path d="M315.32 286.9h-3.16v-.53a2.45 2.45 0 0 0 1.53-2.34 2.24 2.24 0 1 0-4.45 0 2.46 2.46 0 0 0 1.45 2.31v.55h-3.32c-.66.11-.65.9-.65.9a5.63 5.63 0 0 0 4.72 3 5.1 5.1 0 0 0 4.48-3s0-.94-.6-.89z" style="fill:#e0e0e0"/></g><g transform="matrix(1.25616 0 0 1.25616 -64.04 -53.086)"><path d="m355.77 184.17-.11.38-.09.29c-.06.18-.12.34-.18.51-.12.33-.25.65-.37 1-.25.62-.52 1.21-.8 1.79-.55 1.17-1.17 2.27-1.8 3.35a50.48 50.48 0 0 1-4.28 6.07c-.77.95-1.58 1.86-2.39 2.77-.81.91-1.69 1.75-2.56 2.59a65.57 65.57 0 0 1-5.47 4.7l-.23.19c-.18.13-.39.26-.58.37a9.7 9.7 0 0 1-3.7 1 11 11 0 0 1-3.32-.3 17 17 0 0 1-4.9-2.11 31 31 0 0 1-3.73-2.74q-1.69-1.45-3.19-3c-1-1-1.94-2.08-2.85-3.14a81.449 81.449 0 0 1-5.07-6.62c-.39-.57-.77-1.15-1.15-1.72-.38-.57-.74-1.16-1.11-1.79a2.56 2.56 0 0 1 4-3.1l.06.06 1.35 1.38c.45.47.91.94 1.38 1.4.92.93 1.86 1.84 2.8 2.73.94.89 1.9 1.77 2.86 2.62.96.85 1.93 1.67 2.92 2.45.99.78 2 1.53 3 2.19a24.11 24.11 0 0 0 2.95 1.72 8.55 8.55 0 0 0 2.54.85 2 2 0 0 0 .68 0c.12 0 .12-.08.13-.1l-.81.55c1.55-1.44 3-2.94 4.43-4.47.7-.77 1.37-1.56 2-2.36.63-.8 1.3-1.6 1.91-2.42.3-.41.61-.82.89-1.24.28-.42.59-.84.87-1.26.57-.84 1.09-1.7 1.6-2.56.51-.86 1-1.73 1.39-2.59.22-.43.41-.86.6-1.28.09-.21.18-.41.26-.61l.11-.28v-.16a5.142 5.142 0 0 1 9.87 2.89z" style="fill:#e6ae76"/><path d="M314 185.81c6.38 6.57 12.36 11.08 18.24 13.76 4.1-3.89 13-19.33 15.2-21 2.2-1.67 3.14-1.67 3.14-1.67l-3.75 25.27c-3.86 4.6-6.45 7.45-9.46 8.74-8.62 4.76-17.89-6.72-28.17-20z" style="fill:#263238"/><path d="m311.54 184.24-4 3.89-7.08.15a4.14 4.14 0 0 1-3.07-1.29l-1.79-1.91a3.13 3.13 0 0 1-.28-4l2.16-3a3.13 3.13 0 0 1 4.15-.88l3 1.76s7.89 1.26 6.91 5.28z" style="fill:#e6ae76"/><path d="M339.6 209.62c4.17-3.05 5.31-9.64 7.24-15.68-.41 1.95-.15 7.05-.2 8.44-1.74 2.04-4.17 5.21-7.04 7.24z" style="opacity:.2"/><path d="M379.36 158c-.84 4.82-1.59 13.64 1.84 16.78 0 0-4.41 6.62-11.51 6.93-6.16.27-3.43-6.61-3.43-6.61 5.34-1.4 5.11-5.37 4.1-9.09z" style="fill:#e6ae76"/><path d="m375.69 161.25-5.32 4.75a15.92 15.92 0 0 1 .52 2.65c2-.34 6.44-4.71 6.61-6.85.1-.88-1.59.29-1.81-.55z" style="opacity:.2;isolation:isolate"/><path d="M367.31 141.24c3.18 2.16 1.74 5.82-5.46 11.54-2.92-3.79-3.41-11.15-1.09-13 2.32-1.85 3.78-.41 6.55 1.46z" style="fill:#263238"/><path d="M380.41 146.29c-.34 7.77-.16 12.34-4 16.39-5.8 6.1-15.45 2.71-17.44-5-1.77-6.94-.92-18.49 6.63-21.71a10.61 10.61 0 0 1 14.81 10.34z" style="fill:#e6ae76"/><path d="M368.85 148.61c0 .64-.32 1.16-.73 1.16s-.75-.5-.76-1.13c-.01-.63.31-1.15.72-1.16.41-.01.72.52.77 1.13zM361.66 148.75c0 .63-.32 1.15-.73 1.15s-.76-.49-.77-1.13c-.01-.64.32-1.15.73-1.16.41-.01.76.5.77 1.14z" style="fill:#263238"/><path d="M364 149a22.11 22.11 0 0 1-2.93 5.46 3.64 3.64 0 0 0 3 .51z" style="fill:#d08245"/><path d="M370.77 146.32a.48.48 0 0 0 .24-.06.38.38 0 0 0 .07-.52 3.65 3.65 0 0 0-3.05-1.48.35.35 0 0 0-.34.37.39.39 0 0 0 .4.34 2.91 2.91 0 0 1 2.4 1.19.37.37 0 0 0 .28.16zM358.35 146.38a.37.37 0 0 0 .33-.22 3 3 0 0 1 2.07-1.71.38.38 0 0 0 .31-.43.37.37 0 0 0-.41-.31 3.7 3.7 0 0 0-2.64 2.14.38.38 0 0 0 .18.49.47.47 0 0 0 .16.04zM376.2 140c-1.54.51-2.1 4.71 3.48 12 3.76-3 2.21-8.75.4-11.11-1.81-2.36-1.89-1.71-3.88-.89z" style="fill:#263238"/><path d="M384.22 152.44a7.4 7.4 0 0 1-3.45 4.48c-2.25 1.28-4-.59-3.89-3 .09-2.22 1.39-5.54 3.9-5.81 2.51-.27 4.05 2.01 3.44 4.33z" style="fill:#e6ae76"/><path d="M364.1 157.89a17.92 17.92 0 0 0 5.85-2.57 4.84 4.84 0 0 1-3.93 5.79z" style="fill:#263238"/><path d="M367.42 160.61a4.47 4.47 0 0 0 2.42-3 3.41 3.41 0 0 0-2 1.05 2.47 2.47 0 0 0-.42 1.95z" style="fill:#de5753"/><path d="m363.67 136.93 3.18-1.64a3.15 3.15 0 0 1 1.42-.36l3.28-.06a2.84 2.84 0 0 1 1.28.28 16.73 16.73 0 0 1 3.18 1.53c.38.45.38.69.38.69l-4-.79a2.83 2.83 0 0 0-1.81.24l-2.53 1.24a2.65 2.65 0 0 1-1.49.27l-1.09-.11a.92.92 0 0 1-.81-1l.06-.68zM378.2 149.14l-.41 5 1.32 3.52.05.33a3 3 0 0 1-.26 1.79l-1.4 3a3.5 3.5 0 0 1-2 1.81l-5.5 1.85a3.48 3.48 0 0 1-2.77-.21l-3.6-1.9 1.23-.46 1.91.56.53-2a1 1 0 0 1 1.48-.56l2 1.34 1.65-3 3.91-2.58-.26-6.58a2.7 2.7 0 0 1 0-.49l.9-5 1.07 2.79a1.71 1.71 0 0 1 .15.79z" style="fill:#263238"/><path d="m363.6 156-2 .12a1.12 1.12 0 0 0-1 .81l-.91 3.27a1.12 1.12 0 0 0 .11.86l.57 1a3.73 3.73 0 0 0 1.33 1.37l2.46 1.19c.53-.12-1.69-2.65-1.73-3.2l-.21-2.84a1.1 1.1 0 0 1 1.1-1.18 3.84 3.84 0 0 0 .91-.27c.29-.17.22-.79.22-.79l.79.23a1.09 1.09 0 0 0 .83-.07l3.14-1.62a1.11 1.11 0 0 1 1.4.33l1.63 2.21a1.15 1.15 0 0 1 .21.62v1.25a1.11 1.11 0 0 0 1.68.9 1.09 1.09 0 0 0 .53-1l-.18-2.31a1.14 1.14 0 0 0-.29-.66l-3.19-3.57a1.1 1.1 0 0 0-1.39-.2l-5.49 3.35a1.32 1.32 0 0 1-.52.2zM361.62 150.9h-2.91a1.46 1.46 0 0 1-1.46-1.46v-1.84a1.46 1.46 0 0 1 1.46-1.46h2.91a1.46 1.46 0 0 1 1.46 1.46v1.84a1.46 1.46 0 0 1-1.46 1.46zm-2.91-3.9a.58.58 0 0 0-.59.59v1.84a.58.58 0 0 0 .59.59h2.91a.59.59 0 0 0 .6-.59v-1.83a.59.59 0 0 0-.6-.59zM368.59 150.9h-2.92a1.47 1.47 0 0 1-1.46-1.46v-1.84a1.46 1.46 0 0 1 1.46-1.46h2.92a1.46 1.46 0 0 1 1.46 1.46v1.84a1.46 1.46 0 0 1-1.46 1.46zm-2.92-3.9a.59.59 0 0 0-.59.59v1.84a.59.59 0 0 0 .59.59h2.92a.58.58 0 0 0 .59-.59v-1.83a.58.58 0 0 0-.59-.59z" style="fill:#263238"/><path style="fill:#263238" d="M362.65 148.08h2v.87h-2zM370.07 148.08h7.5v.87h-7.5z"/><path style="fill:#ebb376" d="m334.48 391.21 7.15.99-.98 17.5-7.16-.99z"/><path style="opacity:.2;isolation:isolate" d="M333.87 402.06h7.21l.55-9.86-7.15-.98z"/><path d="m333 407.85 8.09-.5a.51.51 0 0 1 .56.45l.79 6.38a1.26 1.26 0 0 1-1.17 1.35c-2.83.13-4.19 0-7.75.25a67.32 67.32 0 0 1-9.5.3c-3-.29-2.65-3.26-1.34-3.41 3.08-.35 7.17-2.62 9.1-4.34a2.09 2.09 0 0 1 1.22-.48z" style="fill:#263238"/><path d="M332.77 408.73c0-.13-.12-2.17-.87-2.82a1 1 0 0 0-.8-.19.7.7 0 0 0-.62.55 2.57 2.57 0 0 0 .72 1.65 3 3 0 0 0-2-.37.67.67 0 0 0-.36.5.9.9 0 0 0 .26.93 2 2 0 0 0 1.38.27 8.59 8.59 0 0 0 1.88-.38.07.07 0 0 0 .06 0v-.05c0-.05.17 0 .18-.07h.15zm-2-2.4c0-.1.06-.22.3-.26h.08a.51.51 0 0 1 .37.13 3.67 3.67 0 0 1 .61 2.21l-.15-.09a3.36 3.36 0 0 1-1.19-1.99zm-1.48 2.38a.64.64 0 0 1-.16-.59.3.3 0 0 1 .18-.24c.46-.22 1.69.31 2.56.79-1.25.33-2.2.33-2.56.04zM375 247.28v27.11c-8.61 22.3-21.72 59.12-24 71.18-2.28 12.06-1.69 26.73-5.74 53.41l-14.1.32s-1-30.48 1.1-52.86 19.31-99.16 19.31-99.16z" style="fill:#745cff"/><path d="M375 247.28v27.11c-8.61 22.3-21.72 59.12-24 71.18-2.28 12.06-1.69 26.73-5.74 53.41l-14.1.32s-1-30.48 1.1-52.86 19.31-99.16 19.31-99.16z" style="opacity:.4;fill:#fff"/><path d="M361.28 311.74s1.35-12.5 1.71-17.58c.36-5.08 3.81-19.16 3.81-19.16l.59 19.75z" style="opacity:.2"/><path style="fill:#ebb376" d="m385.21 391.7 7.15.99 1 17.01-7.16-.99z"/><path style="opacity:.2;isolation:isolate" d="M385.82 402.06h7.1l-.56-9.37-7.15-.99z"/><path d="m385.66 407.85 8.09-.5a.52.52 0 0 1 .57.45l.79 6.38a1.27 1.27 0 0 1-1.18 1.35c-2.82.13-4.18 0-7.74.25a67.32 67.32 0 0 1-9.5.3c-3-.29-2.65-3.26-1.35-3.41 3.09-.35 7.18-2.62 9.11-4.34a2.09 2.09 0 0 1 1.21-.48z" style="fill:#263238"/><path d="M385.49 408.73c0-.13-.12-2.17-.87-2.82a1.07 1.07 0 0 0-.81-.19.7.7 0 0 0-.61.55 2.61 2.61 0 0 0 .71 1.65 2.94 2.94 0 0 0-2-.37.63.63 0 0 0-.36.5.9.9 0 0 0 .26.93 2 2 0 0 0 1.37.27 8.8 8.8 0 0 0 1.89-.38.07.07 0 0 0 .06 0v-.05s.17 0 .18-.07h.15zm-2-2.4c0-.1.07-.22.3-.26h.09a.49.49 0 0 1 .36.13 3.54 3.54 0 0 1 .61 2.21l-.14-.09a3.39 3.39 0 0 1-1.21-1.99zm-1.49 2.38a.64.64 0 0 1-.16-.59.3.3 0 0 1 .18-.24c.46-.22 1.69.31 2.56.79-1.24.33-2.19.33-2.58.04zM392.83 247.28c1.64 12-4 92.42-2.62 103.61 1.38 11.19 3.09 21.34 4.9 48.41h-13.27s-6.92-25.65-10.48-48.12c-3.56-22.47-5.6-82-3.25-103.9z" style="fill:#745cff"/><path d="M392.83 247.28c1.64 12-4 92.42-2.62 103.61 1.38 11.19 3.09 21.34 4.9 48.41h-13.27s-6.92-25.65-10.48-48.12c-3.56-22.47-5.6-82-3.25-103.9z" style="opacity:.4;fill:#fff"/><path d="M350.55 176.91s-8.67 9.79-.48 70.37h43.54c.3-6.68-3.9-39.29 2.55-70.79a115 115 0 0 0-14.58-1.84 163.16 163.16 0 0 0-18.51 0 81.79 81.79 0 0 0-12.52 2.26z" style="fill:#263238"/><path d="M392.71 209.4c-.55-5.24-.86-13.07-1.79-17.47a47.9 47.9 0 0 0 2.45 4.26M380.73 177.39h-12.08a2.22 2.22 0 0 1-2.22-2.22v-.78a159.12 159.12 0 0 1 16.47.3v.44a2.18 2.18 0 0 1-2.17 2.26zM392.65 210.29c-2.92 4.13-8.57 6.73-15.15 8.82l-.88 7 3.52-.35.2.92a34 34 0 0 0 12.31-2.16z" style="opacity:.2"/><rect x="367.06" y="169.84" width="15.17" height="7.08" rx="1.95" style="fill:#263238"/><path d="m366 218 2.57-1.48a3.47 3.47 0 0 1 3.15-.15l4.74 2.17a6.42 6.42 0 0 1 3.64 4.63l.24 1.27c-4.09 2.74-10.53 2.7-10.53 2.7l-1.84.19a2.86 2.86 0 0 1-3.22-2.5l-.43-3.64A3.32 3.32 0 0 1 366 218z" style="fill:#e6ae76"/><path d="m397.38 181.53.28.29.21.21.36.4c.24.27.46.52.67.78q.63.78 1.2 1.56a37.81 37.81 0 0 1 2.09 3.18 48.84 48.84 0 0 1 3.3 6.64c.47 1.13.9 2.28 1.3 3.42.4 1.14.75 2.32 1.06 3.48a64.34 64.34 0 0 1 1.55 7l.05.29a4.08 4.08 0 0 1 .05.69 9.78 9.78 0 0 1-.88 3.74 11.2 11.2 0 0 1-1.83 2.77 17.55 17.55 0 0 1-4.2 3.31 29.69 29.69 0 0 1-4.18 2c-1.38.54-2.76 1-4.14 1.39-1.38.39-2.75.73-4.12 1s-2.74.54-4.11.76c-1.37.22-2.74.39-4.12.55l-2.06.19c-.7.05-1.37.1-2.11.13a2.56 2.56 0 0 1-.8-5h.07l1.87-.52 1.88-.56c1.26-.37 2.5-.76 3.74-1.16 1.24-.4 2.46-.83 3.66-1.27 1.2-.44 2.39-.91 3.54-1.41 1.15-.5 2.28-1 3.34-1.56a26 26 0 0 0 2.92-1.78 8.76 8.76 0 0 0 1.95-1.83 1.87 1.87 0 0 0 .31-.6v-.17l.1 1c-.52-2.05-1.15-4.05-1.83-6-.33-1-.71-1.95-1.1-2.91-.39-.96-.79-1.91-1.22-2.84-.22-.46-.44-.92-.67-1.38-.23-.46-.45-.91-.69-1.36-.47-.89-1-1.76-1.49-2.62-.49-.86-1.07-1.67-1.62-2.46-.28-.39-.56-.77-.84-1.13-.14-.18-.28-.36-.42-.52l-.19-.23-.08-.09a5.144 5.144 0 1 1 7.24-7.31z" style="fill:#e6ae76"/><path d="M379 219.09c8.81-2.49 15.62-5.61 20.78-9.51-1.48-5.45-8.58-17.22-9.75-19.27-1.17-2.05-3.23-6.45-.83-11.19 3.19-6.29 10.52-.31 10.52-.31 4.61 7.29 12.78 28.39 12.48 31.66.09 9.84-14.41 12.54-31 15.28z" style="fill:#263238"/></g><g transform="matrix(1.25616 0 0 1.25616 -64.04 -53.086)"><path d="M87.75 176.22c-.24 7-1.68 14-2 18.87-.31 4.69-8.22 26.47-8.19 31.9 0 5 10 14.91 10 14.91 3.21-4.51 5.19-7.84 4.75-11.34 1.39 3.84.79 7.61-1.52 11.34 0 0 12.48-1.18 16.71-2.56 4.23-1.38 9.52-2.75 13.71-11.81 4.19-9.06-5-35.82-5-35.82l3 5.34c5.31-16.38.15-25.43-6.21-33.65z" style="fill:#263238"/><path d="M122.84 198.31c5.79 6.28 11.44 12.75 17 19.24l2.09 2.45a2.82 2.82 0 0 1 .29.35c0 .08.16.15.22.23a7.24 7.24 0 0 0 .67.51 14.14 14.14 0 0 0 4.65 1.55 43.17 43.17 0 0 0 5.85.61c1 0 2 .08 3.07.09 1.07.01 2.09 0 3.05 0h.14a2.48 2.48 0 0 1 .85 4.83c-1.15.4-2.2.69-3.31 1-1.11.31-2.21.53-3.34.71a36.56 36.56 0 0 1-7 .58 20.35 20.35 0 0 1-7.79-1.53 12.75 12.75 0 0 1-2.08-1.16 10.72 10.72 0 0 1-1-.79c-.32-.28-.71-.65-.84-.79l-2.36-2.36c-6.06-6.13-12-12.38-17.63-18.89a5 5 0 0 1 7.41-6.65z" style="fill:#ffb573"/><path d="m169.66 219.9-2.36-.66a2.86 2.86 0 0 0-2.57.52l-3.36 2.72a5.32 5.32 0 0 0-2 4.47l.06 1.07c3.85 1.36 9 0 9 0l1.51-.22a2.38 2.38 0 0 0 2.08-2.67l-.4-3a2.74 2.74 0 0 0-1.96-2.23z" style="fill:#ffb573"/><path d="m126 216.63 5.09 5.18-1.46-3.37c.52-2.35-2.11-7.42-4.31-10z" style="opacity:.2"/><path d="M179.09 206.37H158a2 2 0 0 0-2 1.8l-1.17 12a2 2 0 0 0 2 2.19h21.13a2 2 0 0 0 2-1.8l1.17-12a2 2 0 0 0-2.04-2.19z" style="fill:#263238"/><path d="M177.83 206.33H156.7a2 2 0 0 0-2 1.81l-1.17 12a2 2 0 0 0 2 2.2h21.13a2 2 0 0 0 2-1.81l1.17-12a2 2 0 0 0-2-2.2z" style="fill:#745cff"/><path d="M177.83 206.33H156.7a2 2 0 0 0-2 1.81l-1.17 12a2 2 0 0 0 2 2.2h21.13a2 2 0 0 0 2-1.81l1.17-12a2 2 0 0 0-2-2.2z" style="opacity:.1;fill:#fff"/><path style="opacity:.5;fill:#fff" d="M158.67 222.31h13.99l1.56-15.98h-13.99z"/><path d="M156.28 220.07c0 .45-.27.82-.6.82-.33 0-.6-.37-.6-.82 0-.45.27-.82.6-.82.33 0 .6.37.6.82z" style="fill:#263238"/><path d="M156.14 220.07c0 .45-.27.82-.6.82-.33 0-.6-.37-.6-.82 0-.45.27-.82.6-.82.33 0 .6.37.6.82z" style="fill:#745cff"/><path d="M156.14 220.07c0 .45-.27.82-.6.82-.33 0-.6-.37-.6-.82 0-.45.27-.82.6-.82.33 0 .6.37.6.82z" style="opacity:.5"/><path d="M157.86 220.07c0 .45-.27.82-.6.82-.33 0-.6-.37-.6-.82 0-.45.27-.82.6-.82.33 0 .6.37.6.82z" style="fill:#263238"/><path d="M157.72 220.07c0 .45-.27.82-.6.82-.33 0-.6-.37-.6-.82 0-.45.27-.82.6-.82.33 0 .6.37.6.82z" style="fill:#745cff"/><path d="M157.72 220.07c0 .45-.27.82-.6.82-.33 0-.6-.37-.6-.82 0-.45.27-.82.6-.82.33 0 .6.37.6.82z" style="opacity:.4"/><path d="M175.2 220.06c0 .44-.27.81-.59.81-.32 0-.59-.37-.59-.81 0-.44.26-.81.59-.81.33 0 .59.36.59.81z" style="fill:#263238"/><path d="M175.06 220.06c0 .44-.26.81-.59.81-.33 0-.59-.37-.59-.81 0-.44.26-.81.59-.81.33 0 .59.36.59.81z" style="fill:#745cff"/><path d="M175.06 220.06c0 .44-.26.81-.59.81-.33 0-.59-.37-.59-.81 0-.44.26-.81.59-.81.33 0 .59.36.59.81z" style="opacity:.3"/><path d="M176.75 220.06c0 .44-.26.81-.59.81-.33 0-.59-.37-.59-.81 0-.44.27-.81.59-.81.32 0 .59.36.59.81z" style="fill:#263238"/><path d="M176.62 220.06c0 .44-.27.81-.59.81-.32 0-.59-.37-.59-.81 0-.44.26-.81.59-.81.33 0 .59.36.59.81z" style="fill:#745cff"/><path d="M176.62 220.06c0 .44-.27.81-.59.81-.32 0-.59-.37-.59-.81 0-.44.26-.81.59-.81.33 0 .59.36.59.81z" style="opacity:.2"/><path d="M176.23 210.57c0 .52-.31.94-.69.94-.38 0-.69-.42-.69-.94s.31-.93.69-.93c.38 0 .69.42.69.93z" style="fill:#263238"/><path d="M176.07 210.57c0 .52-.31.94-.69.94-.38 0-.69-.42-.69-.94s.31-.93.69-.93c.38 0 .69.42.69.93z" style="fill:#745cff"/><path d="M176.07 210.57c0 .52-.31.94-.69.94-.38 0-.69-.42-.69-.94s.31-.93.69-.93c.38 0 .69.42.69.93z" style="opacity:.2;fill:#fff"/><path d="M176.23 213.1c0 .52-.31.94-.69.94-.38 0-.69-.42-.69-.94s.31-.94.69-.94c.38 0 .69.42.69.94z" style="fill:#263238"/><path d="M176.07 213.1c0 .52-.31.94-.69.94-.38 0-.69-.42-.69-.94s.31-.94.69-.94c.38 0 .69.42.69.94z" style="fill:#745cff"/><path d="M176.07 213.1c0 .52-.31.94-.69.94-.38 0-.69-.42-.69-.94s.31-.94.69-.94c.38 0 .69.42.69.94z" style="opacity:.5;fill:#fff"/><path d="M178.41 213.1c0 .52-.3.94-.68.94-.38 0-.69-.42-.69-.94s.31-.94.69-.94c.38 0 .68.42.68.94z" style="fill:#263238"/><path d="M178.25 213.1c0 .52-.3.94-.68.94-.38 0-.69-.42-.69-.94s.31-.94.69-.94c.38 0 .68.42.68.94z" style="fill:#745cff"/><path d="M178.25 213.1c0 .52-.3.94-.68.94-.38 0-.69-.42-.69-.94s.31-.94.69-.94c.38 0 .68.42.68.94z" style="opacity:.3;fill:#fff"/><path d="M178.41 210.57c0 .52-.3.94-.68.94-.38 0-.69-.42-.69-.94s.31-.93.69-.93c.38 0 .68.42.68.93z" style="fill:#263238"/><ellipse cx="177.57" cy="210.57" rx=".69" ry=".94" style="fill:#745cff"/><ellipse cx="177.57" cy="210.57" rx=".69" ry=".94" style="opacity:.4;fill:#fff"/><path style="fill:#263238" d="M155.16 212.84h.94l-.13 1.14h1.45l.13-1.14h.97l.13-1.29h-.95l.13-1.2h-1.44l-.14 1.2h-.96z"/><path style="fill:#745cff" d="M154.94 212.84h.96l-.14 1.14h1.45l.13-1.14h.97l.13-1.29h-.95l.13-1.2h-1.44l-.14 1.2h-.96z"/><path d="M157 212.19c0 .22-.13.4-.29.4-.16 0-.29-.18-.29-.4 0-.22.13-.39.29-.39.16 0 .29.2.29.39z" style="opacity:.4"/><path style="opacity:.5" d="m155.72 212.19.11.33-.61-.33.73-.33zM157.64 212.19l-.1-.33.6.33-.72.33zM156.76 211.29l.39.16-.33-.77-.39.76zM156.57 213.09l-.38-.17.32.77.39-.75z"/><path style="opacity:.05" d="M154.94 212.84h.96l-.14 1.14h1.45l.13-1.14h.97l.13-1.29h-.95l.13-1.2h-1.44l-.14 1.2h-.96z"/><path d="M156.66 216.41a.11.11 0 0 1-.12.11.11.11 0 0 1 0-.22.11.11 0 0 1 .12.11zM156.09 216.41a.1.1 0 0 1-.11.11.11.11 0 0 1 0-.22.1.1 0 0 1 .11.11zM155.53 216.41a.11.11 0 1 1-.11-.11.11.11 0 0 1 .11.11zM157.22 216.41a.11.11 0 0 1-.12.11.11.11 0 0 1 0-.22.11.11 0 0 1 .12.11zM157.78 216.41a.11.11 0 0 1-.11.11.11.11 0 1 1 0-.22.11.11 0 0 1 .11.11z"/><circle cx="156.54" cy="215.85" r=".11"/><circle cx="156.54" cy="215.29" r=".11"/><path d="M156.54 217.08a.11.11 0 0 1 0-.22.11.11 0 1 1 0 .22z"/><circle cx="156.54" cy="217.53" r=".11"/><circle cx="156.15" cy="216.02" r=".11"/><path d="M155.83 215.7a.11.11 0 1 1 0-.16.12.12 0 0 1 0 .16z"/><circle cx="156.94" cy="216.81" r=".11"/><circle cx="157.34" cy="217.2" r=".11"/><circle cx="156.15" cy="216.81" r=".11"/><path d="M155.83 217.13a.11.11 0 0 1 0 .15.1.1 0 0 1-.16 0 .11.11 0 0 1 0-.15.1.1 0 0 1 .16 0z"/><circle cx="156.94" cy="216.02" r=".11"/><circle cx="157.34" cy="215.62" r=".11"/><circle cx="176.23" cy="216.52" r=".11"/><circle cx="175.67" cy="216.52" r=".11"/><circle cx="175.11" cy="216.52" r=".11"/><circle cx="176.79" cy="216.52" r=".11"/><circle cx="177.35" cy="216.52" r=".11"/><circle cx="176.23" cy="215.96" r=".11"/><circle cx="176.23" cy="215.4" r=".11"/><path d="M176.23 217.19a.11.11 0 1 1 .11-.11.11.11 0 0 1-.11.11zM176.23 217.75a.1.1 0 0 1-.11-.11.11.11 0 1 1 .22 0 .1.1 0 0 1-.11.11z"/><circle cx="175.83" cy="216.13" r=".11"/><path d="M175.52 215.81a.11.11 0 1 1 0-.16.12.12 0 0 1 0 .16zM176.71 217a.12.12 0 0 1-.16 0 .1.1 0 0 1 0-.16.113.113 0 0 1 .16.16z"/><circle cx="177.02" cy="217.32" r=".11"/><circle cx="175.83" cy="216.92" r=".11"/><path d="M175.52 217.24a.11.11 0 0 1 0 .15.1.1 0 0 1-.16 0 .11.11 0 0 1 0-.15.1.1 0 0 1 .16 0zM176.71 216.05a.11.11 0 0 1 0 .15.1.1 0 0 1-.16 0 .09.09 0 0 1 0-.15.1.1 0 0 1 .16 0z"/><circle cx="177.02" cy="215.73" r=".11"/><path style="fill:#263238" d="m159.76 207.79.09-.89h-1.44l-.09.89z"/><path style="opacity:.5;fill:#fff" d="m159.76 207.79.09-.89h-1.44l-.09.89z"/><path style="fill:#263238" d="m157.96 207.79.09-.89h-1.44l-.09.89z"/><path style="opacity:.4;fill:#fff" d="m157.96 207.79.09-.89h-1.44l-.09.89z"/><path style="fill:#263238" d="m177.68 207.79.09-.89h-1.44l-.09.89z"/><path style="opacity:.2;fill:#fff" d="m177.68 207.79.09-.89h-1.44l-.09.89z"/><path style="fill:#263238" d="m175.88 207.79.09-.89h-1.44l-.09.89z"/><path style="opacity:.3;fill:#fff" d="m175.88 207.79.09-.89h-1.44l-.09.89z"/><path style="fill:#745cff" d="M158.94 221.98h13.29l1.56-15.24H160.5z"/><path d="m161.9 210.5-.1 1.41a.27.27 0 0 0 .27.29h1a.27.27 0 0 0 .27-.25l.1-1.42a.28.28 0 0 0-.28-.29h-1a.26.26 0 0 0-.26.26z" style="fill:#745cff"/><path d="m161.9 210.5-.1 1.41a.27.27 0 0 0 .27.29h1a.27.27 0 0 0 .27-.25l.1-1.42a.28.28 0 0 0-.28-.29h-1a.26.26 0 0 0-.26.26z" style="opacity:.3;fill:#fff"/><path style="fill:#745cff" d="m163.07 211.8.05-.74h-.59l-.05.74z"/><path style="fill:#745cff" d="m162.75 211.43.05-.74h-.59l-.05.74zM164.64 210.5l-.09 1.41a.27.27 0 0 0 .27.29h1a.27.27 0 0 0 .27-.25l.1-1.42a.28.28 0 0 0-.28-.29h-1a.28.28 0 0 0-.27.26z"/><path d="m164.64 210.5-.09 1.41a.27.27 0 0 0 .27.29h1a.27.27 0 0 0 .27-.25l.1-1.42a.28.28 0 0 0-.28-.29h-1a.28.28 0 0 0-.27.26z" style="opacity:.3;fill:#fff"/><path style="fill:#745cff" d="m165.82 211.8.05-.74h-.59l-.05.74z"/><path style="fill:#745cff" d="m165.5 211.43.05-.74h-.6l-.05.74zM167.43 210.5l-.1 1.41a.28.28 0 0 0 .28.29h1a.27.27 0 0 0 .28-.25l.09-1.42a.27.27 0 0 0-.27-.29h-1a.27.27 0 0 0-.28.26z"/><path d="m167.43 210.5-.1 1.41a.28.28 0 0 0 .28.29h1a.27.27 0 0 0 .28-.25l.09-1.42a.27.27 0 0 0-.27-.29h-1a.27.27 0 0 0-.28.26z" style="opacity:.3;fill:#fff"/><path style="fill:#745cff" d="m168.61 211.8.05-.74h-.6l-.05.74z"/><path style="fill:#745cff" d="m168.28 211.43.06-.74h-.6l-.05.74zM170.2 210.5l-.09 1.41a.27.27 0 0 0 .27.29h1a.27.27 0 0 0 .27-.25l.1-1.42a.28.28 0 0 0-.28-.29h-1a.28.28 0 0 0-.27.26z"/><path d="m170.2 210.5-.09 1.41a.27.27 0 0 0 .27.29h1a.27.27 0 0 0 .27-.25l.1-1.42a.28.28 0 0 0-.28-.29h-1a.28.28 0 0 0-.27.26z" style="opacity:.3;fill:#fff"/><path style="fill:#745cff" d="m171.38 211.8.05-.74h-.59l-.06.74z"/><path style="fill:#745cff" d="m171.06 211.43.05-.74h-.6l-.05.74zM161.32 214.09l-.09 1.41a.27.27 0 0 0 .27.29h1a.27.27 0 0 0 .27-.25l.1-1.42a.28.28 0 0 0-.28-.29h-1a.28.28 0 0 0-.27.26z"/><path d="m161.32 214.09-.09 1.41a.27.27 0 0 0 .27.29h1a.27.27 0 0 0 .27-.25l.1-1.42a.28.28 0 0 0-.28-.29h-1a.28.28 0 0 0-.27.26z" style="opacity:.3;fill:#fff"/><path style="fill:#745cff" d="m162.5 215.39.05-.74h-.59l-.05.74z"/><path style="fill:#745cff" d="m162.18 215.02.05-.74h-.6l-.05.74zM164.07 214.09l-.07 1.41a.27.27 0 0 0 .27.29h1a.27.27 0 0 0 .27-.25l.09-1.42a.26.26 0 0 0-.27-.29h-1a.27.27 0 0 0-.29.26z"/><path d="m164.07 214.09-.07 1.41a.27.27 0 0 0 .27.29h1a.27.27 0 0 0 .27-.25l.09-1.42a.26.26 0 0 0-.27-.29h-1a.27.27 0 0 0-.29.26z" style="opacity:.3;fill:#fff"/><path style="fill:#745cff" d="m165.25 215.39.05-.74h-.6l-.05.74z"/><path style="fill:#745cff" d="m164.93 215.02.05-.74h-.6l-.05.74zM166.86 214.09l-.1 1.41a.28.28 0 0 0 .28.29h1a.27.27 0 0 0 .28-.25l.09-1.42a.27.27 0 0 0-.27-.29h-1a.27.27 0 0 0-.28.26z"/><path d="m166.86 214.09-.1 1.41a.28.28 0 0 0 .28.29h1a.27.27 0 0 0 .28-.25l.09-1.42a.27.27 0 0 0-.27-.29h-1a.27.27 0 0 0-.28.26z" style="opacity:.3;fill:#fff"/><path style="fill:#745cff" d="m168.04 215.39.05-.74h-.6l-.05.74z"/><path style="fill:#745cff" d="m167.71 215.02.05-.74h-.59l-.05.74zM169.63 214.09l-.09 1.41a.27.27 0 0 0 .27.29h1a.27.27 0 0 0 .27-.25l.09-1.42a.27.27 0 0 0-.27-.29h-1a.27.27 0 0 0-.27.26z"/><path d="m169.63 214.09-.09 1.41a.27.27 0 0 0 .27.29h1a.27.27 0 0 0 .27-.25l.09-1.42a.27.27 0 0 0-.27-.29h-1a.27.27 0 0 0-.27.26z" style="opacity:.3;fill:#fff"/><path style="fill:#745cff" d="m170.81 215.39.05-.74h-.6l-.05.74z"/><path style="fill:#745cff" d="m170.49 215.02.05-.74h-.6l-.05.74zM160.75 217.9l-.09 1.41a.27.27 0 0 0 .27.29h1a.27.27 0 0 0 .27-.25l.1-1.41a.28.28 0 0 0-.28-.3h-1a.28.28 0 0 0-.27.26z"/><path d="m160.75 217.9-.09 1.41a.27.27 0 0 0 .27.29h1a.27.27 0 0 0 .27-.25l.1-1.41a.28.28 0 0 0-.28-.3h-1a.28.28 0 0 0-.27.26z" style="opacity:.3;fill:#fff"/><path style="fill:#745cff" d="m161.93 219.2.05-.74h-.6l-.04.74z"/><path style="fill:#745cff" d="m161.61 218.83.05-.74h-.6l-.05.74zM163.5 217.9l-.1 1.41a.28.28 0 0 0 .28.29h1a.27.27 0 0 0 .28-.25l.09-1.41a.28.28 0 0 0-.27-.3h-1a.27.27 0 0 0-.28.26z"/><path d="m163.5 217.9-.1 1.41a.28.28 0 0 0 .28.29h1a.27.27 0 0 0 .28-.25l.09-1.41a.28.28 0 0 0-.27-.3h-1a.27.27 0 0 0-.28.26z" style="opacity:.3;fill:#fff"/><path style="fill:#745cff" d="m164.68 219.2.05-.74h-.6l-.05.74z"/><path style="fill:#745cff" d="m164.35 218.83.06-.74h-.6l-.05.74zM166.29 217.9l-.1 1.41a.28.28 0 0 0 .28.29h1a.26.26 0 0 0 .27-.25l.1-1.41a.28.28 0 0 0-.27-.3h-1a.27.27 0 0 0-.28.26z"/><path d="m166.29 217.9-.1 1.41a.28.28 0 0 0 .28.29h1a.26.26 0 0 0 .27-.25l.1-1.41a.28.28 0 0 0-.27-.3h-1a.27.27 0 0 0-.28.26z" style="opacity:.3;fill:#fff"/><path style="fill:#745cff" d="m167.46 219.2.05-.74h-.59l-.05.74z"/><path style="fill:#745cff" d="m167.14 218.83.05-.74h-.59l-.05.74zM169.06 217.9l-.1 1.41a.28.28 0 0 0 .28.29h1a.27.27 0 0 0 .28-.25l.09-1.41a.28.28 0 0 0-.27-.3h-1a.27.27 0 0 0-.28.26z"/><path d="m169.06 217.9-.1 1.41a.28.28 0 0 0 .28.29h1a.27.27 0 0 0 .28-.25l.09-1.41a.28.28 0 0 0-.27-.3h-1a.27.27 0 0 0-.28.26z" style="opacity:.3;fill:#fff"/><path style="fill:#745cff" d="m170.24 219.2.05-.74h-.6l-.05.74z"/><path style="fill:#745cff" d="m169.91 218.83.06-.74h-.6l-.05.74zM169.08 207.83h-.38l-.04.38h.38zM169.45 207.83l-.03.38h.38l.03-.38.04-.38h-.38zM170.21 207.83l-.03.38h.38l.03-.38.03-.38.04-.38h-.38l-.04.38z"/><g style="opacity:.4"><path style="fill:#fff" d="M169.08 207.83h-.38l-.04.38h.38zM169.45 207.83l-.03.38h.38l.03-.38.04-.38h-.38zM170.21 207.83l-.03.38h.38l.03-.38.03-.38.04-.38h-.38l-.04.38z"/></g><path d="M171.69 207.07v.28h-.18v.55h.19v.28h1.67l.09-1.11zm.67.83h-.56v-.55h.55z" style="fill:#745cff"/><path d="M171.69 207.07v.28h-.18v.55h.19v.28h1.67l.09-1.11zm.67.83h-.56v-.55h.55z" style="opacity:.7;fill:#fff"/><path d="M167.87 208a.17.17 0 0 1-.17.16.16.16 0 0 1-.16-.16.16.16 0 0 1 .16-.17.17.17 0 0 1 .17.17zM167.7 207.23a.76.76 0 0 1 .68.4l.16-.12a1 1 0 0 0-1.7.05l.17.11a.77.77 0 0 1 .69-.44z" style="fill:#745cff"/><path d="M167.7 207.5a.49.49 0 0 1 .46.3l.16-.12a.69.69 0 0 0-1.25 0l.17.1a.49.49 0 0 1 .46-.28z" style="fill:#745cff"/><path d="M167.7 207.76a.25.25 0 0 1 .24.2l.17-.12a.45.45 0 0 0-.41-.28.43.43 0 0 0-.41.29l.18.11a.24.24 0 0 1 .23-.2z" style="fill:#745cff"/><g style="opacity:.7"><path d="M167.87 208a.17.17 0 0 1-.17.16.16.16 0 0 1-.16-.16.16.16 0 0 1 .16-.17.17.17 0 0 1 .17.17z" style="fill:#fff"/></g><path d="M167.7 207.23a.76.76 0 0 1 .68.4l.16-.12a1 1 0 0 0-1.7.05l.17.11a.77.77 0 0 1 .69-.44z" style="opacity:.7;fill:#fff"/><path d="M167.7 207.5a.49.49 0 0 1 .46.3l.16-.12a.69.69 0 0 0-1.25 0l.17.1a.49.49 0 0 1 .46-.28z" style="opacity:.7;fill:#fff"/><path d="M167.7 207.76a.25.25 0 0 1 .24.2l.17-.12a.45.45 0 0 0-.41-.28.43.43 0 0 0-.41.29l.18.11a.24.24 0 0 1 .23-.2z" style="opacity:.7;fill:#fff"/><path style="opacity:.1;fill:#fff" d="M158.94 221.98h13.29l1.56-15.24H160.5z"/><path d="M161 222.83s4.44-3.56 4.89-4c.45-.44.6 3-.8 4.28-1.4 1.28-4.09-.28-4.09-.28z" style="fill:#ffb573"/><path d="M124 204.46c1.16 7.06 7.43 10 1.93 16.31.63 6.15 2 17.13 1.75 27.34-1.5 3-16.55 5.1-31.83 4 .52-8.79-1.67-22.91-9.86-41.2a7.81 7.81 0 0 1 4.71-10.63c1.18-.38 2.43-.77 3.73-1.11a98 98 0 0 1 13.72-3c1.52-.18 3.09-.33 4.6-.45a10.58 10.58 0 0 1 11.25 8.74z" style="fill:#745cff"/><path style="opacity:.2" d="m91.62 212.19-1.24 9.24-3.13-7.25z"/><path d="M92.81 163c2.45-5.62 16.84-6.33 19.89-1.19 3.9 6.56 11.49 13 9.71 22.43a6.76 6.76 0 0 0-1.24-2.62s1.45 8.1-6.32 10.55c-7.77 2.45-16.5 2.25-19.7.76-1-1.12-.92-3.6-.92-3.6a4.2 4.2 0 0 0-.29 3.21c-1.55-1.38-6.88-1.2-6.4-10.4.46-8.14-.21-20.06 5.27-19.14z" style="fill:#263238"/><path d="M95.85 181.72c1.6 5 3.71 14.22.57 17.75 0 0-2.17 4.55 11.19 3.54 1.29 2.73 8.52 5.62 9.47 12.77 1.81-7.31-5.79-11-6.81-13 8.57-1.13 1.9-4 1.9-4-5.82-1.09-6.17-5.28-5.66-9.25z" style="fill:#ffb573"/><path d="m100.2 184.9 6.31 4.61a15.69 15.69 0 0 0-.16 2.81c-2.19-.22-5.44-2.44-5.94-4.69a7.57 7.57 0 0 1-.21-2.73z" style="opacity:.2"/><path d="M91.66 173.59c1.78 7.59 2.37 10.83 6.9 14.3 6.82 5.22 15.71 1.9 16.22-5.94.46-7.06-2.53-18.28-10.53-20.45a10 10 0 0 0-12.59 12.09z" style="fill:#ffb573"/><path d="M98 167.77c-4 5.63 5 11.51-3.71 11.54-8.71.03-5.72-12.38-.7-15.39s4.41 3.85 4.41 3.85zM103.83 174.32c.13.64.56 1.12 1 1.07.44-.05.65-.61.53-1.25s-.56-1.12-1-1.08c-.44.04-.65.62-.53 1.26zM111.63 173.51c.12.64.55 1.12 1 1.07.45-.05.65-.61.52-1.25s-.55-1.13-1-1.08c-.45.05-.64.61-.52 1.26z" style="fill:#263238"/><path d="m112 172.31 1.43-.63s-.57 1.32-1.43.63z" style="fill:#263238"/><path d="M109.66 174.82a19.21 19.21 0 0 0 3 3.83 2.57 2.57 0 0 1-2.17.7z" style="fill:#ed893e"/><path d="M107.34 182.16a5.66 5.66 0 0 0 1.08 0 .18.18 0 0 0 .15-.21.22.22 0 0 0-.23-.17 5.45 5.45 0 0 1-4.46-1.5.18.18 0 1 0-.27.24 5.72 5.72 0 0 0 3.73 1.64z" style="fill:#263238"/><path d="M91.25 181a5.36 5.36 0 0 0 3.38 2.71c1.8.39 2.48-1.69 1.79-3.7-.61-1.81-2.29-4.2-4-3.68s-2.15 2.92-1.17 4.67z" style="fill:#ffb573"/><path d="M101.49 170.94a.41.41 0 0 0 .27-.13 2.8 2.8 0 0 1 2.43-1.06.36.36 0 0 0 .41-.32.41.41 0 0 0-.35-.43 3.5 3.5 0 0 0-3.09 1.3.39.39 0 0 0 .07.54.37.37 0 0 0 .26.1zM113.37 169.89a.34.34 0 0 0 .23-.59 3.67 3.67 0 0 0-3.08-1.21.33.33 0 0 0-.27.4.39.39 0 0 0 .43.29 3 3 0 0 1 2.43 1 .48.48 0 0 0 .26.11zM104.18 173.12l1.44-.62s-.55 1.3-1.44.62z" style="fill:#263238"/><path d="M106.85 160.3s.27 4.73-.79 6.58a5.16 5.16 0 0 1-3.22 2.27 8.72 8.72 0 0 0-.2-5.12c.28 3.14-.07 6.18-2.74 8.88-1.25 1.79-1.55 5.64-.39 7.1-2.67-2.27-5.13-6.93-7.36-9.52 0 0 .33-6.27 2.15-8.13 1.82-1.86 2.42-1.67 5.84-2.45a13.48 13.48 0 0 1 6.71.39z" style="fill:#263238"/><path d="M92.74 211c-1.28 1.49-2.71 3.11-4 4.72-1.29 1.61-2.65 3.24-3.94 4.87s-2.52 3.3-3.73 5c-1.21 1.7-2.33 3.37-3.41 5.08l.37-.88a1.88 1.88 0 0 0-.07-1.06c-.11-.32-.26-.42-.25-.36a3.39 3.39 0 0 0 1.07.95 25.87 25.87 0 0 0 4.56 2.18c1.7.67 3.5 1.26 5.31 1.82 1.81.56 3.7 1.1 5.51 1.63h.08a2.49 2.49 0 0 1-.65 4.88c-2.1 0-4.09-.09-6.15-.25a55.8 55.8 0 0 1-6.18-.9 28.52 28.52 0 0 1-6.45-2 12.2 12.2 0 0 1-3.65-2.68 7.47 7.47 0 0 1-1.71-2.91 7.15 7.15 0 0 1 0-4 4 4 0 0 1 .27-.68l.1-.2c1-2 2.15-4.07 3.36-6 1.21-1.93 2.43-3.81 3.75-5.63 1.32-1.82 2.63-3.58 4.07-5.28 1.44-1.7 2.83-3.4 4.47-5.11a5 5 0 0 1 7.38 6.68z" style="fill:#ffb573"/><path d="M103.06 228.57h-2.59a3 3 0 0 0-2.47 1.3l-2.62 3.72a5.61 5.61 0 0 0-.7 5.11l.38 1.06c4.29.27 9.14-2.61 9.14-2.61l1.47-.67a2.52 2.52 0 0 0 1.33-3.31l-1.29-2.93a2.89 2.89 0 0 0-2.65-1.67zM99.38 253.5s.46 7.91 4.32 21.75a218.83 218.83 0 0 0 8.8 25.17c1.93 4.64 4.14 9.55 6.67 14.72 1.14 2.35 2.36 4.75 3.64 7.21 1.48 41.92 25 84.55 25 84.55 1.3.67 5.85-.07 5.82-1.39-3.48-5.53-10.34-59.25-14.76-84.73-.27-3.46-.67-7.18-1.16-11-1.29-10.28-3.2-21.47-5.06-31.31-2.92-15.5-5.7-27.65-5.7-27.65l-7.76.76z" style="fill:#ffb573"/><path d="M90.13 311.54q.93 6.75 2.42 14.46c-8.41 28.05 8.87 82.77 8.87 82.77 2.93.57 5.52.19 6.83-.79-3.26-16.48-.91-59.35 1.62-85 .22-2.32.51-4.88.82-7.61.52-4.62 1.14-9.72 1.8-15 1.11-8.81 2.37-18.08 3.5-26.29 1.38-9.94 2.59-18.34 3.2-22.56.27-1.86.42-2.91.42-2.91l-24.27 2.62s-6.16 6.93-7.1 28.53a176.64 176.64 0 0 0 1.89 31.78z" style="fill:#ffb573"/><path d="M90.13 311.54a75.58 75.58 0 0 0 20.56 3.86c.52-4.62 1.14-9.72 1.8-15 1.93 4.64 4.14 9.55 6.67 14.72a50.51 50.51 0 0 0 18.55-5.37c-1.29-10.28-3.2-21.47-5.06-31.31a30.39 30.39 0 0 0-8.24-3.32 35.71 35.71 0 0 0-8.42-1 63 63 0 0 0-12.3 1.12 77.45 77.45 0 0 0-15.45 4.56 176.64 176.64 0 0 0 1.89 31.74z" style="opacity:.2"/><path d="M100.83 415.93h1.35l.37-1.66 4.48 2h11.34s1.8-1.82-3.6-3.26a4.51 4.51 0 0 1-.76-.29c-2.88-1.35-7-5.92-7-5.92h-6.22a8.28 8.28 0 0 0-.51.9c-.66 1.38-1.84 4.3.55 8.23z" style="fill:#263238"/><path d="M100.3 407.71c.82-.92 4.56 3.11 7.3 4.48 2.44 1.21 5.19 1.75 6.41.52-2.88-1.35-7.41-7.25-7.41-7.25h-5s-1.01 1.67-1.3 2.25z" style="fill:#ffb573"/><path d="M148.07 415.93h1.35l.38-1.66 4.47 2h11.34s1.81-1.82-3.59-3.26a4.29 4.29 0 0 1-.77-.29c-2.88-1.35-7-5.92-7-5.92h-6.22a8.28 8.28 0 0 0-.51.9c-.66 1.38-1.83 4.3.55 8.23z" style="fill:#263238"/><path d="M147.54 407.71c.82-.92 4.56 3.11 7.3 4.48 2.44 1.21 5.19 1.75 6.41.52-2.88-1.35-7.41-7.25-7.41-7.25h-5s-1.01 1.67-1.3 2.25z" style="fill:#ffb573"/><path d="M127.4 248.66H95.18l-.87 4.15S82.48 269.2 88.47 310c0 0 25.92 3 50.33-2.24 0 0-5.48-42-11.21-55.66z" style="fill:#263238"/><path style="fill:#263238" d="M94.63 249.15h10.15v3.08H93.97zM127.94 252.23h-3.52v-3.08h3.24zM105.83 249.15h17.51v3.08h-17.51z"/><path style="opacity:.6;isolation:isolate;fill:#fff" d="M94.63 249.15h10.15v3.08H93.97zM127.94 252.23h-3.52v-3.08h3.24zM105.83 249.15h17.51v3.08h-17.51z"/><rect x="113.09" y="248.91" width="5.91" height="3.55" rx=".54" transform="rotate(180 116.045 250.69)" style="fill:#fff"/></g><g transform="matrix(1.25616 0 0 1.25616 -64.04 -53.086)"><rect x="59.24" y="336.43" width="41.37" height="41.37" rx="11.01" style="fill:#745cff"/><rect x="59.24" y="336.43" width="41.37" height="41.37" rx="11.01" style="fill:#745cff"/><path d="M84.56 350.54v5.82a4.37 4.37 0 0 1-4.37 4.37h-5.56l-6.35 6.35v-6.35a4.37 4.37 0 0 1-4.37-4.37v-5.82a4.37 4.37 0 0 1 4.37-4.37h11.91a4.37 4.37 0 0 1 4.37 4.37z" style="fill:#fff"/><path d="M67.78 368.29v-7.08a4.89 4.89 0 0 1-4.37-4.85v-5.82a4.87 4.87 0 0 1 4.87-4.87h11.91a4.87 4.87 0 0 1 4.87 4.87v5.82a4.87 4.87 0 0 1-4.87 4.87h-5.35zm.5-21.62a3.87 3.87 0 0 0-3.87 3.87v5.82a3.87 3.87 0 0 0 3.87 3.87h.5v5.65l5.64-5.65h5.77a3.87 3.87 0 0 0 3.87-3.87v-5.82a3.87 3.87 0 0 0-3.87-3.87z" style="fill:#745cff"/><path d="M95.94 359.33v4.48a3.36 3.36 0 0 1-3.36 3.36v4.88l-4.89-4.88h-4.27a3.36 3.36 0 0 1-3.36-3.36v-4.48a3.36 3.36 0 0 1 3.36-3.33h9.16a3.36 3.36 0 0 1 3.36 3.33z" style="fill:#fff"/><path d="m93.08 373.26-5.59-5.59h-4.07a3.87 3.87 0 0 1-3.86-3.86v-4.48a3.87 3.87 0 0 1 3.86-3.87h9.16a3.87 3.87 0 0 1 3.86 3.87v4.48a3.85 3.85 0 0 1-3.36 3.82zm-9.66-16.8a2.87 2.87 0 0 0-2.86 2.87v4.48a2.87 2.87 0 0 0 2.86 2.86h4.48l4.18 4.18v-4.18h.5a2.87 2.87 0 0 0 2.86-2.86v-4.48a2.87 2.87 0 0 0-2.86-2.87zM79.94 350.91H69.16a.5.5 0 0 1-.5-.5.5.5 0 0 1 .5-.5h10.78a.5.5 0 0 1 .5.5.5.5 0 0 1-.5.5zM79.94 353.42H69.16a.5.5 0 0 1 0-1h10.78a.5.5 0 0 1 0 1zM76.94 355.94h-7.78a.5.5 0 0 1-.5-.5.5.5 0 0 1 .5-.5h7.78a.5.5 0 0 1 .5.5.5.5 0 0 1-.5.5z" style="fill:#745cff"/></g><g transform="matrix(1.25616 0 0 1.25616 -64.04 -53.086)"><rect x="107.22" y="98.65" width="41.43" height="41.43" rx="11.02" style="fill:#745cff"/><path style="fill:#fff" d="M113.13 121.58h6.01l-.04 7.93h-6.01zM121.11 117.19h6l-.04 12.32h-6zM128.92 112.68h6.01l-.05 16.83h-6zM136.78 105.86h6l-.04 23.61h-6.01z"/></g><g transform="matrix(1.25616 0 0 1.25616 -64.04 -53.086)"><rect x="225.21" y="355.19" width="41.43" height="41.43" rx="11.03" style="fill:#745cff"/><path d="M263.73 385.83c-.25-1.92-2.3-18.32-2.59-20.22-.29-1.9-7.76-2.21-8.8 0a2 2 0 0 1-.14.25 2.29 2.29 0 0 1-1.75 1l-4.31.4h-.44l-4.31-.4a2.29 2.29 0 0 1-1.75-1 2 2 0 0 1-.14-.25c-1-2.21-8.51-1.9-8.8 0-.29 1.9-2.34 18.3-2.59 20.22-.25 1.92 2.66 2.54 3.72 1.16l6.13-8.05a2.4 2.4 0 0 1 1.56-.93l3.79-.6a16.92 16.92 0 0 1 5.22 0l3.79.6a2.4 2.4 0 0 1 1.56.93L260 387c1.07 1.37 4 .74 3.73-1.17z" style="fill:#745cff"/><path d="M263.73 385.83c-.25-1.92-2.3-18.32-2.59-20.22-.29-1.9-7.76-2.21-8.8 0a2 2 0 0 1-.14.25 2.29 2.29 0 0 1-1.75 1l-4.31.4h-.44l-4.31-.4a2.29 2.29 0 0 1-1.75-1 2 2 0 0 1-.14-.25c-1-2.21-8.51-1.9-8.8 0-.29 1.9-2.34 18.3-2.59 20.22-.25 1.92 2.66 2.54 3.72 1.16l6.13-8.05a2.4 2.4 0 0 1 1.56-.93l3.79-.6a16.92 16.92 0 0 1 5.22 0l3.79.6a2.4 2.4 0 0 1 1.56.93L260 387c1.07 1.37 4 .74 3.73-1.17z" style="fill:#fff"/><path transform="rotate(-45 236.107 372.481)" style="fill:#745cff" d="M232.7 371.49h6.82v1.99h-6.82z"/><path transform="rotate(45 236.101 372.486)" style="fill:#745cff" d="M232.7 371.49h6.82v1.99h-6.82z"/><path style="opacity:.4" d="m234.4 375.6 1.71-1.71 1.71 1.71 1.4-1.4-1.71-1.71 1.71-1.71-1.4-1.41-1.71 1.71-1.71-1.71-1.41 1.41 1.71 1.71-1.71 1.71z"/><path transform="rotate(-45 255.731 372.493)" style="fill:#745cff" d="M252.32 371.49h6.82v1.99h-6.82z"/><path transform="rotate(45 255.73 372.487)" style="fill:#745cff" d="M252.32 371.49h6.82v1.99h-6.82z"/><path style="opacity:.4" d="m254.02 375.6 1.71-1.71 1.71 1.71 1.41-1.4-1.71-1.71 1.71-1.71-1.41-1.41-1.71 1.71-1.71-1.71-1.4 1.41 1.71 1.71-1.71 1.71z"/></g><path d="M280 86h21.27a11 11 0 0 1 11 11v21.27a11 11 0 0 1-11 11H280a11 11 0 0 1-11-11V97a11 11 0 0 1 11-11z" style="fill:#745cff" transform="matrix(1.25616 0 0 1.25616 -64.04 -53.086)"/><path d="M277 99.64v5.19h-3.79v7.57H277v5.18h28.3V99.64zm12.75 14.75H282v-11.56h11.56z" style="fill:#fff" transform="matrix(1.25616 0 0 1.25616 -64.04 -53.086)"/><g><path d="M396.49 280.15h19.38a11 11 0 0 1 11 11v19.38a11 11 0 0 1-11 11h-19.38a11 11 0 0 1-11-11v-19.35a11 11 0 0 1 11-11.03z" style="fill:#745cff" transform="matrix(1.25616 0 0 1.25616 -64.04 -53.086)"/><path d="M409.54 309.77a3.17 3.17 0 1 1-3.17-3.17 3.17 3.17 0 0 1 3.17 3.17zM406.43 292.64a14.87 14.87 0 0 1 13 7.81l3.12-2.31a18.62 18.62 0 0 0-32.77.91l3.23 2a14.93 14.93 0 0 1 13.42-8.41z" style="fill:#fff" transform="matrix(1.25616 0 0 1.25616 -64.04 -53.086)"/><path d="M406.53 298.79a9.65 9.65 0 0 1 8.78 5.73l3.13-2.32a13.44 13.44 0 0 0-24.13.56l3.3 2.07a9.64 9.64 0 0 1 8.92-6.04z" style="fill:#fff" transform="matrix(1.25616 0 0 1.25616 -64.04 -53.086)"/><path d="M406.43 304.62a4.58 4.58 0 0 1 4.49 3.87l3.33-2.47a8.47 8.47 0 0 0-15.75.23l3.45 2.17a4.6 4.6 0 0 1 4.48-3.8z" style="fill:#fff" transform="matrix(1.25616 0 0 1.25616 -64.04 -53.086)"/></g></svg>