<svg xmlns="http://www.w3.org/2000/svg" viewBox="0 0 500 500"><path d="M466.86 290.39c-14.73 39.43-44.81 82.11-87.14 94.75-64 19.1-71.6 70.65-186.16 65.87a230.92 230.92 0 0 1-49.56-7.26 194.41 194.41 0 0 1-23.27-7.75C53.8 408.89 18.89 349.23 16 286.81c-3.82-82.11 53.46-121.24 90.69-144.15S188.79 31 301.44 34.77a224.06 224.06 0 0 1 50.92 7.44c37.91 10.26 76.44 32.95 98.84 66.12q2.52 3.75 4.82 7.64c29.98 50.85 30.91 120.66 10.84 174.42z" style="fill:#745cff"/><path d="M466.86 290.39c-14.73 39.43-44.81 82.11-87.14 94.75-64 19.1-71.6 70.65-186.16 65.87a230.92 230.92 0 0 1-49.56-7.26 194.41 194.41 0 0 1-23.27-7.75C53.8 408.89 18.89 349.23 16 286.81c-3.82-82.11 53.46-121.24 90.69-144.15S188.79 31 301.44 34.77a224.06 224.06 0 0 1 50.92 7.44c37.91 10.26 76.44 32.95 98.84 66.12q2.52 3.75 4.82 7.64c29.98 50.85 30.91 120.66 10.84 174.42z" style="fill:#fff;opacity:.7000000000000001"/><path style="fill:none;stroke:#263238;stroke-linecap:round;stroke-linejoin:round" d="M119.54 214.02 109 203M172.99 269.9l-49.94-52.21M259.95 360.81l-84.4-88.23M180.85 181.97 159 131M259.95 366.5l-76.68-178.88M391.54 224.34l7.94-8.3M261 360.81l125.14-130.83M328.69 208.58 361.95 131M261 366.5l64.73-151.01M259.95 366.5V92"/><g><path style="fill:none;stroke:#263238;stroke-linecap:round;stroke-linejoin:round" d="m50.41 260.45-9.83 9.83M50.41 270.28l-9.83-9.83M125.33 408l-9.83 9.83M125.33 417.83 115.5 408M454.66 291.34l-9.82 9.82M454.66 301.16l-9.82-9.82M384.66 435.34l-9.82 9.82M384.66 445.16l-9.82-9.82M322.66 156.67l-9.82 9.83M322.66 166.5l-9.82-9.83M92.27 85.11l-9.82 9.83M92.27 94.94l-9.82-9.83M454.66 84l-9.82 9.83M454.66 93.83 444.84 84M97 220a2.34 2.34 0 1 0-2.33 2.33A2.33 2.33 0 0 0 97 220zM407.33 426.67A2.33 2.33 0 1 0 405 429a2.33 2.33 0 0 0 2.33-2.33zM405 266.33a2.34 2.34 0 1 0-2.33 2.34 2.33 2.33 0 0 0 2.33-2.34zM374 172.67a2.34 2.34 0 1 0-2.33 2.33 2.33 2.33 0 0 0 2.33-2.33zM216.67 90.67a2.34 2.34 0 1 0-2.34 2.33 2.34 2.34 0 0 0 2.34-2.33zM341.34 49.23a2.34 2.34 0 1 0-2.34 2.33 2.34 2.34 0 0 0 2.34-2.33zM42.67 390a2.34 2.34 0 1 0-2.34 2.33 2.33 2.33 0 0 0 2.34-2.33z"/></g><g><path d="M435 169.4a18 18 0 0 1-6-10.64 29.82 29.82 0 0 1-5.47 17.71L430 182a29.87 29.87 0 0 1 16.53-8.51A18 18 0 0 1 435 169.4z" style="fill:#fff;stroke:#263238;stroke-linecap:round;stroke-linejoin:round"/><path d="M472.65 124.37c-9.3-7.79-25.28-4-35.69 8.42s-11.31 28.83-2 36.61 25.28 4 35.69-8.42 11.35-28.82 2-36.61zm-35 41.87c-8-6.69-7.22-20.78 1.73-31.47S462 120.84 470 127.53s7.22 20.79-1.73 31.48-22.68 13.93-30.67 7.23z" style="fill:#fff;stroke:#263238;stroke-linecap:round;stroke-linejoin:round"/><rect x="412.37" y="169.81" width="9.38" height="41.95" rx="3.59" transform="rotate(39.93 417.095 190.816)" style="fill:#745cff;stroke:#263238;stroke-linecap:round;stroke-linejoin:round"/><path d="m455.23 126.05-3-.57c-.59.21-1.18.45-1.77.71l.43.09-.6 3.13-3.13-.6.18-1c-.4.24-.8.5-1.2.77-.39.27-.79.54-1.17.83l1 .19-.6 3.13-3.13-.6.1-.52c-.46.43-.92.87-1.37 1.33h.03l-.6 3.13-1.87-.35c-.24.3-.47.61-.69.92l2.36.45-.6 3.13-3.13-.6.25-1.33q-.87 1.38-1.59 2.79l-.48 2.5-.59-.12c-.13.33-.26.66-.38 1l.78.15-.6 3.13-1.1-.21c-.08.34-.15.67-.21 1l1.11.22-.6 3.13-.93-.18c0 .35 0 .7-.05 1l.79.15-.6 3.13a18 18 0 0 0 .56 2.64l.27-1.43 3.13.6-.6 3.13-2.14-.41c.17.4.34.78.54 1.16l1.41.27-.3 1.54c.27.37.55.73.85 1.07l.46-2.41 3.14.6L439 166l-2.15-.41c.25.24.5.47.77.69s.58.46.88.68l.3.06v.12c.31.21.63.41.95.59l.1-.52 3.13.6-.28 1.19c.33.1.66.19 1 .27l.3-1.27 3.13.6-.22 1.13h1.05l.19-1 3.13.6a22.32 22.32 0 0 0 2.61-.6l-1.39-.27.6-3.13 3.13.6-.41 2.15c.39-.15.77-.31 1.15-.48l.28-1.47 2 .37c.45-.25.91-.52 1.36-.79l-3.12-.6.6-3.13 3.13.6-.6 3.12c.41-.25.81-.51 1.21-.79l.41-2.14 1.92.37 1-.86-2.72-.53.6-3.13 3.14.6-.5 2.58c.44-.42.88-.86 1.31-1.31l.2-1.07.66.12.54-.61c.08-.1.15-.2.23-.29l-1.23-.24.6-3.13 2.73.52.6-.94-3.14-.6.6-3.13 3.14.6-.6 3.13a31.54 31.54 0 0 0 2-3.91h-.21l.6-3.13.74.14c.1-.34.2-.67.28-1l-.82-.16.6-3.13.87.16c0-.34.09-.69.13-1l-.81-.15.6-3.13h.3c0-.36 0-.71-.07-1.07v-.11a19.48 19.48 0 0 0-.51-2.88l-.53 2.79-3.13-.6.6-3.13 3 .57c-.11-.38-.23-.76-.36-1.13l-2.41-.46.6-3.13a12.47 12.47 0 0 0-1-1.24l-3-.57.35-1.84c-.3-.21-.62-.41-.94-.6l-.43 2.24-3.13-.6.57-3c-.33-.11-.66-.21-1-.29l-.59 3.08-3.13-.6.57-3h-1.05l-.54 2.8-3.13-.6.37-1.93-1.09.2zm-8.23 3.77 3.13.61-.6 3.13-3.13-.6zm5.27 17.18.6-3.13 3.13.6-.6 3.13zm2.94 1.62-.6 3.13-3.13-.6.6-3.13zm-4-1.82-3.13-.6.6-3.13 3.13.6zm1.82-4 .6-3.13 3.13.6-.6 3.13zm-1-.2-3.13-.6.6-3.13 3.13.6zm-4.93 3.4-3.1-.6.6-3.13 3.13.6zm-.19 1-.6 3.14-3.13-.61.6-3.13zm1 .2 3.13.6-.6 3.13-3.13-.6zm2.33 4.75-.6 3.13-3.13-.6.6-3.13zm1 .2 3.13.6-.6 3.13-3.13-.6zm2.34 4.75-.6 3.13-3.14-.6.6-3.14zm1.81-4 3.13.6-.6 3.13-3.13-.6zm.19-1 .61-3.13 3.13.6-.6 3.13zm5.55-6.48 3.13.6-.6 3.13-3.13-.6zm-1.62 2.93-3.13-.6.6-3.13 3.13.6zm-2.33-4.75.6-3.13 3.13.6-.6 3.13zm.79-4.15.6-3.13 3.14.6-.61 3.13zm-1-.19-3.13-.6.6-3.13 3.14.6zm-4.14-.8-3.14-.6.6-3.13 3.14.6zm-4.15-.79-3.14-.6.6-3.14 3.14.61zm-.2 1-.6 3.14-3.13-.6.6-3.14zm-5.48 6.54-3.13-.6.6-3.13 3.13.6zm-.19 1-.6 3.13-3.13-.6.6-3.13zm-.8 4.15-.6 3.13-3.13-.6.6-3.13zm1 .19 3.13.6-.6 3.13-3.13-.6zm2.34 4.75-.6 3.13-3.14-.6.61-3.13zm1 .2 3.14.6-.6 3.13-3.14-.6zm2.34 4.75-.6 3.13-3.13-.6.6-3.13zm1 .19 3.13.61-.6 3.13-3.13-.6zm4.94-3.35 3.14.6-.6 3.13-3.14-.6zm4.95-3.35 3.13.6-.6 3.13-3.13-.6zm.19-1 .61-3.13 3.13.6-.6 3.13zm5.55-6.49 3.13.6-.6 3.13-3.13-.6zm.2-1 .6-3.13 3.13.6-.6 3.14zm-1-.19-3.13-.6.6-3.13 3.13.6zm-2.34-4.75.6-3.13 3.14.6-.61 3.13zm.8-4.15.6-3.13 3.13.6-.6 3.13zm-1-.2-3.13-.6.6-3.13 3.13.6zm-4.15-.79-3.13-.6.6-3.13 3.13.6zm-4.15-.8-3.13-.6.6-3.13 3.13.6zM442 133.18l3.13.6-.6 3.13-3.14-.6zm-.8 4.15 3.13.6-.6 3.13-3.13-.6zm-5 3.35 3.14.6-.61 3.13-3.13-.6zm-.79 4.15 3.13.6-.6 3.13-3.13-.6zm-.8 4.15 3.13.6-.6 3.13-3.13-.6zm-1.4 7.28.61-3.13 3.13.6-.6 3.13zm4.76-2.33 3.13.6-.6 3.13-3.14-.6zm-1.4 7.28.6-3.13 3.13.6-.6 3.13zm4.75-2.34 3.13.6-.6 3.13-3.13-.6zm-1.4 7.28.6-3.13 3.14.6-.61 3.13zm4.15.8.6-3.13 3.13.6-.6 3.13zm7.28 1.4-3.13-.61.6-3.13 3.13.6zm4.95-3.36-3.13-.6.6-3.13 3.13.6zm4.95-3.35-3.14-.6.6-3.13 3.14.6zm4.94-3.36-3.13-.6.6-3.13 3.13.6zm.8-4.15-3.14-.6.61-3.13 3.13.6zm4.94-3.35-3.13-.6.6-3.13 3.13.6zm.8-4.15-3.13-.6.6-3.13 3.13.6zm1.39-7.28-.6 3.13-3.13-.6.6-3.13zm-4.75 2.34-3.13-.61.6-3.13 3.13.6zm.8-4.15-3.13-.6.6-3.14 3.13.6zm1.4-7.28-.6 3.13-3.14-.6.6-3.14zm-4.15-.8-.6 3.13-3.14-.6.6-3.13zm-4.15-.8-.6 3.13-3.14-.6.6-3.13zm-4.15-.79-.6 3.13-3.13-.6.6-3.13zm-4.75 2.33-3.13-.6.6-3.13 3.13.6z" style="fill:#263238"/><path d="M452.44 192.85a8.74 8.74 0 1 1-3.13-6.72 8.74 8.74 0 0 1 3.13 6.72z" style="fill:#fff;stroke:#263238;stroke-linecap:round;stroke-linejoin:round"/><path d="M441.19 192.85a8.76 8.76 0 0 1-3.12 6.7 8.74 8.74 0 0 1 0-13.42 8.81 8.81 0 0 1 3.12 6.72zM452.44 192.85a8.74 8.74 0 0 1-3.13 6.7 8.76 8.76 0 0 1 0-13.42 8.78 8.78 0 0 1 3.13 6.72z" style="fill:#fff;stroke:#263238;stroke-linecap:round;stroke-linejoin:round"/></g><g><path style="fill:none;stroke:#263238;stroke-linecap:round;stroke-linejoin:round" d="m380.99 93.56 32.93-19.44"/><path d="M402.24 77.23a14.73 14.73 0 0 0-20.86 0l-1.89 1.88-1.88-1.88a14.75 14.75 0 1 0-20.87 20.86l1.89 1.89 20.86 20.86L400.36 100l1.88-1.89a14.75 14.75 0 0 0 0-20.86z" style="fill:#745cff;stroke:#263238;stroke-linecap:round;stroke-linejoin:round"/><path d="M357.34 88.44a12.19 12.19 0 0 0 .85 5.43M369.4 77.23a12 12 0 0 0-8.55 3.54 12.18 12.18 0 0 0-2.39 3.38M340.75 118.16l32.94-19.43" style="fill:none;stroke:#263238;stroke-linecap:round;stroke-linejoin:round"/><path style="fill:#fff;stroke:#263238;stroke-linecap:round;stroke-linejoin:round" d="m351.45 111.67-5.2-3.93-8.39 4.92 6.65 3.19 6.94-4.18zM351.45 111.67l1.48 5.56-7.07 6.01-1.06-7.3 6.65-4.27z"/><path style="fill:none;stroke:#263238;stroke-linecap:round;stroke-linejoin:round" d="m405.59 73.58 9.55-.58-4.63 8.98"/></g><g><circle cx="249.41" cy="54.21" r="26.98" transform="rotate(-12.74 249.38 54.231)" style="fill:#fff;stroke:#263238;stroke-linecap:round;stroke-linejoin:round"/><circle cx="249.41" cy="54.21" r="20.62" transform="rotate(-8.93 249.267 54.188)" style="fill:#fff;stroke:#263238;stroke-linecap:round;stroke-linejoin:round"/><path d="M247.87 42.42v-1.79H251v1.79c2.64.58 4 2.58 4 5.88v.76h-3.58v-1c0-1.72-.68-2.37-1.89-2.37s-1.89.65-1.89 2.37c0 4.95 7.39 5.19 7.39 12.07 0 3.26-1.41 5.36-4.09 5.91v1.75h-3.09V66c-2.72-.55-4.09-2.65-4.09-5.91v-1.61h3.57v1.89c0 1.72.76 2.34 2 2.34s2-.62 2-2.34c0-4.95-7.39-5.19-7.39-12.07-.06-3.23 1.28-5.3 3.93-5.88z" style="fill:#745cff;stroke:#263238;stroke-linecap:round;stroke-linejoin:round"/><path style="fill:#fff;stroke:#263238;stroke-linecap:round;stroke-linejoin:round" d="M264.01 75.62h43.4v5.57h-43.4z"/><path style="fill:none;stroke:#263238;stroke-linecap:round;stroke-linejoin:round" d="M267.06 76.07v4.46M271.72 76.07v2.64M276.79 78.51v2.43M297.47 75.67v1.82M303.14 80.94v-1.62"/><path style="fill:#fff;stroke:#263238;stroke-linecap:round;stroke-linejoin:round" d="M264.01 69.95h43.4v5.57h-43.4z"/><path style="fill:none;stroke:#263238;stroke-linecap:round;stroke-linejoin:round" d="M267.06 70.4v4.46M271.72 70.4v2.63M276.79 72.83v2.43M297.47 69.99v1.83M303.14 75.26v-1.62"/><path style="fill:#fff;stroke:#263238;stroke-linecap:round;stroke-linejoin:round" d="M264.01 64.27h43.4v5.57h-43.4z"/><path style="fill:none;stroke:#263238;stroke-linecap:round;stroke-linejoin:round" d="M267.06 64.72v4.46M271.72 64.72v2.64M276.79 67.15v2.44M297.47 64.31v1.83M303.14 69.59v-1.63"/><path style="fill:#fff;stroke:#263238;stroke-linecap:round;stroke-linejoin:round" d="M264.01 58.59h43.4v5.57h-43.4z"/><path style="fill:none;stroke:#263238;stroke-linecap:round;stroke-linejoin:round" d="M267.06 59.04v4.46M271.72 59.04v2.64M276.79 61.48v2.43M297.47 58.64v1.82M303.14 63.91v-1.62"/><path style="fill:#fff;stroke:#263238;stroke-linecap:round;stroke-linejoin:round" d="M264.01 52.92h43.4v5.57h-43.4z"/><path style="fill:none;stroke:#263238;stroke-linecap:round;stroke-linejoin:round" d="M267.06 53.37v4.46M271.72 53.37V56M276.79 55.8v2.43M297.47 52.96v1.83M303.14 58.23v-1.62"/><path style="fill:#fff;stroke:#263238;stroke-linecap:round;stroke-linejoin:round" d="M264.01 47.24h43.4v5.57h-43.4z"/><path style="fill:none;stroke:#263238;stroke-linecap:round;stroke-linejoin:round" d="M267.06 47.69v4.46M271.72 47.69v2.64M276.79 50.12v2.44M297.47 47.29v1.82M303.14 52.56v-1.62"/></g><g><path d="M133.73 117.14h-20a5.9 5.9 0 0 1-5.9-5.9V73.43a11.15 11.15 0 0 1 2-6.35l7.68-11.15H130l7.68 11.15a11.15 11.15 0 0 1 2 6.35v37.81a5.9 5.9 0 0 1-5.95 5.9z" style="fill:#fff;stroke:#263238;stroke-linecap:round;stroke-linejoin:round"/><rect x="116.03" y="51.72" width="15.42" height="4.67" rx="1.73" style="fill:#fff;stroke:#263238;stroke-linecap:round;stroke-linejoin:round"/><path style="fill:#745cff;stroke:#263238;stroke-linecap:round;stroke-linejoin:round" d="M118.95 42.52h10.28v8.88h-10.28z"/><path style="fill:none;stroke:#263238;stroke-linecap:round;stroke-linejoin:round" d="M108.67 83.03h13.08M124.56 83.03h6.54M108.67 103.13h13.08M124.56 103.13h6.54M137.64 92.84H125.1M122.42 92.84h-6.27"/><path d="M153.61 82.54s-12.36-6.63-19 3.53c-6.11 9.37.32 30.1 12.81 31.35a11.41 11.41 0 0 0 7.06-1.33s4.42 3.53 11.93 0 10.16-13.09 10.16-21.63c0-11.92-14.57-18.11-22.96-11.92z" style="fill:#745cff;stroke:#263238;stroke-linecap:round;stroke-linejoin:round"/><path d="M137.42 97.06a21.41 21.41 0 0 0 .72 4.44M145.49 84.8a9 9 0 0 0-6.3 4.22 11 11 0 0 0-1.46 3.64" style="fill:none;stroke:#263238;stroke-linecap:round;stroke-linejoin:round"/><path d="M153.17 83.86s1.77-1.77 0-6.18a37.07 37.07 0 0 0-2.65-5.74l3-.59s5.39 8.09-.35 12.51z" style="fill:#263238;stroke:#263238;stroke-linecap:round;stroke-linejoin:round"/><path d="M155.39 75.55s1.87-4.67 5.61-7 12.15.94 12.15.94-6.07 4.2-8.88 6.07-8.88-.01-8.88-.01z" style="fill:#263238;stroke:#263238;stroke-linecap:round;stroke-linejoin:round"/><circle cx="168.47" cy="112.23" r="8.85" style="fill:#fff;stroke:#263238;stroke-linecap:round;stroke-linejoin:round"/><path style="fill:none;stroke:#263238;stroke-linecap:round;stroke-linejoin:round;stroke-width:3px" d="m165.35 108.58 3.12 4.65 12.5-10.9"/></g><g><path d="M43.45 174.05h53v16.59h0-53a5.21 5.21 0 0 1-5.21-5.21v-6.18a5.21 5.21 0 0 1 5.21-5.2z" style="fill:#745cff;stroke:#263238;stroke-linecap:round;stroke-linejoin:round"/><path d="M73.82 187.69a5.35 5.35 0 0 1-5.35-5.34h0a5.36 5.36 0 0 1 5.35-5.35h31.89v-2.95h-34.1a6.82 6.82 0 0 0-6.82 6.82v2.95a6.82 6.82 0 0 0 6.82 6.82h34.1v-2.95z" style="fill:#fff;stroke:#263238;stroke-linecap:round;stroke-linejoin:round"/><path d="M72.55 177H104v10.69h0-31.45a4.08 4.08 0 0 1-4.08-4.08v-2.53a4.08 4.08 0 0 1 4.08-4.08z" style="fill:#fff;stroke:#263238;stroke-linecap:round;stroke-linejoin:round"/><path style="fill:none;stroke:#263238;stroke-linecap:round;stroke-linejoin:round" d="M69.21 180.32h9.59M69.21 183.27h19.17"/><path d="M40.94 157H94v16.59h0-53a5.21 5.21 0 0 1-5.21-5.21v-6.18a5.21 5.21 0 0 1 5.15-5.2z" style="fill:#fff;stroke:#263238;stroke-linecap:round;stroke-linejoin:round"/><path d="M71.31 170.67a5.36 5.36 0 0 1-5.31-5.35h0a5.35 5.35 0 0 1 5.31-5.32h31.89v-3H69.1a6.82 6.82 0 0 0-6.82 6.82v3a6.82 6.82 0 0 0 6.82 6.82h34.1v-3z" style="fill:#fff;stroke:#263238;stroke-linecap:round;stroke-linejoin:round"/><path d="M70 160h31.48v10.69h0H70a4.08 4.08 0 0 1-4-4.1v-2.53a4.08 4.08 0 0 1 4-4.06z" style="fill:#fff;stroke:#263238;stroke-linecap:round;stroke-linejoin:round"/><path style="fill:none;stroke:#263238;stroke-linecap:round;stroke-linejoin:round" d="M66.7 163.29h9.58M66.7 166.24h19.17"/><path d="M44.27 140h53v16.59h0-53a5.21 5.21 0 0 1-5.21-5.21v-6.18a5.21 5.21 0 0 1 5.21-5.2z" style="fill:#745cff;stroke:#263238;stroke-linecap:round;stroke-linejoin:round"/><path d="M74.64 153.64a5.35 5.35 0 0 1-5.35-5.35h0a5.35 5.35 0 0 1 5.35-5.29h31.89v-3h-34.1a6.82 6.82 0 0 0-6.82 6.82v3a6.82 6.82 0 0 0 6.82 6.82h34.1v-3z" style="fill:#fff;stroke:#263238;stroke-linecap:round;stroke-linejoin:round"/><path d="M73.38 142.95h31.48v10.69h0-31.48a4.08 4.08 0 0 1-4.08-4.08V147a4.08 4.08 0 0 1 4.08-4.05z" style="fill:#fff;stroke:#263238;stroke-linecap:round;stroke-linejoin:round"/><path style="fill:none;stroke:#263238;stroke-linecap:round;stroke-linejoin:round" d="M70.03 146.27h9.59M70.03 149.22H89.2"/></g><g><path d="M422.76 342.28c0 .06 3.28-2.55 3.46-2.74 2.16-2.17 5.06-7.64 3.48-10.69a4.06 4.06 0 0 0-5.89-1.36c-2 1.32-2.86 4.19-3 6.47-.21 2.68 1.95 8.31 1.95 8.32zM374.81 304.64c1.33 2.34 6.23 5.85 6.23 5.85s1.33-3.93 1.39-4.19c.6-3 0-9.17-3-10.84a4.06 4.06 0 0 0-5.66 2.12c-.97 2.22-.08 5.07 1.04 7.06z" style="fill:#263238"/><path d="M366 319.85c1.82 1.83 7.06 3.81 7.48 4a71.39 71.39 0 0 0-2.81 9.17c-.44 1.81-.82 3.65-1.18 5.5 0-.87.07-1.64.06-1.75-.21-3.06-2.42-8.84-5.75-9.67a4.07 4.07 0 0 0-4.91 3.54c-.34 2.4 1.27 4.91 2.88 6.54s6.07 3.42 7.25 3.88c-.13.71-.27 1.42-.4 2.13-.62 3.41-1.22 6.82-1.91 10.15-.24 1.17-.52 2.32-.8 3.46 0-.77.06-1.42 0-1.52-.21-3.06-2.42-8.84-5.75-9.66a4.07 4.07 0 0 0-4.91 3.53c-.34 2.4 1.27 4.92 2.88 6.54s5.64 3.25 7 3.8c-.32 1.17-.63 2.33-1 3.45-.26.76-.46 1.5-.77 2.25s-.58 1.48-.86 2.21c-.6 1.38-1.21 2.81-1.83 4.15-.42.93-.84 1.81-1.26 2.7.25-1.16.7-3.45.72-3.65.25-3.05-1-9.1-4.22-10.42a4.07 4.07 0 0 0-5.39 2.75c-.7 2.32.51 5.05 1.86 6.9 1.48 2 6.16 4.7 6.74 5-.7 1.46-1.4 2.89-2.07 4.21-2.34 4.61-4.46 8.36-6 11l1.86 1.4c.05-.08.09-.16.13-.24 1.48-2.66 3.55-6.5 5.81-11.21.72-1.49 1.45-3.09 2.2-4.75a42.76 42.76 0 0 0 5.08 1.05c.26 2.58 2.52 7.06 2.82 7.64-1.4.84-2.76 1.64-4.06 2.37-4.49 2.56-8.33 4.51-11 5.85l2 1.53c2.62-1.38 6.06-3.26 10-5.62 1.42-.85 2.92-1.78 4.45-2.75.44.5 4 4.53 6.32 5.56 2.09.94 5 1.55 7.14.39a4.06 4.06 0 0 0 1.57-5.84c-1.94-2.83-8.13-2.85-11.07-2-.17 0-2 .82-3.12 1.33l1.87-1.2c1.26-.82 2.5-1.68 3.83-2.59l1.91-1.41c.65-.46 1.27-1 1.92-1.54 1.47-1.22 2.89-2.52 4.31-3.87.72 1.1 3.33 5 5.27 6.24s4.71 2.29 7 1.46a4.06 4.06 0 0 0 2.44-5.53c-1.49-3.09-7.61-4.05-10.64-3.63-.19 0-2.34.58-3.51.91.84-.82 1.69-1.63 2.51-2.49 2.38-2.47 4.71-5 7.05-7.6l2.16-2.33c.25.4 3.27 5.09 5.43 6.49 1.92 1.24 4.72 2.29 7 1.46a4.07 4.07 0 0 0 2.45-5.53c-1.5-3.09-7.62-4.05-10.65-3.63-.23 0-3.31.83-4.09 1.07 1.59-1.71 3.19-3.39 4.83-5a72.77 72.77 0 0 1 7-6.06c.12.18 3.24 5.09 5.46 6.52 1.92 1.24 4.72 2.29 7 1.46a4.06 4.06 0 0 0 2.44-5.53c-1.49-3.09-7.61-4.05-10.64-3.62-.2 0-2.55.63-3.66.94l-.09-.18a54 54 0 0 1 8.05-4.72c1.54-.75 3.06-1.38 4.54-2 .49 1 2.77 5.4 4.62 6.91s4.44 2.8 6.79 2.22a4.07 4.07 0 0 0 3-5.23c-1.15-3.23-7.12-4.86-10.19-4.77-.16 0-1.85.24-3.08.43.68-.25 1.37-.52 2-.75 2.45-.87 4.74-1.52 6.78-2.07 1.16-.3 2.21-.56 3.2-.79 1 .71 4.95 3.51 7.25 4s5.22.43 7-1.16a4.07 4.07 0 0 0 .28-6c-2.51-2.34-8.56-1-11.23.45-.24.13-3.62 2.56-3.57 2.6h.06c-1 .2-2 .43-3.1.69-2 .52-4.36 1.11-6.84 1.93a71.5 71.5 0 0 0-7.86 3 53.14 53.14 0 0 0-8.22 4.58l-.09.07c.62-.79 2.27-3.07 2.38-3.26 1.51-2.66 2.85-8.71.53-11.23a4.06 4.06 0 0 0-6 .24c-1.61 1.82-1.66 4.8-1.21 7 .51 2.54 3.78 7.08 4.05 7.44a72.16 72.16 0 0 0-7.41 6.1c-1.36 1.27-2.69 2.59-4 3.94.52-.7 1-1.34 1-1.43 1.51-2.67 2.86-8.71.53-11.24a4.06 4.06 0 0 0-6 .25c-1.6 1.81-1.65 4.79-1.2 7s3.17 6.2 3.9 7.23l-1.51 1.56c-2.39 2.51-4.77 5-7.18 7.41-.85.85-1.72 1.65-2.59 2.45.46-.62.83-1.15.88-1.24 1.51-2.67 2.86-8.71.54-11.23a4.06 4.06 0 0 0-6 .24c-1.61 1.81-1.66 4.8-1.21 7s2.91 5.82 3.77 7.05c-.91.79-1.82 1.59-2.74 2.32-.64.49-1.22 1-1.88 1.45l-1.82 1.53c-1.26.82-2.56 1.68-3.81 2.45-.87.55-1.71 1-2.55 1.56.86-.83 2.5-2.49 2.62-2.65a15.7 15.7 0 0 0 2.91-7.4 6.11 6.11 0 0 0 .5-.75 4.07 4.07 0 0 0-1.91-5.74c-3.18-1.29-8.36 2.11-10.32 4.46-.12.14-1.2 1.79-1.87 2.84.3-.68.59-1.33.89-2 .61-1.39 1.17-2.78 1.77-4.28.27-.74.54-1.48.82-2.23s.49-1.56.75-2.34c.55-1.83 1-3.71 1.45-5.61 1.21.52 5.54 2.33 7.84 2.3s5.2-.69 6.64-2.64a4.06 4.06 0 0 0-1-6c-2.95-1.75-8.58.82-10.88 2.85-.14.13-1.63 1.77-2.43 2.68.25-1.14.51-2.29.73-3.45.62-3.38 1.15-6.81 1.69-10.23.16-1.05.34-2.09.51-3.14.43.2 5.53 2.45 8.1 2.42 2.29 0 5.2-.69 6.64-2.64a4.06 4.06 0 0 0-1-6c-2.95-1.75-8.58.82-10.88 2.85-.17.15-2.3 2.52-2.82 3.14.38-2.3.79-4.58 1.27-6.82a70.5 70.5 0 0 1 2.52-8.93c.2.08 5.51 2.46 8.15 2.43 2.29 0 5.2-.69 6.64-2.64a4.06 4.06 0 0 0-1-6c-3-1.75-8.58.82-10.88 2.85-.15.13-1.78 1.93-2.53 2.81l-.17-.1a52.22 52.22 0 0 1 4.11-8.38c.87-1.48 1.78-2.84 2.7-4.15.95.54 5.29 3 7.66 3.21s5.25-.11 6.89-1.89a4.05 4.05 0 0 0-.35-6c-2.74-2.07-8.62-.13-11.13 1.63-.13.1-1.41 1.23-2.33 2.06.43-.58.85-1.19 1.27-1.74 1.56-2.08 3.12-3.88 4.51-5.46.8-.9 1.54-1.69 2.24-2.43 1.21.05 6.06.19 8.24-.67s4.6-2.52 5.24-4.86a4.05 4.05 0 0 0-3.09-5.19c-3.39-.57-7.71 3.85-9.12 6.58-.13.23-1.61 4.13-1.55 4.13h.08c-.69.7-1.42 1.45-2.2 2.29-1.43 1.55-3 3.33-4.65 5.37A75.15 75.15 0 0 0 378 315a53.83 53.83 0 0 0-4.33 8.36v.11c.07-1 .2-3.82.18-4-.21-3.06-2.42-8.84-5.75-9.67a4.06 4.06 0 0 0-4.9 3.54c-.42 2.37 1.19 4.88 2.8 6.51z" style="fill:#263238"/><path d="M374.81 304.64c1.33 2.34 6.23 5.85 6.23 5.85s1.33-3.93 1.39-4.19c.6-3 0-9.17-3-10.84a4.06 4.06 0 0 0-5.66 2.12c-.97 2.22-.08 5.07 1.04 7.06zM422.76 342.28c0 .06 3.28-2.55 3.46-2.74 2.16-2.17 5.06-7.64 3.48-10.69a4.06 4.06 0 0 0-5.89-1.36c-2 1.32-2.86 4.19-3 6.47-.21 2.68 1.95 8.31 1.95 8.32z" style="fill:#263238;opacity:.30000000000000004"/><path d="M366 319.85c1.82 1.83 7.06 3.81 7.48 4a71.39 71.39 0 0 0-2.81 9.17c-.44 1.81-.82 3.65-1.18 5.5 0-.87.07-1.64.06-1.75-.21-3.06-2.42-8.84-5.75-9.67a4.07 4.07 0 0 0-4.91 3.54c-.34 2.4 1.27 4.91 2.88 6.54s6.07 3.42 7.25 3.88c-.13.71-.27 1.42-.4 2.13-.62 3.41-1.22 6.82-1.91 10.15-.24 1.17-.52 2.32-.8 3.46 0-.77.06-1.42 0-1.52-.21-3.06-2.42-8.84-5.75-9.66a4.07 4.07 0 0 0-4.91 3.53c-.34 2.4 1.27 4.92 2.88 6.54s5.64 3.25 7 3.8c-.32 1.17-.63 2.33-1 3.45-.26.76-.46 1.5-.77 2.25s-.58 1.48-.86 2.21c-.6 1.38-1.21 2.81-1.83 4.15-.42.93-.84 1.81-1.26 2.7.25-1.16.7-3.45.72-3.65.25-3.05-1-9.1-4.22-10.42a4.07 4.07 0 0 0-5.39 2.75c-.7 2.32.51 5.05 1.86 6.9 1.48 2 6.16 4.7 6.74 5-.7 1.46-1.4 2.89-2.07 4.21-2.34 4.61-4.46 8.36-6 11l1.86 1.4c.05-.08.09-.16.13-.24 1.48-2.66 3.55-6.5 5.81-11.21.72-1.49 1.45-3.09 2.2-4.75a42.76 42.76 0 0 0 5.08 1.05c.26 2.58 2.52 7.06 2.82 7.64-1.4.84-2.76 1.64-4.06 2.37-4.49 2.56-8.33 4.51-11 5.85l2 1.53c2.62-1.38 6.06-3.26 10-5.62 1.42-.85 2.92-1.78 4.45-2.75.44.5 4 4.53 6.32 5.56 2.09.94 5 1.55 7.14.39a4.06 4.06 0 0 0 1.57-5.84c-1.94-2.83-8.13-2.85-11.07-2-.17 0-2 .82-3.12 1.33l1.87-1.2c1.26-.82 2.5-1.68 3.83-2.59l1.91-1.41c.65-.46 1.27-1 1.92-1.54 1.47-1.22 2.89-2.52 4.31-3.87.72 1.1 3.33 5 5.27 6.24s4.71 2.29 7 1.46a4.06 4.06 0 0 0 2.44-5.53c-1.49-3.09-7.61-4.05-10.64-3.63-.19 0-2.34.58-3.51.91.84-.82 1.69-1.63 2.51-2.49 2.38-2.47 4.71-5 7.05-7.6l2.16-2.33c.25.4 3.27 5.09 5.43 6.49 1.92 1.24 4.72 2.29 7 1.46a4.07 4.07 0 0 0 2.45-5.53c-1.5-3.09-7.62-4.05-10.65-3.63-.23 0-3.31.83-4.09 1.07 1.59-1.71 3.19-3.39 4.83-5a72.77 72.77 0 0 1 7-6.06c.12.18 3.24 5.09 5.46 6.52 1.92 1.24 4.72 2.29 7 1.46a4.06 4.06 0 0 0 2.44-5.53c-1.49-3.09-7.61-4.05-10.64-3.62-.2 0-2.55.63-3.66.94l-.09-.18a54 54 0 0 1 8.05-4.72c1.54-.75 3.06-1.38 4.54-2 .49 1 2.77 5.4 4.62 6.91s4.44 2.8 6.79 2.22a4.07 4.07 0 0 0 3-5.23c-1.15-3.23-7.12-4.86-10.19-4.77-.16 0-1.85.24-3.08.43.68-.25 1.37-.52 2-.75 2.45-.87 4.74-1.52 6.78-2.07 1.16-.3 2.21-.56 3.2-.79 1 .71 4.95 3.51 7.25 4s5.22.43 7-1.16a4.07 4.07 0 0 0 .28-6c-2.51-2.34-8.56-1-11.23.45-.24.13-3.62 2.56-3.57 2.6h.06c-1 .2-2 .43-3.1.69-2 .52-4.36 1.11-6.84 1.93a71.5 71.5 0 0 0-7.86 3 53.14 53.14 0 0 0-8.22 4.58l-.09.07c.62-.79 2.27-3.07 2.38-3.26 1.51-2.66 2.85-8.71.53-11.23a4.06 4.06 0 0 0-6 .24c-1.61 1.82-1.66 4.8-1.21 7 .51 2.54 3.78 7.08 4.05 7.44a72.16 72.16 0 0 0-7.41 6.1c-1.36 1.27-2.69 2.59-4 3.94.52-.7 1-1.34 1-1.43 1.51-2.67 2.86-8.71.53-11.24a4.06 4.06 0 0 0-6 .25c-1.6 1.81-1.65 4.79-1.2 7s3.17 6.2 3.9 7.23l-1.51 1.56c-2.39 2.51-4.77 5-7.18 7.41-.85.85-1.72 1.65-2.59 2.45.46-.62.83-1.15.88-1.24 1.51-2.67 2.86-8.71.54-11.23a4.06 4.06 0 0 0-6 .24c-1.61 1.81-1.66 4.8-1.21 7s2.91 5.82 3.77 7.05c-.91.79-1.82 1.59-2.74 2.32-.64.49-1.22 1-1.88 1.45l-1.82 1.53c-1.26.82-2.56 1.68-3.81 2.45-.87.55-1.71 1-2.55 1.56.86-.83 2.5-2.49 2.62-2.65a15.7 15.7 0 0 0 2.91-7.4 6.11 6.11 0 0 0 .5-.75 4.07 4.07 0 0 0-1.91-5.74c-3.18-1.29-8.36 2.11-10.32 4.46-.12.14-1.2 1.79-1.87 2.84.3-.68.59-1.33.89-2 .61-1.39 1.17-2.78 1.77-4.28.27-.74.54-1.48.82-2.23s.49-1.56.75-2.34c.55-1.83 1-3.71 1.45-5.61 1.21.52 5.54 2.33 7.84 2.3s5.2-.69 6.64-2.64a4.06 4.06 0 0 0-1-6c-2.95-1.75-8.58.82-10.88 2.85-.14.13-1.63 1.77-2.43 2.68.25-1.14.51-2.29.73-3.45.62-3.38 1.15-6.81 1.69-10.23.16-1.05.34-2.09.51-3.14.43.2 5.53 2.45 8.1 2.42 2.29 0 5.2-.69 6.64-2.64a4.06 4.06 0 0 0-1-6c-2.95-1.75-8.58.82-10.88 2.85-.17.15-2.3 2.52-2.82 3.14.38-2.3.79-4.58 1.27-6.82a70.5 70.5 0 0 1 2.52-8.93c.2.08 5.51 2.46 8.15 2.43 2.29 0 5.2-.69 6.64-2.64a4.06 4.06 0 0 0-1-6c-3-1.75-8.58.82-10.88 2.85-.15.13-1.78 1.93-2.53 2.81l-.17-.1a52.22 52.22 0 0 1 4.11-8.38c.87-1.48 1.78-2.84 2.7-4.15.95.54 5.29 3 7.66 3.21s5.25-.11 6.89-1.89a4.05 4.05 0 0 0-.35-6c-2.74-2.07-8.62-.13-11.13 1.63-.13.1-1.41 1.23-2.33 2.06.43-.58.85-1.19 1.27-1.74 1.56-2.08 3.12-3.88 4.51-5.46.8-.9 1.54-1.69 2.24-2.43 1.21.05 6.06.19 8.24-.67s4.6-2.52 5.24-4.86a4.05 4.05 0 0 0-3.09-5.19c-3.39-.57-7.71 3.85-9.12 6.58-.13.23-1.61 4.13-1.55 4.13h.08c-.69.7-1.42 1.45-2.2 2.29-1.43 1.55-3 3.33-4.65 5.37A75.15 75.15 0 0 0 378 315a53.83 53.83 0 0 0-4.33 8.36v.11c.07-1 .2-3.82.18-4-.21-3.06-2.42-8.84-5.75-9.67a4.06 4.06 0 0 0-4.9 3.54c-.42 2.37 1.19 4.88 2.8 6.51z" style="fill:#263238;opacity:.30000000000000004"/><path d="M93.49 342.28c0 .06-3.28-2.55-3.47-2.74-2.16-2.17-5.06-7.64-3.48-10.69a4.06 4.06 0 0 1 5.89-1.36c2 1.32 2.86 4.19 3 6.47.21 2.68-1.94 8.31-1.94 8.32zM141.43 304.64c-1.32 2.34-6.23 5.85-6.23 5.85s-1.33-3.93-1.38-4.19c-.6-3 0-9.17 3-10.84a4.07 4.07 0 0 1 5.67 2.12c.95 2.22.07 5.07-1.06 7.06z" style="fill:#263238"/><path d="M150.24 319.85c-1.82 1.83-7.06 3.81-7.47 4a73 73 0 0 1 2.8 9.17c.44 1.81.82 3.65 1.18 5.5 0-.87-.06-1.64-.06-1.75.22-3.06 2.43-8.84 5.76-9.67a4.06 4.06 0 0 1 4.9 3.54c.34 2.4-1.26 4.91-2.88 6.54s-6.06 3.42-7.24 3.88c.13.71.27 1.42.39 2.13.62 3.41 1.22 6.82 1.91 10.15.24 1.17.52 2.32.8 3.46 0-.77-.05-1.42-.05-1.52.22-3.06 2.42-8.84 5.76-9.66a4.06 4.06 0 0 1 4.9 3.53c.34 2.4-1.26 4.92-2.88 6.54s-5.63 3.25-7 3.8c.32 1.17.64 2.33 1 3.45.26.76.47 1.5.78 2.25s.57 1.48.86 2.21c.6 1.38 1.2 2.81 1.82 4.15.43.93.85 1.81 1.27 2.7-.26-1.16-.71-3.45-.73-3.65-.25-3.05 1.06-9.1 4.23-10.42a4.06 4.06 0 0 1 5.38 2.75c.7 2.32-.51 5.05-1.85 6.9-1.49 2-6.16 4.7-6.75 5 .7 1.46 1.4 2.89 2.08 4.21 2.33 4.61 4.45 8.36 6 11l-1.86 1.4c0-.08-.08-.16-.13-.24-1.48-2.66-3.54-6.5-5.81-11.21-.71-1.49-1.45-3.09-2.19-4.75a43.24 43.24 0 0 1-5.08 1.05c-.27 2.58-2.53 7.06-2.83 7.64 1.4.84 2.76 1.64 4.06 2.37 4.49 2.56 8.33 4.51 11 5.85l-2 1.53c-2.62-1.38-6.06-3.26-10-5.62-1.42-.85-2.92-1.78-4.45-2.75-.44.5-4 4.53-6.32 5.56-2.09.94-5 1.55-7.14.39a4.07 4.07 0 0 1-1.57-5.84c1.94-2.83 8.13-2.85 11.07-2 .17 0 2 .82 3.13 1.33-.63-.4-1.24-.78-1.87-1.2-1.27-.82-2.51-1.68-3.84-2.59l-1.91-1.41c-.64-.46-1.27-1-1.91-1.54-1.47-1.22-2.9-2.52-4.31-3.87-.72 1.1-3.34 5-5.27 6.24s-4.72 2.29-7 1.46a4.06 4.06 0 0 1-2.44-5.53c1.5-3.09 7.61-4.05 10.65-3.63.19 0 2.33.58 3.5.91-.84-.82-1.68-1.63-2.51-2.49-2.38-2.47-4.71-5-7-7.6l-2.16-2.33c-.25.4-3.26 5.09-5.43 6.49-1.92 1.24-4.71 2.29-7 1.46a4.06 4.06 0 0 1-2.44-5.53c1.49-3.09 7.61-4.05 10.64-3.63.23 0 3.31.83 4.09 1.07-1.59-1.71-3.19-3.39-4.83-5a71.59 71.59 0 0 0-7-6.06c-.12.18-3.24 5.09-5.45 6.52-1.93 1.24-4.72 2.29-7 1.46a4.06 4.06 0 0 1-2.54-5.53c1.49-3.09 7.61-4.05 10.64-3.62.2 0 2.55.63 3.66.94l.09-.18a53.06 53.06 0 0 0-8-4.72c-1.54-.75-3-1.38-4.54-2-.49 1-2.77 5.4-4.62 6.91s-4.43 2.8-6.79 2.22a4.06 4.06 0 0 1-3-5.23c1.14-3.23 7.12-4.86 10.18-4.77.17 0 1.85.24 3.08.43-.67-.25-1.37-.52-2-.75-2.45-.87-4.74-1.52-6.77-2.07-1.16-.3-2.22-.56-3.21-.79-1 .71-5 3.51-7.25 4s-5.22.43-7-1.16a4.07 4.07 0 0 1-.28-6c2.51-2.34 8.56-1 11.24.45.23.13 3.62 2.56 3.57 2.6h-.06q1.43.3 3.09.69c2 .52 4.37 1.11 6.84 1.93a70.74 70.74 0 0 1 7.86 3 52.69 52.69 0 0 1 8.22 4.58l.09.07c-.61-.79-2.27-3.07-2.37-3.26-1.51-2.66-2.86-8.71-.54-11.23a4.06 4.06 0 0 1 6 .24c1.61 1.82 1.66 4.8 1.21 7-.51 2.54-3.78 7.08-4 7.44a72.06 72.06 0 0 1 7.4 6.1c1.36 1.27 2.7 2.59 4 3.94-.51-.7-1-1.34-1-1.43-1.51-2.67-2.86-8.71-.53-11.24a4.06 4.06 0 0 1 6 .25c1.61 1.81 1.66 4.79 1.21 7s-3.18 6.2-3.91 7.23l1.51 1.56c2.4 2.51 4.78 5 7.19 7.41.85.85 1.71 1.65 2.58 2.45-.45-.62-.83-1.15-.88-1.24-1.51-2.67-2.86-8.71-.53-11.23a4.06 4.06 0 0 1 6 .24c1.6 1.81 1.65 4.8 1.2 7s-2.91 5.82-3.77 7.05c.91.79 1.82 1.59 2.74 2.32.64.49 1.22 1 1.89 1.45l1.93 1.37c1.27.82 2.56 1.68 3.82 2.45.86.55 1.7 1 2.54 1.56-.85-.83-2.49-2.49-2.61-2.65a15.81 15.81 0 0 1-2.92-7.4 5.08 5.08 0 0 1-.49-.75 4.06 4.06 0 0 1 1.9-5.74c3.18-1.29 8.36 2.11 10.32 4.46.12.14 1.21 1.79 1.88 2.84-.3-.68-.6-1.33-.9-2-.6-1.39-1.16-2.78-1.77-4.28l-.81-2.23c-.29-.74-.5-1.56-.76-2.34-.55-1.83-1-3.71-1.45-5.61-1.21.52-5.54 2.33-7.84 2.3s-5.2-.69-6.64-2.64a4.07 4.07 0 0 1 1-6c3-1.75 8.59.82 10.88 2.85.15.13 1.63 1.77 2.43 2.68-.25-1.14-.51-2.29-.72-3.45-.63-3.38-1.15-6.81-1.69-10.23-.17-1.05-.35-2.09-.52-3.14-.43.2-5.53 2.45-8.1 2.42-2.29 0-5.2-.69-6.64-2.64a4.07 4.07 0 0 1 1-6c2.95-1.75 8.58.82 10.88 2.85.17.15 2.31 2.52 2.82 3.14-.38-2.3-.78-4.58-1.27-6.82a70.5 70.5 0 0 0-2.52-8.93c-.2.08-5.51 2.46-8.14 2.43-2.29 0-5.2-.69-6.64-2.64a4.06 4.06 0 0 1 1-6c2.95-1.75 8.58.82 10.88 2.85.15.13 1.78 1.93 2.53 2.81l.17-.1a52.22 52.22 0 0 0-4.11-8.38c-.87-1.48-1.78-2.84-2.7-4.15-.94.54-5.28 3-7.66 3.21s-5.24-.11-6.89-1.89a4.06 4.06 0 0 1 .35-6c2.74-2.07 8.62-.13 11.13 1.63.14.1 1.41 1.23 2.33 2.06-.42-.58-.85-1.19-1.27-1.74-1.56-2.08-3.12-3.88-4.51-5.46-.8-.9-1.54-1.69-2.24-2.43-1.2.05-6.06.19-8.24-.67s-4.6-2.52-5.24-4.86a4.06 4.06 0 0 1 3.09-5.19c3.39-.57 7.71 3.85 9.13 6.58.12.23 1.6 4.13 1.54 4.13h-.07c.68.7 1.42 1.45 2.2 2.29 1.43 1.55 3 3.33 4.64 5.37a71.47 71.47 0 0 1 4.89 6.86 53 53 0 0 1 4.33 8.36.76.76 0 0 0 0 .11c-.08-1-.2-3.82-.19-4 .21-3.06 2.42-8.84 5.75-9.67a4.08 4.08 0 0 1 4.91 3.54c.3 2.59-1.31 5.1-2.92 6.73z" style="fill:#263238"/><path d="M141.43 304.64c-1.32 2.34-6.23 5.85-6.23 5.85s-1.33-3.93-1.38-4.19c-.6-3 0-9.17 3-10.84a4.07 4.07 0 0 1 5.67 2.12c.95 2.22.07 5.07-1.06 7.06zM93.49 342.28c0 .06-3.28-2.55-3.47-2.74-2.16-2.17-5.06-7.64-3.48-10.69a4.06 4.06 0 0 1 5.89-1.36c2 1.32 2.86 4.19 3 6.47.21 2.68-1.94 8.31-1.94 8.32z" style="fill:#263238;opacity:.30000000000000004"/><path d="M150.24 319.85c-1.82 1.83-7.06 3.81-7.47 4a73 73 0 0 1 2.8 9.17c.44 1.81.82 3.65 1.18 5.5 0-.87-.06-1.64-.06-1.75.22-3.06 2.43-8.84 5.76-9.67a4.06 4.06 0 0 1 4.9 3.54c.34 2.4-1.26 4.91-2.88 6.54s-6.06 3.42-7.24 3.88c.13.71.27 1.42.39 2.13.62 3.41 1.22 6.82 1.91 10.15.24 1.17.52 2.32.8 3.46 0-.77-.05-1.42-.05-1.52.22-3.06 2.42-8.84 5.76-9.66a4.06 4.06 0 0 1 4.9 3.53c.34 2.4-1.26 4.92-2.88 6.54s-5.63 3.25-7 3.8c.32 1.17.64 2.33 1 3.45.26.76.47 1.5.78 2.25s.57 1.48.86 2.21c.6 1.38 1.2 2.81 1.82 4.15.43.93.85 1.81 1.27 2.7-.26-1.16-.71-3.45-.73-3.65-.25-3.05 1.06-9.1 4.23-10.42a4.06 4.06 0 0 1 5.38 2.75c.7 2.32-.51 5.05-1.85 6.9-1.49 2-6.16 4.7-6.75 5 .7 1.46 1.4 2.89 2.08 4.21 2.33 4.61 4.45 8.36 6 11l-1.86 1.4c0-.08-.08-.16-.13-.24-1.48-2.66-3.54-6.5-5.81-11.21-.71-1.49-1.45-3.09-2.19-4.75a43.24 43.24 0 0 1-5.08 1.05c-.27 2.58-2.53 7.06-2.83 7.64 1.4.84 2.76 1.64 4.06 2.37 4.49 2.56 8.33 4.51 11 5.85l-2 1.53c-2.62-1.38-6.06-3.26-10-5.62-1.42-.85-2.92-1.78-4.45-2.75-.44.5-4 4.53-6.32 5.56-2.09.94-5 1.55-7.14.39a4.07 4.07 0 0 1-1.57-5.84c1.94-2.83 8.13-2.85 11.07-2 .17 0 2 .82 3.13 1.33-.63-.4-1.24-.78-1.87-1.2-1.27-.82-2.51-1.68-3.84-2.59l-1.91-1.41c-.64-.46-1.27-1-1.91-1.54-1.47-1.22-2.9-2.52-4.31-3.87-.72 1.1-3.34 5-5.27 6.24s-4.72 2.29-7 1.46a4.06 4.06 0 0 1-2.44-5.53c1.5-3.09 7.61-4.05 10.65-3.63.19 0 2.33.58 3.5.91-.84-.82-1.68-1.63-2.51-2.49-2.38-2.47-4.71-5-7-7.6l-2.16-2.33c-.25.4-3.26 5.09-5.43 6.49-1.92 1.24-4.71 2.29-7 1.46a4.06 4.06 0 0 1-2.44-5.53c1.49-3.09 7.61-4.05 10.64-3.63.23 0 3.31.83 4.09 1.07-1.59-1.71-3.19-3.39-4.83-5a71.59 71.59 0 0 0-7-6.06c-.12.18-3.24 5.09-5.45 6.52-1.93 1.24-4.72 2.29-7 1.46a4.06 4.06 0 0 1-2.54-5.53c1.49-3.09 7.61-4.05 10.64-3.62.2 0 2.55.63 3.66.94l.09-.18a53.06 53.06 0 0 0-8-4.72c-1.54-.75-3-1.38-4.54-2-.49 1-2.77 5.4-4.62 6.91s-4.43 2.8-6.79 2.22a4.06 4.06 0 0 1-3-5.23c1.14-3.23 7.12-4.86 10.18-4.77.17 0 1.85.24 3.08.43-.67-.25-1.37-.52-2-.75-2.45-.87-4.74-1.52-6.77-2.07-1.16-.3-2.22-.56-3.21-.79-1 .71-5 3.51-7.25 4s-5.22.43-7-1.16a4.07 4.07 0 0 1-.28-6c2.51-2.34 8.56-1 11.24.45.23.13 3.62 2.56 3.57 2.6h-.06q1.43.3 3.09.69c2 .52 4.37 1.11 6.84 1.93a70.74 70.74 0 0 1 7.86 3 52.69 52.69 0 0 1 8.22 4.58l.09.07c-.61-.79-2.27-3.07-2.37-3.26-1.51-2.66-2.86-8.71-.54-11.23a4.06 4.06 0 0 1 6 .24c1.61 1.82 1.66 4.8 1.21 7-.51 2.54-3.78 7.08-4 7.44a72.06 72.06 0 0 1 7.4 6.1c1.36 1.27 2.7 2.59 4 3.94-.51-.7-1-1.34-1-1.43-1.51-2.67-2.86-8.71-.53-11.24a4.06 4.06 0 0 1 6 .25c1.61 1.81 1.66 4.79 1.21 7s-3.18 6.2-3.91 7.23l1.51 1.56c2.4 2.51 4.78 5 7.19 7.41.85.85 1.71 1.65 2.58 2.45-.45-.62-.83-1.15-.88-1.24-1.51-2.67-2.86-8.71-.53-11.23a4.06 4.06 0 0 1 6 .24c1.6 1.81 1.65 4.8 1.2 7s-2.91 5.82-3.77 7.05c.91.79 1.82 1.59 2.74 2.32.64.49 1.22 1 1.89 1.45l1.93 1.37c1.27.82 2.56 1.68 3.82 2.45.86.55 1.7 1 2.54 1.56-.85-.83-2.49-2.49-2.61-2.65a15.81 15.81 0 0 1-2.92-7.4 5.08 5.08 0 0 1-.49-.75 4.06 4.06 0 0 1 1.9-5.74c3.18-1.29 8.36 2.11 10.32 4.46.12.14 1.21 1.79 1.88 2.84-.3-.68-.6-1.33-.9-2-.6-1.39-1.16-2.78-1.77-4.28l-.81-2.23c-.29-.74-.5-1.56-.76-2.34-.55-1.83-1-3.71-1.45-5.61-1.21.52-5.54 2.33-7.84 2.3s-5.2-.69-6.64-2.64a4.07 4.07 0 0 1 1-6c3-1.75 8.59.82 10.88 2.85.15.13 1.63 1.77 2.43 2.68-.25-1.14-.51-2.29-.72-3.45-.63-3.38-1.15-6.81-1.69-10.23-.17-1.05-.35-2.09-.52-3.14-.43.2-5.53 2.45-8.1 2.42-2.29 0-5.2-.69-6.64-2.64a4.07 4.07 0 0 1 1-6c2.95-1.75 8.58.82 10.88 2.85.17.15 2.31 2.52 2.82 3.14-.38-2.3-.78-4.58-1.27-6.82a70.5 70.5 0 0 0-2.52-8.93c-.2.08-5.51 2.46-8.14 2.43-2.29 0-5.2-.69-6.64-2.64a4.06 4.06 0 0 1 1-6c2.95-1.75 8.58.82 10.88 2.85.15.13 1.78 1.93 2.53 2.81l.17-.1a52.22 52.22 0 0 0-4.11-8.38c-.87-1.48-1.78-2.84-2.7-4.15-.94.54-5.28 3-7.66 3.21s-5.24-.11-6.89-1.89a4.06 4.06 0 0 1 .35-6c2.74-2.07 8.62-.13 11.13 1.63.14.1 1.41 1.23 2.33 2.06-.42-.58-.85-1.19-1.27-1.74-1.56-2.08-3.12-3.88-4.51-5.46-.8-.9-1.54-1.69-2.24-2.43-1.2.05-6.06.19-8.24-.67s-4.6-2.52-5.24-4.86a4.06 4.06 0 0 1 3.09-5.19c3.39-.57 7.71 3.85 9.13 6.58.12.23 1.6 4.13 1.54 4.13h-.07c.68.7 1.42 1.45 2.2 2.29 1.43 1.55 3 3.33 4.64 5.37a71.47 71.47 0 0 1 4.89 6.86 53 53 0 0 1 4.33 8.36.76.76 0 0 0 0 .11c-.08-1-.2-3.82-.19-4 .21-3.06 2.42-8.84 5.75-9.67a4.08 4.08 0 0 1 4.91 3.54c.3 2.59-1.31 5.1-2.92 6.73z" style="fill:#263238;opacity:.30000000000000004"/></g><g><circle cx="259.95" cy="366.5" r="117.78" style="fill:#263238;stroke:#263238;stroke-linecap:round;stroke-linejoin:round"/><circle cx="259.95" cy="366.5" r="104.19" style="fill:#fff"/><path d="M355.91 325.84c-73.84 85.81-156.85 99.55-180.37 101.74a104.21 104.21 0 0 0 180.37-101.74z" style="opacity:.2"/><path style="fill:none;stroke:#263238;stroke-linecap:round;stroke-linejoin:round;stroke-width:5px" d="M261.8 366.3h41.49M259.95 366.5v78.91"/><circle cx="259.95" cy="366.5" r="5.69" style="fill:#fff;stroke:#263238;stroke-linecap:round;stroke-linejoin:round"/></g><g><path d="M288.62 251.88s-.89 10.18-7.08 15.05-8.86 6.2-8.86 6.2a148.26 148.26 0 0 1 2.22 23.46c0 11.5-3.3 19.73-3.1 22.57s.88 14.6.44 18.14-1.33 12.84-5.31 15.94-9.74-4-9.74-4 .89 23.9.89 30.1-5.31 12.39-8 8-2.21-13.72-2.21-18.15-.44-47.8-1.33-60.19-2.21-49.13-2.21-49.13l.88-10.18s18.59-8.41 43.38 2.21" style="opacity:.2"/><path d="M246.76 350a40.14 40.14 0 0 1-2.18 11c-2.18 6.85-3.12 19.63.93 21.5s9.66-3.74 9.66-7.79v-9c0-2.8 1.25-7.16.94-10.28s-5.92-6.94-9.35-5.43z" style="fill:#745cff;stroke:#263238;stroke-linecap:round;stroke-linejoin:round"/><path d="M284.78 208.27s1.24 14 2.8 17.45 14.64 26.17 14.64 26.17-.62 5 .32 5.92 5.61 5.92 5.61 5.92.93 1.25 1.86.62a4.41 4.41 0 0 0 1.25-2.49 10.69 10.69 0 0 0 4.36.31c2.5-.31 2.18-6.85 1.25-7.79S306 247.84 306 247.84s-5.6-27.42-7.16-30.22a26 26 0 0 1-2.18-7.48v-3.43z" style="fill:#fff;stroke:#263238;stroke-linecap:round;stroke-linejoin:round"/><path style="fill:none;stroke:#263238;stroke-linecap:round;stroke-linejoin:round" d="m311.26 261.86-3.11-5.3"/><path d="M233.67 222S219 237.56 219 244.1s2.49 11.84 9 23.37a173.15 173.15 0 0 1 10.6 22.44s-3.43 13.71-4 23.37 12.77 42.06 12.77 42.06 4.05 3.74 5.3-.93 1.87-48.92 2.18-53.29 1.25-14.95 1.25-14.95l1.24-27.11s19 1.24 24.62.93 8.41-12.15 9-13.4a7.2 7.2 0 0 0 .62-2.8 48.91 48.91 0 0 0 2.8-9.66c.63-4.36-7.47-7.48-8.41-8.1s-5.61-2.81-5.61-2.81z" style="fill:#fff;stroke:#263238;stroke-linecap:round;stroke-linejoin:round"/><path d="M286 226c-.93-.62-5.61-2.81-5.61-2.81L233.67 222S219 237.56 219 244.1c0 4.59 1.23 8.57 4.22 14.51 4.79-4.82 16.47-13.91 30.68-6.1a59.91 59.91 0 0 1 10.21 6.95c6 .33 14.42.72 17.83.53 5.61-.31 8.41-12.15 9-13.4a7.2 7.2 0 0 0 .62-2.8 48.91 48.91 0 0 0 2.8-9.66c.7-4.36-7.36-7.48-8.36-8.13z" style="fill:#745cff;stroke:#263238;stroke-linecap:round;stroke-linejoin:round"/><path d="M227.75 239.12s12.16-3.74 24.31-1.56M236.17 240.36a30.45 30.45 0 0 1 13.08 2.81M260.78 235.38s10-5 24.62 0" style="fill:none;stroke:#263238;stroke-linecap:round;stroke-linejoin:round"/><path d="M250.27 162.86S227 164.17 226.38 165s-22.58 15.19-22.58 15.19l3.69 21.94 22.8-9.34s-.65 15.42-.87 20-1.95 7.38-.65 8.46 7.38 3.26 7.38 3.26h44.08s4.13-3.69 4.34-5-1.73-5.87-1.73-7.17V210s4.77 3 10 2.39a14.51 14.51 0 0 0 8-3.47s-2.39-15.64-2.82-20.2 1.52-18.45.21-18.89-21.49-4.56-26.7-6.08-21.26-.89-21.26-.89z" style="fill:#745cff;stroke:#263238;stroke-linecap:round;stroke-linejoin:round"/><path d="M257.11 179.15c7.37 0 13.35-5.4 13.35-12.05a11.1 11.1 0 0 0-.66-3.74c-6.36-1-19.53-.5-19.53-.5s-2.46.14-5.8.36a11 11 0 0 0-.72 3.88c0 6.65 5.98 12.05 13.36 12.05z" style="fill:#fff;stroke:#263238;stroke-linecap:round;stroke-linejoin:round"/><path style="fill:none;stroke:#263238;stroke-linecap:round;stroke-linejoin:round" d="m230.29 192.83-4.56-16.29M230.07 190.87l-6.73-10.85M282.84 209.98l3.91-12.59 2.17-12.81M287.83 194.13s3-6.3 5-11.07M255.69 224.31a57.25 57.25 0 0 0 14.31-5.86M263.29 220.4s4.13-3 9.12-7.16"/><path d="M247.44 167.86a14.6 14.6 0 0 0 .44-3.69c0-2.17-2-9.56-2-9.56s-9.77-.43-10.42-1.73 1.3-13 1.3-13-2.38-3.26-2.38-4.35 2.82-1.3 4.12-2.17 3.69-2.17 3.69-3.25 3.69-3.91 3.69-3.91 3.48-3.91 11.51-2.61 13.68 8.25 14.12 15-5 13.68-5.43 16.29.21 8.69 1.08 10.64" style="fill:#fff;stroke:#263238;stroke-linecap:round;stroke-linejoin:round"/><path style="fill:#263238;stroke:#263238;stroke-linecap:round;stroke-linejoin:round" d="m245.92 154.61 4.73-.4-3.92 3.59-.81-3.19zM244.62 127.25s-3.47-8.25 3.91-12.16 18.89 2.61 27.14 10.21 13.25 24.1 11.51 28-18 8.69-22.15 10-9.77 3.26-10.2 1.74-3.26-33.66-4.13-35.61-.65-5.43-6.08-2.18z"/><ellipse cx="244.95" cy="133.22" rx="1.63" ry=".76" transform="rotate(-62.6 245.321 132.712)" style="fill:#263238"/><path d="M237.89 142.89a3.41 3.41 0 0 0 3.69-.22M244.84 129.64s2.39-1.95 3.26 1.3" style="fill:none;stroke:#263238;stroke-linecap:round;stroke-linejoin:round"/><path d="m204 182-12.38-40.6s-2.17-5.87-4.13-8.25-5-6.3-6.51-7.17-1.74 1.09-1.09 2 2 2.82 2.83 3.9.87 4.78.87 4.78-4.56 5.43-2.83 7.17 6.3 5.42 6.3 5.42 5.43 41.26 5.65 44.73A4.37 4.37 0 0 0 196 198l10.21-2.39z" style="fill:#fff;stroke:#263238;stroke-linecap:round;stroke-linejoin:round"/><path d="m183.17 134.85-3 1.09s-2.37 5.12-2.37 6.21 2.37 2.69 3.67 2.69 2.39-5.21 2.39-5.21z" style="fill:#fff;stroke:#263238;stroke-linecap:round;stroke-linejoin:round"/><path d="M178.23 140.83s2.64 2 4.44 2M179.43 138.19a5.11 5.11 0 0 0 3.83 2.76" style="fill:none;stroke:#263238;stroke-linecap:round;stroke-linejoin:round"/><path d="M186.17 137s-3.43-.65-4.52 0-4.34 2.39-4.34 3 1.52 1.31 2.6.66a9.36 9.36 0 0 1 1.74-.87H183a5.12 5.12 0 0 0 4.78 4.34" style="fill:#fff;stroke:#263238;stroke-linecap:round;stroke-linejoin:round"/><path d="M260.47 308v14.95c0 7.17-3.12 13.72-1.56 15.9s6.23 2.8 10-.94 4.05-10 3.12-15.89-2.8-13.4-2.8-13.4-6.89-5.94-8.76-.62z" style="fill:#745cff;stroke:#263238;stroke-linecap:round;stroke-linejoin:round"/><path d="M283.22 260s.31-10.28-2.81-16.51-15.27-10.6-24.3-11.53-10.91 5.61-11.53 10.28 1.56 24 4 29.29 11.53 32.41 11.84 36.46 2.18 7.48 5.3 6.54 3.43-5.61 3.43-10.9.93-13.09 1.87-23.69a91.56 91.56 0 0 0 .31-16.2s6.28 1.86 11.89-3.74z" style="fill:#fff;stroke:#263238;stroke-linecap:round;stroke-linejoin:round"/><path d="M271.38 263.73s-1.87-14.64-9-21.81" style="fill:none;stroke:#263238;stroke-linecap:round;stroke-linejoin:round"/></g></svg>