<?xml version="1.0" encoding="UTF-8"?>
<!DOCTYPE svg PUBLIC "-//W3C//DTD SVG 1.1//EN" "http://www.w3.org/Graphics/SVG/1.1/DTD/svg11.dtd">
<svg xmlns="http://www.w3.org/2000/svg" version="1.1" width="1563px" height="1563px" style="shape-rendering:geometricPrecision; text-rendering:geometricPrecision; image-rendering:optimizeQuality; fill-rule:evenodd; clip-rule:evenodd" xmlns:xlink="http://www.w3.org/1999/xlink">
<g><path style="opacity:1" fill="#755eff" d="M 287.5,495.5 C 294.167,490.833 299.833,485.167 304.5,478.5C 317.414,467.089 329.914,455.089 342,442.5C 342.464,441.906 342.631,441.239 342.5,440.5C 373.915,407.584 405.915,375.084 438.5,343C 439.094,342.536 439.761,342.369 440.5,342.5C 460.449,324.218 479.783,305.218 498.5,285.5C 514.197,268.803 530.53,252.803 547.5,237.5C 549.749,236.92 551.415,235.587 552.5,233.5C 592.893,192.925 637.226,157.425 685.5,127C 708.873,113.488 733.873,104.154 760.5,99C 787.247,95.5414 813.247,98.5414 838.5,108C 858.964,115.898 878.297,125.898 896.5,138C 932.259,163.086 966.259,190.42 998.5,220C 1111.3,327.804 1221.8,437.971 1330,550.5C 1363.92,586.751 1395.25,625.084 1424,665.5C 1440.1,689.944 1452.1,716.277 1460,744.5C 1467.07,775.428 1465.07,805.761 1454,835.5C 1446.5,854.832 1437.17,873.165 1426,890.5C 1415.39,906.112 1404.39,921.445 1393,936.5C 1368.74,965.427 1343.74,993.76 1318,1021.5C 1208.41,1134.75 1096.58,1245.59 982.5,1354C 963.018,1370.57 943.351,1386.91 923.5,1403C 905.039,1416.12 886.039,1428.45 866.5,1440C 839.322,1455.25 810.155,1463.42 779,1464.5C 749.718,1463.31 722.218,1455.81 696.5,1442C 665.595,1424.76 636.595,1404.76 609.5,1382C 589.511,1365.01 569.844,1347.68 550.5,1330C 431.912,1216.41 316.412,1099.91 204,980.5C 180.475,953.648 158.475,925.648 138,896.5C 124.088,875.676 113.088,853.343 105,829.5C 94.2919,794.496 95.2919,759.829 108,725.5C 120.058,696.045 135.725,668.712 155,643.5C 196.067,591.588 240.234,542.255 287.5,495.5 Z M 773.5,134.5 C 800.569,133.925 826.569,139.758 851.5,152C 884.065,169.782 914.398,190.782 942.5,215C 958.798,228.963 974.798,243.296 990.5,258C 1091.72,355.891 1190.89,455.724 1288,557.5C 1301.04,572.207 1313.71,587.207 1326,602.5C 1344.43,625.294 1360.1,649.961 1373,676.5C 1392.87,720.782 1392.2,764.782 1371,808.5C 1358.34,832.495 1343.67,855.162 1327,876.5C 1293.96,916.197 1259.29,954.531 1223,991.5C 1147.78,1067.05 1072.28,1142.22 996.5,1217C 970.451,1241.05 943.784,1264.38 916.5,1287C 893.352,1305.42 868.352,1321.09 841.5,1334C 798.859,1352.52 756.525,1351.85 714.5,1332C 691.821,1320.67 670.488,1307.34 650.5,1292C 613.978,1262.15 578.644,1230.82 544.5,1198C 458.278,1112.44 372.778,1026.28 288,939.5C 261.108,910.284 236.108,879.618 213,847.5C 202.445,831.727 193.445,815.06 186,797.5C 172.821,763.428 171.821,729.428 183,695.5C 195.156,665.509 211.156,637.842 231,612.5C 248.916,589.913 267.583,567.913 287,546.5C 385.167,444.333 485.333,344.167 587.5,246C 616.853,218.841 647.853,193.841 680.5,171C 699.612,158.611 719.946,148.611 741.5,141C 752.162,138.101 762.829,135.935 773.5,134.5 Z"/></g>
<g><path style="opacity:1" fill="#8570ff" d="M 552.5,233.5 C 551.415,235.587 549.749,236.92 547.5,237.5C 548.585,235.413 550.251,234.08 552.5,233.5 Z"/></g>
<g><path style="opacity:1" fill="#7c66ff" d="M 498.5,285.5 C 479.783,305.218 460.449,324.218 440.5,342.5C 459.217,322.782 478.551,303.782 498.5,285.5 Z"/></g>
<g><path style="opacity:1" fill="#755eff" d="M 776.5,339.5 C 815.713,335.278 846.879,348.944 870,380.5C 886.766,407.554 890.099,436.221 880,466.5C 864.997,500.954 838.831,521.454 801.5,528C 761.733,543.106 737.9,571.606 730,613.5C 729.653,619.015 729.153,624.515 728.5,630C 730.431,644.315 732.097,658.648 733.5,673C 730.936,721.469 706.269,752.136 659.5,765C 616.899,772.031 583.399,757.864 559,722.5C 538.764,684.071 541.431,647.405 567,612.5C 584.531,592.98 606.364,581.147 632.5,577C 670.315,561.513 693.148,533.68 701,493.5C 703.094,477.001 702.094,460.668 698,444.5C 695.448,397.747 715.281,364.581 757.5,345C 763.911,342.985 770.244,341.152 776.5,339.5 Z"/></g>
<g><path style="opacity:1" fill="#7b65ff" d="M 342.5,440.5 C 342.631,441.239 342.464,441.906 342,442.5C 329.914,455.089 317.414,467.089 304.5,478.5C 316.833,465.5 329.5,452.833 342.5,440.5 Z"/></g>
<g><path style="opacity:1" fill="#816bff" d="M 304.5,478.5 C 299.833,485.167 294.167,490.833 287.5,495.5C 292.833,489.5 298.5,483.833 304.5,478.5 Z"/></g>
<g><path style="opacity:1" fill="#755eff" d="M 912.5,556.5 C 958.512,557.735 989.678,579.735 1006,622.5C 1009.38,634.282 1010.72,646.282 1010,658.5C 997.689,704.872 1008.86,744.372 1043.5,777C 1053.6,785.389 1064.94,791.723 1077.5,796C 1120.61,803.767 1148.11,828.601 1160,870.5C 1167.72,920.058 1149.22,955.891 1104.5,978C 1063.41,992.6 1027.57,984.434 997,953.5C 974.541,925.207 968.208,893.54 978,858.5C 980.491,806.624 958.324,769.79 911.5,748C 892.738,744.307 875.405,737.307 859.5,727C 823.15,695.769 813.317,657.602 830,612.5C 847.096,578.533 874.596,559.867 912.5,556.5 Z"/></g>
<g><path style="opacity:1" fill="#755eff" d="M 770.5,790.5 C 774.22,790.436 777.886,789.936 781.5,789C 782.056,788.617 782.389,788.117 782.5,787.5C 824.344,782.34 856.844,797.34 880,832.5C 895.514,862.015 896.514,892.015 883,922.5C 860.706,961.231 827.206,978.064 782.5,973C 766.55,970.189 752.217,963.856 739.5,954C 718.216,930.69 691.882,916.857 660.5,912.5C 656.217,911.173 651.551,910.507 646.5,910.5C 640.648,910.584 634.815,910.917 629,911.5C 627.319,911.608 626.152,912.275 625.5,913.5C 604.928,916.789 586.594,924.956 570.5,938C 539.257,972.561 501.591,982.228 457.5,967C 427.952,953.62 409.619,931.12 402.5,899.5C 403.08,895.351 402.414,891.684 400.5,888.5C 399.248,839.944 421.248,807.111 466.5,790C 495.289,781.976 522.289,785.976 547.5,802C 556.13,808.961 564.463,816.295 572.5,824C 610.381,850.791 651.047,855.791 694.5,839C 702.653,835.426 710.32,831.093 717.5,826C 727.541,816.957 737.874,808.29 748.5,800C 755.516,795.989 762.85,792.822 770.5,790.5 Z"/></g>
<g><path style="opacity:1" fill="#806aff" d="M 782.5,787.5 C 782.389,788.117 782.056,788.617 781.5,789C 777.886,789.936 774.22,790.436 770.5,790.5C 774.239,788.898 778.239,787.898 782.5,787.5 Z"/></g>
<g><path style="opacity:1" fill="#826cff" d="M 400.5,888.5 C 402.414,891.684 403.08,895.351 402.5,899.5C 401.097,896.091 400.43,892.425 400.5,888.5 Z"/></g>
<g><path style="opacity:1" fill="#7d65ff" d="M 660.5,912.5 C 648.786,911.03 637.119,911.363 625.5,913.5C 626.152,912.275 627.319,911.608 629,911.5C 634.815,910.917 640.648,910.584 646.5,910.5C 651.551,910.507 656.217,911.173 660.5,912.5 Z"/></g>
</svg>
