<?xml version="1.0" encoding="UTF-8"?>
<!DOCTYPE svg PUBLIC "-//W3C//DTD SVG 1.1//EN" "http://www.w3.org/Graphics/SVG/1.1/DTD/svg11.dtd">
<svg xmlns="http://www.w3.org/2000/svg" version="1.1" width="1563px" height="1563px" style="shape-rendering:geometricPrecision; text-rendering:geometricPrecision; image-rendering:optimizeQuality; fill-rule:evenodd; clip-rule:evenodd" xmlns:xlink="http://www.w3.org/1999/xlink">
<g><path style="opacity:1" fill="#fefefe" d="M 769.5,97.5 C 805.92,96.2496 839.92,104.75 871.5,123C 899.566,139.697 926.233,158.364 951.5,179C 966.833,192.333 982.167,205.667 997.5,219C 1110.64,327.138 1221.47,437.638 1330,550.5C 1363.98,586.8 1395.31,625.134 1424,665.5C 1440.1,689.944 1452.1,716.277 1460,744.5C 1467.08,775.42 1465.08,805.754 1454,835.5C 1443.5,861.502 1430.17,885.835 1414,908.5C 1394.76,933.746 1374.76,958.413 1354,982.5C 1322.14,1016.84 1289.8,1050.84 1257,1084.5C 1183.47,1158.36 1109.64,1231.86 1035.5,1305C 1003.42,1335.42 970.418,1364.75 936.5,1393C 909.868,1414.33 881.201,1432.66 850.5,1448C 810.084,1466.91 768.75,1469.24 726.5,1455C 691.203,1440.86 658.869,1421.86 629.5,1398C 616.316,1387.57 603.316,1376.91 590.5,1366C 577.141,1353.97 563.808,1341.97 550.5,1330C 437.971,1221.8 327.804,1111.3 220,998.5C 192.775,968.952 167.442,937.952 144,905.5C 125.224,879.279 111.224,850.612 102,819.5C 95.2778,790.889 96.2778,762.556 105,734.5C 112.187,713.697 121.52,694.03 133,675.5C 152.393,646.062 173.726,618.062 197,591.5C 225.934,559.23 255.6,527.564 286,496.5C 377.252,402.914 470.085,311.081 564.5,221C 593.336,194.822 623.336,170.156 654.5,147C 667.187,138.969 679.854,130.969 692.5,123C 716.662,109.715 742.329,101.215 769.5,97.5 Z M 773.5,134.5 C 800.57,133.925 826.57,139.759 851.5,152C 884.065,169.782 914.398,190.782 942.5,215C 953.833,225 965.167,235 976.5,245C 1082.67,346.835 1186.5,451.002 1288,557.5C 1301.04,572.207 1313.71,587.207 1326,602.5C 1344.43,625.294 1360.1,649.961 1373,676.5C 1393.72,723.303 1392.06,769.303 1368,814.5C 1355.82,836.196 1342.16,856.863 1327,876.5C 1293.97,916.156 1259.3,954.489 1223,991.5C 1149.81,1065.03 1076.31,1138.19 1002.5,1211C 974.585,1237.27 945.918,1262.61 916.5,1287C 893.352,1305.42 868.352,1321.09 841.5,1334C 798.853,1352.54 756.519,1351.87 714.5,1332C 691.821,1320.67 670.488,1307.34 650.5,1292C 613.978,1262.15 578.644,1230.82 544.5,1198C 458.611,1112.78 373.444,1026.94 289,940.5C 261.775,910.952 236.442,879.952 213,847.5C 197.92,825.337 186.587,801.337 179,775.5C 172.5,749.192 173.834,722.526 183,695.5C 195.17,665.476 211.17,637.81 231,612.5C 248.916,589.913 267.583,567.913 287,546.5C 384.833,444.667 484.667,344.833 586.5,247C 616.096,219.392 647.43,194.059 680.5,171C 700.728,157.72 722.395,147.387 745.5,140C 754.873,137.644 764.206,135.811 773.5,134.5 Z"/></g>
<g><path style="opacity:1" fill="#fefefe" d="M 776.5,339.5 C 821.802,335.23 855.302,352.897 877,392.5C 894.503,436.978 885.669,475.144 850.5,507C 843.826,512.341 836.493,516.675 828.5,520C 816.775,523.514 805.108,527.181 793.5,531C 752.339,550.939 730.673,583.939 728.5,630C 730.69,644.281 732.357,658.614 733.5,673C 730.954,718.876 707.954,749.209 664.5,764C 612.811,773.905 575.311,755.405 552,708.5C 537.234,664.052 547.734,626.885 583.5,597C 598.398,587.028 614.732,580.362 632.5,577C 668.229,562.266 690.729,536.1 700,498.5C 703.444,480.373 702.778,462.373 698,444.5C 694.777,408.476 707.277,379.309 735.5,357C 748.059,348.382 761.725,342.549 776.5,339.5 Z"/></g>
<g><path style="opacity:1" fill="#fefefe" d="M 912.5,556.5 C 967.902,559.685 1000.57,588.518 1010.5,643C 1010.57,648.298 1010.4,653.798 1010,659.5C 997.902,705.515 1009.07,744.682 1043.5,777C 1053.6,785.389 1064.94,791.723 1077.5,796C 1120.61,803.767 1148.11,828.601 1160,870.5C 1167.31,911.363 1154.47,944.196 1121.5,969C 1081.2,992.746 1042.54,990.412 1005.5,962C 976.291,933.005 967.124,898.505 978,858.5C 980.506,806.659 958.339,769.826 911.5,748C 892.738,744.307 875.405,737.307 859.5,727C 827.526,700.632 816.026,667.132 825,626.5C 838.938,584.056 868.105,560.723 912.5,556.5 Z"/></g>
<g><path style="opacity:1" fill="#fefefe" d="M 489.5,785.5 C 510.545,785.094 529.878,790.594 547.5,802C 556.833,810 566.167,818 575.5,826C 612.836,851.04 652.502,855.374 694.5,839C 702.653,835.426 710.32,831.093 717.5,826C 727.541,816.957 737.874,808.29 748.5,800C 794.22,776.153 835.053,782.653 871,819.5C 895.88,853.103 899.213,888.77 881,926.5C 853.263,968.086 815.096,982.252 766.5,969C 756.726,965.282 747.726,960.282 739.5,954C 698.165,911.252 649.832,900.918 594.5,923C 579.47,930.692 566.136,940.692 554.5,953C 515.664,980.884 476.33,981.551 436.5,955C 402.778,925.63 392.612,889.463 406,846.5C 422.045,809.906 449.878,789.573 489.5,785.5 Z"/></g>
</svg>
